<svg xmlns="http://www.w3.org/2000/svg" xmlns:xlink="http://www.w3.org/1999/xlink" viewBox="0 0 120 160"><g fill="#32D9D8"><path d="M57 49.3h2.5v88.1H57zm3.4-2.3H56a.8.8 0 0 0-.8.8.8.8 0 0 0 .8.9h4.3a.8.8 0 0 0 .8-.9.8.8 0 0 0-.8-.8zm-.7 90.9h-2.9a.5.5 0 0 0-.4.4c0 .2.2.4.4.5h2.8a.5.5 0 0 0 .4-.5.5.5 0 0 0-.3-.4z"/><path d="M70.6 17.4l2.7 12.2v2.8c0 2.2-.7 4.3-2 5.9a8.7 8.7 0 0 1-6.7 2.5h-4.5v3.4h.3a1.4 1.4 0 0 1 1.4 1.4c0 .5-.2.9-.5 1.1v.1c.3.3.5.7.5 1a1.4 1.4 0 0 1-1.4 1.5H60v88.1c.3.2.5.5.5 1 0 .4-.3.8-.8 1v.2a1.6 1.6 0 1 1-3.2-.2 1 1 0 0 1-.8-1c0-.5.2-.9.6-1V49.3h-.3c-.7 0-1.4-.7-1.4-1.4a1.4 1.4 0 0 1 .4-1l.2-.2a1.4 1.4 0 0 1-.6-1 1.4 1.4 0 0 1 1.4-1.5h.2v-3.4h-4.4c-3 0-5.2-1-6.6-2.6a8.6 8.6 0 0 1-2-5.8v-2.8l3-12.1h-1.8l4.2-5.1 1.2 6.5-1.4-.9-2.3 11.6v2.9c0 1.6.6 2.9 1.7 3.8s2.5 1.4 4.1 1.4h4.3V12l-2.7 1.2 4.5-10.3 4.7 10.3-2.7-1.2v25.8h4.4c1.6 0 3-.5 4.1-1.4a5 5 0 0 0 1.7-3.8v-3l-2-11.8-1.6.7 1.7-5.5.2-.5 3.8 5.2-1.8-.2z"/><path d="M57.2 139.2a1 1 0 0 0 0 .4 1 1 0 0 0 2 0 1 1 0 0 0 0-.4h-2zM68.6 17.1L71 29.6v2.9c0 1.8-.7 3.2-1.9 4.2a6.8 6.8 0 0 1-4.5 1.6h-5V11l2 .9-3.4-7.6-3.3 7.6 2-1v27.4H52c-1.8 0-3.4-.5-4.5-1.6a5.5 5.5 0 0 1-2-4.2v-3l2.7-12.2 1 .6-.8-4.4-2.8 3.5h1.2l-3 12.6v2.8c0 2 .7 4 2 5.4 1.3 1.5 3.3 2.4 6 2.4h5v4h2.7v-4h5.1c2.9 0 4.9-1 6.2-2.4a8 8 0 0 0 1.9-5.4v-2.8L70 16.9l1.4.2-2.6-3.6-1.3 4 1.1-.4zm-9.1 27.7H56a.8.8 0 0 0-.5 1.4.8.8 0 0 0 .5.2h4.3a.8.8 0 0 0 .8-.8.8.8 0 0 0-.8-.8h-1z"/></g><path fill="#FFF" d="M91 81.4a53 53 0 0 0-11.6-14.2 61.8 61.8 0 0 0-14-9.4 60.9 60.9 0 0 0-13.7-5c-1-.3-2.5-.5-3.4-.5-2.8 0-4.4 1.2-5.1 3.6-.8 2.7.4 6.1 2 6.1.8 0 2-.6 3.4-1.7 1-.9 1.2-1 1-.5l-.2 1.4c0 1.2-3.9 22-3.9 22l-4.8-.9s-4.1 6.3-4.9 9.3c-.4 1.8-.4 5.8 0 7.8.5 2.3 1.5 4.7 2.3 6.2a8 8 0 0 1 .7 7.7c-1.3 2.6-4.8 3.5-7.7 2-1.6-.8-2.4-2-2.3-3.7 0-1.5.3-2.4 1-2.7.8-.3 1.6-.2 2.2.4.5.5.6.7.6 1.7s0 1.1.5 1.5c1.4 1 3.3-.4 3.3-2.4 0-.8-1-2.8-1.8-3.3-.8-.6-2.9-1.1-3.9-1a7.6 7.6 0 0 0-5.3 4.5 7 7 0 0 0-.4 3.2c0 2 0 2.1.7 3.4 2.3 4.6 8.4 7.3 14 6.2 3.2-.7 9.2-3.7 10.3-4.8 1.2-1.1 1-2.3 1-2.3s-.8-4.2-.2-7.7c.2-1.5 1-2.1 1.3-2.7 1-1.4 2-2.3 3.8-3.2 1.5-.7 1.6-.7 3.6-.7a7 7 0 0 1 3.2.5c3 1.2 4.6 3.5 4.6 6.5 0 3.4-2.1 5.6-5.2 5.6s-5.4-1.8-5.4-4.4c0-1 .3-1.5 1-1.8 1.3-.5 2.4.1 2.7 1.5.3 1.5 1.8 2 2.9 1 1.8-1.7.6-4.7-2.3-5.6-2-.6-3.6-.1-5.4 1.6a6.3 6.3 0 0 0-2 5c0 2.5.7 4.4 2.5 6.2 2.1 2.1 5 3.1 8.7 3 4.9-.3 8.6-2.6 12.7-7.9.7-1 1-3.9.6-5s-3.5-2.3-4.6-4.5c-3-5.7.2-12.7 5.8-13.2 2.4-.2 5 .8 6.2 2.5a5 5 0 0 1 1 3c0 1.6-.4 3-1.2 4-1 1-2 1.5-3.6 1.5-2.5 0-3.6-.6-3.6-2 0-1.6 1-2.2 2.7-1.8 1.3.4 1.8.2 2-.8.3-.6.3-.9 0-1.4-.4-.8-1.7-1.5-2.8-1.5-2.8 0-4.8 3.6-3.8 7 .9 3 4.7 5 8.5 4.6 3.4-.4 7-3.8 8.5-8 .5-1.4.6-2.1.7-4 .1-3.7-.8-7.4-3-11.9z"/><path fill="#E9AD8D" d="M41 82.5l1.9 1c3.5 1.7 7.4 4.1 8.8 6.5l.6 1.1L54 91c3.8-.3 8.8-2 11.6-4 1.8-1.4 3-2.7 2.9-3.1l-.3-2.6c-.5-5.1.6-9.8 3-13l.9-1.1h-1a23 23 0 0 1-5.5 0c-.8-.2-1.5-.8-1.5-1.3l.5-1 .5-.8-1 .2c-1.6.4-4.4.6-5 .2-.9-.4-1-1-.6-2.1l.3-1-1.8.7c-4.8 1.7-7.4 1.3-7.4-1 0-.5 0-1.2.2-1.4.1-.5 0-.4-1 .5-1.5 1.1-2.8 1.8-3.5 1.8-.3 0-.5 0-.6-.2l-1.8 2.5-1.7 2.8a134.1 134.1 0 0 1 2.7 3.5c0 .2-1 1.7-3.2 4.8L37.4 80l1.2.3 2.2.6 1 .3-1.1 1.1.3.2z"/><path fill="#FFF" d="M53 73.2c0 .4-1 1-3 1.3-1.7.2-3-1.1-3-2 .2-.9 1.7-1.9 3.4-1.3 1.6.6 2.6 1.5 2.7 2z"/><path fill="#54D29E" d="M50 72.6c0 .5-.5 1-1 .9-.5 0-.9-.6-.8-1.1 0-.6.5-1 1-1 .5.1 1 .6.9 1.2z"/><path d="M49.5 47.9c1-4.6 1.5-8.7 2.3-19.2.3-3.8.5-4.9 1-5a106 106 0 0 1 1.4 27l-.2.6-2.1-.7-2.5-.8c-.3 0-.3-.2-.3-.2l.4-1.7zM62.3 51a15 15 0 0 1-.4 2.2c-.2.1-4-1.6-4.5-1.9a143.4 143.4 0 0 0 3.7-17.3c.7-4 1.2-5.5 1.7-5a98.8 98.8 0 0 1-.4 22zm8 .7c-.3 2.3-1 5-1 5a30 30 0 0 1-4.4-2.5l1-3c1-2.8 2-6.4 3.4-12.1 1-4.1 1.5-5.4 2-4.3.3 1-.3 13.3-1 17zm7.2 3.8c-.2 1.5-.6 3.4-.9 4.1l-.4 1.5-2-1.4-2-1.5.8-2.6c1.4-3.4 2-5.2 2.8-8.9a54 54 0 0 1 2-6.5c.2-.5.6.1.7 1.4.1 2.2-.5 11-1 13.9zm6.8 5.4c-.5 1.9-1.8 5.2-2 5.2-.1 0-2.2-1.6-2.8-2.3-.2 0 .5-1.6 1.3-3.3a94.8 94.8 0 0 0 3-6.4c2-5.1 2.7-6.2 2.7-4.2 0 1-1.6 8.7-2.2 11zM95 58.7a77 77 0 0 1-6 12.9l-.6.8-3-2.8 1.4-1.4c1.6-1.7 3-3.6 5-6.7 1.8-2.6 2.8-3.8 3.1-3.6.1.1.1.5 0 .8z" fill="#FFC766"/><path fill="#807443" d="M81.1 124.1a340.6 340.6 0 0 0-3.1 2.7l-.3-.2a353.7 353.7 0 0 1 3.2-2.7l.2.2z"/><path fill="#807443" d="M80.9 123.9a327.5 327.5 0 0 0-3.2 2.7l-.6-.4 3.2-2.7.6.4zm.3 3.2A448 448 0 0 0 78 130l.2-.3a440.5 440.5 0 0 1 3.2-2.7l-.2.2z"/><defs><path id="a" d="M75.5 126.4a417.7 417.7 0 0 1 3.2-2.7l.7-.4c.3 0 .6 0 .9.2l-3.2 2.7a1.5 1.5 0 0 0-1.6.2z"/></defs><clipPath id="b"><use xlink:href="#a" overflow="visible"/></clipPath><g clip-path="url(#b)"><path fill="#857846" d="M80.3 123.5l-3.2 2.7a1.5 1.5 0 0 0-.9-.1 1.4 1.4 0 0 0-.7.3 417.7 417.7 0 0 1 3.2-2.7l.7-.4c.3 0 .6 0 .9.2"/></g><path fill="#807443" d="M80.7 127.7a453.3 453.3 0 0 0-3.2 2.7l.5-.5a471.7 471.7 0 0 1 3.2-2.8l-.5.6z"/><defs><path id="c" d="M74.3 124.4a457.9 457.9 0 0 1 3.2-2.7 3.7 3.7 0 0 0-.9 1.1 528.9 528.9 0 0 0-3.2 2.7c.3-.5.6-.8 1-1.1z"/></defs><clipPath id="d"><use xlink:href="#c" overflow="visible"/></clipPath><g clip-path="url(#d)"><path fill="#857846" d="M76.6 122.8a528.9 528.9 0 0 0-3.2 2.7c.3-.5.6-.8 1-1.1a457.9 457.9 0 0 1 3-2.7 3.8 3.8 0 0 0-.8 1.1"/></g><defs><path id="e" d="M81.6 129.7a511.8 511.8 0 0 0-3.2 2.8 3 3 0 0 1-1.5.8c-1.1.1-2-.2-2.8-1a5.4 5.4 0 0 1-1.3-3.2 6 6 0 0 1 .6-3.6 528.9 528.9 0 0 1 3.2-2.7c-.6 1-.8 2.2-.6 3.5.1 1.4.6 2.5 1.3 3.2.7.9 1.7 1.2 2.7 1a3 3 0 0 0 1.6-.8z"/></defs><clipPath id="f"><use xlink:href="#e" overflow="visible"/></clipPath><g clip-path="url(#f)"><path fill="#857846" d="M81.6 129.7a511.8 511.8 0 0 0-3.2 2.8 3 3 0 0 1-1.5.8c-1.1.1-2-.2-2.8-1a5.4 5.4 0 0 1-1.3-3.2 6 6 0 0 1 .6-3.6 528.9 528.9 0 0 1 3.2-2.7c-.6 1-.8 2.2-.6 3.5.1 1.4.6 2.5 1.3 3.2.7.9 1.7 1.2 2.7 1a3 3 0 0 0 1.6-.8"/></g><path fill="#EBD57B" d="M79 121a3 3 0 0 1 2.7 1l.2.2-.3.9-.4 1c-.2 0-.2-.1-.3-.2l-.6-.4a1.5 1.5 0 0 0-1-.2c-.4.1-.8.5-1 1a3 3 0 0 0-.3 1.6c0 .7.3 1.3.6 1.6.3.5.7.7 1.3.6l.8-.4.5-.6.2-.2h.1l.6.7.4.7v.3c-.6 1-1.4 1.7-2.5 1.9-1 .2-2-.1-2.7-1a5.3 5.3 0 0 1-1.3-3.2c-.2-1.3 0-2.5.6-3.5s1.4-1.7 2.4-1.8z"/><path fill="#807443" d="M72.6 122.2l-3.2 2.8.1-.2a738 738 0 0 1 3.2-2.7l-.1.1z"/><defs><path id="g" d="M72.8 124.4l-3.1 2.7-.3-2.1 3.2-2.8.2 2.2z"/></defs><clipPath id="h"><use xlink:href="#g" overflow="visible"/></clipPath><g clip-path="url(#h)"><path fill="#857846" d="M72.8 124.4l-3.1 2.7-.3-2.1 3.2-2.8.2 2.2"/></g><path fill="#807443" d="M75.6 131c-1.3 1-2 1.6-3.2 2.8a8.7 8.7 0 0 0-.1 0l3.1-2.8h.2z"/><defs><path id="i" d="M73.3 130l-3.2 2.8a84.6 84.6 0 0 0-.2-3.6l-.2-2.1 3.1-2.7.3 2 .2 3.6z"/></defs><clipPath id="j"><use xlink:href="#i" overflow="visible"/></clipPath><g clip-path="url(#j)"><path fill="#857846" d="M73.3 130l-3.2 2.8-.2-3.6-.2-2.1 3.1-2.7.3 2 .2 3.6"/></g><defs><path id="k" d="M75.4 131l-3.1 2.8-1 .2-.9.1c1.3-1 1.9-1.6 3.2-2.8h1l.8-.3z"/></defs><clipPath id="l"><use xlink:href="#k" overflow="visible"/></clipPath><g clip-path="url(#l)"><path fill="#857846" d="M75.4 131l-3.1 2.8a6 6 0 0 1-1 .2l-.9.1c1.3-1 1.9-1.6 3.2-2.8h1l.8-.3"/></g><defs><path id="m" d="M73.4 131.2l-3.2 2.8a44.1 44.1 0 0 1 0-1.2l3.1-2.8.1 1.2z"/></defs><clipPath id="n"><use xlink:href="#m" overflow="visible"/></clipPath><g clip-path="url(#n)"><path fill="#857846" d="M73.4 131.2l-3.2 2.8a44.1 44.1 0 0 1 0-1.2l3.1-2.8.1 1.2"/></g><path fill="#807443" d="M73.6 131.3l-3.2 2.8-.2-.1 3.2-2.8.2.1z"/><path fill="#EBD57B" d="M74.8 122l.1 2 .2 2.2.2 2.3.3 2.3v.2h-.2a6 6 0 0 1-.9.2c-.5.1-.8.2-1 .1v-.1a45.1 45.1 0 0 1-.2-1.2 79 79 0 0 0-.2-3.5l-.3-2.1-.2-2.2.1-.1h.5l.5-.1h.5l.4-.2.2.1z"/><path fill="#807443" d="M69.5 122.8l-3.2 2.7.2-.2 3.1-2.8-.1.3z"/><defs><path id="o" d="M69.7 124.2l-3.2 2.7-.2-1.4 3.2-2.7.2 1.4z"/></defs><clipPath id="p"><use xlink:href="#o" overflow="visible"/></clipPath><g clip-path="url(#p)"><path fill="#857846" d="M69.7 124.2l-3.2 2.7-.2-1.4 3.2-2.7.2 1.4"/></g><defs><path id="q" d="M69.9 125.6l-3.2 2.8-.2-1.5 3.2-2.7.2 1.4z"/></defs><clipPath id="r"><use xlink:href="#q" overflow="visible"/></clipPath><g clip-path="url(#r)"><path fill="#857846" d="M69.9 125.6l-3.2 2.8-.2-1.5 3.2-2.7.2 1.4"/></g><path fill="#807443" d="M69.7 126l-3.1 2.7v-.3l3.3-2.7-.2.2zm2.7 5.5l-3.1 2.8a8.5 8.5 0 0 0-.2 0l3.2-2.8h.1zm-2.3-3l-3.2 2.8-.2-.3 3.2-2.7.2.2z"/><defs><path id="s" d="M72.3 131.5l-3.2 2.8-.9.2-1 .1c1.4-1 2-1.6 3.3-2.8h1l.8-.3z"/></defs><clipPath id="t"><use xlink:href="#s" overflow="visible"/></clipPath><g clip-path="url(#t)"><path fill="#857846" d="M72.3 131.5l-3.2 2.8-.9.2-1 .1c1.4-1 2-1.6 3.3-2.8h1l.8-.3"/></g><defs><path id="u" d="M70.3 131.7c-1.3 1-1.9 1.6-3.2 2.8a40.8 40.8 0 0 1 0-1.6l-.2-1.6 3.2-2.8a30.8 30.8 0 0 1 .2 3.2z"/></defs><clipPath id="v"><use xlink:href="#u" overflow="visible"/></clipPath><g clip-path="url(#v)"><path fill="#857846" d="M70.3 131.7c-1.3 1-1.9 1.6-3.2 2.8a39 39 0 0 1 0-1.6 37.5 37.5 0 0 0-.2-1.6l3.2-2.8a30.9 30.9 0 0 1 .2 3.2"/></g><path fill="#807443" d="M70.5 131.8a1440.1 1440.1 0 0 1-3.2 2.8l-.2-.1 3.2-2.8.2.1z"/><defs><path id="w" d="M70 128.3l-3.2 2.7-1.3.1-1.3.3 3.2-2.8 1.3-.2c.7-.1 1.1-.2 1.2-.1z"/></defs><clipPath id="x"><use xlink:href="#w" overflow="visible"/></clipPath><g clip-path="url(#x)"><path fill="#857846" d="M70 128.3l-3.2 2.7-1.3.1-1.3.3 3.2-2.8 1.3-.2c.7-.1 1.1-.2 1.2-.1"/></g><path fill="#807443" d="M64.7 123.4l-3.2 2.7.1-.2 3.2-2.7v.2z"/><defs><path id="y" d="M65 125.7a1022.1 1022.1 0 0 1-3.2 2.7 78.8 78.8 0 0 1-.3-2.3l3.2-2.7.3 2.3z"/></defs><clipPath id="z"><use xlink:href="#y" overflow="visible"/></clipPath><g clip-path="url(#z)"><path fill="#857846" d="M65 125.7a1022.1 1022.1 0 0 1-3.2 2.7 78.8 78.8 0 0 1-.3-2.3l3.2-2.7.3 2.3"/></g><defs><path id="A" d="M65.4 130.2a584.5 584.5 0 0 1-3.2 2.7l-.2-2.1a36.2 36.2 0 0 0-.2-2.4 1354.6 1354.6 0 0 0 3.2-2.7l.2 2.3.2 2.2z"/></defs><clipPath id="B"><use xlink:href="#A" overflow="visible"/></clipPath><g clip-path="url(#B)"><path fill="#857846" d="M65.4 130.2a584.5 584.5 0 0 1-3.2 2.7l-.2-2.1a36.2 36.2 0 0 0-.2-2.4 1354.6 1354.6 0 0 0 3.2-2.7l.2 2.3.2 2.2"/></g><g><defs><path id="C" d="M67.6 132.3a760.2 760.2 0 0 1-3.2 2.8l-1 .1-.9.1a580.5 580.5 0 0 0 3.2-2.7l.9-.1 1-.2z"/></defs><clipPath id="D"><use xlink:href="#C" overflow="visible"/></clipPath><g clip-path="url(#D)"><path fill="#857846" d="M67.6 132.3a760.2 760.2 0 0 1-3.2 2.8l-1 .1-.9.1a580.5 580.5 0 0 0 3.2-2.7l.9-.1 1-.2"/></g></g><g><defs><path id="E" d="M65.5 132.4l-3.2 2.8-.1-2.3a734.8 734.8 0 0 0 3.2-2.7l.1 2.2z"/></defs><clipPath id="F"><use xlink:href="#E" overflow="visible"/></clipPath><g clip-path="url(#F)"><path fill="#857846" d="M65.5 132.4l-3.2 2.8-.1-2.3a734.8 734.8 0 0 0 3.2-2.7l.1 2.2"/></g></g><g><path fill="#807443" d="M65.7 132.6a580.5 580.5 0 0 1-3.2 2.7l-.2-.1 3.2-2.8.2.2z"/></g><g><path fill="#EBD57B" d="M71.4 122.3h.2l.2 2.4.2 2.3.2 2.1.3 2.2v.2h-.2l-.9.2c-.5.1-.8.2-1 .1v-.1l-.2-1.6a30.9 30.9 0 0 0-.1-1.6l-.2-.2h-1.2l-1.3.3v.3a34.2 34.2 0 0 0 .3 3.1l-.1.3-1 .2h-1.1l-.1-2.3a32.7 32.7 0 0 0-.2-2.2c0-.5 0-1.3-.2-2.3l-.3-2.3v-.2h1.1l.4-.2h.6l.1 1.6.1 1.5.1.2 1.4-.1 1.2-.3.2-.2-.2-1.5-.2-1.4.1-.3h.9l.5-.1.4-.1z"/></g><g><defs><path id="G" d="M64.2 125.5l-3.2 2.7-1.5.2 3.2-2.8 1.5-.1z"/></defs><clipPath id="H"><use xlink:href="#G" overflow="visible"/></clipPath><g clip-path="url(#H)"><path fill="#857846" d="M64.2 125.5l-3.2 2.7-1.5.2 3.2-2.8 1.5-.1"/></g><path fill="#807443" d="M63.3 132.9a439.7 439.7 0 0 1-3.2 2.7H60a415.8 415.8 0 0 0 3.2-2.7h.1zm-4.4-8.4a462 462 0 0 1-3.2 2.7l.1-.5L59 124v.5z"/><path fill="#807443" d="M59 125.1a435.7 435.7 0 0 1-3.3 2.7v-.6a462 462 0 0 0 3.2-2.7v.6z"/><path fill="#807443" d="M58.9 125.7a434.3 434.3 0 0 1-3.2 2.7v-.6a435.7 435.7 0 0 0 3.2-2.7v.6z"/><defs><path id="I" d="M60.6 126a467.1 467.1 0 0 1-3.2 2.7l-1.6.3a411 411 0 0 0 3.1-2.7l1.7-.3z"/></defs><clipPath id="J"><use xlink:href="#I" overflow="visible"/></clipPath><g clip-path="url(#J)"><path fill="#857846" d="M60.6 126a467.1 467.1 0 0 1-3.2 2.7l-1.6.3a411 411 0 0 0 3.1-2.7l1.7-.3"/></g><defs><path id="K" d="M61 130.6a391.8 391.8 0 0 1-3.2 2.8l-.2-2.4-.2-2.3a492.7 492.7 0 0 0 3.2-2.7l.2 2.3.2 2.3z"/></defs><clipPath id="L"><use xlink:href="#K" overflow="visible"/></clipPath><g clip-path="url(#L)"><path fill="#857846" d="M61 130.6a391.8 391.8 0 0 1-3.2 2.8 84 84 0 0 0-.4-4.7 492.7 492.7 0 0 0 3.2-2.7l.2 2.3.2 2.3"/></g><path fill="#807443" d="M59 126.3a393 393 0 0 1-3.2 2.7h-.1a393 393 0 0 0 3.2-2.8v.1zM58.9 126.2a411 411 0 0 1-3.2 2.7v-.5a414.3 414.3 0 0 0 3.2-2.7v.5z"/><defs><path id="M" d="M63.2 133a415.8 415.8 0 0 1-3.2 2.7l-1 .1-.9.1a341.8 341.8 0 0 0 3.2-2.7l1-.1c.4 0 .7 0 .9-.2z"/></defs><clipPath id="N"><use xlink:href="#M" overflow="visible"/></clipPath><g clip-path="url(#N)"><path fill="#857846" d="M63.2 133a415.8 415.8 0 0 1-3.2 2.7l-1 .1-.9.1a341.8 341.8 0 0 0 3.2-2.7l1-.1c.4 0 .7 0 .9-.2"/></g><path fill="#807443" d="M61.3 133.2a341.8 341.8 0 0 1-3.2 2.7l-.1-.2 3.2-2.7.1.2z"/><g><path fill="#EBD57B" d="M64 123.2v.2l.1.5v.5l.1.5.1.5c-.2.1-.7.2-1.6.2a92.8 92.8 0 0 0 .4 4.8 37.8 37.8 0 0 1 .2 2.3v.2a8.2 8.2 0 0 0-.1 0l-1 .2-.9.1-.1-.2-.2-2.4-.2-2.3-.2-2.3-1.7.3V124.4l.1-.5a18.2 18.2 0 0 0 4.3-.6c.4 0 .6-.1.6-.2z"/></g><g><defs><path id="O" d="M61.2 133a354.7 354.7 0 0 1-3.2 2.7 38.4 38.4 0 0 1-.2-2.3 391.8 391.8 0 0 0 3.2-2.8l.2 2.4z"/></defs><clipPath id="P"><use xlink:href="#O" overflow="visible"/></clipPath><g clip-path="url(#P)"><path fill="#857846" d="M61.2 133a354.7 354.7 0 0 1-3.2 2.7 38.4 38.4 0 0 1-.2-2.3 391.8 391.8 0 0 0 3.2-2.8l.2 2.4"/></g></g></g><g><path fill="#807443" d="M56.3 124.6a369 369 0 0 1-3.2 2.7v-.2a338.8 338.8 0 0 0 3.2-2.6v.1z"/><defs><path id="Q" d="M56.2 127.6a318.7 318.7 0 0 1-3.2 2.7l.4-1-.2-1v-1a351.9 351.9 0 0 0 3.1-2.7l.1 1 .2 1-.4 1z"/></defs><clipPath id="R"><use xlink:href="#Q" overflow="visible"/></clipPath><g clip-path="url(#R)"><path fill="#857846" d="M56.2 127.6a318.7 318.7 0 0 1-3.2 2.7l.4-1-.2-1v-1a351.9 351.9 0 0 0 3.1-2.7l.1 1 .2 1-.4 1"/></g><defs><path id="S" d="M55.7 128.7a281.7 281.7 0 0 1-3.2 2.6l.5-1a318.7 318.7 0 0 0 3.2-2.7l-.5 1z"/></defs><clipPath id="T"><use xlink:href="#S" overflow="visible"/></clipPath><g clip-path="url(#T)"><path fill="#857846" d="M55.7 128.7a281.7 281.7 0 0 1-3.2 2.6l.5-1a318.7 318.7 0 0 0 3.2-2.7l-.5 1"/></g><path fill="#807443" d="M57.2 133.7a261.4 261.4 0 0 1-3.2 2.6h-.2a259.7 259.7 0 0 0 3.2-2.6h.2zm-5-8.5a270 270 0 0 1-3.2 2.6l.1-.2a260.7 260.7 0 0 0 3.2-2.7v.3zm2.7 6.4a242.2 242.2 0 0 1-3.2 2.6l-.2-.4a250.2 250.2 0 0 0 3.2-2.6l.2.4z"/><defs><path id="U" d="M52.4 126.3a257.6 257.6 0 0 1-3.2 2.7l-.2-1.2a268.3 268.3 0 0 0 3.2-2.6c0 .2 0 .6.2 1.1z"/></defs><clipPath id="V"><use xlink:href="#U" overflow="visible"/></clipPath><g clip-path="url(#V)"><path fill="#857846" d="M52.4 126.3a257.6 257.6 0 0 1-3.2 2.7l-.2-1.2a268.3 268.3 0 0 0 3.2-2.6c0 .2 0 .6.2 1.1"/></g><defs><path id="W" d="M52.5 127.5a247.8 247.8 0 0 1-3.2 2.6l-.1-1.1a257.6 257.6 0 0 0 3.2-2.7v1.2z"/></defs><clipPath id="X"><use xlink:href="#W" overflow="visible"/></clipPath><g clip-path="url(#X)"><path fill="#857846" d="M52.5 127.5a247.8 247.8 0 0 1-3.2 2.6l-.1-1.1a257.6 257.6 0 0 0 3.2-2.7v1.2"/></g><path fill="#807443" d="M52.6 128a247.5 247.5 0 0 1-3.2 2.5 67 67 0 0 1-.1-.4 256.4 256.4 0 0 0 3.2-2.6l.1.4z"/><defs><path id="Y" d="M54.7 131.2a242 242 0 0 1-3.2 2.6 91 91 0 0 1-2-3.3 263.7 263.7 0 0 0 3.1-2.6 90.8 90.8 0 0 0 2.1 3.3z"/></defs><clipPath id="Z"><use xlink:href="#Y" overflow="visible"/></clipPath><g clip-path="url(#Z)"><path fill="#857846" d="M54.7 131.2a242 242 0 0 1-3.2 2.6 91 91 0 0 1-2-3.3 263.7 263.7 0 0 0 3.1-2.6 90.8 90.8 0 0 0 2.1 3.3"/></g><defs><path id="aa" d="M57 133.7a261.3 261.3 0 0 1-3.2 2.7l-.9.1h-1a245.9 245.9 0 0 0 3.2-2.5l1-.1 1-.2z"/></defs><clipPath id="ab"><use xlink:href="#aa" overflow="visible"/></clipPath><g clip-path="url(#ab)"><path fill="#857846" d="M57 133.7a261.3 261.3 0 0 1-3.2 2.7l-.9.1h-1a245.9 245.9 0 0 0 3.2-2.5l1-.1 1-.2"/></g><g><path fill="#807443" d="M55.1 134a226 226 0 0 1-3.2 2.6l-.1-.2a224.4 224.4 0 0 0 3.2-2.6l.1.2z"/></g><g><path fill="#EBD57B" d="M58.3 124.1l.2.3v1l.2 1.1v.6a24.4 24.4 0 0 1-1.6 3.8l-.1.5.1 1 .1 1.1v.2H57l-.9.2h-1l-.1-.1v-1l-.1-1.2-.2-.4a93.4 93.4 0 0 1-2-3.3l-.2-.4-.1-1.2-.2-1.1.1-.3h1l1-.2v.1l.1 1v1l.6 1 .7.9.5-1 .4-1-.2-1-.1-1v-.2h.2l.9-.2 1-.2z"/></g><g><defs><path id="ac" d="M55 133.8a225.7 225.7 0 0 1-3.2 2.6v-1l-.1-1.2a257.6 257.6 0 0 0 3.2-2.6v2.2z"/></defs><clipPath id="ad"><use xlink:href="#ac" overflow="visible"/></clipPath><g clip-path="url(#ad)"><path fill="#857846" d="M55 133.8a225.7 225.7 0 0 1-3.2 2.6v-1l-.1-1.2a257.6 257.6 0 0 0 3.2-2.6v2.2"/></g></g></g><g><path fill="#807443" d="M49.5 125.5a224 224 0 0 1-3.2 2.6l.2-.3 3.2-2.6-.2.3zm.4 4.8a194.8 194.8 0 0 1-3.2 2.5v-.2a205 205 0 0 0 3.2-2.5v.2z"/><defs><path id="ae" d="M48.3 129.8a187.6 187.6 0 0 1-3.2 2.5l1.2-4.2 3.2-2.6-1.2 4.3z"/></defs><clipPath id="af"><use xlink:href="#ae" overflow="visible"/></clipPath><g clip-path="url(#af)"><path fill="#857846" d="M48.3 129.8a187.6 187.6 0 0 1-3.2 2.5l1.2-4.2 3.2-2.6-1.2 4.3"/></g><path fill="#807443" d="M52.2 134.3a195 195 0 0 1-3.2 2.5l-1.8.2a173.1 173.1 0 0 0 3.2-2.5l1.8-.2z"/><defs><path id="ag" d="M50.2 134.3a177.2 177.2 0 0 1-3.2 2.5 57.7 57.7 0 0 1-.1-2l-.2-2a194.8 194.8 0 0 0 3.2-2.5l.2 2v2z"/></defs><clipPath id="ah"><use xlink:href="#ag" overflow="visible"/></clipPath><g clip-path="url(#ah)"><path fill="#857846" d="M50.2 134.3a177.2 177.2 0 0 1-3.2 2.5 57.7 57.7 0 0 1-.1-2l-.2-2a194.8 194.8 0 0 0 3.2-2.5l.2 2v2"/></g><path fill="#807443" d="M50.4 134.5a182 182 0 0 1-3.2 2.5l-.2-.2a172.8 172.8 0 0 0 3.2-2.5l.2.2zm-2.3-4.2a187 187 0 0 1-3.2 2.5l.2-.5 3.2-2.5-.2.5zm.6 4.4a165 165 0 0 1-3.2 2.5h-.2a160.6 160.6 0 0 0 3.2-2.4h.2zm-2.4-4a164.9 164.9 0 0 1-3.2 2.4 165 165 0 0 0 3.2-2.5z"/><defs><path id="ai" d="M47.2 132.7A160.7 160.7 0 0 1 44 135a27.3 27.3 0 0 0-1-2 164.9 164.9 0 0 0 3.3-2.4l1 2z"/></defs><clipPath id="aj"><use xlink:href="#ai" overflow="visible"/></clipPath><g clip-path="url(#aj)"><path fill="#857846" d="M47.2 132.7A160.7 160.7 0 0 1 44 135a27.3 27.3 0 0 0-1-2 164.9 164.9 0 0 0 3.3-2.4l1 2"/></g><path fill="#807443" d="M48.5 134.8a157.8 157.8 0 0 1-3.2 2.4h-.4a160.5 160.5 0 0 0 3.2-2.5h.4z"/><defs><path id="ak" d="M48.1 134.7A160.5 160.5 0 0 1 45 137l-.9-2a163.7 163.7 0 0 0 3.2-2.4l1 2z"/></defs><clipPath id="al"><use xlink:href="#ak" overflow="visible"/></clipPath><g clip-path="url(#al)"><path fill="#857846" d="M48.1 134.7A160.5 160.5 0 0 1 45 137l-.9-2a163.7 163.7 0 0 0 3.2-2.4l1 2"/></g><path fill="#807443" d="M43.9 126.2a162.4 162.4 0 0 1-3.2 2.5v-.1a173.5 173.5 0 0 0 3.2-2.5z"/><path fill="#807443" d="M43.9 126a162.2 162.2 0 0 1-3.2 2.6l.2-.2a170.6 170.6 0 0 0 3.2-2.5l-.2.2z"/><defs><path id="am" d="M44 127.7a160 160 0 0 1-3.1 2.5l-.2-1.5 3.2-2.5.2 1.5z"/></defs><clipPath id="an"><use xlink:href="#am" overflow="visible"/></clipPath><g clip-path="url(#an)"><path fill="#857846" d="M44 127.7a160 160 0 0 1-3.1 2.5l-.2-1.5 3.2-2.5.2 1.5"/></g><defs><path id="ao" d="M44.5 132.7a147.6 147.6 0 0 1-3.2 2.4L41 133l-.2-2.8 3.2-2.5.2 2.8.2 2.2z"/></defs><clipPath id="ap"><use xlink:href="#ao" overflow="visible"/></clipPath><g clip-path="url(#ap)"><path fill="#857846" d="M44.5 132.7a147.6 147.6 0 0 1-3.2 2.4L41 133l-.2-2.8 3.2-2.5.2 2.8.2 2.2"/></g><path fill="#807443" d="M46.5 134.8a149.6 149.6 0 0 1-3.2 2.4l-1.8.1a136.6 136.6 0 0 0 3.3-2.3l1.7-.2z"/><g><defs><path id="aq" d="M44.6 134.8a137.3 137.3 0 0 1-3.2 2.3 29.9 29.9 0 0 1-.1-2 151 151 0 0 0 3.2-2.4v2z"/></defs><clipPath id="ar"><use xlink:href="#aq" overflow="visible"/></clipPath><g clip-path="url(#ar)"><path fill="#857846" d="M44.6 134.8a137.3 137.3 0 0 1-3.2 2.3 29.9 29.9 0 0 1-.1-2 151 151 0 0 0 3.2-2.4v2"/></g></g><g><path fill="#807443" d="M44.8 135a136.6 136.6 0 0 1-3.3 2.3 136.4 136.4 0 0 0 3.1-2.4h.2z"/></g><g><path fill="#EBD57B" d="M51.4 125l.2.1.1 2.3a83.7 83.7 0 0 0 .4 4.5l.2 2.2-.1.2-1.8.2-.2-.2a55.4 55.4 0 0 1-.1-2l-.2-2v-.2l-.6 2-.5 2.5-.1.1H48l-.9-2-.9-2v-.1.2l.1 1.9.2 1.9-.1.2-1.8.2-.1-.2a31.5 31.5 0 0 1-.1-2.1l-.2-2.2-.3-2.7-.1-1.6v-.1l.2-.2h.8c.4-.2.7-.2.9-.2l.1.2 1.9 4 .3.4.2-.5 1.2-4.3.2-.3h.9l.4-.2h.4z"/></g><g><path fill="#807443" d="M44.6 135a136.4 136.4 0 0 1-3.2 2.3v-.2a139.4 139.4 0 0 0 3.2-2.3v.1z"/></g></g><g><path fill="#807443" d="M105 131.6a134.6 134.6 0 0 0-3 2.7v-.3a131.5 131.5 0 0 1 3.2-2.6l-.1.2z"/><defs><path id="as" d="M105.6 134.8a158.8 158.8 0 0 0-3.1 2.8l-.3-1.7-.2-1.6a134.6 134.6 0 0 1 3-2.7l.3 1.6.3 1.6z"/></defs><clipPath id="at"><use xlink:href="#as" overflow="visible"/></clipPath><g clip-path="url(#at)"><path fill="#857846" d="M105.6 134.8a158.8 158.8 0 0 0-3.1 2.8l-.3-1.7-.2-1.6a134.6 134.6 0 0 1 3-2.7l.3 1.6.3 1.6"/></g><path fill="#807443" d="M105.6 135.2a157.3 157.3 0 0 0-3.1 2.8v-.4a155.6 155.6 0 0 1 3-2.8v.4zm2.1 2.7a174.7 174.7 0 0 0-3.1 3h-.4a161.8 161.8 0 0 1 3.1-2.9h.4z"/><path fill="#807443" d="M107.3 138a175.2 175.2 0 0 0-3 3l-.4.1a172.9 172.9 0 0 1 3-3h.4z"/><path fill="#807443" d="M107 138.2a180 180 0 0 0-3.1 2.9l-.4.1a176.7 176.7 0 0 1 3-2.9l.5-.1z"/><path fill="#807443" d="M106.6 138.3a184 184 0 0 0-3.1 3h-.4a180.8 180.8 0 0 1 3-2.9l.5-.1zm-.4.1a184.3 184.3 0 0 0-3.1 3l-.3-.1 3.1-3 .3.1z"/><defs><path id="au" d="M106 138.3a184.3 184.3 0 0 0-3.2 3l-1.9-1.8a179.2 179.2 0 0 1 3.1-2.8l2 1.6z"/></defs><clipPath id="av"><use xlink:href="#au" overflow="visible"/></clipPath><g clip-path="url(#av)"><path fill="#857846" d="M106 138.3a184.3 184.3 0 0 0-3.2 3l-1.9-1.8a179.2 179.2 0 0 1 3.1-2.8l2 1.6"/></g><defs><path id="aw" d="M104 136.7a179.2 179.2 0 0 0-3 2.8l-1.3-1.1 3-2.9 1.3 1.2z"/></defs><clipPath id="ax"><use xlink:href="#aw" overflow="visible"/></clipPath><g clip-path="url(#ax)"><path fill="#857846" d="M104 136.7a179.2 179.2 0 0 0-3 2.8l-1.3-1.1 3-2.9 1.3 1.2"/></g><path fill="#807443" d="M102.8 135.5a176.4 176.4 0 0 0-3.1 2.9h-.1a176.7 176.7 0 0 1 3.1-3v.1zM100.3 132.7a170 170 0 0 0-3.1 2.7l.2-.1a170 170 0 0 1 3-2.8l-.1.2zM103 139.5a217.8 217.8 0 0 0-3 3l-1.8.6a237.4 237.4 0 0 1 3.1-3l1.8-.6z"/><defs><path id="ay" d="M101.1 140a244.2 244.2 0 0 0-3 3l-.2-1.9-.2-1.8-.2-2-.3-1.9a170 170 0 0 1 3.1-2.7l.3 1.9.2 1.8.2 1.8.1 1.8z"/></defs><clipPath id="az"><use xlink:href="#ay" overflow="visible"/></clipPath><g clip-path="url(#az)"><path fill="#857846" d="M101.1 140a244.2 244.2 0 0 0-3 3l-.2-1.9-.2-1.8-.2-2-.3-1.9a170 170 0 0 1 3.1-2.7l.3 1.9.2 1.8.2 1.8.1 1.8"/></g><g><path fill="#EBD57B" d="M102 132l.2.1a81.4 81.4 0 0 0 2.3 2.2l.8.9h.3v-.4l-.3-1.6c-.2-.7-.2-1.2-.2-1.6v-.2l1-.3 1-.2v.1l.2 1.7.1 1.8.4 3.2-.1.2-.4.1-.3.2-.4.1-.4.1h-.3l-1.9-1.7-1.2-1.2-.1.1.2 1.9.3 1.8-.1.2-1.8.6-.1-.1-.2-1.8-.1-1.8-.3-1.8-.3-1.9.2-.2c.2 0 .4 0 .7-.2l.4-.1.4-.2z"/></g><g><path fill="#807443" d="M101.3 140.1a251.4 251.4 0 0 0-3.1 3l-.2-.1a237.4 237.4 0 0 1 3.1-3l.2.1z"/></g></g><g><defs><path id="aA" d="M92.3 138.7a260.5 260.5 0 0 1 3.1-2.8l.7-.4c.5-.1 1 0 1.3.3.3.3.6.8.6 1.3s0 1-.3 1.6a261 261 0 0 0-3.1 2.9c.3-.5.4-1 .3-1.6s-.3-1-.6-1.3a1.4 1.4 0 0 0-1.4-.3 1.6 1.6 0 0 0-.6.3z"/></defs><clipPath id="aB"><use xlink:href="#aA" overflow="visible"/></clipPath><g clip-path="url(#aB)"><path fill="#857846" d="M97.7 138.7a261 261 0 0 0-3.1 2.9c.3-.5.4-1 .3-1.6s-.3-1-.6-1.3c-.4-.4-.9-.5-1.4-.3l-.6.3a260.5 260.5 0 0 1 3.1-2.8l.7-.4c.5-.1 1 0 1.3.3.3.3.6.8.6 1.3s0 1-.3 1.6"/></g><defs><path id="aC" d="M97.2 139.3a280.6 280.6 0 0 0-3 3l.4-.7a278.3 278.3 0 0 1 3.1-3 2.5 2.5 0 0 1-.5.7z"/></defs><clipPath id="aD"><use xlink:href="#aC" overflow="visible"/></clipPath><g clip-path="url(#aD)"><path fill="#857846" d="M97.2 139.3a280.6 280.6 0 0 0-3 3l.4-.7a278.3 278.3 0 0 1 3.1-3 2.5 2.5 0 0 1-.5.7"/></g><defs><path id="aE" d="M91 137a254.4 254.4 0 0 1 3.2-2.8 4.4 4.4 0 0 0-.9 1 267.7 267.7 0 0 0-3 3c.2-.5.4-.9.8-1.2z"/></defs><clipPath id="aF"><use xlink:href="#aE" overflow="visible"/></clipPath><g clip-path="url(#aF)"><path fill="#857846" d="M93.3 135.3a267.7 267.7 0 0 0-3 2.8 4.6 4.6 0 0 1 .8-1 254.4 254.4 0 0 1 3.1-2.9l-.9 1"/></g><defs><path id="aG" d="M98.5 140.8a297 297 0 0 0-3.1 3 4.3 4.3 0 0 1-1.7 1c-1 .4-2 .2-2.8-.4a391.8 391.8 0 0 1 3.1-3c.8.6 1.7.7 2.8.4a4.4 4.4 0 0 0 1.7-1z"/></defs><clipPath id="aH"><use xlink:href="#aG" overflow="visible"/></clipPath><g clip-path="url(#aH)"><path fill="#857846" d="M98.5 140.8a297 297 0 0 0-3.1 3 4.3 4.3 0 0 1-1.7 1c-1 .4-2 .2-2.8-.4a391.8 391.8 0 0 1 3.1-3c.8.6 1.7.7 2.8.4a4.4 4.4 0 0 0 1.7-1"/></g><g><defs><path id="aI" d="M94 141.4a410.3 410.3 0 0 0-3.1 3 4 4 0 0 1-1.4-2.8c-.1-1.3.1-2.4.7-3.5a276.9 276.9 0 0 1 3.2-2.8c-.6 1-.9 2.1-.7 3.3.1 1.2.6 2.2 1.3 2.8z"/></defs><clipPath id="aJ"><use xlink:href="#aI" overflow="visible"/></clipPath><g clip-path="url(#aJ)"><path fill="#857846" d="M94 141.4a410.3 410.3 0 0 0-3.1 3 4 4 0 0 1-1.4-2.8c-.1-1.3.1-2.4.7-3.5a276.9 276.9 0 0 1 3.2-2.8c-.6 1-.9 2.1-.7 3.3.1 1.2.6 2.2 1.3 2.8"/></g></g><g><path fill="#EBD57B" d="M98.6 134c.8.6 1.2 1.5 1.4 2.6a5 5 0 0 1-.7 3.2c-.6 1-1.4 1.6-2.5 2-1 .3-2 .2-2.8-.4a3.9 3.9 0 0 1-1.3-2.8c-.2-1.2 0-2.3.6-3.3s1.5-1.7 2.5-2c1-.2 2 0 2.8.7zm-.9 4.7c.3-.5.4-1 .3-1.6s-.3-1-.6-1.3c-.4-.3-.8-.4-1.3-.3-.5.1-.9.5-1.2 1-.2.5-.4 1-.3 1.6s.3 1 .6 1.3c.4.4.8.4 1.3.3a2 2 0 0 0 1.2-1"/></g></g><g><path fill="#807443" d="M89.3 135.3a350.6 350.6 0 0 0-3.1 2.8v-.2a381.4 381.4 0 0 1 3.2-2.8v.2zm3 7.6a581 581 0 0 0-3.2 3l-.1.1a515 515 0 0 1 3.1-3h.2z"/><defs><path id="aK" d="M92.1 143l-3.1 3a6 6 0 0 1-.9.4l-1 .2a669.8 669.8 0 0 1 3.2-3l1-.2.8-.4z"/></defs><clipPath id="aL"><use xlink:href="#aK" overflow="visible"/></clipPath><g clip-path="url(#aL)"><path fill="#857846" d="M92.1 143l-3.1 3a6 6 0 0 1-.9.4l-1 .2a669.8 669.8 0 0 1 3.2-3l1-.2a6.2 6.2 0 0 0 .8-.4"/></g><defs><path id="aM" d="M90.1 143.4a726.1 726.1 0 0 0-3.1 3v-1l-.4-3.3a60.7 60.7 0 0 0-.2-2 58 58 0 0 1-.2-2 399 399 0 0 1 3.1-2.8l.3 2a57.6 57.6 0 0 1 .5 6.1z"/></defs><clipPath id="aN"><use xlink:href="#aM" overflow="visible"/></clipPath><g clip-path="url(#aN)"><path fill="#857846" d="M90.1 143.4a726.1 726.1 0 0 0-3.1 3v-1a103 103 0 0 0-.6-5.3 55.3 55.3 0 0 1-.2-2 399 399 0 0 1 3.1-2.8l.3 2a64 64 0 0 1 .5 6.1"/></g><path fill="#807443" d="M90.3 143.6a625.9 625.9 0 0 0-3.2 3l-.1-.1a785.8 785.8 0 0 1 3.1-3h.2z"/><path fill="#EBD57B" d="M91.5 134.8l.1 1.9a26.8 26.8 0 0 0 .5 4l.2 2v.2l-.2.1a6 6 0 0 1-.8.4l-1 .2-.2-.2v-1a97.8 97.8 0 0 0-.3-3.3 64 64 0 0 0-.2-1.9l-.3-2 .1-.1h.5l.5-.2.4-.1.5-.1h.2z"/></g><g><defs><path id="aO" d="M88.8 137.3a432.5 432.5 0 0 0-3.1 2.9l-1.6.2a539.4 539.4 0 0 1 3.1-2.9c1 0 1.5-.2 1.6-.2z"/></defs><clipPath id="aP"><use xlink:href="#aO" overflow="visible"/></clipPath><g clip-path="url(#aP)"><path fill="#857846" d="M88.8 137.3a432.5 432.5 0 0 0-3.1 2.9l-1.6.2a539.4 539.4 0 0 1 3.1-2.9c1 0 1.5-.2 1.6-.2"/></g><path fill="#807443" d="M88 144.2l-3.2 3-.1.1 3.1-3 .2-.1zm-4.5-7.4a881.6 881.6 0 0 0-3.2 3l.1-.6a868.8 868.8 0 0 1 3.2-2.8l-.1.4z"/><path fill="#807443" d="M83.5 137.5l-3.1 2.9v-.7l3-2.9.1.7z"/><path fill="#807443" d="M83.5 138l-3.2 2.9v-.5a991.5 991.5 0 0 1 3.2-3v.6z"/><defs><path id="aQ" d="M85.2 138a629.2 629.2 0 0 0-3.2 3l-1.6.4 3.1-2.9c.5 0 1-.2 1.7-.4z"/></defs><clipPath id="aR"><use xlink:href="#aQ" overflow="visible"/></clipPath><g clip-path="url(#aR)"><path fill="#857846" d="M85.2 138a629.2 629.2 0 0 0-3.2 3l-1.6.4 3.1-2.9c.5 0 1-.2 1.7-.4"/></g><defs><path id="aS" d="M85.6 142.4l-3.1 3a35.1 35.1 0 0 0-.2-2.2L82 141l3.2-3 .2 2.2.2 2.2z"/></defs><clipPath id="aT"><use xlink:href="#aS" overflow="visible"/></clipPath><g clip-path="url(#aT)"><path fill="#857846" d="M85.6 142.4l-3.1 3-.2-2.2-.3-2.2 3.2-3 .2 2.2.2 2.2"/></g><path fill="#807443" d="M83.5 138.5a1122.2 1122.2 0 0 0-3.1 3h-.1l3.2-3zM83.5 138.5a894.6 894.6 0 0 0-3.2 3v-.6l3.2-2.9v.5z"/><defs><path id="aU" d="M87.8 144.3l-3.1 3a6.4 6.4 0 0 1-1 .3 5 5 0 0 1-.9.2l3.2-3 1-.2a6.3 6.3 0 0 0 .8-.3z"/></defs><clipPath id="aV"><use xlink:href="#aU" overflow="visible"/></clipPath><g clip-path="url(#aV)"><path fill="#857846" d="M87.8 144.3l-3.1 3a6.2 6.2 0 0 1-1 .3 4.9 4.9 0 0 1-.9.2l3.2-3 1-.2a6.3 6.3 0 0 0 .8-.3"/></g><path fill="#807443" d="M86 144.8l-3.2 3-.1-.2 3.1-3 .2.2z"/><g><path fill="#EBD57B" d="M88.5 135.2h.1v.1l.1.5v.4l.1.5.1.4-.1.2-1.6.2.2 2.2.3 2.2.3 2.1v.2h-.2a6 6 0 0 1-.9.4 4.6 4.6 0 0 1-1 .2v-.2a58 58 0 0 1-.3-2.2l-.2-2.2a75.2 75.2 0 0 0-.2-2.1l-1.7.4v-.5-1.6h.1a21 21 0 0 0 4.9-1.2z"/></g><g><defs><path id="aW" d="M85.8 144.6l-3.1 3a59.3 59.3 0 0 1-.2-2.2l3.1-3 .2 2.2z"/></defs><clipPath id="aX"><use xlink:href="#aW" overflow="visible"/></clipPath><g clip-path="url(#aX)"><path fill="#857846" d="M85.8 144.6l-3.1 3a59.3 59.3 0 0 1-.2-2.2l3.1-3 .2 2.2"/></g></g></g><g><path fill="#807443" d="M78.4 137.5l-3.2 3 .2-.4 3.1-2.8v.2z"/><defs><path id="aY" d="M80.2 141.4l-3.1 2.9a22.6 22.6 0 0 0-.5-1.2l3.2-2.9.4 1.2z"/></defs><clipPath id="aZ"><use xlink:href="#aY" overflow="visible"/></clipPath><g clip-path="url(#aZ)"><path fill="#857846" d="M80.2 141.4l-3.1 2.9a22.6 22.6 0 0 0-.5-1.2l3.2-2.9.4 1.2"/></g><defs><path id="ba" d="M80.6 142.4l-3.2 3-.3-1.1a6808.7 6808.7 0 0 1 3.1-3l.4 1.1z"/></defs><clipPath id="bb"><use xlink:href="#ba" overflow="visible"/></clipPath><g clip-path="url(#bb)"><path fill="#857846" d="M80.6 142.4l-3.2 3-.3-1.1a6808.7 6808.7 0 0 1 3.1-3l.4 1.1"/></g><path fill="#807443" d="M80.6 142.5l-3.2 3v-.1l3.2-3v.1z"/><defs><path id="bc" d="M84 145.3l-3.2 3-1 .3-1 .2 3.2-3 1-.2c.5 0 .8-.2 1-.3z"/></defs><clipPath id="bd"><use xlink:href="#bc" overflow="visible"/></clipPath><g clip-path="url(#bd)"><path fill="#857846" d="M84 145.3l-3.2 3-1 .3-1 .2 3.2-3 1-.2c.5 0 .8-.2 1-.3"/></g><path fill="#807443" d="M82 145.8l-3.2 3-.2-.2 3.2-3 .2.2z"/><defs><path id="be" d="M81.8 145.6l-3.2 3-.4-1c1.3-1.1 2-1.7 3.2-3l.4 1z"/></defs><clipPath id="bf"><use xlink:href="#be" overflow="visible"/></clipPath><g clip-path="url(#bf)"><path fill="#857846" d="M81.8 145.6l-3.2 3-.4-1c1.3-1.1 2-1.7 3.2-3l.4 1"/></g><defs><path id="bg" d="M75.9 148.2l3.2-3 .9-.2 1.4-.3-3.2 3-1.4.2-1 .3z"/></defs><clipPath id="bh"><use xlink:href="#bg" overflow="visible"/></clipPath><g clip-path="url(#bh)"><path fill="#857846" d="M81.4 144.7l-3.2 3-1.4.2-1 .3 3.3-3 .9-.2 1.4-.3"/></g><g><defs><path id="bi" d="M78.8 146.6a1298.7 1298.7 0 0 1-3.2 3l-1.2.3c-.6.1-.8.1-.8 0l.7-4.5 1-5 3.1-2.9-.9 5-.8 4.4c0 .2.3.2.9 0a6 6 0 0 0 1.2-.3z"/></defs><clipPath id="bj"><use xlink:href="#bi" overflow="visible"/></clipPath><g clip-path="url(#bj)"><path fill="#857846" d="M78.8 146.6a1298.7 1298.7 0 0 1-3.2 3l-1.2.3c-.6.1-.8.1-.8 0l.7-4.5 1-5 3.1-2.9-.9 5-.8 4.4c0 .2.3.2.9 0a6 6 0 0 0 1.2-.3"/></g></g><g><path fill="#EBD57B" d="M82.4 141.4l1.7 3.7-.2.2-1 .3c-.4.2-.7.2-.9.2l-.2-.2-.4-1-1.4.4-1 .2v.8l-.2.6a6 6 0 0 1-1.2.4h-.8l.7-4.5 1-5v-.2h.5l.4-.1.4-.2h.4l.2.1 2 4.3zm-1.8 1.1c0-.2-.1-.6-.4-1.1l-.4-1.2-.3 1.3-.1 1.3h.8l.4-.3"/></g></g><g><defs><path id="bk" d="M73.5 142.7a661.4 661.4 0 0 1-3.2 2.9c.3-.3.4-.6.3-1.1 0-.5-.2-.9-.5-1l3.2-2.9c.3.2.5.5.5 1s0 .8-.3 1z"/></defs><clipPath id="bl"><use xlink:href="#bk" overflow="visible"/></clipPath><g clip-path="url(#bl)"><path fill="#857846" d="M73.5 142.7a661.4 661.4 0 0 1-3.2 2.9c.3-.3.4-.6.3-1.1 0-.5-.2-.9-.5-1l3.2-2.9c.3.2.5.5.5 1s0 .8-.3 1"/></g><defs><path id="bm" d="M68.7 143.6a648.4 648.4 0 0 0 3.2-2.9l.4-.1h1l-3.2 2.9c-.2-.1-.5-.2-1 0h-.4z"/></defs><clipPath id="bn"><use xlink:href="#bm" overflow="visible"/></clipPath><g clip-path="url(#bn)"><path fill="#857846" d="M73.3 140.6l-3.2 2.9c-.2-.1-.5-.2-1 0h-.4a648.4 648.4 0 0 0 3.2-2.8l.4-.1h1"/></g><defs><path id="bo" d="M76.5 147.1a678 678 0 0 1-3.2 3 6 6 0 0 1-1 .2l-.9.1a511.4 511.4 0 0 0 3.2-2.9l1-.1 1-.3z"/></defs><clipPath id="bp"><use xlink:href="#bo" overflow="visible"/></clipPath><g clip-path="url(#bp)"><path fill="#857846" d="M76.5 147.1a678 678 0 0 1-3.2 3l-1 .2-.9.1a511.4 511.4 0 0 0 3.2-2.9l1-.1 1-.3"/></g><defs><path id="bq" d="M74 146.7a540 540 0 0 1-3.1 3 78.8 78.8 0 0 0-.8-2 535.8 535.8 0 0 0 3.1-2.8l.9 1.8z"/></defs><clipPath id="br"><use xlink:href="#bq" overflow="visible"/></clipPath><g clip-path="url(#br)"><path fill="#857846" d="M74 146.7a540 540 0 0 1-3.1 3 78.8 78.8 0 0 0-.8-2 535.8 535.8 0 0 0 3.1-2.8l.9 1.8"/></g><path fill="#807443" d="M74.6 147.5a511.4 511.4 0 0 1-3.2 3h-.1l3.1-3h.2zm-.2 0a542.8 542.8 0 0 1-3.2 2.8l-.3-.7a540 540 0 0 0 3.2-2.9l.3.7z"/><path fill="#807443" d="M74.4 147.5l-3.1 3-.1-.2a542.8 542.8 0 0 0 3.2-2.9 8.7 8.7 0 0 1 0 .1zm-1.2-2.6a572.7 572.7 0 0 1-3.1 2.9l-.5-.2a570.7 570.7 0 0 0 3.2-2.9l.4.2zM69.5 139.3a552.3 552.3 0 0 1-3.2 2.8l.2-.2a521 521 0 0 0 3.2-2.8l-.2.2z"/><path fill="#807443" d="M69.6 139.4a550.8 550.8 0 0 1-3.2 2.8v-.1a516.7 516.7 0 0 0 3.1-2.8v.1z"/><defs><path id="bs" d="M72.8 144.7a533.9 533.9 0 0 1-3.2 2.9H69c1.3-1 2-1.6 3.2-2.8h.6z"/></defs><clipPath id="bt"><use xlink:href="#bs" overflow="visible"/></clipPath><g clip-path="url(#bt)"><path fill="#857846" d="M72.8 144.7a533.9 533.9 0 0 1-3.2 2.9H69c1.3-1 2-1.6 3.2-2.8h.6"/></g><path fill="#807443" d="M72.5 148a474 474 0 0 1-3.2 2.8h-.1a427.4 427.4 0 0 0 3.2-2.8h.1z"/><defs><path id="bu" d="M72.4 148a450.4 450.4 0 0 1-3.2 2.9l-1 .2h-.9a364.2 364.2 0 0 0 3.2-2.8l1-.1.9-.2z"/></defs><clipPath id="bv"><use xlink:href="#bu" overflow="visible"/></clipPath><g clip-path="url(#bv)"><path fill="#857846" d="M72.4 148a450.4 450.4 0 0 1-3.2 2.9l-1 .2h-.9a364.2 364.2 0 0 0 3.2-2.8l1-.1.9-.2"/></g><g><path fill="#807443" d="M70.5 148.3a381 381 0 0 1-3.2 2.9l-.1-.2a350.8 350.8 0 0 0 3.2-2.8l.1.1z"/></g><g><path fill="#EBD57B" d="M75.8 145.4l.8 1.6v.1l-1 .3-1 .1h-.2l-.3-.8a78.5 78.5 0 0 0-.9-1.8l-.4-.2-.6.1v.4c0 .3 0 .7.2 1.3l.2 1.3v.1a9.4 9.4 0 0 1-.2 0c-.2.2-.5.2-1 .3l-.9.1-.1-.1-.2-2.2-.1-2.3-.5-4.3v-.1l.1-.2 1.6-.3 1.5-.3c.8-.2 1.5 0 2 .3.6.4 1 1 1 2 .1.7.1 1.2 0 1.6-.1.4-.3.8-.7 1.2l-.1.2.8 1.6zm-3-2.4c.8-.1 1.1-.6 1-1.4 0-.5-.2-.8-.5-1h-1c-.3 0-.5.1-.5.3v1.2l.1.5v.4H72.9"/></g><g><defs><path id="bw" d="M70.4 148.2a366.4 366.4 0 0 1-3.2 2.8l-.2-2.2-.1-2.2-.5-4.4a550.8 550.8 0 0 0 3.2-2.8l.5 4.3.1 2.3.2 2.2z"/></defs><clipPath id="bx"><use xlink:href="#bw" overflow="visible"/></clipPath><g clip-path="url(#bx)"><path fill="#857846" d="M70.4 148.2a366.4 366.4 0 0 1-3.2 2.8l-.2-2.2-.1-2.2-.5-4.4a550.8 550.8 0 0 0 3.2-2.8l.5 4.3.1 2.3.2 2.2"/></g></g></g><g><defs><path id="by" d="M69 141.4a461.9 461.9 0 0 1-3.1 2.8l-1.6.1a388 388 0 0 0 3.2-2.8 30.7 30.7 0 0 0 1.6-.1z"/></defs><clipPath id="bz"><use xlink:href="#by" overflow="visible"/></clipPath><g clip-path="url(#bz)"><path fill="#857846" d="M69 141.4a461.9 461.9 0 0 1-3.1 2.8l-1.6.1a388 388 0 0 0 3.2-2.8 30.7 30.7 0 0 0 1.6-.1"/></g><path fill="#807443" d="M68.2 148.7a316.2 316.2 0 0 1-3.2 2.8l-.2.1a304.6 304.6 0 0 0 3.2-2.8h.2zm-4.5-8.3a305 305 0 0 1-3.2 2.8v-.5a304.9 304.9 0 0 0 3.3-2.7v.4z"/><path fill="#807443" d="M63.7 141.1a293.3 293.3 0 0 1-3.2 2.7v-.6a315.5 315.5 0 0 0 3.2-2.8v.7z"/><path fill="#807443" d="M63.7 141.7a293.3 293.3 0 0 1-3.2 2.7v-.6a303 303 0 0 0 3.2-2.7v.6z"/><defs><path id="bA" d="M65.4 141.9a347.2 347.2 0 0 1-3.2 2.7l-1.7.4a282.9 282.9 0 0 0 3.2-2.8l1.7-.3z"/></defs><clipPath id="bB"><use xlink:href="#bA" overflow="visible"/></clipPath><g clip-path="url(#bB)"><path fill="#857846" d="M65.4 141.9a347.2 347.2 0 0 1-3.2 2.7l-1.7.4a282.9 282.9 0 0 0 3.2-2.8l1.7-.3"/></g><path fill="#807443" d="M63.8 142.2a293.6 293.6 0 0 1-3.3 2.8 291.5 291.5 0 0 0 3.2-2.8zM63.7 142.2a293.1 293.1 0 0 1-3.3 2.7v-.5a284.2 284.2 0 0 0 3.3-2.7v.5z"/><defs><path id="bC" d="M68 148.8a316.5 316.5 0 0 1-3.2 2.8 5 5 0 0 1-1.9.3 279.2 279.2 0 0 0 3.2-2.8 5.4 5.4 0 0 0 2-.3z"/></defs><clipPath id="bD"><use xlink:href="#bC" overflow="visible"/></clipPath><g clip-path="url(#bD)"><path fill="#857846" d="M68 148.8a316.5 316.5 0 0 1-3.2 2.8 5 5 0 0 1-1.9.3 279.2 279.2 0 0 0 3.2-2.8 5.4 5.4 0 0 0 2-.3"/></g><path fill="#807443" d="M66.1 149.1a269.7 269.7 0 0 1-3.2 2.8l-.1-.2a260.3 260.3 0 0 0 3.2-2.8l.1.2z"/><g><path fill="#EBD57B" d="M68.8 139.1l.1.1v1.1l.2.4v.7l-1.6.1.2 2.4.2 2.3.3 2.4v.1H68a5 5 0 0 1-.9.3 5.4 5.4 0 0 1-1 .1l-.1-.2-.2-2.3-.1-2.4-.3-2.3-1.7.3v-.5V140.4v-.4h.2a17.5 17.5 0 0 0 4.9-.9z"/></g><g><defs><path id="bE" d="M66 149a269.1 269.1 0 0 1-3.2 2.7l-.2-2.4-.1-2.3-.3-2.4 3.2-2.7.3 2.3.1 2.4.2 2.3z"/></defs><clipPath id="bF"><use xlink:href="#bE" overflow="visible"/></clipPath><g clip-path="url(#bF)"><path fill="#857846" d="M66 149a269.1 269.1 0 0 1-3.2 2.7l-.2-2.4-.1-2.3a87.3 87.3 0 0 0-.3-2.4l3.2-2.7.3 2.3.1 2.4.2 2.3"/></g></g></g><g><path fill="#807443" d="M60.8 140.7a265.5 265.5 0 0 1-3.2 2.7l.1-.3a258.2 258.2 0 0 0 3.2-2.7v.3z"/><defs><path id="bG" d="M61.1 142.8a248.5 248.5 0 0 1-3.2 2.7 38.1 38.1 0 0 1-.3-2.1 265.5 265.5 0 0 0 3.2-2.7l.3 2.1z"/></defs><clipPath id="bH"><use xlink:href="#bG" overflow="visible"/></clipPath><g clip-path="url(#bH)"><path fill="#857846" d="M61.1 142.8a248.5 248.5 0 0 1-3.2 2.7 38.1 38.1 0 0 1-.3-2.1 265.5 265.5 0 0 0 3.2-2.7l.3 2.1"/></g><defs><path id="bI" d="M61.4 145a227.5 227.5 0 0 1-3.3 2.6l-.2-2.1a248.5 248.5 0 0 0 3.2-2.7l.3 2.1z"/></defs><clipPath id="bJ"><use xlink:href="#bI" overflow="visible"/></clipPath><g clip-path="url(#bJ)"><path fill="#857846" d="M61.4 145a227.5 227.5 0 0 1-3.3 2.6l-.2-2.1a248.5 248.5 0 0 0 3.2-2.7l.3 2.1"/></g><path fill="#807443" d="M61.3 145.4a233 233 0 0 1-3.2 2.7v-.5a227.5 227.5 0 0 0 3.3-2.7v.5zm2.2 4.1a231 231 0 0 1-3.2 2.7h-.4a224 224 0 0 0 3.2-2.6l.4-.1z"/><path fill="#807443" d="M63.1 149.6a224 224 0 0 1-3.2 2.7h-.4a228.7 228.7 0 0 0 3.3-2.7h.3z"/><path fill="#807443" d="M62.8 149.6a215.8 215.8 0 0 1-3.3 2.7h-.4a221.4 221.4 0 0 0 3.2-2.6h.5z"/><path fill="#807443" d="M62.3 149.7a221.4 221.4 0 0 1-3.2 2.6h-.4a208.3 208.3 0 0 0 3.2-2.6h.4z"/><path fill="#807443" d="M62 149.7a208.3 208.3 0 0 1-3.3 2.7l-.2-.2a203 203 0 0 0 3.2-2.7l.2.2z"/><defs><path id="bK" d="M61.7 149.5a207.6 207.6 0 0 1-3.2 2.7l-2-2.7-1.2-1.8a197 197 0 0 0 3.2-2.6l1.2 1.8 2 2.6z"/></defs><clipPath id="bL"><use xlink:href="#bK" overflow="visible"/></clipPath><g clip-path="url(#bL)"><path fill="#857846" d="M61.7 149.5a207.6 207.6 0 0 1-3.2 2.7l-2-2.7-1.2-1.8a197 197 0 0 0 3.2-2.6l1.2 1.8 2 2.6"/></g><path fill="#807443" d="M58.5 145.1a191.8 191.8 0 0 1-3.2 2.6h-.1a196.7 196.7 0 0 0 3.2-2.6zm-2.5-4a192.5 192.5 0 0 1-3.2 2.6l.1-.1a199.5 199.5 0 0 0 3.3-2.6l-.2.2z"/><defs><path id="bM" d="M56.2 143.4A182.4 182.4 0 0 1 53 146a35.4 35.4 0 0 1-.2-2.3 197.7 197.7 0 0 0 3.2-2.5c0 .5 0 1.2.2 2.2z"/></defs><clipPath id="bN"><use xlink:href="#bM" overflow="visible"/></clipPath><g clip-path="url(#bN)"><path fill="#857846" d="M56.2 143.4A182.4 182.4 0 0 1 53 146a35.4 35.4 0 0 1-.2-2.3 197.7 197.7 0 0 0 3.2-2.5c0 .5 0 1.2.2 2.2"/></g><defs><path id="bO" d="M56.6 148a172.7 172.7 0 0 1-3.2 2.5l-.2-2.2a67.8 67.8 0 0 0-.2-2.3 183.3 183.3 0 0 0 3.2-2.6l.3 2.3v2.2z"/></defs><clipPath id="bP"><use xlink:href="#bO" overflow="visible"/></clipPath><g clip-path="url(#bP)"><path fill="#857846" d="M56.6 148a172.7 172.7 0 0 1-3.2 2.5l-.2-2.2a67.8 67.8 0 0 0-.2-2.3 183.3 183.3 0 0 0 3.2-2.6 73.6 73.6 0 0 1 .4 4.5"/></g><g><path fill="#807443" d="M58.7 150.1a177 177 0 0 1-3.2 2.6l-1.8.1a164.3 164.3 0 0 0 3.2-2.5l1.8-.2z"/></g><g><defs><path id="bQ" d="M56.8 150.1a163.4 163.4 0 0 1-3.3 2.6l-.1-2.2a172.7 172.7 0 0 0 3.2-2.6l.2 2.2z"/></defs><clipPath id="bR"><use xlink:href="#bQ" overflow="visible"/></clipPath><g clip-path="url(#bR)"><path fill="#857846" d="M56.8 150.1a163.4 163.4 0 0 1-3.3 2.6l-.1-2.2a172.7 172.7 0 0 0 3.2-2.6l.2 2.2"/></g></g><g><path fill="#EBD57B" d="M57.7 140.6l.2.2 2.3 3.2.9 1.3.2.1v-.5c0-.5 0-1.2-.2-2.1a37.7 37.7 0 0 1-.3-2l.1-.4 1-.1 1-.2v.2l.2 2.3.2 2.3.4 4.4-.2.2h-.4l-.3.1h-.9-.2l-2-2.7-1.2-1.8h-.1v.1c0 .5 0 1.3.2 2.3l.2 2.4v.2l-1.9.2-.1-.2a59.8 59.8 0 0 1-.2-2.2 34.5 34.5 0 0 0-.1-2.2 73.6 73.6 0 0 0-.3-2.3 36.7 36.7 0 0 1-.2-2.2l.2-.2.7-.1.4-.1.4-.2z"/></g><g><path fill="#807443" d="M57 150.3a167.3 167.3 0 0 1-3.3 2.5l-.2-.1a160.5 160.5 0 0 0 3.3-2.6l.1.2z"/></g></g><g><path fill="#807443" d="M52 147.1zm3.2-3.8a183.8 183.8 0 0 1-3.3 2.6 172.6 172.6 0 0 0 3.2-2.6z"/><defs><path id="bS" d="M55.2 144.6c-1.3 1-2.2 1.5-3.2 2.5l3.2-2.5z"/></defs><clipPath id="bT"><use xlink:href="#bS" overflow="visible"/></clipPath><g clip-path="url(#bT)"><path fill="#857846" d="M55.2 144.6c-1.3 1-2.2 1.5-3.2 2.5 1-1 2-1.5 3.2-2.5"/></g><path fill="#807443" d="M55.2 146.9a166 166 0 0 1-3.3 2.5h-.4l3.2-2.6h.5z"/><defs><path id="bU" d="M55 143.3A179.4 179.4 0 0 1 52 146h-2.6a155.6 155.6 0 0 0 3.2-2.5h2.6z"/></defs><clipPath id="bV"><use xlink:href="#bU" overflow="visible"/></clipPath><g clip-path="url(#bV)"><path fill="#857846" d="M55 143.3A179.4 179.4 0 0 1 52 146h-2.6a155.6 155.6 0 0 0 3.2-2.5h2.6"/></g><path fill="#807443" d="M52.5 143.4a155.6 155.6 0 0 1-3.2 2.5l-.3.2a154.4 154.4 0 0 0 3.2-2.5l.3-.2zm3.1 7.1a157.4 157.4 0 0 1-3.2 2.5h-.2a160.5 160.5 0 0 0 3.3-2.5h.1z"/><defs><path id="bW" d="M54.7 146.8a168.3 168.3 0 0 1-3.2 2.5H50l3.2-2.4h1.4z"/></defs><clipPath id="bX"><use xlink:href="#bW" overflow="visible"/></clipPath><g clip-path="url(#bX)"><path fill="#857846" d="M54.7 146.8a168.3 168.3 0 0 1-3.2 2.5H50l3.2-2.4h1.4"/></g><path fill="#807443" d="M53.3 147a148.6 148.6 0 0 1-3.2 2.4h-.6l3.2-2.4h.6z"/><path fill="#807443" d="M52.7 147a143.6 143.6 0 0 1-3.2 2.4l-.2.1 3.2-2.4.2-.1zm-2.8-5.4l.1-.1a144.7 144.7 0 0 1-3.2 2.4l-.1.2a147.9 147.9 0 0 0 3.2-2.5z"/><path fill="#807443" d="M50 141.7l-3.3 2.5v-.1a144.7 144.7 0 0 0 3.2-2.5v.1z"/><defs><path id="bY" d="M50.1 143.3a143.1 143.1 0 0 1-3.2 2.4l-.2-1.5 3.2-2.5.2 1.6z"/></defs><clipPath id="bZ"><use xlink:href="#bY" overflow="visible"/></clipPath><g clip-path="url(#bZ)"><path fill="#857846" d="M50.1 143.3a143.1 143.1 0 0 1-3.2 2.4l-.2-1.5 3.2-2.5.2 1.6"/></g><defs><path id="ca" d="M50.5 148.3l-3.2 2.4-.1-2.2a64.2 64.2 0 0 0-.3-2.8 138.7 138.7 0 0 0 3.2-2.4l.3 2.8.1 2.2z"/></defs><clipPath id="cb"><use xlink:href="#ca" overflow="visible"/></clipPath><g clip-path="url(#cb)"><path fill="#857846" d="M50.5 148.3l-3.2 2.4a35.3 35.3 0 0 0-.1-2.2 64.4 64.4 0 0 0-.3-2.8 138.7 138.7 0 0 0 3.2-2.4 62 62 0 0 1 .4 5"/></g><g><defs><path id="cc" d="M55.5 150.5a154.2 154.2 0 0 1-3.3 2.5H47.6a122.1 122.1 0 0 0 3.3-2.3H52l1.2-.1 2.3-.1z"/></defs><clipPath id="cd"><use xlink:href="#cc" overflow="visible"/></clipPath><g clip-path="url(#cd)"><path fill="#857846" d="M55.5 150.5a154.2 154.2 0 0 1-3.3 2.5H47.6a122.1 122.1 0 0 0 3.3-2.3H52l1.2-.1 2.3-.1"/></g></g><g><defs><path id="ce" d="M50.7 150.6a124 124 0 0 1-3.3 2.3l-.1-2.2 3.2-2.4.2 2.3z"/></defs><clipPath id="cf"><use xlink:href="#ce" overflow="visible"/></clipPath><g clip-path="url(#cf)"><path fill="#857846" d="M50.7 150.6a124 124 0 0 1-3.3 2.3l-.1-2.2 3.2-2.4.2 2.3"/></g></g><g><path fill="#807443" d="M50.9 150.7a123.8 123.8 0 0 1-3.3 2.4l-.2-.2a124 124 0 0 0 3.3-2.3l.2.1z"/></g><g><path fill="#EBD57B" d="M55.8 148v2.3l-.2.2h-.1a23.6 23.6 0 0 0-3.5.2H51l-.2-.1-.2-2.3a35.2 35.2 0 0 0-.1-2.2l-.3-2.8-.2-1.6.1-.2h1.2a15.6 15.6 0 0 0 2.3-.3l1.1-.1.4.2.1 1 .2.9-.1.1h-2.7l-.3.3v.5l.2.6.4.1h.4l1.3-.2h.3l.3-.1h.1V147h-2.5l-.2.2v.4l.1.7.8.2h.7l.8-.2.9-.1z"/></g></g><g><path fill="#807443" d="M48.8 144.8a128.3 128.3 0 0 1-3.2 2.3h-.1a124.3 124.3 0 0 0 3.2-2.3h.1z"/><path fill="#807443" d="M48.7 144.8a124.3 124.3 0 0 1-3.2 2.4l-.3-.3 3.2-2.3.3.2z"/><path fill="#807443" d="M48.4 144.6a127.4 127.4 0 0 1-3.2 2.3l-.6-.5c1.3-.9 2-1.3 3.2-2.3l.6.5zm.3 3.3a121.8 121.8 0 0 1-3.2 2.3l.2-.2a120.7 120.7 0 0 0 3.2-2.4l-.2.3z"/><defs><path id="cg" d="M43 146.4c1.3-.9 2-1.3 3.2-2.3a1.3 1.3 0 0 1 .7-.2c.3 0 .6 0 1 .2l-3.3 2.3a2 2 0 0 0-.9-.2 1.2 1.2 0 0 0-.7.2z"/></defs><clipPath id="ch"><use xlink:href="#cg" overflow="visible"/></clipPath><g clip-path="url(#ch)"><path fill="#857846" d="M47.8 144.1l-3.2 2.3a2 2 0 0 0-.9-.2 119 119 0 0 0 2.5-2 1.3 1.3 0 0 1 .7-.3c.3 0 .6 0 1 .2"/></g><path fill="#807443" d="M48.2 148.4a117.6 117.6 0 0 1-3.2 2.3l.5-.5a117.3 117.3 0 0 0 3.2-2.3l-.5.5z"/><defs><path id="ci" d="M48.1 148.4a116 116 0 0 1-3.2 2.3 116 116 0 0 0 3.3-2.3z"/></defs><clipPath id="cj"><use xlink:href="#ci" overflow="visible"/></clipPath><g clip-path="url(#cj)"><path fill="#857846" d="M48.1 148.4a116 116 0 0 1-3.2 2.3 116 116 0 0 0 3.3-2.3"/></g><defs><path id="ck" d="M49 150.6l-3.2 2.3c-.4.3-1 .4-1.5.4-1.1 0-2-.5-2.8-1.4a95.6 95.6 0 0 0 3.2-2.2c.8 1 1.7 1.4 2.8 1.4.6 0 1.1-.2 1.5-.5z"/></defs><clipPath id="cl"><use xlink:href="#ck" overflow="visible"/></clipPath><g clip-path="url(#cl)"><path fill="#857846" d="M49 150.6l-3.2 2.3c-.4.3-1 .4-1.5.4-1.1 0-2-.5-2.8-1.4a95.6 95.6 0 0 0 3.2-2.2c.8 1 1.7 1.4 2.8 1.4.6 0 1.1-.2 1.5-.5"/></g><g><path fill="#EBD57B" d="M46.6 141.5c1.1 0 2 .3 2.7 1.1l.2.3-.3 1-.4.9h-.1l-.3-.2-.6-.5a2 2 0 0 0-.9-.2c-.5 0-.9.3-1.1.7-.3.5-.4 1-.3 1.7 0 .7.2 1.2.6 1.7.3.4.7.7 1.2.7.4 0 .6-.1.9-.3l.5-.5.2-.3.1.1.6.8.4.8v.3c-.6 1-1.4 1.5-2.5 1.5s-2-.4-2.8-1.4c-.7-.8-1.1-2-1.2-3.3-.1-1.3 0-2.4.6-3.4a3 3 0 0 1 2.5-1.5z"/></g><g><defs><path id="cm" d="M41.8 144.3A118.7 118.7 0 0 0 45 142a3.4 3.4 0 0 0-.9 1c-.5 1-.7 2-.6 3.4 0 1.3.5 2.5 1.2 3.3a98.2 98.2 0 0 1-3.2 2.2c-.7-.9-1.1-2-1.2-3.3-.2-1.3 0-2.4.6-3.3.3-.4.6-.8 1-1z"/></defs><clipPath id="cn"><use xlink:href="#cm" overflow="visible"/></clipPath><g clip-path="url(#cn)"><path fill="#857846" d="M44.7 149.7a98.2 98.2 0 0 1-3.2 2.2c-.7-.9-1.1-2-1.2-3.4-.2-1.2 0-2.3.6-3.2.3-.4.6-.8 1-1A118.7 118.7 0 0 0 45 142a3.4 3.4 0 0 0-.9 1c-.5 1-.7 2-.6 3.4 0 1.3.5 2.5 1.2 3.3"/></g></g></g><g><path fill="#807443" d="M40.2 142.2a96 96 0 0 1-3.2 2.1l.1-.2a96 96 0 0 0 3.2-2.1v.2z"/><defs><path id="co" d="M40.5 144.2a91.8 91.8 0 0 1-3.2 2.1l-.3-2a94.5 94.5 0 0 0 3.2-2l.3 2z"/></defs><clipPath id="cp"><use xlink:href="#co" overflow="visible"/></clipPath><g clip-path="url(#cp)"><path fill="#857846" d="M40.5 144.2a91.8 91.8 0 0 1-3.2 2.1l-.3-2a94.5 94.5 0 0 0 3.2-2l.3 2"/></g><defs><path id="cq" d="M40.7 146.3a88.7 88.7 0 0 1-3.2 2l-.2-2a91.8 91.8 0 0 0 3.2-2l.2 2z"/></defs><clipPath id="cr"><use xlink:href="#cq" overflow="visible"/></clipPath><g clip-path="url(#cr)"><path fill="#857846" d="M40.7 146.3a88.7 88.7 0 0 1-3.2 2l-.2-2a91.8 91.8 0 0 0 3.2-2l.2 2"/></g><path fill="#807443" d="M40.7 146.7a87.2 87.2 0 0 1-3.2 2v-.4a88.7 88.7 0 0 0 3.2-2v.4zm2.1 4.2a87.9 87.9 0 0 1-3.2 2h-.4a86 86 0 0 0 3.2-2h.4z"/><path fill="#807443" d="M42.4 150.9a86 86 0 0 1-3.2 2H39a85.3 85.3 0 0 0 3.2-2h.3z"/><path fill="#807443" d="M42 151a84 84 0 0 1-3.1 2l-.4-.1a85.4 85.4 0 0 0 3.2-2h.4z"/><path fill="#807443" d="M41.7 150.9a83.8 83.8 0 0 1-3.3 2l-.4-.1a83.2 83.2 0 0 0 3.3-2h.4z"/><path fill="#807443" d="M41.3 150.8a82 82 0 0 1-3.3 2l-.2-.2a81.8 81.8 0 0 0 3.2-2l.3.2z"/><defs><path id="cs" d="M41 150.6a82.3 82.3 0 0 1-3.2 2l-2-2.8a80 80 0 0 0 3.3-2l1.9 2.8z"/></defs><clipPath id="ct"><use xlink:href="#cs" overflow="visible"/></clipPath><g clip-path="url(#ct)"><path fill="#857846" d="M41 150.6a82.3 82.3 0 0 1-3.2 2l-2-2.8a80 80 0 0 0 3.3-2l1.9 2.8"/></g><defs><path id="cu" d="M39 147.8a80 80 0 0 1-3.1 2 44.7 44.7 0 0 0-1.2-1.8 78.9 78.9 0 0 0 3.2-2l1.2 1.8z"/></defs><clipPath id="cv"><use xlink:href="#cu" overflow="visible"/></clipPath><g clip-path="url(#cv)"><path fill="#857846" d="M39 147.8a80 80 0 0 1-3.1 2 44.7 44.7 0 0 0-1.2-1.8 78.9 78.9 0 0 0 3.2-2l1.2 1.8"/></g><path fill="#807443" d="M37.9 146a80 80 0 0 1-3.2 2h-.1a78.8 78.8 0 0 0 3.2-2zM35.4 142a78.2 78.2 0 0 1-3.2 2l.2-.1a78.6 78.6 0 0 0 3.2-2l-.2.2zM38 150.7a74.4 74.4 0 0 1-3.1 1.9 77 77 0 0 1-1.8-.2 66.5 66.5 0 0 0 3.2-1.8l1.8.1z"/><defs><path id="cw" d="M36.1 150.4a67.2 67.2 0 0 1-3.2 1.8l-.1-2-.1-2-.3-2.1-.2-2a77.7 77.7 0 0 0 3.2-2l.2 2.1.3 2.1v2l.2 2.1z"/></defs><clipPath id="cx"><use xlink:href="#cw" overflow="visible"/></clipPath><g clip-path="url(#cx)"><path fill="#857846" d="M36.1 150.4a67.2 67.2 0 0 1-3.2 1.8l-.1-2-.1-2-.3-2.1-.2-2a77.7 77.7 0 0 0 3.2-2l.2 2.1.3 2.1v2l.2 2.1"/></g><g><path fill="#EBD57B" d="M37.1 141.8l.2.2 2.2 3.2 1 1.3c0 .1 0 .2.2.2v-.4a29.1 29.1 0 0 0-.2-2l-.3-2 .1-.3h1l.9-.1.1.2.2 2.2v2.2l.4 4.2v.2h-1.6l-.3-.3-2-2.8a49.4 49.4 0 0 0-1.1-1.7l-.1-.1v.1c0 .5 0 1.3.2 2.2l.2 2.2-.1.2a83.3 83.3 0 0 1-1.8-.1l-.2-.2-.1-2-.1-2-.3-2.2a65.4 65.4 0 0 1-.2-2.1l.2-.2h1.1l.4-.1z"/></g><g><path fill="#807443" d="M36.3 150.6a67.4 67.4 0 0 1-3.2 1.8l-.2-.2a67.2 67.2 0 0 0 3.2-1.8l.2.2z"/></g></g><g><defs><path id="cy" d="M27.3 145.5a61 61 0 0 0 3.1-1.6c.2-.2.5-.2.7-.2.5 0 1 .3 1.3.8.4.4.6 1 .6 1.5 0 .7 0 1.1-.3 1.5a61 61 0 0 1-3.2 1.7c.3-.4.4-.8.4-1.4-.1-.6-.3-1.2-.7-1.6s-.8-.7-1.2-.8l-.7.1z"/></defs><clipPath id="cz"><use xlink:href="#cy" overflow="visible"/></clipPath><g clip-path="url(#cz)"><path fill="#857846" d="M32.7 147.5a61 61 0 0 1-3.2 1.7c.3-.4.4-.8.4-1.4-.1-.6-.3-1.2-.7-1.6s-.8-.7-1.2-.8a1.2 1.2 0 0 0-.7.1 61 61 0 0 0 3.1-1.6c.2-.2.5-.2.7-.2.5 0 1 .3 1.3.8.4.4.6 1 .6 1.5 0 .7 0 1.1-.3 1.5"/></g><defs><path id="cA" d="M32.2 148a59.4 59.4 0 0 1-3.2 1.6 1.4 1.4 0 0 0 .5-.4 61 61 0 0 0 3.2-1.7 1.5 1.5 0 0 1-.5.5z"/></defs><clipPath id="cB"><use xlink:href="#cA" overflow="visible"/></clipPath><g clip-path="url(#cB)"><path fill="#857846" d="M32.2 148a59.4 59.4 0 0 1-3.2 1.6 1.4 1.4 0 0 0 .5-.4 61 61 0 0 0 3.2-1.7 1.5 1.5 0 0 1-.5.5"/></g><defs><path id="cC" d="M26.1 143.5a61 61 0 0 0 3.2-1.7 3.2 3.2 0 0 0-.9.8 57.7 57.7 0 0 1-3.1 1.6 2.9 2.9 0 0 1 .8-.7z"/></defs><clipPath id="cD"><use xlink:href="#cC" overflow="visible"/></clipPath><g clip-path="url(#cD)"><path fill="#857846" d="M28.4 142.6a57.7 57.7 0 0 1-3.1 1.6 2.9 2.9 0 0 1 .8-.7 61 61 0 0 0 3.2-1.7c-.4.2-.6.5-.9.8"/></g><g><defs><path id="cE" d="M33.4 150a60.5 60.5 0 0 1-3.2 1.7c-.5.2-1 .3-1.6.2-1.1-.2-2-.8-2.8-1.7a5.8 5.8 0 0 1-1.3-3.2c0-1.2.2-2.1.8-2.8a57.7 57.7 0 0 0 3.1-1.6 4 4 0 0 0-.7 3 5.7 5.7 0 0 0 1.3 3.1c.7 1 1.6 1.5 2.7 1.7.7 0 1.2 0 1.7-.3z"/></defs><clipPath id="cF"><use xlink:href="#cE" overflow="visible"/></clipPath><g clip-path="url(#cF)"><path fill="#857846" d="M33.4 150a60.5 60.5 0 0 1-3.2 1.7c-.5.2-1 .3-1.6.2-1.1-.2-2-.8-2.8-1.7a5.8 5.8 0 0 1-1.3-3.2c0-1.2.2-2.1.8-2.8a57.7 57.7 0 0 0 3.1-1.6 4 4 0 0 0-.7 3 5.7 5.7 0 0 0 1.3 3.1c.7 1 1.6 1.5 2.7 1.7.7 0 1.2 0 1.7-.3"/></g></g><g><path fill="#EBD57B" d="M33.7 143c.7.8 1.2 2 1.3 3.2 0 1.3-.2 2.3-.8 3.2-.6.8-1.4 1-2.5 1-1-.2-2-.7-2.7-1.7a5.7 5.7 0 0 1-1.3-3.1 4 4 0 0 1 .7-3c.6-.8 1.4-1.2 2.5-1.1 1 0 2 .5 2.8 1.4zm-1 4.5c.3-.4.4-.8.3-1.5a3 3 0 0 0-.6-1.5c-.3-.5-.8-.8-1.3-.8s-.9.2-1.2.6c-.2.4-.4.9-.3 1.5 0 .6.3 1.1.6 1.5.4.5.8.8 1.3.8s.9-.1 1.2-.6"/></g></g><g><path fill="#807443" d="M26.4 144.1l-3.1 1.5h-.1a49.7 49.7 0 0 0 3-1.4 3.6 3.6 0 0 1 .2 0z"/><path fill="#807443" d="M26.3 144.2a50.5 50.5 0 0 1-3.2 1.4l-.2-.3a50.2 50.2 0 0 0 3.1-1.4l.3.3z"/><path fill="#807443" d="M26 143.9a50.4 50.4 0 0 1-3.1 1.4l-.6-.5a50 50 0 0 0 3.1-1.4l.6.5zm.3 2.9a46.5 46.5 0 0 1-3.1 1.3l.2-.1a47.5 47.5 0 0 0 3.1-1.4l-.2.2z"/><defs><path id="cG" d="M20.8 144.5a55.6 55.6 0 0 0 3-1.4h.8l.8.3-3.1 1.4-.9-.4a1.2 1.2 0 0 0-.6 0z"/></defs><clipPath id="cH"><use xlink:href="#cG" overflow="visible"/></clipPath><g clip-path="url(#cH)"><path fill="#857846" d="M25.4 143.4l-3.1 1.4-.9-.4a1.2 1.2 0 0 0-.6 0 45.7 45.7 0 0 0 3-1.3 1.2 1.2 0 0 1 .8 0l.8.3"/></g><path fill="#807443" d="M25.8 147.1a45.9 45.9 0 0 1-3.1 1.3l.5-.3a46.5 46.5 0 0 0 3-1.3l-.4.3z"/><defs><path id="cI" d="M25.7 147.1a44.6 44.6 0 0 1-3 1.3 45.3 45.3 0 0 0 3-1.3z"/></defs><clipPath id="cJ"><use xlink:href="#cI" overflow="visible"/></clipPath><g clip-path="url(#cJ)"><path fill="#857846" d="M25.7 147.1a44.6 44.6 0 0 1-3 1.3 45.3 45.3 0 0 0 3-1.3"/></g><defs><path id="cK" d="M26.6 149.2l-3.1 1.3H22c-1-.3-2-.9-2.6-1.9a37.8 37.8 0 0 0 3-1c.8 1 1.6 1.5 2.7 1.7h1.5z"/></defs><clipPath id="cL"><use xlink:href="#cK" overflow="visible"/></clipPath><g clip-path="url(#cL)"><path fill="#857846" d="M26.6 149.2l-3.1 1.3H22c-1-.3-2-.9-2.6-1.9a37.8 37.8 0 0 0 3-1c.8 1 1.6 1.5 2.7 1.7h1.5"/></g><g><path fill="#EBD57B" d="M24.2 141c1.1 0 2 .5 2.7 1.4l.1.2s0 .3-.3.8l-.3.7h-.1l-.3-.2-.6-.5-.8-.4c-.5 0-1 .2-1.2.5a2 2 0 0 0-.2 1.4c0 .5.2 1 .5 1.5.3.4.8.7 1.3.8h.8l.5-.4.2-.2.1.1.5.8.5.8-.1.2c-.6.8-1.4 1-2.4.8-1-.2-2-.8-2.7-1.7a5.7 5.7 0 0 1-1.2-3c-.1-1.2.1-2 .6-2.7.6-.7 1.4-1 2.4-1z"/></g><g><defs><path id="cM" d="M19.6 142.5a46.2 46.2 0 0 0 3.1-1.3 2.5 2.5 0 0 0-.9.7c-.5.6-.7 1.5-.6 2.6a5.7 5.7 0 0 0 1.2 3 38 38 0 0 1-3 1.1 5.8 5.8 0 0 1-1.3-3c-.1-1 .1-1.9.6-2.5.3-.3.6-.5 1-.6z"/></defs><clipPath id="cN"><use xlink:href="#cM" overflow="visible"/></clipPath><g clip-path="url(#cN)"><path fill="#857846" d="M22.4 147.6a38 38 0 0 1-3 1 5.8 5.8 0 0 1-1.3-3c-.1-1 .1-1.9.6-2.5.3-.3.6-.5 1-.6a46.2 46.2 0 0 0 3-1.3 2.5 2.5 0 0 0-.9.7c-.5.6-.7 1.5-.6 2.6a5.7 5.7 0 0 0 1.2 3"/></g></g></g></svg>