<svg xmlns="http://www.w3.org/2000/svg" viewBox="0 0 140 140"><circle fill="#E0693B" cx="69.94" cy="70.5" r="67.94"/><path fill="#6F0" d="M68 92.08l-10.78-3 3.28-1.51 5.04-5.13 4.04-6.3 5.4-16.5-1.09-8.75 10.26-4.15-1.6 33.05L74 91.1zm49.14-35.26l-9.14 4.3V45.65l3.57.8 5.28 5.84zm-11.9-14.9l-39.8-11.05 5.25-9.62 29.16 11.07z"/><path fill="#FFFBB0" d="M40.4 57.07c-1.44 1.44-4 .68-4 .68l-1.61-4.83 6.38 1.47s.66 1.25-.77 2.68zm-5.92-13.79l-1.14 1.88-1.9-.88-1.48 6.58-4.48-4.1 6.5-5.84zm39.58-23.3l-6.92-4.8 7.08-11.05.14 5.53-1.03 3.9 6.97-3.28 6.83-5.8 1.63.17-5.66 8.84z"/><path fill="#006837" d="M116.04 81.33l-9.67 2.71 6.95-11.95 3.93-15.27-9.12 3.58 1.48-7.25-1.39-7.78 2.46.55 4.99 4.87-4.05-9.53-4.65-5.58-8.76-7.88-12.82-6.54-10.58-2.65c-1.68.5-5.8-1.28-7.32-3.95l-6.56 3.52-6.7 6.35-12.01 3.63-3.6 5.88-4.64 1.91-4.2.08-6.9 3.91 1.94 5.94 1.4 1.45c.48-2.5 3.03-3.27 4.88-3.29.33-1.21 2.1-2.11 3.14-1.8l6.25-2.47 6.49 1.5S41.6 53.9 41.36 54.7c-.55 1.78-2.92 3.05-4.96 3.05l1.36 1.6 5.55 3.32 3.67-6.9 6.53-5.8 7.78-1.64L74 50.56l10.74-3.62-10.1 6.97-1.23 11.4 9.45-.23-9.86 3.3-3.28 8.88L79 79.24l-6.08 1.5-5.17-.57-5.55 6.03 6.01 3.55 7.04 1.64-7.5.33-9.96-2.49-11.08 7.02-2.83 13.62 4.53-3.96 4.1 11.16 8.92 11.33 11.3 7 .26-5.5 9.14 4.5 14.08 3.2 16.42.83-7.5-6.2 10.9-30.65-13.27 3.15 6.83-8.74 6.45-14.66zm-21.49-46.3l-9.44-3.83-9.07-1.54-8.47.38 2.88-4.37 7.29.3 8.21 2.32 9.43 4.48 9.86 9.16-10.69-6.9z"/><path fill="#FF4E1F" d="M48.56 33.74l-4.04 1.94 2.17-4.39 8.39-2.33z"/><path fill="#FF7BAC" d="M37 47.12l-4.09 4.54 12.77-6.56 1.3-3.84z"/><path fill="none" stroke="#000" stroke-miterlimit="10" d="M111.61 113.75l5.02-12.32-13.81 3.57 6.5-7.98 7.55-15.92-10.5 2.94 7.1-12.2 3.78-15.02-8.75 3.68 1.11-7.35-1.58-7.63 2.5.66 5.14 4.6-3.68-9.07-5.77-6.94-8.28-7.05-8.47-4.97-7.79-2.85-6.28-.96 7.63-5.47 7.1-10.91-9.7 7.35-7.34 3.49.98-3.8.16-5.48-6.06 10.17-7.55 4.06-6.34 6.18-12.06 3.63-3.63 5.7-4.4 1.96-4.23.43-7.08 3.7 1.94 5.93 5.14 5.3 1.25-6.78 2.13.76 1.04-2.57 6.13-2.68 5.87 1.35-9.35 5.83-2.87 3.53 10.87-4.99-3.95 8.73-6.05-1.14 1.06 4.18 2.18 2.43 4.87 2.51 3.98-6.81 6.01-5.43 7.32-1.7 8.35.67 5.1 1.82 7.26-2.5 3.86-2.13-2.9 2.93-4.3 3.34-3.74 1.7.6 5.46-1.66 5.69 10.47-.58-5.14 2.26-5.67 1.38-3.48 8.65 4.55 1.3 7.38 1.2-7.97 1.16-5.45-.58-5.85 6.14 6.18 3.08 6.87 2-7.45.35-9.67-2.5-11.08 7.01-2.83 13.62 4.67-4.2 3.99 11.5 8.9 11.23 11.28 7 .22-5.46 9.2 4.45 12.71 3.15 17.78.9-7.3-5.97 6.28-18.72zM48.56 33.74l-3.44 1.47 1.58-3.92 7.61-2-5.75 4.45zm27.48-4.08l-8.47.38 2.88-4.37 7.29.3 8.21 2.32 9.43 4.48 9.85 9.16-10.68-6.9-9.44-3.83-9.07-1.54z"/></svg>