<svg xmlns="http://www.w3.org/2000/svg" viewBox="0 0 140 140"><path fill="#E9AD8D" d="M104.7 72.5l-35 16.4-36.1-15L43.4 44h50z"/><path fill="#FFC033" d="M97.3 43H41.2s1.2-7.9 7.3-15.6c4.3-5.4 11.8-11.8 21.2-11.8 9.4 0 17 6.5 22.3 12.3 6.9 7.6 5.3 15.1 5.3 15.1z"/><path fill="#FFF" d="M63.4 56.6c-.2.8-2.2 1.2-4.6.8-2.3-.4-4-1.5-4-2.3.2-.9 2.3-1.2 4.6-.8s4.1 1.4 4 2.3zm22-1.7c.2.9-1.4 2-3.5 2.4-2.2.4-4 .1-4.2-.7-.2-.9 1.3-2 3.5-2.4 2.1-.4 4-.1 4.2.7z"/><path fill="#E29017" d="M32.3 107.2c.9-.5 18.5 7 19 8.6.4 1.5-.9 3-2.3 4.2-2.3 1.9-17-5.1-18-6.5-1-1.4.4-5.7 1.3-6.3zm56.4 7.7c0-1 16.2-9.2 17.8-8.6 1.5.6 1.4 5.1 1.5 7 .1 2.8-15 7.8-16.8 7.7-1.8 0-2.6-5.1-2.5-6.1z"/><ellipse fill="#A36D48" cx="39" cy="50.6" rx="1.4" ry="2.3"/><ellipse fill="#A36D48" cx="99.6" cy="50.6" rx="1.4" ry="2.3"/><path fill="#E9AD8D" d="M97.7 50.7s.6 2.2.6-.2c.1-2.5.8-1.9 1.6 0 .9 1.7 0 1.6-.7 2-.7.6-.6 3.2.8 5 1.4 1.9 2-5 .6-10.4-1.6-5.4-3.4-3.1-3.4-1.9 0 1.3.2.8-.3 2.3-.5 1.7.8 3.2.8 3.2zM38 57.5c2-1.8 1.9-4.4 1-4.9-1-.6-1.8-.3-.7-2.1 1-1.8 1.5-2.5 1.8 0 .3 2.5.8.3.8.3s1.4-.7 1-3.1c-.2-1.7-.4-1.3-.5-2.5 0-1.2-2.8-3.6-4.8 1.7-1.8 5.4-.5 12.4 1.4 10.6z"/><path fill="#E29017" d="M42.3 44.3L35 63.7l9.2 7.5 3.2-7.8c-6.4-5-2.2-19.1-2.2-19.1h-2.8zm49 19l3.3 8 9.2-7.6-7.4-19.4h-2.8s4.2 14-2.2 19z"/><path fill="#E29017" d="M41.2 40.3h56.3v5.1H41.2z"/><path d="M93 106.8l4-1.7s2.8-4.2.8-6.8c0-1.6 3.4 1 3 3.6-.6 2.6 13.4-13.5 5.3-18.9 0 0 .8-3 3 0 0 0 .6-21-5.3-19-6 1.9-10.6 9.6-11 13-.4 3.4 1.6 1.6-1.5-1.4-3.2-3-10.2-10.7-20.8-3.4 0 0-4.2.7-5.2-1-1.1-1.7-1.8 0-5-1s-13.7 2.3-16.5 9l.4-8.3-4 2.7v-5.4s1.8-.8-1.8-2.6-6.5 2.6-8.3 10c0 0 1.2-3 5-1 0 0-6.7 1-3.8 13.7 0 0-1-9 3.3-9.7 0 0-3.4 17.3 1.1 22.3l1.6 2.3 1.9-2.9 3.1 5.5s3.4 2.8 5.3 0 2.8 2 2.8 2l3-10.4c.7-2 1 8.5 1 8.5l5.8 26 2 1.6 2-4.5 2.5 7.5 2.4-7.6 3.3 6.4 2.8-3.2 8.1-24.9.1-9.1s6.6 10.5 8 11.6c1.3 1.1 1.5-2.9 1.5-2.9zM68.6 86.7s-.7-4-5-4c0 0 10.2-1 12.7.6 0 0-8 1.1-7.7 3.4zM79.9 78c-4.5-1-2.4 3.4-2.4 3.4-6.8-4.3-17-1.3-17-1.3-3.5 1-3.8-1.3-3.8-1.3-1.1-2.4-3.2 0-3.2 0 0-4 5.3-2.7 6.7-4.8 1-1.4 3 1 4 2.5-.3-1.4 2.4-2.2 2.4-2.2C65.2 75 68 77 68 77l2.7-.7c0-3.4 3.6-3 3.6-3-3.6 1-.4 2.7-.4 2.7l5-1s5.6 4 1 3z"/><ellipse fill="#E29017" cx="69.3" cy="28.1" rx="3.2" ry="3"/><path fill="#E29017" d="M57.5 22c-8 2.8-13.6 8-14.1 14.6h18.5c.5-3 .9-8.5-4.4-14.6zm39.3 14.6c-.6-6.6-6.6-12.3-15.2-15-5.6 6.3-5.3 12-4.6 15h19.8zM65 33.1v3.5h7.4L72 33s-3.8 1.5-6.9.2zm8.9-6.7c2-4.4 2.5-7.7 2.5-7.7-8.2 5-14.1.3-14.1.3l1.8 8.4c3.4-8.4 9.8-1 9.8-1zm-4.3-23c-.8 0-4.2 13.4-4.2 13.4h8.4S70.6 3.4 69.7 3.4z"/><path d="M51 110c-14 1-16.3-6.9-16.3-6.9-2.6-2.1-1.5 3.6-1.5 3.6-1.9-1.2-.3 1.7-.3 1.7 1.4 4 12.6 8.1 16.4 7.5 3.9-.7 1.2-2.8 1.2-2.8 2.1-.8.6-3 .6-3zm-19.5 3.1s-7 4.2-4.3 12.8c0 0 .8-4.4 3.5-5 2.8-.6-6.3 6.1-1.8 13.3 0 0 1.8-9.2 5.7-9.5 0 0 .6 8.6-6.1 13.2 0 0 10.8-6.2 11.6-11 0 0 .9 3.4-4 7.4 0 0 12.8-2.9 13-14.7-.1 0-8.9 1-17.6-6.5zm74.8-4.8s1.5-3-.3-1.7c0 0 1-5.6-1.6-3.5 0 0-2.2 8-16.3 7.1 0 0-1.5 2.3.6 3 0 0-2.6 2.3 1.2 2.8 3.9.7 15.1-3.8 16.4-7.7zm2.4 12.5c2.8.5 3.6 5 3.6 5 2.6-8.6-4.5-12.8-4.5-12.8-8.6 7.6-17.3 6.8-17.3 6.8.4 11.8 13.2 14.5 13.2 14.5-5-4-4.1-7.3-4.1-7.3.8 4.8 11.7 10.8 11.7 10.8-6.8-4.5-6.3-13.1-6.3-13.1 3.9.2 5.8 9.3 5.8 9.3 4.3-7-4.8-13.6-2-13.2zM64.6 54.3c2 1.2 3.9 3.3-1.2 6-8 3.9-9.1.2-12-.7 0 0 5.1 6.8 14 1.5L64 69l3.3-2.6L68.8 54l-4.2.3z"/><path d="M51.9 49.6l6 4.7.7.1c-.5.2-1 .6-1 1.3 0 .7.7 1.3 1.5 1.3h-.6l-4.2-1.7 4.2 3 5.2-1.3-4 .2c.6-.2 1.2-.7 1.2-1.5 0-.5-.3-1-.7-1.1l3.5.3.9-.6 2.2-1.6-1.2-.4-5.9-.7-5-5.1-5.4 2.1 1.9.5-1.6 2.4 2.3-1.9zm33.9-3.1l-5 5.1-5.8.7-1.2.4 1.1.8-3.6.4 1.5 12.6 3.3 2.6 1-7.5c8.9 4.3 11.6-2 11.6-2-3 .8-4 4.5-12 .5-5.3-2.6-3-4.8-.9-6l1.1.7 3.5-.4c-.4.3-.6.7-.6 1.2 0 .7.5 1.3 1.2 1.5l-4-.2 5.2 1.4 4.2-3-4.2 1.8h-.6c.8 0 1.4-.7 1.4-1.4 0-.6-.4-1.1-1-1.4l.8-.1 6-4.7 2.3 1.9-1.6-2.4 2-.6-5.7-2z"/><path fill="#E29017" d="M35 99.7a57 57 0 0 1 18 6c.5 1.4-.3 3.3-1.7 4.5-2.2 2-17-2.6-18.4-5.5-.7-1.6 1.2-4.3 2-5zm51.4 5.7c.1-1 14.8-9 16.2-8.3 1.5.7 4.1 4.1 3.3 5.8-2.3 5.2-13.6 9.3-17.6 7.5-1.6-.8-2.1-4-2-5z"/></svg>