<svg xmlns="http://www.w3.org/2000/svg" viewBox="0 0 140 140"><path fill="#F4DAB8" d="M44.5 63.66c-1.07-3.24-4.46-8.02-4.52-7.02-1.24-1.09-2.76-2.18-4.28-3.26-4.7-3.45-6.36-3.99-13.4-8.7a126.73 126.73 0 0 1-10.93-7.79A79.28 79.28 0 0 1 1.01 25.66a85.83 85.83 0 0 0 9.4 17.93c7.04 10.15 9.67 8.34 17.96 19.93 5.25 7.25 8.43 11.24 13.82 15.04.11.05 4.16-9.28 2.3-14.9zm85.32-25.18c-3.04 2.72-5.67 4.36-10.92 7.8-7.05 4.71-8.7 5.26-13.4 8.7a56.58 56.58 0 0 0-4.29 3.29c0-.25-1.67 23.74-1.38 22.24.27-.18.55-.36.69-.54 5.39-3.8 6.77-7.8 12.02-15.04 8.43-11.6 10.92-9.78 17.97-19.93a82.17 82.17 0 0 0 9.4-17.93 61.09 61.09 0 0 1-10.1 11.41z"/><path fill="#E9AD8D" d="M42 70.88c0-.54-.78-1.27-1.33-1.8-.83-.74-1.36-1.64-2.19-2.36-1.52-1.45-2.96-3.09-4.48-4.72-3.04-3.08-6.04-6.34-9.36-9.24-3.18-2.9-6.6-5.43-9.79-8.33-3.18-2.9-6.2-6.16-9.1-9.6a88.31 88.31 0 0 0 8.84 9.96c3.18 3.08 6.5 5.8 9.68 8.88 3.18 2.9 6.08 6.34 9.12 9.6 1.52 1.63 2.9 3.44 4.43 5.07.82.91 1.12 1.64 1.81 2.54.7.9 2.37 2.54 2.37 3.44v-3.44zm87-29.8c-3.3 2.9-6.62 5.6-9.94 8.5-3.18 2.9-6.36 5.99-9.4 9.25a118.7 118.7 0 0 1-4.7 4.7l-2.35 2.36c-.55.55-1.1 1.27-1.66 1.82-.14.54-.14 1.08-.14 1.63-.13.36-.13.72-.13 1.08l-.14.73c.69-.9 2.21-2.72 2.9-3.44l2.35-2.36c1.52-1.63 3.04-3.44 4.56-5.07 2.9-3.26 5.94-6.53 9.12-9.6 3.18-3.09 6.5-5.8 9.68-8.88l4.56-4.9a48.37 48.37 0 0 0 4.42-5.43 67.25 67.25 0 0 1-4.42 5.07 63.24 63.24 0 0 1-4.7 4.53z"/><path fill="#FFFA97" d="M58.48 73.56l2.49.18a5.76 5.76 0 0 0-2.49-.18z"/><path d="M58.41 73.56l.07-.06c.23-.17.44-.24.65-.29.21-.04.42-.05.62.02.2.08.4.25.6.3.21.06.43.01.64-.06l-.08.53c-.22.05-.44.09-.65.07-.2.01-.4.01-.59-.03a2.1 2.1 0 0 1-.56-.16 2.75 2.75 0 0 1-.62-.28l-.08-.04zm.06-.05a1.87 1.87 0 0 1 .63-.42 2.7 2.7 0 0 1 .7-.1c.44.06.86.2 1.23.49l2 1.6L60.95 74c-.2-.1-.4-.18-.61-.15-.21.02-.43.16-.65.2-.2.04-.41 0-.61-.07a1.5 1.5 0 0 1-.6-.38l-.05-.06.04-.04z"/><path fill="#FFFA97" d="M102.02 57.45c0-1.27-.14-2.52-.14-2.52s-.14-2.15-.55-4.14a46.22 46.22 0 0 0-5.8-16.06c-2.5-4.17-5.4-6.84-8.85-9.37C82.53 22.09 77.69 21 72.72 21h-2.77c-7.46 0-14.5 3.45-19.76 10.15-2.35 3.08-4.42 5.95-5.94 9.94-.56 1.45-3.14 11.65-3.46 16.5-.31 4.86 1.1 22.39 1.38 22.57 1.52 6.52 4.15 13.19 8.85 18.98 1.66 2 4 4.33 7.05 6.5l2.52 2.16.8.54 2.34 1.27-1.65-2.54a25.47 25.47 0 0 1-2.9-4.89c-4.15-8.88-3.05-18.66-1.94-23.91.14 0 .14.18.27.18l.97-4.9c.83-2.53 1.66-4.34 2.35-5.25.7-1.08 1.52-1.81 1.52-1.81a15.42 15.42 0 0 1 4.56-3.44c.28-.18.56-.36.7-.36 1.38-.9 2.9-2.36 5.94-5.08 3.45-3.26 5.25-5.8 6.5-7.42 1.24-1.63 1.51-2.18 2.34-2.18 3.6 0 7.74 11.6 9.12 21.92.56 5.98.56 11.96-.41 17.94-.01.04 0 0 0 0s-.32 4.6-.55 5.8c-.23 1.2-2.77 9.6-4.15 12.86 5.11-3.98 7.19-5.7 9.54-11.41 6.38-15.58 6.17-37.75 6.08-37.67z"/><path d="M101.98 57.48v-.03c-.1-1.34-.16-2.69-.34-4.02-.22-1.32-.4-2.65-.73-3.96a46.64 46.64 0 0 0-2.27-7.7c-.55-1.23-1.02-2.48-1.62-3.68-.64-1.17-1.24-2.4-1.92-3.51a31.19 31.19 0 0 0-5.03-6.2c-.93-.97-2-1.77-3.05-2.6a23.92 23.92 0 0 0-3.3-2.23 21.16 21.16 0 0 0-7.52-2.45 31 31 0 0 0-3.98-.23l-2.02.01c-.62.01-1.33.08-1.99.12l-1 .07-.97.18c-.64.14-1.3.22-1.92.4-1.26.41-2.54.77-3.72 1.38-1.23.5-2.32 1.27-3.46 1.93-.54.38-1.05.8-1.58 1.2l-.79.6-.73.68-1.45 1.36-1.31 1.5c-.91.96-1.64 2.09-2.47 3.16-.72 1.12-1.53 2.18-2.14 3.36-.31.59-.68 1.15-.95 1.75l-.81 1.83c-.98 2.45-1.5 5.13-2.16 7.7-.53 2.63-1.15 5.25-1.44 7.9-.08.67-.22 1.33-.24 2-.03.65-.03 1.33-.03 2 .02 1.34.06 2.68.11 4.02.11 2.69.27 5.37.46 8.06l.31 4.02.36 3.85.1.13.46 1.86c.14.62.34 1.23.52 1.84.33 1.23.79 2.43 1.2 3.64l.73 1.77c.23.6.51 1.17.79 1.74.28.57.52 1.17.85 1.72l.94 1.67c.32.55.7 1.07 1.04 1.6.34.55.7 1.08 1.1 1.57l1.15 1.52 1.28 1.44c.44.46.9.9 1.34 1.35.44.46.95.86 1.42 1.29.48.42.95.84 1.47 1.22l1.52 1.16h.01l2.53 2.16-.02-.01.8.54-.02-.02 2.35 1.26-.3.34-1.67-2.53v.01l-1.06-1.57-.53-.79-.44-.84-.88-1.68-.7-1.76c-.23-.59-.48-1.16-.69-1.75l-.5-1.84c-.14-.62-.36-1.23-.45-1.85l-.3-1.88c-.1-.62-.21-1.24-.24-1.88l-.13-1.89c-.06-.63-.03-1.26-.03-1.9l.01-1.89.14-1.89a20.54 20.54 0 0 1 .2-1.88c.08-.63.14-1.26.26-1.88l.33-1.86.06-.33.32.02a.7.7 0 0 1 .31.1 1.09 1.09 0 0 1 .12.13.17.17 0 0 0-.16-.05l-.37.31.94-4.9v-.02l.01-.02.48-1.38c.15-.46.35-.91.53-1.37.17-.45.4-.9.61-1.34.2-.45.5-.87.77-1.3l-.02.02.76-.98c.13-.16.24-.34.39-.48l.44-.45-.03.03 1.05-1.04c.34-.35.76-.63 1.13-.94.38-.32.82-.56 1.22-.84.42-.26.85-.48 1.28-.72l-.05.02.36-.23a2 2 0 0 1 .21-.11c.05-.02.07-.04.16-.06.07-.02.15-.04.22-.04l-.25.07 1.52-1.2.76-.61.74-.67 2.93-2.64c.9-.95 1.91-1.85 2.75-2.85l1.28-1.47 1.23-1.54 1.2-1.59c.4-.53.75-1.05 1.26-1.6.25-.28.71-.59 1.17-.61l.17-.01h.18l.25.03c.22.06.47.11.63.2a5.1 5.1 0 0 1 1.7 1.4c.9 1.07 1.56 2.27 2.15 3.48a37.78 37.78 0 0 1 1.54 3.72c.9 2.53 1.6 5.1 2.18 7.71a72.66 72.66 0 0 1 .76 3.93c.1.68.2 1.3.28 2.02l.14 1.98c.09 1.32.2 2.64.18 3.99 0 1.33.09 2.68-.02 4-.09 1.34-.1 2.68-.25 4l-.49 3.98V88l-.02.05v-.02l-.72-.58-.22.24.18.01H91l1.06-3.22-.37 3.43-.24 2.42-.3 2.43c-.06.42-.07.8-.19 1.24l-.32 1.16c-.2.78-.47 1.56-.7 2.33-.24.78-.47 1.56-.73 2.33l-.76 2.3c-.48 1.54-1.11 3.05-1.67 4.57l-.63-.48c.88-.69 1.77-1.36 2.62-2.06.43-.35.85-.7 1.26-1.07.41-.37.83-.73 1.2-1.13.38-.39.77-.77 1.1-1.21.35-.42.7-.84.98-1.31a21 21 0 0 0 1.61-2.86c1.88-4 3.13-8.3 4.12-12.63.98-4.33 1.65-8.74 2.15-13.16a138.27 138.27 0 0 0 .74-9.99l.05-1.67.02-.83v-.41l-.01-.21v-.16l.01-.02v-.01h-.02zm.09-.05v.07l.01.05v.1l.01.21.01.42.01.84-.01 1.67a133.31 133.31 0 0 1-.1 3.34 141.88 141.88 0 0 1-.46 6.68c-.4 4.45-1.04 8.87-1.97 13.25a63.42 63.42 0 0 1-4.03 12.8 21.49 21.49 0 0 1-2.65 4.34c-.34.46-.73.86-1.13 1.27-.38.42-.8.8-1.22 1.17-.42.39-.84.75-1.28 1.1-.86.73-1.74 1.41-2.61 2.11l-1.11.9.48-1.38c.54-1.5 1.14-2.98 1.6-4.53l.74-2.3c.25-.76.46-1.53.7-2.3.22-.76.46-1.51.66-2.3l.3-1.17c.1-.35.1-.78.15-1.16l.25-2.37.18-2.4.97.21.21.01H92l-.23.02-.33.24-.77-.58-.02-.02v-.02l-.04.09.47-3.91c.15-1.3.15-2.63.24-3.94.1-1.31 0-2.62 0-3.94.02-1.3-.09-2.63-.18-3.95L91 70.07c-.07-.59-.18-1.29-.28-1.92a70.94 70.94 0 0 0-.75-3.88 63.16 63.16 0 0 0-2.15-7.57 40.87 40.87 0 0 0-1.5-3.63 16 16 0 0 0-1.99-3.27c-.4-.47-.85-.9-1.33-1.12-.13-.08-.22-.08-.31-.12l-.25-.03h-.14c-.21.02-.34.1-.55.3-.39.42-.79 1-1.19 1.5l-1.2 1.59-1.26 1.56L76.77 55c-.89 1.03-1.86 1.9-2.79 2.86L71 60.53l-.75.66-.8.63-1.6 1.25-.25.08a.03.03 0 0 0 .04 0l-.03.01-.13.07-.31.2h-.01l-.03.03c-.41.23-.84.44-1.23.69-.38.26-.8.48-1.15.78-.35.3-.74.55-1.07.88l-1 .98-.03.03-.4.4c-.13.12-.23.28-.35.43l-.7.88-.02.02v.02c-.24.38-.51.73-.7 1.17-.22.42-.43.83-.6 1.27-.18.44-.38.87-.53 1.33l-.48 1.34v-.05l-.98 4.89-.07.33-.3-.02a.68.68 0 0 1-.32-.11 1.19 1.19 0 0 1-.13-.13h.02a.17.17 0 0 0 .15.06l.37-.3-.35 1.83c-.12.6-.18 1.23-.28 1.84a20.22 20.22 0 0 0-.2 1.86l-.16 1.86-.04 1.86c0 .62-.04 1.25.02 1.87l.11 1.86c.02.62.12 1.23.22 1.85l.27 1.84c.09.62.3 1.2.43 1.8l.46 1.8c.2.6.45 1.18.67 1.76l.68 1.74.85 1.65.43.83.51.77 1.04 1.55v.02l1.66 2.54.5.78-.81-.44-2.35-1.28-.02-.01-.79-.55-.02-.01-2.51-2.17h.01l-1.53-1.18c-.52-.38-1-.8-1.47-1.24-.48-.43-.98-.83-1.43-1.3-.45-.47-.91-.92-1.35-1.39l-1.27-1.44-1.16-1.55a17.84 17.84 0 0 1-1.1-1.6c-.34-.54-.71-1.06-1.03-1.62l-.94-1.69c-.33-.55-.58-1.15-.87-1.72-.28-.58-.58-1.15-.81-1.75l-.75-1.78c-.42-1.21-.9-2.41-1.24-3.65-.19-.61-.4-1.22-.54-1.85l-.49-1.87.1.13a.47.47 0 0 1-.12-.16c-.02-.05 0-.05-.02-.08l-.03-.14-.04-.26-.07-.5-.11-1-.2-2.02-.35-4.03a285.56 285.56 0 0 1-.53-8.06 123.7 123.7 0 0 1-.15-4.05 43.34 43.34 0 0 1 .02-2.04c0-.68.15-1.34.22-2.02.27-2.7.87-5.34 1.4-7.99.65-2.64 1.13-5.29 2.12-7.84l.82-1.88c.28-.62.64-1.2.96-1.8.62-1.22 1.44-2.31 2.17-3.46.8-1.07 1.54-2.22 2.47-3.23l1.34-1.55 1.48-1.41.75-.7.81-.63c.55-.4 1.09-.83 1.65-1.22 1.19-.68 2.32-1.47 3.6-1.97 1.22-.62 2.55-.99 3.86-1.4.66-.18 1.35-.27 2.03-.4l1.01-.19 1.01-.05c.69-.04 1.32-.1 2.04-.1h2.02c1.35.01 2.73.08 4.08.27a21.83 21.83 0 0 1 7.73 2.59c1.23.68 2.3 1.45 3.36 2.3 1.06.85 2.14 1.68 3.08 2.67 2 1.84 3.62 4.09 5.06 6.33.71 1.19 1.28 2.4 1.93 3.6.6 1.2 1.06 2.48 1.58 3.73a46.9 46.9 0 0 1 2.13 7.8c.3 1.32.45 2.67.64 4 .16 1.34.2 2.69.26 4.02z"/><path d="M87.56 101.1c-.7 1.08-.86 1.44-1.41 2.17-.55.72-1.81 2.35-4.71 6.88l-.29.37c-1.93 3.07-3.31 5.07-5.67 6.52-1.52 1.09-3.18 1.63-4.28 1.63s-2.77-.72-4.29-1.63c-2.34-1.45-3.73-3.45-5.66-6.52l-.97-1.46c-.41-.72-.97-1.63-1.38-2.16h1l1.48 1.44.83 1.27c1.8 2.9 3.04 4.7 5.26 6.16 1.52 1.09 3.04 1.45 3.73 1.45s2.2-.55 3.73-1.45c2.21-1.45 3.32-3.26 5.25-6.16l.28-.36c3.04-4.53 4.14-6.16 4.83-7.07.56-.72.7-1.08 1.25-1.99a38.69 38.69 0 0 0 3.45-8.82c.28-1.08 1.18-3.96 1.18-3.96l-.02 5.55s-3.18 7.34-3.6 8.14z"/><path fill="#F4DAB8" d="M82.4 48.01c-.84 0-1.11.55-2.36 2.18-1.24 1.63-3.04 4.16-6.5 7.42-3.03 2.72-4.55 4.17-5.94 5.08-.13 0-.41.18-.69.36-1.38.72-2.9 1.63-4.56 3.44 0 0-.83.73-1.52 1.81-.69.9-1.52 2.72-2.35 5.25.83-.18 1.66 0 2.49.19.97.18 1.8.54 2.63 1.27.41.36.82.72 1.24 1.26.41.55.83 1.09 1.1 1.81a4 4 0 0 1-1.52 1.1c-.55.36-1.1.36-1.51.54-.97.36-1.94.18-2.77 0a5.3 5.3 0 0 1-2.63-1.27c-.13 0-.13-.18-.27-.18-1.1 5.25-2.21 15.04 1.93 23.91.83 1.81 1.8 3.44 2.9 4.9l1.66 2.53-2.35-1.27.83 1.27c1.8 2.9 3.04 4.7 5.25 6.16 1.53 1.09 3.05 1.45 3.74 1.45s2.2-.54 3.73-1.45c2.2-1.45 3.31-3.26 5.25-6.16l.27-.36c3.05-4.53 4.15-6.16 4.84-7.07.55-.72.7-1.08 1.25-1.99 2.07-3.98 2.9-6.7 3.59-9.24a26.54 26.54 0 0 1 .97-3.08c.96-5.98.96-11.96.41-17.93C90.13 59.6 85.98 48 82.4 48zM66.95 96.02c.14-.72.04-1.45.04-1.99v1.99c0 .18.51.08.65.26.14.19.65-.28.65-.28h.13c.14 0 .56.28.83.28.42.19.7.42.97.6.28.18.55-.35.7-.17l.13-.71h.27s0 1 .15.82c.13-.18.4-.03.68-.22.42-.18.7-.57.97-.57l.83-.03h.14l.14.28c.14-.18.14-.13.14-.49.14-.72 0-1.15 0-1.88.28.73.41 1.33.55 2.05 0 .36.14.76 0 1.3 0 .36-.14.87-.27 1.05-.15.36-.42.69-.56.69h-.7c-.13 0-.4-.31-.54-.13s-.28.2-.42.38c-.14 0-.28.1-.41.3-.28.17-.42.13-.7.13-.27 0-.55-.02-.69-.2-.13-.18-.27-.19-.4-.37-.15-.36-.28-.05-.42-.23-.14 0-.42.12-.56.12h-.69c-.14 0-.41-.5-.55-.67-.28-.19-.53-.52-.81-.89a6.6 6.6 0 0 1-.25-1.42zm7.97 11.05c-1.25.36-2.35.55-3.6.55-1.24 0-2.34-.19-3.59-.55-.55-.36-1.24-.54-1.8-.9a12.8 12.8 0 0 1-1.8-1.45c.56-.73 1.25-1.1 1.8-1.45a8.15 8.15 0 0 1 1.8-.9c1.25-.37 2.35-.55 3.6-.55 1.24 0 2.34.18 3.59.9a7.7 7.7 0 0 1 3.6 2.18 9.55 9.55 0 0 1-3.6 2.17zM86.4 77.36c-.42.54-.83.9-1.24 1.27a8.74 8.74 0 0 1-2.63 1.27c-.83.18-1.8.18-2.76 0-.56-.18-.97-.36-1.52-.55a5.35 5.35 0 0 1-1.53-1.08c.28-.72.7-1.27 1.11-1.81s.83-.91 1.24-1.27a8.81 8.81 0 0 1 2.63-1.27c.83-.18 1.8-.18 2.76 0 .56.18.97.36 1.53.54.4.18.96.55 1.52 1.09a7.1 7.1 0 0 1-1.11 1.8z"/><path fill="#E9AD8D" d="M71.33 99.69c-.27 0-.55-.02-.69-.2-.13-.19-.27-.2-.4-.38-.15-.36-.29-.05-.43-.23-.13 0-.41.12-.55.12h-.69c-.14 0-.41-.5-.55-.67-.28-.19-.38-.52-.65-.88-.14-.55-.41-1.08-.41-1.44.14-.72.04-1.44.04-1.98v1.99c0 .18.51.08.65.26.13.19.64-.28.64-.28h.14c.14 0 .56.28.83.28.42.19.7.42.97.6.28.18.55-.35.7-.17l.13-.71h.27s0 1 .15.82c.13-.18.4-.03.68-.22.42-.18.7-.57.97-.57l.83-.03h.14l.14.28c.14-.18.14-.13.14-.49.14-.72 0-1.15 0-1.88.28.73.41 1.33.55 2.05 0 .37.14.76 0 1.3 0 .36-.14.87-.27 1.05-.15.36-.42.69-.56.69h-.7c-.13 0-.4-.31-.54-.13"/><path fill="#E9AD8D" d="M72.85 98.93c-.13.18-.27.18-.4.35-.15 0-.29.1-.43.28-.27.18-.4.13-.69.13"/><path fill="#F7C6C6" d="M74.93 107.07c-1.25.36-2.35.55-3.6.55-1.24 0-2.34-.19-3.59-.55-.55-.36-1.24-.54-1.8-.9a12.8 12.8 0 0 1-1.8-1.45c.56-.73 1.25-1.1 1.8-1.45a8.15 8.15 0 0 1 1.8-.9c1.25-.37 2.35-.55 3.6-.55 1.24 0 2.34.18 3.59.9a7.7 7.7 0 0 1 3.6 2.18 9.55 9.55 0 0 1-3.6 2.17z"/><path fill="#FFF" d="M86.4 77.36c-.42.54-.83.9-1.24 1.27a8.74 8.74 0 0 1-2.63 1.27c-.83.18-1.8.18-2.76 0-.56-.18-.97-.36-1.52-.55a5.35 5.35 0 0 1-1.53-1.08c.28-.73.7-1.27 1.11-1.82s.83-.9 1.24-1.26a8.81 8.81 0 0 1 2.63-1.27c.83-.18 1.8-.18 2.76 0 .56.18.97.36 1.53.54.4.18.96.55 1.52 1.09a7.1 7.1 0 0 1-1.11 1.8z"/><path fill="#3FA9F5" d="M83.72 77c0 1.22-.81 2.2-1.82 2.2-1 0-1.81-.98-1.81-2.2 0-1.2.8-2.19 1.81-2.19 1 0 1.82.98 1.82 2.2z"/><ellipse cx="81.96" cy="76.82" rx=".66" ry=".8"/><path fill="#FFF" d="M58.48 73.56s1.66 0 2.49.18c.97.18 1.8.54 2.62 1.27.42.36.83.72 1.25 1.26.41.55.83 1.1 1.1 1.82a4 4 0 0 1-1.52 1.09c-.55.36-1.1.36-1.52.54-.96.36-1.93.18-2.76 0a5.3 5.3 0 0 1-2.63-1.27c-.14 0-.27-.18-.27-.18l1.24-4.71z"/><path fill="#3FA9F5" d="M63.13 77c0 1.22-.82 2.2-1.82 2.2s-1.82-.98-1.82-2.2c0-1.2.81-2.19 1.82-2.19 1 0 1.82.98 1.82 2.2z"/><path d="M62.02 76.82c0 .44-.3.8-.66.8-.37 0-.66-.36-.66-.8 0-.44.3-.8.66-.8.37 0 .66.36.66.8z"/></svg>