<svg xmlns="http://www.w3.org/2000/svg" viewBox="0 0 1920 1080"><path fill="#FFF9DE" d="M1898 1067h-376l.3-163.8L1535 764h57l7 103 30-27.9 48.3.6 106.2-97L1818 580h80z"/><path fill="#0071BC" d="M1843.8 563.7l-19.9-7.2-18 7.2s-11.4 21.1-17.2 22.6-18-3.3-18-3.3-8.4-26.7-20-25.3-15.5 16.1-15.5 16.1l-17.5 1 2-6 14.6-7.8s5.7-19 15.2-20.6c4.3-.8 13 3.8 13 3.8l6.2 13.8 19.5 5 8.6-3 8-26.2 19.2-6.6 19.7 8 .1 28.5z"/><path fill="#F99450" d="M1592 764h-57l28.5-92.5zm245.4 17.2c-6.3 8.7-103.7 13.1-95.9-4.2 57-13 39-76.2 47-75.8s-10.5 54.8 49 80zm54.9-18.2h-35l17.5-36zM1875 640h-57l16.3-30s7-30 12.2-30c5.7 0 15.5 33.5 15.5 33.5l13 26.5zm-124 227h-37l-2.5-25-20.5 1-.5 24h-42c25-8.5 36-62 36-62h35.5s6 43.7 31 62z"/><ellipse fill="#333" cx="1564.5" cy="792.9" rx="9.2" ry="7.6"/><path fill="#333" d="M1554 851h21v21h-21zm75 120h23v21h-23zm131 0h23v21h-23zm-81-60h-19l1.5-18h16zm64-1h-19l1.5-18h16zm112.5-40l-12.8-1.3-.6-39.7h12.6zm26-73H1867l1.8-18h11.5zM1855 691h-18l2.8-29.4 13.6-.1zm-78 168h13v42h-13z"/><path d="M1551.4 875h26a3 3 0 0 0 3-3v-9.3a16 16 0 0 0-32 0v9.4a3 3 0 0 0 3 3zm3-12.3a10 10 0 1 1 20 0v6.4h-20v-6.4zm107 52h15.2a3 3 0 0 0 3-3v-14a10.6 10.6 0 0 0-21.1 0v14a3 3 0 0 0 3 3zm3.1-17a4.6 4.6 0 0 1 4.6-4.5c2.5 0 4.5 2 4.5 4.5v11h-9.1v-11zm61.6 17h15.2a3 3 0 0 0 3-3v-14a10.6 10.6 0 0 0-21.2 0v14a3 3 0 0 0 3 3zm3-17a4.6 4.6 0 0 1 4.6-4.5c2.5 0 4.5 2 4.5 4.5v11h-9v-11zm119.7-71.8c-4.8 0-8.7 4-8.7 8.7v34a3 3 0 0 0 3 3h11.4a3 3 0 0 0 3-3v-34c0-4.8-3.9-8.7-8.7-8.7zm2.7 39.6h-5.4v-30.9a2.7 2.7 0 0 1 2.7-2.7 2.7 2.7 0 0 1 2.7 2.7v31zm-75.8 37.7h15a3 3 0 0 0 3-3v-29.8c0-11-6.8-16-9-17.3a3 3 0 0 0-3 0c-2.2 1.3-9 6.4-9 17.3v29.8a3 3 0 0 0 3 3zm3-32.8c0-5.9 2.6-9.3 4.5-11 1.9 1.7 4.5 5.1 4.5 11v26.8h-9v-26.8zm58.6-176.1h19a3 3 0 0 0 3-3v-22a12.6 12.6 0 0 0-25 0v22a3 3 0 0 0 3 3zm3-25c0-3.7 3-6.6 6.5-6.6a6.6 6.6 0 0 1 6.6 6.5v19h-13.1v-19zM1646.6 967a9.9 9.9 0 0 0-7 2.9 9.9 9.9 0 0 0-6.9-2.9 10 10 0 0 0-10 10v15a3 3 0 0 0 3 3h27.9a3 3 0 0 0 3-3v-15a10 10 0 0 0-10-10zm-17.8 10a4 4 0 0 1 4-4 4 4 0 0 1 3.9 4v12h-8v-12zm21.8 12h-8v-12a4 4 0 0 1 4-4 4 4 0 0 1 4 4v12z"/><path d="M1639.7 947.7a27 27 0 0 0-27 26.9 3 3 0 1 0 6 0 21 21 0 0 1 42 0 3 3 0 0 0 6 0 27 27 0 0 0-27-27zm139 19.3a9.9 9.9 0 0 0-7 2.9 9.9 9.9 0 0 0-7-2.9 10 10 0 0 0-10 10v15a3 3 0 0 0 3 3h27.9a3 3 0 0 0 3-3v-15a10 10 0 0 0-10-10zm-18 10a4 4 0 0 1 4-4 4 4 0 0 1 4 4v12h-8v-12zm21.9 12h-8v-12a4 4 0 0 1 4-4 4 4 0 0 1 4 4v12z"/><path d="M1771.7 947.7a27 27 0 0 0-27 26.9 3 3 0 0 0 3 3 3 3 0 0 0 3-3 21 21 0 0 1 41.9 0 3 3 0 0 0 3 3 3 3 0 0 0 3-3 27 27 0 0 0-27-27zm103.1-173.4a8.7 8.7 0 0 0-8.7 8.7v14.4a3 3 0 0 0 3 3h11.5a3 3 0 0 0 3-3V783a8.7 8.7 0 0 0-8.8-8.7zm2.8 20.1h-5.5V783a2.7 2.7 0 0 1 5.5 0v11.4z"/><path d="M1897.7 762.2l-19.9-36v-17a3 3 0 0 0-3-3h-3V694a19.4 19.4 0 0 0 16.5-19.2v-6.5a3 3 0 0 0-3-3h-13.5v-21a9.3 9.3 0 0 0-2-18l-12.2-30.4a12 12 0 0 0-7.7-16.7v-54.7a3 3 0 0 0-3-3 3 3 0 0 0-3 3v7c-5.5-5.2-12-7.7-19.8-7.7-10.6 0-18.6 3.9-26 12.7a3 3 0 0 0-.7 1.9V554c-4.3 4.8-8.7 7-15 7-5.8 0-10.3-2.6-14.1-7.8V548a3 3 0 0 0-.5-1.7c-4.1-5.9-9.5-8.9-16.1-8.9a20 20 0 0 0-16.5 8 3 3 0 0 0-.7 2v9c-4 6.5-14.2 10-27.2 8.7a3 3 0 0 0-3.1 1.9 3 3 0 0 0 1 3.4 40.3 40.3 0 0 0 23.3 7.5c3.3 0 7.8-.4 10.7-2.6a3 3 0 0 0 1.3-2.4v-6.1a14 14 0 0 1 11.2-5.2c4.4 0 7.7 1.9 10.6 5.7v10.2c0 .6.2 1.2.5 1.7a23 23 0 0 0 19.7 11c8.3 0 14.5-3 20.2-9.9a3 3 0 0 0 .7-1.9V570c6-7 12.1-9.8 20.7-9.8A23 23 0 0 1 1844 571v8.1a11.7 11.7 0 0 0-7.7 16.7l-12.5 30.6a9.3 9.3 0 0 0-7.8 9.2c0 4 2.5 7.3 6 8.6v62h-3a3 3 0 0 0-3 3v56.7c-11.8-9.7-25-31.1-25-61a3 3 0 1 0-6 0c0 41.7-26 67-37.4 67h-.2a9.2 9.2 0 1 0-3 18v29.4a3 3 0 0 0 3 3c3 0 6.3 5 6.3 11.7v5.1h-21.3a70 70 0 0 1-9-33.2 3 3 0 0 0-3-3h-37.8a3 3 0 0 0-3 3 70 70 0 0 1-9 33.2H1628a3 3 0 0 0-2.1.9l-30.5 30.5v-49.9a3 3 0 0 0-3-3h-2.7v-48.4a9.2 9.2 0 0 0-.6-17.6l-21.8-85.4a3 3 0 0 0-2.9-2.2 3 3 0 0 0-2.9 2.2l-21.8 85.5a9.3 9.3 0 0 0-.5 17.4v48.5h-2.8a3 3 0 0 0-3 3v67.9h-8.1a3 3 0 0 0-3 3v15.8l.1 1 4.2 11.3v54.7l-4.3 19.2v.5l-3.5 70a3 3 0 0 0 .8 2.1 3 3 0 0 0 2.2 1h86a3 3 0 0 0 2.2-1 3 3 0 0 0 .8-2.2l-.6-9.6h191.5l-.5 9.6c0 .9.3 1.7.9 2.2a3 3 0 0 0 2.1 1h86a3 3 0 0 0 3-3.2l-4.2-69.3.1-.4c0-.5-.1-1-.3-1.4l-4.1-18.5v-54.7l4.1-11.2c.2-.4.2-.7.2-1v-15.9a3 3 0 0 0-3-3h-8.2V822A20 20 0 0 0 1895 802v-35.5h.2a3 3 0 0 0 2.6-1.4 3 3 0 0 0 0-3zm-8.8 40a14.1 14.1 0 0 1-28.2 0v-35.6h28.2v35.5zm-213.9 41c5.8-10.2 9.9-22 10.4-34.3h32a83.6 83.6 0 0 0 29.8 57.9h-33.4V845h1.6a3 3 0 0 0 2.8-2 3 3 0 0 0-1-3.3 31.3 31.3 0 0 1-8.3-19.9 3 3 0 0 0-3-3h-9a3 3 0 0 0-3 3c0 7.7-5 17.2-8.4 19.9a3 3 0 0 0 1.9 5.3h1.6v21.7h-33.5a86 86 0 0 0 19.2-23l.3-.6zm34-4h-15.2a40.8 40.8 0 0 0 5.9-16.3h3.4c.6 5.7 3 11.7 5.9 16.2zm78.8-109.4c5 20 15.7 34.5 25.9 42.1H1762a76 76 0 0 0 25.8-42.1zm-40.5 48h80.9c1.8 0 3.2 1.6 3.2 3.4a3.3 3.3 0 0 1-3.2 3.3h-81a3.3 3.3 0 0 1-3.2-3.3c0-1.8 1.5-3.3 3.3-3.3zm3 12.7h74.9v25.8h-75v-25.8zm65.6 31.8h3a21.7 21.7 0 0 0-2.9 8.7h-56.6c-.4-3.3-1.4-6.3-2.8-8.7h59.3zm62.8 105.8v43.5H1815v-49.5h63.7v6zm-67.3 63l3-13.5h64.9l3 13.6h-70.9zm71.6-84.3l-3.4 9.3H1814l-3.4-9.3v-12.3h5.2v4.6a3 3 0 0 0 3 3h11.1a3 3 0 0 0 3-3v-4.6h5.2v4.6a3 3 0 0 0 3 3h11.2a3 3 0 0 0 3-3v-4.6h5.2v4.6a3 3 0 0 0 3 3h11.2a3 3 0 0 0 3-3v-4.6h5.2v12.3zm-11.2-15.3v4.6h-5.2v-4.6a3 3 0 0 0-3-3h-11.2a3 3 0 0 0-3 3v4.6h-5.2v-4.6a3 3 0 0 0-3-3H1830a3 3 0 0 0-3 3v4.6h-5.1v-62c0-7 3.3-11.8 6.2-11.8a3 3 0 0 0 3-3v-29.4a9.2 9.2 0 0 0-3-18c-1.7 0-3.9-.7-6.2-1.9v-57.8h50v14.1l-20 35.9a3 3 0 0 0 2.6 4.4h.2v35.6a20 20 0 0 0 17.1 19.8v69.5zm-48-258.9c.3-.2.8-.3 1.3-.3h43.7c.4 0 .8 0 1.1.2 1.3.4 2.2 1.6 2.2 3a3.3 3.3 0 0 1-3.3 3.3h-43.7a3.3 3.3 0 0 1-3.2-3.2c0-1.3.7-2.4 1.8-3zm17.1-42a6 6 0 0 1 12 0h-.1c0 1.2-.4 2.2-1 3a5.9 5.9 0 0 1-5 3c-2.1 0-3.9-1.2-5-3-.5-.8-.9-1.8-.9-3zm6 12c2.2 0 4.4-.7 6.2-1.8l10.1 25.5h-33l10.4-25.5c1.8 1.1 4 1.8 6.2 1.8zm35.4 72.2c0 6.4-4.5 11.8-10.5 13.1v-16.6h10.5v3.5zm-16.5-6.5v37.8h-38v-61.3h38v23.5zm6 92.3h-12.2l12.2-22 3-5.3 3 5.4 12.2 22h-18.2zm-137.3-195.5v5.9a28 28 0 0 1-14.5-.3c5.8-.8 10.7-2.8 14.5-5.6zm6-7.8v-9c3.3-3.5 6.6-5 11.2-5 4.3 0 7.7 1.8 10.6 5.6v9.9a18 18 0 0 0-10.6-3.3c-4.3 0-8 1-11.2 3.2v-1.4zm27.8 8.9v-4c4 3.2 8.7 4.8 14.2 4.8 5.8 0 10.6-1.5 15-4.7v14.9a18.4 18.4 0 0 1-15 6.9c-5.9 0-10.4-2.4-14.2-7.6v-10.3zm35.1-11v-15.7c6.1-6.9 12.2-9.7 20.7-9.7a23 23 0 0 1 19.7 10.7v21.3c-5.4-5-12-7.6-19.7-7.6-8.1 0-14.7 2.3-20.7 7.3v-6.2zm-49.8 290v19a76.4 76.4 0 0 1-17.7-19h17.7zm-124.3 0h37.6a73.3 73.3 0 0 1-22.3 22l-.3.3-.3.3a2.8 2.8 0 0 0-.5.7v.2a3 3 0 0 0-.3 1v49.4a3 3 0 0 0 6 0v-46.3h39.8V919a3 3 0 0 0 3 3 3 3 0 0 0 3-3v-74h12.8v74a3 3 0 0 0 3.1 3 3 3 0 0 0 3-3v-46.3h39.7V919a3 3 0 0 0 3 3 3 3 0 0 0 3-3v-82h56.3v51.5h-8.2a3 3 0 0 0-3 3v15.8c0 .4 0 .7.2 1l4.1 11.3v7.5h-8.1a3 3 0 0 0-3 3v4.6h-5.2V930a3 3 0 0 0-3-3h-11.2a3 3 0 0 0-3 3v4.6h-5.2V930a3 3 0 0 0-3-3H1756a3 3 0 0 0-3 3v4.6h-5.2V930a3 3 0 0 0-3-3h-11.2a3 3 0 0 0-3 3v4.6h-5.2V930a3 3 0 0 0-3-3h-11.2a3 3 0 0 0-3 3v4.6h-5.2V930a3 3 0 0 0-3-3h-11.2a3 3 0 0 0-3 3v4.6h-5.2V930a3 3 0 0 0-3-3h-11.2a3 3 0 0 0-3 3v4.6h-5.2V930a3 3 0 0 0-3-3h-11.1a3 3 0 0 0-3 3v4.6h-5.3V930a3 3 0 0 0-3-3h-11.2a3 3 0 0 0-3 3v4.6h-5.2V930a3 3 0 0 0-3-3h-8.3v-7.5l4.2-11.2.2-1v-16a3 3 0 0 0-3-3h-8.2V879l33.9-33.9zm-101 49.3h5.1v4.6a3 3 0 0 0 3 3h11.2a3 3 0 0 0 3-3v-4.6h5.2v4.6a3 3 0 0 0 3 3h11.2a3 3 0 0 0 3-3v-4.6h5.2v4.6a3 3 0 0 0 3 3h11.2a3 3 0 0 0 3-3v-4.6h5.2v12.3l-3.4 9.3h-65.5l-3.4-9.3v-12.3zm11.1-64.8v-6.1h5.2V828.5c.1.4.2.8.4 1a3 3 0 0 0 2.6 1.7h11.2a3 3 0 0 0 3-2.7V823.6h5.2V828.5a3 3 0 0 0 3 2.7h11.2a3 3 0 0 0 3-2.7V823.6h5.2v72.5h-5.2v-4.6a3 3 0 0 0-3-3H1570a3 3 0 0 0-3 3v4.6h-5.2v-4.6a3 3 0 0 0-3-3h-11.2a3 3 0 0 0-3 3v4.6h-5.2v-4.6V829.7zm25-150.6l18.4 72.1H1546l18.4-72zm-21.9 78.1h44.2c1.8 0 3.2 1.5 3.2 3.3a3.3 3.3 0 0 1-3.2 3.3h-44.2a3.3 3.3 0 1 1 0-6.6zm2.7 12.6h38.5v47.8h-2.5a3 3 0 0 0-3 3v4.6h-5.2v-4.6a3 3 0 0 0-3-3h-11.2a3 3 0 0 0-3 3v4.6h-5.2v-4.6a3 3 0 0 0-3-3h-2.4v-47.8zm51 201.8h-63.6v-49.5h63.6v49.5zm-64.2 6h64.8l3 13.6H1529l3-13.6zm-7 83.5l3.1-64h72.7l3.8 64H1525zm84.9-12.8l-3.3-53.8.1-.3c0-.5-.1-1-.3-1.4l-4.1-18.5V933h5.3v4.6a3 3 0 0 0 3 3h11.2a3 3 0 0 0 3-3V933h5.1v4.6a3 3 0 0 0 3 3h11.2a3 3 0 0 0 3-3V933h5.2v4.6a3 3 0 0 0 3 3h11.2a3 3 0 0 0 3-3V933h5.2v4.6a3 3 0 0 0 3 3h11.2a3 3 0 0 0 3-3V933h5.2v4.6a3 3 0 0 0 3 3h11.2a3 3 0 0 0 3-3V933h5.2v4.6a3 3 0 0 0 3 3h11.2a3 3 0 0 0 3-3V933h5.2v4.6a3 3 0 0 0 3 3h11.2a3 3 0 0 0 3-3V933h5.2v4.6a3 3 0 0 0 3 3h11.2a3 3 0 0 0 3-3V933h5.1v4.6a3 3 0 0 0 3 3h11.2a3 3 0 0 0 3-3V933h5.2v41.2l-4.3 19.2v.5l-2.7 54.3H1610zm197.5 12.8l3.1-64h72.7l3.8 64h-79.6z"/><path d="M1564.4 805a12 12 0 1 0 0-24 12 12 0 0 0 0 24zm0-18a6 6 0 0 1 6 6 6 6 0 0 1-12 0 6 6 0 0 1 6-6zm147.2 184.4v7.5h-4.4v-10a26.7 26.7 0 0 1 4.4 2.5zm8.8 41v4.4a1.2 1.2 0 0 1-.4.2c-.2 0-.4 0-.5-.2v-36a33.7 33.7 0 0 1 1 1.8v29.9zm-1.6 5.5l.2.1a2 2 0 0 0 1.8 0l.3-.1-.3 1.3-.9 3.3-.8-3.3-.3-1.3zm-5.4-5.4v4.3a1.2 1.2 0 0 1-.5.2 1.2 1.2 0 0 1-.5-.2v-44.7l1 .8v39.6zm-1.6 5.4l.2.1a2 2 0 0 0 1.8 0l.2-.1-.3 1.3-.8 3.3-.8-3.3-.3-1.3zm-5.5-5.4v4.4a1.1 1.1 0 0 1-.5 0 1.2 1.2 0 0 1-.4 0v-48.4l.4-.2.5.2v44zm-1.6 5.4h.2a2 2 0 0 0 1.8.1l.3-.1-.3 1.3-.9 3.3-.8-3.3-.3-1.3zm-5.5-5.4v4.3a1.2 1.2 0 0 1-.4.2l-.5-.1v-44l1-.8v40.4zm-1.5 5.4l.2.1a2 2 0 0 0 1.8 0l.2-.1-.3 1.3-.8 3.3-.8-3.3-.3-1.3zm-5.5-5.4v4.3l-.5.2a1.2 1.2 0 0 1-.4-.1v-34.3a37 37 0 0 1 .9-1.9v31.8zm-1.6 5.4l.2.1a2 2 0 0 0 1.8 0l.2-.1-.3 1.3-.8 3.3-.8-3.3-.3-1.3zm6.8-24.2h-4.3V983h4.3v10.7zm-4.3 1.3h4.3v1.4h-4.3V995zm4.3-13.3h-4.3v-1.4h4.3v1.4zm-4.3 16h4.3v10.7h-4.3v-10.7zm11.4-4h-4.4V983h4.4v10.7zm-4.4 1.3h4.4v1.4h-4.4V995zm4.4-13.3h-4.4v-1.4h4.4v1.4zm-4.4 16h4.4v10.7h-4.4v-10.7zm11.5-4h-4.4V983h4.4v10.7zm-4.4 1.3h4.4v1.4h-4.4V995zm4.4-13.3h-4.4v-1.4h4.4v1.4zm-4.4 16h4.4v10.7h-4.4v-10.7zm11.4-4h-4.4V983h4.4v10.7zm-4.4 1.3h4.4v1.4h-4.4V995zm4.4-13.3h-4.4v-1.4h4.4v1.4zm-4.4 16h4.4v10.7h-4.4v-10.7zm10.1-1.3h-3V995h2.8l.2 1.4zm-3 1.3h3.2c.5 3.3.8 6.8 1 10.7h-4.2v-10.7zm0-4v-9a53 53 0 0 1 2.5 9h-2.5zm-7-14.8v-5.2c1.5 1.5 3 3.2 4.2 5.2h-4.3zm-9.8 0h-4.4v-7.5a26.6 26.6 0 0 1 4.4-2.5v10zm-7 0h-4.3a27 27 0 0 1 4.2-5.2v5.2zm-7.1 14.8h-2.6c.7-3.4 1.5-6.3 2.6-9v9zm-2.8 1.3h2.8v1.4h-3l.2-1.4zm-.5 2.7h3.3v10.7h-4.2c.1-3.9.5-7.4 1-10.7zm-1 13.4v-1.4h4.3v1.4h-4.3zm7 0v-1.4h4.3v1.4h-4.3zm7 0v-1.4h4.4v1.4h-4.4zm7 0v-1.4h4.5v1.4h-4.4zm7.1 0v-1.4h4.4v1.4h-4.4zm7 0v-1.4h4.4v1.4h-4.3zm5.2-2v-.1a106 106 0 0 0-1.5-14.7v-.3c-2.7-14-8.4-22.4-18-26.6l-1-.4a.3.3 0 0 0-.2 0c-.3 0-.6.2-1 .4-6.3 2.8-11 7.5-14.2 14.5a.8.8 0 0 0 0 .1 52.8 52.8 0 0 0-3.7 12v.3a81.3 81.3 0 0 0-.4 2.5v.2c-.6 3.6-1 7.6-1.1 12v.1l-.1 2.6v.1a180.4 180.4 0 0 0 0 4.2v34.7h-4.5v-31c0-24 3.5-40 11.3-50 3.7-4.7 8.3-8 13.8-10.3 17.6 7.1 25.1 25.2 25.1 60.3v31h-4.4V1016a174.5 174.5 0 0 0-.1-6.9z"/><path fill="#006837" d="M140.7 1079.5l.2-.6.6-1.7c.5-1.5 1.3-3.7 1.8-6.3.5-2.7.8-5.8.4-9-.4-3-1.5-6.2-3.6-9.6a116.4 116.4 0 0 0-11.4-14.6l-1.6-1.4-.8-.8-1-.7a34.4 34.4 0 0 1-2-1.6 12.9 12.9 0 0 1-1-1c-.4-.4-.7-.8-1-1.6a4.1 4.1 0 0 1-.5-1.3 3.3 3.3 0 0 1 .3-1.8c.6-1 1.2-1.4 1.7-1.7 1-.6 1.9-.8 2.7-1 3.3-1 6.4-1.6 9.5-2.4 3.1-.9 6.2-2 9-3.3a36.5 36.5 0 0 0 14.1-11c.8-1.1 1.6-2.2 2.2-3.4l.2-1v-.5c0-.2-.2-.4-.6-.9-.5-.5-1.3-1.2-2.3-1.8-2-1.3-4.6-2.5-7.3-3.6a123.6 123.6 0 0 0-8.4-2.8 522 522 0 0 0-16.8-4.8l-15.6-4c-9.7-2.5-17.8-4.7-23.5-6.4l-6.7-2-2.4-.7.2-1.4 2.4-.3 7-.7c6-.4 14.6-.7 24.9 0a192.7 192.7 0 0 1 16.6 1.8c5.8.9 12 2.1 18.4 4.2a82 82 0 0 1 9.7 3.7 54 54 0 0 1 5 2.6c1.6 1 3.2 2.1 4.9 3.5 1.6 1.3 3.3 3 4.7 5.2a16 16 0 0 1 1.9 3.9c.4 1.4.7 3 .6 4.6a13.7 13.7 0 0 1-.9 4.4 16.4 16.4 0 0 1-1.9 3.6 34.8 34.8 0 0 1-14 10.6c-3.5 1.4-7 2.4-10.4 3.1l-10 1.8c-3.2.6-6.4 1.1-9.2 2l-1.7.7.1-.1.1-.6v-.3l.4.3.7.5 1.8 1 2 .8 2.2.9a82.5 82.5 0 0 1 4.4 1.9c2.8 1.3 5.6 2.9 8 4.9a26.5 26.5 0 0 1 9.6 23.5 24.4 24.4 0 0 1-10.4 16.9l-1.7 1-.6.3-1-1zm-86 3l.2-.6.6-1.7c.5-1.5 1.3-3.7 1.8-6.3.5-2.7.8-5.8.4-9-.4-3-1.5-6.2-3.6-9.6a116.4 116.4 0 0 0-11.4-14.6l-1.6-1.4-.8-.8-1-.7a34.4 34.4 0 0 1-2-1.6 12.9 12.9 0 0 1-1-1c-.4-.4-.7-.8-1-1.6a4.1 4.1 0 0 1-.5-1.3 3.3 3.3 0 0 1 .3-1.8c.6-1 1.2-1.4 1.7-1.7 1-.6 1.9-.8 2.7-1 3.3-1 6.4-1.6 9.5-2.4 3.1-.9 6.2-2 9-3.3a36.5 36.5 0 0 0 14.1-11c.8-1.1 1.6-2.2 2.2-3.4l.2-1v-.5c0-.2-.2-.4-.6-.9-.5-.5-1.3-1.2-2.3-1.8-2-1.3-4.6-2.5-7.3-3.6a123.6 123.6 0 0 0-8.4-2.8 522 522 0 0 0-16.8-4.8l-15.6-4c-9.7-2.5-17.8-4.7-23.5-6.4l-6.7-2-2.4-.7.2-1.4 2.4-.3 7-.7c6-.4 14.6-.7 24.9 0a192.7 192.7 0 0 1 16.6 1.8c5.8.9 12 2.1 18.4 4.2a82 82 0 0 1 9.7 3.7 54 54 0 0 1 5 2.6c1.6 1 3.2 2.1 4.9 3.5 1.6 1.3 3.3 3 4.7 5.2a16 16 0 0 1 1.9 3.9c.4 1.4.7 3 .6 4.6a13.7 13.7 0 0 1-.9 4.4 16.4 16.4 0 0 1-1.9 3.6 34.8 34.8 0 0 1-14 10.6c-3.5 1.4-7 2.4-10.4 3.1l-10 1.8c-3.2.6-6.4 1.1-9.2 2l-1.7.7.1-.1.1-.6v-.3l.4.3.7.5 1.8 1 2 .8 2.2.9a82.5 82.5 0 0 1 4.4 1.9c2.8 1.3 5.6 2.9 8 4.9a26.5 26.5 0 0 1 9.6 23.5 24.4 24.4 0 0 1-10.4 16.9l-1.7 1-.6.3-1-1z"/><path fill="#009245" d="M27.4 904.1s.6 3.3 2 9a200 200 0 0 0 6.6 23.2c1.8 4.6 3.8 9.5 6.7 14 1.4 2.3 3 4.5 5 6 .8.7 1.8 1.3 2.7 1.5.9.3 1.7.4 2.6.2.6 0 2.5-.8 4.7-1h2.4c.5.1 1.2.3 2.2.8l.8.6a5.3 5.3 0 0 1 1.6 2.7c.3 1.3 0 2.1 0 2.7a8 8 0 0 1-.5 1.4 12.6 12.6 0 0 1-.9 1.7c-1.1 1.8-2.2 3.1-3.2 4.5l-3.1 3.8c-2 2.6-4 5.1-5.7 7.7a44 44 0 0 0-4.2 7.9c-1 2.6-1.5 5.2-1.4 7.3.2 2.2 1 4 2.5 5.6l1.3 1.2 1.7 1.5.5.5.6.6 1.2 1.2 2 2.5c2.5 3.6 4 7.8 4.6 11.8.6 4 .3 7.8-.3 11.3-.7 3.6-1.7 6.7-3 9.7-2.4 6-5.4 11-8.4 15.3a106.2 106.2 0 0 1-17 18.6 75.6 75.6 0 0 1-3.1 2.6l-2.4 1.8-2 1.4-1-1 4.4-8.1a541.5 541.5 0 0 0 5-9.3c1.9-3.5 4-7.5 6-12 2-4.3 4-9 5.4-14 1.5-5 2.5-10 2.1-14.6-.2-2.2-.7-4.3-1.7-6.2l-.8-1.4-.5-.6-.2-.3-.3-.4-.5-.5-.2-.2c-.2-.2.1 0 0 0v-.1a27.5 27.5 0 0 1-3.2-3.6 22.8 22.8 0 0 1-4.3-12.9c0-4.5 1.2-8.6 2.9-12.1 1.6-3.5 3.6-6.6 5.8-9.5 2.1-2.9 4.4-5.5 6.6-8l3.3-3.7 2.8-3.3.3-.5v.3c-.1.2-.2.6 0 1.5a4 4 0 0 0 1.6 2.3l1.1.5c.3 0 .1 0 0 0-.4 0-1.1 0-1.8.2-.5 0-1.8.4-2.9.4-2.2.2-4.6-.3-6.5-1.2-2-.9-3.6-2.1-4.9-3.4a31.6 31.6 0 0 1-5.8-8.2 81 81 0 0 1-5.6-16c-1.3-5-2.1-9.6-2.8-13.7a191.3 191.3 0 0 1-1.4-10.6l-.8-9.2 1.4-.2z"/><g fill="#32D9D8"><path d="M1823.5 537.4h.5V553h-.5zm.6-.4h-.7a.1.1 0 0 0-.2.1c0 .1 0 .2.2.2h.7a.1.1 0 0 0 .2-.2.1.1 0 0 0-.2-.1zm-.1 16.1h-.5-.1v.2h.6v-.1-.1z"/><path d="M1826 531.7l.4 2.2v.5c0 .4-.1.7-.4 1-.2.3-.6.5-1.1.5h-.8v.6c.1 0 .3 0 .3.2l-.1.2a.3.3 0 0 1-.2.5V553a.2.2 0 0 1 0 .4.3.3 0 0 1-.7 0 .2.2 0 0 1-.1-.2.2.2 0 0 1 .1-.2v-15.6a.3.3 0 0 1-.2-.4.3.3 0 0 1 .2-.5v-.6h-.8c-.5 0-1-.2-1.2-.5-.2-.2-.3-.6-.3-1v-.5l.5-2.2h-.3l.7-.9.2 1.2-.2-.2-.4 2v.6c0 .3.1.5.3.7l.7.2h.8v-4.5l-.5.2.8-1.9.8 1.9-.4-.2v4.5h.7c.3 0 .6 0 .8-.2a.9.9 0 0 0 .3-.7v-.5l-.4-2.1-.3.1.3-1 .7.9h-.3z"/><path d="M1823.5 553.3a.2.2 0 0 0 0 .1l.2.2.2-.2h-.4zm2-21.6l.5 2.2v.5a1 1 0 0 1-.4.8 1.2 1.2 0 0 1-.8.2h-.9v-4.8l.4.1-.6-1.3-.6 1.3.4-.1v4.8h-.9c-.3 0-.6 0-.8-.2a1 1 0 0 1-.3-.8v-.5l.4-2.2.2.1-.1-.8-.5.7h.2l-.5 2.2v.5c0 .4 0 .7.3 1 .2.2.6.4 1.1.4h.9v.7h.4v-.7h1c.5 0 .8-.2 1-.4.3-.3.4-.6.4-1v-.5l-.5-2.3h.3l-.5-.6-.2.8.2-.1zm-1.6 4.9h-.5a.1.1 0 0 0-.2.1v.1a.1.1 0 0 0 .2 0H1824.2a.1.1 0 0 0-.1-.2h-.2z"/></g><path fill="#FFF" d="M1829.5 543a11 11 0 0 0-7-5 3.4 3.4 0 0 0-.5 0c-.5 0-.8.1-1 .6 0 .4.1 1 .4 1 .1 0 .4 0 .6-.3.2-.1.2-.1.2 0a.9.9 0 0 0 0 .2l-.7 4-.9-.3s-.7 1.2-.8 1.7v1.4c0 .4.2.8.4 1 .2.5.3 1 0 1.4-.2.5-.8.7-1.3.4a.7.7 0 0 1-.4-.7c0-.2 0-.4.2-.4.1-.1.3 0 .4 0v.3c0 .2 0 .2.2.3.2.2.5 0 .5-.4 0-.2-.1-.5-.3-.6l-.7-.2c-.3 0-.7.4-.9.8v1.2c.5.8 1.5 1.3 2.5 1a6 6 0 0 0 1.9-.8l.2-.4s-.2-.7-.1-1.4l.2-.4.7-.6.7-.1h.5c.6.3.8.7.8 1.2 0 .6-.3 1-.9 1-.5 0-1-.3-1-.8l.2-.3c.3 0 .5 0 .5.3s.3.3.5.2c.3-.3.1-.9-.4-1-.4-.1-.6 0-1 .3-.2.2-.3.5-.3.8 0 .5.1.8.5 1.1.3.4.8.6 1.5.6.9 0 1.5-.5 2.2-1.4.2-.2.2-.7.2-1-.1-.1-.7-.3-.9-.7-.5-1 0-2.3 1-2.4.5 0 1 .2 1.2.5l.1.5c0 .3 0 .5-.2.7-.1.2-.3.3-.6.3-.5 0-.6-.1-.6-.4 0-.2.1-.4.4-.3l.4-.1v-.3l-.5-.2c-.5 0-.9.6-.7 1.2.2.5.8.9 1.5.8.6 0 1.3-.7 1.5-1.4l.2-.7c0-.7-.2-1.3-.6-2.1z"/><path fill="#E9AD8D" d="M1820.7 543.3l.3.1c.6.4 1.3.8 1.6 1.2v.2h.4c.6 0 1.5-.4 2-.7.3-.3.6-.5.5-.6a5 5 0 0 1 0-.4c0-1 .1-1.8.5-2.4l.2-.1h-.2a4 4 0 0 1-1 0l-.2-.3v-.1a1.2 1.2 0 0 0 .2-.2h-.2a2 2 0 0 1-1 0v-.5l-.3.2c-.8.3-1.3.2-1.3-.2v-.3l-.2.1-.6.3-.4.5a5.3 5.3 0 0 0-.3.4l.2.3.3.4-.6.8-.6.8h.3c.2 0 .2.2.3.2h.2l-.2.2z"/><path fill="#FFF" d="M1822.8 541.6s-.2.2-.5.2c-.3.1-.6-.1-.6-.3 0-.2.3-.3.6-.2.3 0 .5.2.5.3z"/><ellipse transform="rotate(6.4 1821.3 541.2)" fill="#54D29E" cx="1822.1" cy="541.5" rx=".2" ry=".2"/><path d="M1822.2 537.1c.2-.8.2-1.5.4-3.4 0-.6 0-.8.2-.9l.2 2.2v2.7h-.4a3.3 3.3 0 0 0-.4-.2v-.4zm2.3.6l-.1.4-.8-.3.1-.6.5-2.5c.2-.7.2-1 .3-.9l.1 1-.1 3zm1.4.1l-.2 1-.8-.5.2-.6.6-2.1.3-.8-.1 3zm1.2.7a8.3 8.3 0 0 1-.1.7v.3l-.4-.2a8 8 0 0 1-.4-.3l.2-.5.4-1.6.4-1.1.1.2c0 .4 0 2-.2 2.5zm1.3 1l-.4.9-.5-.4.2-.6.5-1.1c.4-1 .5-1.1.5-.8l-.3 2zm1.8-.4a12 12 0 0 1-1 2.2l-.1.2-.5-.5.2-.3.9-1.1.5-.7v.2z" fill="#FFC766"/><path fill="#009245" d="M122.4 1080l-.2-.6-.5-1.5a126.5 126.5 0 0 1-1.7-5.7c-1.3-5-2.9-11.8-4.7-19.7l-1.5-6.1-1.4-6.4c-.5-2.2-.9-4.4-1.6-6.7-.7-2.2-1.6-4.4-3.1-6.3-1.9-2.1-4-4.4-5.1-7.7a9.3 9.3 0 0 1-.3-5.4 14 14 0 0 1 2.3-4.5c1.9-2.6 4-4.6 6-6.8a120.2 120.2 0 0 0 5.5-6.5c3.5-4.4 6.4-9 9-13.5 0 0-.3.3-.1.2v-.2l.2-.3.2-.4.3-.7.4-1.3.6-2.8c.1-1.8-.1-3.7-.6-5.7A52 52 0 0 0 121 960a336 336 0 0 0-13.5-20l-5.5-7.2-3.5-4.8-1.3-1.8.8-1.1 2.1.7a64.8 64.8 0 0 1 5.6 2.5 80.9 80.9 0 0 1 27.8 23.8c3 4.6 5.8 10.1 6.8 17 .4 3.3.3 7-.6 10.6a26.5 26.5 0 0 1-1.8 5.2l-1.4 2.5-.8 1.1-.3.4-.2.2v.1h-.1l-.2.3c-3.8 4.9-8.6 9-13.5 12.4l-7.2 5a35 35 0 0 0-6.1 5.3 8 8 0 0 0-1.7 2.9 4 4 0 0 0 .2 2.8 9 9 0 0 0 2 2.7l1.3 1.3.7.5.8.6a36.9 36.9 0 0 1 6.8 6c2 2.2 3.7 4.6 5 7a35.2 35.2 0 0 1 2.8 7.4l.8 3.6.5 3.4c.6 4.6.6 8.7.4 12.4a63 63 0 0 1-1.3 9.3c-.6 2.6-1.2 4.6-1.7 6l-.6 1.5-.3.5h-1.4z"/><path fill="#39B54A" d="M204.6 858.4l-.7 2.9a201.8 201.8 0 0 0-1.8 8 195 195 0 0 0-4 29.3c-.2 6-.1 12.6.9 19.3.5 3.3 1.2 6.7 2.3 9.8a34.6 34.6 0 0 0 2 4.7c.8 1.5 1.7 2.6 2.8 4.5a35 35 0 0 1 3.1 6c.8 2.2 1.5 4.8 1.3 7.8a13.9 13.9 0 0 1-1.1 4.4c-.6 1.4-1.5 2.6-2.3 3.7a26.2 26.2 0 0 1-5.7 4.9c-3.8 2.5-7.5 4.4-11.2 6.3-3.6 1.8-7.2 3.7-10.6 5.7-3.4 2-6.7 4.1-9.8 6.4a89.8 89.8 0 0 0-4.5 3.6 96.5 96.5 0 0 0-2.1 1.9c-.2.1.2-.1.1 0l-.2.1-.3.3-.5.5-.8.9-.6.8-.7 1-.6.9-.5 1a23.2 23.2 0 0 0-1.6 4 27 27 0 0 0-.7 4.5 29.4 29.4 0 0 0 0 4.8c.2 6.4 2 13.1 4 19.4a174 174 0 0 0 7.1 17.6 353.3 353.3 0 0 0 7.3 14.8 734 734 0 0 0 6.1 11.4l5.6 10-1.1.9-2.3-2a82.5 82.5 0 0 1-2.7-2.5l-3.5-3.4a153.3 153.3 0 0 1-29.2-42 79.5 79.5 0 0 1-5.3-17.1 49.1 49.1 0 0 1-.7-6.6c0-4.4.4-9.2 2-14a32.2 32.2 0 0 1 3.2-6.8l1.1-1.5 1.2-1.6 1.2-1.4 1.4-1.4 1.4-1.3 1.4-1.1a108.3 108.3 0 0 1 8-5.7 137 137 0 0 1 11.2-6.4c3.8-2 7.6-3.7 11.3-5.4 3.8-1.7 7.4-3.3 10.5-5.1a17 17 0 0 0 3.6-2.8c.9-1 1.2-1.7 1.4-2.7.3-2-.9-5.3-2.5-8.3l-1.4-2.5a37.9 37.9 0 0 1-1.4-3 42.8 42.8 0 0 1-2-5.8c-1-4-1.6-7.8-1.9-11.5-.4-7.4.2-14.2 1-20.5a173.2 173.2 0 0 1 6.8-29.4 203.6 203.6 0 0 1 2.7-8l1-2.7 1.3.4z"/><path fill="#006837" d="M213.8 1079.4s2.6-2.9 7.5-7.5c4.9-4.7 12-11 20.4-18.3l6.6-5.8 6.9-6 7.1-6.3c2.4-2.2 4.8-4.4 6.6-6.8.8-1.1 1.5-2.4 1.9-3.4.3-1 .3-1.9-.3-2.8l-.3-.4-.4-.5-1-1-2-1.8a127.5 127.5 0 0 0-23.3-15.4c-3.3-1.8-6.7-3.6-10.1-5.6-3.4-2-7-4.3-9.8-7.8a18.7 18.7 0 0 1-4.2-13.4c.3-4.6 1.8-8.6 3.5-12.2a65.8 65.8 0 0 1 2.7-5.2l.7-1.2.2-.3.1-.2.3-.6a21.1 21.1 0 0 0 .9-2.2c0 .3-.2.7 0 1.7l.2.8.5 1a5.8 5.8 0 0 0 1.6 1.7 5.1 5.1 0 0 0 1.7.9l.6.1h.4l.8.1c.2 0 .1 0 0 .1l-.6.4-1.7 1-7.3 4.9a201 201 0 0 1-7.3 4.7 241 241 0 0 1-24.1 13.3c-6.2 2.9-10 4.2-10 4.2l-1-1.1s2.2-3.5 6.6-8.8a131 131 0 0 1 8.3-9 142.8 142.8 0 0 1 19.3-15.9 72.4 72.4 0 0 1 13.5-6.6l2.4-.5a10 10 0 0 1 2.1 0l.8.1a9.6 9.6 0 0 1 2 .6l1 .7a7.5 7.5 0 0 1 2.1 2.2 8.2 8.2 0 0 1 1 2.4c.2 1.4 0 2.2 0 3a18.3 18.3 0 0 1-3.6 7l-.5.5v.1l-.2.1-.2.3-.7 1c-1 1.3-2 2.6-2.8 4a39.2 39.2 0 0 0-3.8 8.1c-.6 2.7-.4 5.1 1 7.8 1.4 2.6 4 5 6.8 7.3 2.9 2.3 6 4.4 9.3 6.4l9.7 6c3.2 2.1 6.5 4.2 9.6 6.4 1.6 1 3.2 2.1 4.7 3.3l2.3 1.7 1.1.8.5.4.8.7a9.2 9.2 0 0 1 2.3 3.3c.6 1.3.8 2.6.8 4 0 2.5-.6 4.7-1.3 6.7-1.6 4-3.6 7.3-5.8 10.3a64.7 64.7 0 0 1-14.4 14.5 140.7 140.7 0 0 1-20.9 13.8c-4 2.3-7.8 4.1-10.9 5.5-6.2 2.8-10 3.9-10 3.9l-.7-1.2z"/><path fill="#009245" d="M230.4 1079.9v-.8l-.4-2.1-.8-8.1-.8-12.2c-.3-4.6-.6-9.7-1.3-15-.3-2.6-.6-5.2-1.1-7.5-.3-1.2-.6-2.3-1-3.2-.3-1-.8-1.7-1.5-2.3-.6-.6-1.8-1-3.1-1H218.5h-.2l-.2.1-.7.1-.8.1-1.6.2c-4.2 0-8.1-1.2-11.6-3a36.8 36.8 0 0 1-9.5-7.4c-2.8-3-5.2-6.4-6.7-10.6-.7-2.2-1.2-4.5-1-7 .2-2.6 1.2-5.2 2.7-7.4 1.6-2.1 3.6-3.8 5.7-5 2.1-1.3 4.3-2.2 6.5-2.8a43.2 43.2 0 0 1 6.5-1.5 58 58 0 0 1 3.2-.3l1.6-.1H213.1c.2 0 0 0 0 0l.7-.1.3-.1.4-.1a11.9 11.9 0 0 0 2.7-1 21 21 0 0 0 3.8-2.3c2.4-1.9 4.8-4.3 7-7a105.8 105.8 0 0 0 3.1-4 224 224 0 0 0 3-4.2c4-5.7 7.6-11.6 11-17.2a838.1 838.1 0 0 0 9.4-16l14-24.7 4-7 1.5-2.4 1.3.4-.4 3a134.6 134.6 0 0 1-4.5 20.1 205.7 205.7 0 0 1-5.1 15.6c-2.1 5.6-4.6 11.7-7.7 17.9-3 6.2-6.7 12.7-11.3 19a80.2 80.2 0 0 1-3.7 4.6 74.6 74.6 0 0 1-4 4.6c-3 3-6.3 5.8-10.2 8.3-4 2.4-8.6 4.5-14.4 4.6l-3-.2h-2.6a45 45 0 0 0-5 .1c-3.4.4-6.4 1.3-8.3 3-1 .8-1.7 1.9-2.1 3.2a10 10 0 0 0-.2 4.5c.6 3.2 2.3 6.4 4.5 9.2 2.2 2.7 5 5 8 6.5s6.3 2.1 9.2 1.6l1-.2.5-.1.6-.3 1.3-.5 1.5-.5c2-.6 4.5-.9 7-.3 1.2.3 2.4.8 3.5 1.4 1 .6 2 1.4 2.9 2.2 1.7 1.6 2.9 3.4 3.8 5.2a30 30 0 0 1 3 10.3c.8 6.4.3 12.1-.4 17a78.7 78.7 0 0 1-3 12.5c-1 3.4-2.2 6-3 7.8-.8 1.7-1.4 2.6-1.4 2.6l-1.4-.2z"/><path fill="#39B54A" d="M72 1080l-.1-.6-.5-1.8a220.4 220.4 0 0 1-1.6-6.7 568.7 568.7 0 0 1-2.1-10.2l-2.7-13a119 119 0 0 0-.8-3.6l-.8-3.6a372.5 372.5 0 0 1-1.9-7.6c-.6-2.6-1.2-5.2-2-7.9a41 41 0 0 0-2.9-7.9 22.1 22.1 0 0 0-2.2-3.6l-1.6-1.7-1.6-1.8c-2.3-2.5-4.5-5-6.6-7.7-2-2.7-4-5.7-5.4-9a29.8 29.8 0 0 1-1.6-5.3 29.7 29.7 0 0 1-.4-5.6 39 39 0 0 1 1.6-10.8 99.6 99.6 0 0 1 8.3-19l.6-1.1.3-.5c0 .1 0 0 0 0l.1-.2.1-.3.6-1 .4-.9a35.3 35.3 0 0 0 3.4-18.3 76 76 0 0 0-1.9-14 115 115 0 0 0-7-21.7l-2.6-6.3-1-2.3 1-.9.6.3a54.4 54.4 0 0 1 7.1 5.6 63.2 63.2 0 0 1 7.4 8.3c2.6 3.5 5.3 7.7 7.4 12.8a42.7 42.7 0 0 1-.8 38.1A44.5 44.5 0 0 1 60 955l-.9 1.2-.7 1L57 959a303.5 303.5 0 0 0-5.7 7.5 74.5 74.5 0 0 0-5 7.8A29.3 29.3 0 0 0 43 983a18.9 18.9 0 0 0 .5 8.8 24.5 24.5 0 0 0 4.5 8 45.1 45.1 0 0 0 10.4 9.6 43 43 0 0 1 4 3.5 46 46 0 0 1 13.2 25 119.6 119.6 0 0 1 .7 4.1l.5 4a90.5 90.5 0 0 1-2.6 31.7c-.4 1.6-.8 2.4-.8 2.4H72z"/><path fill="#8CC63F" d="M36.6 1080.4l-.5-.4-1.4-1c-1.2-1-2.9-2.5-4.8-4.5a71.5 71.5 0 0 1-6.5-7.8 70.1 70.1 0 0 1-9.5-18.6c-.8-2.7-1.3-5.5-1.3-8.7 0-3.1.5-6.6 2.2-10a14 14 0 0 1 6-6.2l1.4-.6 1-.4c5.4-2 10.8-4.5 16-7.6 5.2-3 10.2-6.5 14.3-10.7 2-2.1 3.7-4.4 4.6-6.5.4-1.1.6-2 .6-2.8-.1-.7-.3-1-.7-1.6-.8-1-2.5-2.3-4.7-3.4l-2-1-1-.6-1-.6L47 986l-2-1.4a60.1 60.1 0 0 1-21-26.8 67.8 67.8 0 0 1-4.7-29.8l.3-1.7.1-.6 1.4-.2 4 7.6c2.6 4.7 6.1 11.4 10.8 18.6 2.3 3.6 5 7.4 7.9 11.2 2.9 3.8 6 7.7 9.7 11.4l1.4 1.3 1.4 1.2 3.2 2.7c1.5 1 3 2.1 4.4 3.6a17 17 0 0 1 3.5 5.6c1 2.3 1.1 5 .6 7.3-.5 2.3-1.5 4.2-2.7 5.8-2.3 3-5 5.2-7.7 7-5.5 3.8-11 6.7-16.4 9.6-5.4 2.8-10.7 5.7-15.7 8.7l-.8.6-.6.5c-.4.3-.6.8-.9 1.2a6 6 0 0 0-.6 2.6c0 1.9.5 4 1.2 6l2 6.4 2.1 6.3 4.1 11.4c1.3 3.4 2.4 6.5 3.2 9.1a127.9 127.9 0 0 1 1.8 6.1l.5 1.7.1.6-1.1.8zm130.8-176.3s.6 3.3 2 9a200 200 0 0 0 6.6 23.2c1.8 4.6 3.8 9.5 6.7 14 1.4 2.3 3 4.5 5 6 .8.7 1.8 1.3 2.7 1.5.9.3 1.7.4 2.6.2.6 0 2.5-.8 4.7-1h2.4c.5.1 1.2.3 2.2.8l.8.6a5.3 5.3 0 0 1 1.6 2.7c.3 1.3 0 2.1 0 2.7a8 8 0 0 1-.5 1.4 12.6 12.6 0 0 1-.9 1.7c-1.1 1.8-2.2 3.1-3.2 4.5l-3.1 3.8c-2 2.6-4 5.1-5.7 7.7a44 44 0 0 0-4.2 7.9c-1 2.6-1.5 5.2-1.4 7.3.2 2.2 1 4 2.5 5.6l1.3 1.2 1.7 1.5.5.5.6.6 1.2 1.2 2 2.5c2.5 3.6 4 7.8 4.6 11.8.6 4 .3 7.8-.3 11.3-.7 3.6-1.7 6.7-3 9.7-2.4 6-5.4 11-8.4 15.3a106.2 106.2 0 0 1-17 18.6 75.6 75.6 0 0 1-3.1 2.6l-2.4 1.8-2 1.4-1-1 4.4-8.1a541.5 541.5 0 0 0 5-9.3c1.9-3.5 4-7.5 6-12 2-4.3 4-9 5.4-14 1.5-5 2.5-10 2.1-14.6-.2-2.2-.7-4.3-1.7-6.2l-.8-1.4-.5-.6-.2-.3-.3-.4-.5-.5-.2-.2c-.2-.2.1 0 0 0v-.1a27.5 27.5 0 0 1-3.2-3.6 22.8 22.8 0 0 1-4.3-12.9c0-4.5 1.2-8.6 2.9-12.1 1.6-3.5 3.6-6.6 5.8-9.5 2.1-2.9 4.4-5.5 6.6-8l3.3-3.7 2.8-3.3.3-.5v.3c-.1.2-.2.6 0 1.5a4 4 0 0 0 1.6 2.3l1.1.5c.3 0 .1 0 0 0-.4 0-1.1 0-1.8.2-.5 0-1.8.4-2.9.4-2.2.2-4.6-.3-6.5-1.2-2-.9-3.6-2.1-4.9-3.4a31.6 31.6 0 0 1-5.8-8.2 81 81 0 0 1-5.6-16c-1.3-5-2.1-9.6-2.8-13.7a191.3 191.3 0 0 1-1.4-10.6l-.8-9.2 1.4-.2z"/><path fill="#009245" d="M101.4 1079.9v-.8l-.4-2.1-.8-8.1-.8-12.2c-.3-4.6-.6-9.7-1.3-15-.3-2.6-.6-5.2-1.1-7.5-.3-1.2-.6-2.3-1-3.2-.3-1-.8-1.7-1.5-2.3-.6-.6-1.8-1-3.1-1H89.5h-.2l-.2.1-.7.1-.8.1-1.6.2c-4.2 0-8.1-1.2-11.6-3a36.8 36.8 0 0 1-9.5-7.4c-2.8-3-5.2-6.4-6.7-10.6-.7-2.2-1.2-4.5-1-7 .2-2.6 1.2-5.2 2.7-7.4 1.6-2.1 3.6-3.8 5.7-5 2.1-1.3 4.3-2.2 6.5-2.8a43.2 43.2 0 0 1 6.5-1.5 58 58 0 0 1 3.2-.3l1.6-.1H84.1c.2 0 0 0 0 0l.7-.1.3-.1.4-.1a11.9 11.9 0 0 0 2.7-1 21 21 0 0 0 3.8-2.3c2.4-1.9 4.8-4.3 7-7a105.8 105.8 0 0 0 3.1-4 224 224 0 0 0 3-4.2c4-5.7 7.6-11.6 11-17.2a838.1 838.1 0 0 0 9.4-16l14-24.7 4-7 1.5-2.4 1.3.4-.4 3a134.6 134.6 0 0 1-4.5 20.1 205.7 205.7 0 0 1-5.1 15.6c-2.1 5.6-4.6 11.7-7.7 17.9-3 6.2-6.7 12.7-11.3 19a80.2 80.2 0 0 1-3.7 4.6 74.6 74.6 0 0 1-4 4.6c-3 3-6.3 5.8-10.2 8.3-4 2.4-8.6 4.5-14.4 4.6l-2.9-.2h-2.7a45 45 0 0 0-5 .1c-3.4.4-6.4 1.3-8.3 3-1 .8-1.7 1.9-2.1 3.2a10 10 0 0 0-.2 4.5c.6 3.2 2.3 6.4 4.5 9.2 2.2 2.7 5 5 8 6.5s6.3 2.1 9.2 1.6l1-.2.5-.1.6-.3 1.3-.5 1.5-.5c2-.6 4.5-.9 7-.3 1.2.3 2.4.8 3.5 1.4 1 .6 2 1.4 2.9 2.2 1.7 1.6 2.9 3.4 3.8 5.2a30 30 0 0 1 3 10.3c.8 6.4.3 12.1-.4 17a78.7 78.7 0 0 1-3 12.5c-1 3.4-2.2 6-3 7.8-.8 1.7-1.4 2.6-1.4 2.6l-1.4-.2z"/><path fill="#39B54A" d="M132.6 858.4l-.7 2.7a199.1 199.1 0 0 0-1.7 7.6c-1.3 6.6-3 16.1-3.8 27.6a110 110 0 0 0 .2 18.2c.3 3.2.8 6.4 1.6 9.5a37.4 37.4 0 0 0 4.7 11l1.6 2.4a57.5 57.5 0 0 1 3 5.3c1.8 3.7 3.3 8 3.4 12.8.1 2.4-.2 5-1 7.2-.7 2.4-1.7 4.5-3 6.5-2.3 3.8-5.2 7-8.1 9.8-5.8 5.8-11.8 10.7-17.4 15.8l-4.2 3.8c.2-.2 0 0 0 0l-.1.2-.3.2-.5.5-.5.5-.3.4-1.4 1.6c-1.7 2.4-3 5-4 7.7a43.8 43.8 0 0 0-1.6 17.2c.4 6 1.7 11.7 3.1 17 1.5 5.4 3.2 10.2 4.7 14.6a300.9 300.9 0 0 0 4.4 11.2 457.5 457.5 0 0 0 3 7.3l1.2 2.6-1.1.8-2.1-2-2.4-2.4a83.4 83.4 0 0 1-3.1-3.5 107.7 107.7 0 0 1-15.7-24.5c-2.5-5.6-4.8-12-6-19.3-.6-3.7-.9-7.6-.6-11.7.3-4 1.2-8.3 2.8-12.4a40.8 40.8 0 0 1 3.1-6 39 39 0 0 1 4.2-5.3l2.4-2.4.7-.6.6-.5 1.2-1 4.6-3.5c6-4.7 12.2-9.3 17.7-14.2 2.7-2.5 5.2-5 7-7.6 1.8-2.6 2.8-5.2 3-8 0-2.8-.8-5.9-2.1-9a48.5 48.5 0 0 0-2.3-4.5l-1.3-2.4a36 36 0 0 1-1.4-2.7 45.4 45.4 0 0 1-3.4-11.2c-.7-3.7-1-7.3-1-10.8-.1-7 .6-13.4 1.5-19.2.8-5.9 2-11.1 3.2-15.8a192.6 192.6 0 0 1 3.4-11.8 165 165 0 0 1 3.5-10.1l1.3.4z"/><path fill="#8CC63F" d="M141.6 1080.4l-.5-.4-1.4-1c-1.2-1-2.9-2.5-4.8-4.5a71.5 71.5 0 0 1-6.5-7.8 70.1 70.1 0 0 1-9.5-18.6c-.8-2.7-1.3-5.5-1.3-8.7 0-3.1.5-6.6 2.2-10a14 14 0 0 1 6-6.2l1.4-.6 1-.4c5.4-2 10.8-4.5 16-7.6 5.2-3 10.2-6.5 14.3-10.7 2-2.1 3.7-4.4 4.6-6.5.4-1.1.6-2 .6-2.8-.1-.7-.3-1-.7-1.6-.8-1-2.5-2.3-4.7-3.4l-2-1-1-.6-1-.6-2.2-1.4-2-1.4a60.1 60.1 0 0 1-21-26.8 67.8 67.8 0 0 1-4.7-29.8l.3-1.7.1-.6 1.4-.2 4 7.6c2.6 4.7 6.1 11.4 10.8 18.6 2.3 3.6 5 7.4 7.9 11.2 2.9 3.8 6 7.7 9.7 11.4l1.4 1.3 1.4 1.2 3.2 2.7c1.5 1 3 2.1 4.4 3.6a17 17 0 0 1 3.5 5.6c1 2.3 1.1 5 .6 7.3-.5 2.3-1.5 4.2-2.7 5.8-2.3 3-5 5.2-7.7 7-5.4 3.8-11 6.7-16.4 9.6-5.4 2.8-10.7 5.7-15.7 8.7l-.8.6-.6.5c-.4.3-.6.8-.9 1.2a6 6 0 0 0-.6 2.6c0 1.9.5 4 1.2 6l2 6.4 2.1 6.3 4.1 11.4c1.3 3.4 2.4 6.5 3.2 9.1a127.9 127.9 0 0 1 1.8 6.1l.5 1.7.1.6-1.1.8z"/><path fill="#39B54A" d="M179 1080l-.1-.6-.5-1.8a220.4 220.4 0 0 1-1.6-6.7 568.7 568.7 0 0 1-2.1-10.2l-2.7-13a119 119 0 0 0-.8-3.6l-.8-3.6a372.5 372.5 0 0 1-1.9-7.6c-.6-2.6-1.2-5.2-2-7.9a41 41 0 0 0-2.9-7.9 22.1 22.1 0 0 0-2.2-3.6l-1.6-1.7-1.6-1.8c-2.3-2.5-4.5-5-6.6-7.7-2-2.7-4-5.7-5.4-9a29.9 29.9 0 0 1-1.6-5.3 29.7 29.7 0 0 1-.4-5.6 39 39 0 0 1 1.6-10.8 99.6 99.6 0 0 1 8.3-19l.6-1.1.3-.5c0 .1 0 0 0 0l.1-.2.1-.3.6-1 .4-.9a35.3 35.3 0 0 0 3.4-18.3 76 76 0 0 0-1.9-14 115 115 0 0 0-7-21.7l-2.6-6.3-1-2.3 1-.9.6.3a54.4 54.4 0 0 1 7.1 5.6 63.2 63.2 0 0 1 7.4 8.3c2.6 3.5 5.3 7.7 7.4 12.8a42.7 42.7 0 0 1-.8 38.1 44.5 44.5 0 0 1-2.8 4.8l-.9 1.2-.7 1-1.5 1.9a303.5 303.5 0 0 0-5.7 7.5 74.5 74.5 0 0 0-5 7.8 29.3 29.3 0 0 0-3.2 8.5 18.9 18.9 0 0 0 .5 8.8 24.5 24.5 0 0 0 4.4 8 45.1 45.1 0 0 0 10.5 9.6 43 43 0 0 1 4 3.5 46 46 0 0 1 13.2 25 119.6 119.6 0 0 1 .7 4.1l.5 4a90.5 90.5 0 0 1-2.6 31.7c-.4 1.6-.8 2.4-.8 2.4H179z"/><path fill="#009245" d="M199.4 904.1s.6 3.3 2 9a200 200 0 0 0 6.6 23.2c1.8 4.6 3.8 9.5 6.7 14 1.4 2.3 3 4.5 5 6 .8.7 1.8 1.3 2.7 1.5.9.3 1.7.4 2.6.2.6 0 2.5-.8 4.7-1h2.4c.5.1 1.2.3 2.2.8l.8.6a5.3 5.3 0 0 1 1.6 2.7c.3 1.3 0 2.1 0 2.7a8 8 0 0 1-.5 1.4 12.6 12.6 0 0 1-.9 1.7c-1.1 1.8-2.2 3.1-3.2 4.5l-3.1 3.8c-2 2.6-4 5.1-5.7 7.7a44 44 0 0 0-4.2 7.9c-1 2.6-1.5 5.2-1.4 7.3.2 2.2 1 4 2.5 5.6l1.3 1.2 1.7 1.5.5.5.6.6 1.2 1.2 2 2.5c2.5 3.6 4 7.8 4.6 11.8.6 4 .3 7.8-.3 11.3-.7 3.6-1.7 6.7-3 9.7-2.4 6-5.4 11-8.4 15.3a106.2 106.2 0 0 1-17 18.6 75.6 75.6 0 0 1-3.1 2.6l-2.4 1.8-2 1.4-1-1 4.4-8.1a541.5 541.5 0 0 0 5-9.3c1.9-3.5 4-7.5 6-12 2-4.3 4-9 5.4-14 1.5-5 2.5-10 2.1-14.6-.2-2.2-.7-4.3-1.7-6.2l-.8-1.4-.5-.6-.2-.3-.3-.4-.5-.5-.2-.2c-.2-.2.1 0 0 0v-.1a27.5 27.5 0 0 1-3.2-3.6 22.8 22.8 0 0 1-4.3-12.9c0-4.5 1.2-8.6 2.9-12.1 1.6-3.5 3.6-6.6 5.8-9.5 2.1-2.9 4.4-5.5 6.6-8l3.3-3.7 2.8-3.3.3-.5v.3c-.1.2-.2.6 0 1.5a4 4 0 0 0 1.6 2.3l1.1.5c.3 0 .1 0 0 0-.4 0-1.1 0-1.8.2-.5 0-1.8.4-2.9.4-2.2.2-4.6-.3-6.5-1.2-2-.9-3.6-2.1-4.9-3.4a31.6 31.6 0 0 1-5.8-8.2 81 81 0 0 1-5.6-16c-1.3-5-2.1-9.6-2.8-13.7a191.3 191.3 0 0 1-1.4-10.6l-.8-9.2 1.4-.2z"/><path fill="#006837" d="M306.7 1077.5l.2-.6.6-1.7c.5-1.5 1.3-3.7 1.8-6.3.5-2.7.8-5.8.4-9-.4-3-1.5-6.2-3.6-9.6a116.4 116.4 0 0 0-11.4-14.6l-1.6-1.4-.8-.8-1-.7a34.4 34.4 0 0 1-2-1.6 12.9 12.9 0 0 1-1-1c-.4-.4-.7-.8-1-1.6a4.1 4.1 0 0 1-.5-1.3 3.3 3.3 0 0 1 .3-1.8c.6-1 1.2-1.4 1.7-1.7 1-.6 1.9-.8 2.7-1 3.3-1 6.4-1.6 9.5-2.4 3.1-.9 6.2-2 9-3.3a36.5 36.5 0 0 0 14.1-11c.8-1.1 1.6-2.2 2.2-3.4l.2-1v-.5c0-.2-.2-.4-.6-.9-.5-.5-1.3-1.2-2.3-1.8-2-1.3-4.6-2.5-7.3-3.6a123.6 123.6 0 0 0-8.4-2.8 522 522 0 0 0-16.8-4.8l-15.6-4c-9.7-2.5-17.8-4.7-23.5-6.4l-6.7-2-2.4-.7.2-1.4 2.4-.3 7-.7c6-.4 14.6-.7 24.9 0a192.7 192.7 0 0 1 16.6 1.8c5.8.9 12 2.1 18.4 4.2a82 82 0 0 1 9.7 3.7 54 54 0 0 1 5 2.6c1.6 1 3.2 2.1 4.9 3.5 1.6 1.3 3.3 3 4.7 5.2a16 16 0 0 1 1.9 3.9c.4 1.4.7 3 .6 4.6a13.7 13.7 0 0 1-.9 4.4 16.4 16.4 0 0 1-1.9 3.6 34.8 34.8 0 0 1-14 10.6c-3.5 1.4-7 2.4-10.4 3.1l-10 1.8c-3.2.6-6.4 1.1-9.2 2l-1.7.7.1-.1c0-.2.2-.5.1-.6v-.3l.4.3.7.5 1.8 1 2 .8 2.2.9a82.5 82.5 0 0 1 4.4 1.9c2.8 1.3 5.6 2.9 8 4.9a26.5 26.5 0 0 1 9.6 23.5 24.4 24.4 0 0 1-10.4 16.9l-1.7 1-.6.3-1-1zm-86 3l.2-.6.6-1.7c.5-1.5 1.3-3.7 1.8-6.3.5-2.7.8-5.8.4-9-.4-3-1.5-6.2-3.6-9.6a116.4 116.4 0 0 0-11.4-14.6l-1.6-1.4-.8-.8-1-.7a34.4 34.4 0 0 1-2-1.6 12.9 12.9 0 0 1-1-1c-.4-.4-.7-.8-1-1.6a4.1 4.1 0 0 1-.5-1.3 3.3 3.3 0 0 1 .3-1.8c.6-1 1.2-1.4 1.7-1.7 1-.6 1.9-.8 2.7-1 3.3-1 6.4-1.6 9.5-2.4 3.1-.9 6.2-2 9-3.3a36.5 36.5 0 0 0 14.1-11c.8-1.1 1.6-2.2 2.2-3.4l.2-1v-.5c0-.2-.2-.4-.6-.9-.5-.5-1.3-1.2-2.3-1.8-2-1.3-4.6-2.5-7.3-3.6a123.6 123.6 0 0 0-8.4-2.8 522 522 0 0 0-16.8-4.8l-15.6-4c-9.7-2.5-17.8-4.7-23.5-6.4l-6.7-2-2.4-.7.2-1.4 2.4-.3 7-.7c6-.4 14.6-.7 24.9 0a192.7 192.7 0 0 1 16.6 1.8c5.8.9 12 2.1 18.4 4.2a82 82 0 0 1 9.7 3.7 54 54 0 0 1 5 2.6c1.6 1 3.2 2.1 4.9 3.5 1.6 1.3 3.3 3 4.7 5.2a16 16 0 0 1 1.9 3.9c.4 1.4.7 3 .6 4.6a13.7 13.7 0 0 1-.9 4.4 16.4 16.4 0 0 1-1.9 3.6 34.8 34.8 0 0 1-14 10.6c-3.5 1.4-7 2.4-10.4 3.1l-10 1.8c-3.2.6-6.4 1.1-9.2 2l-1.7.7.1-.1c0-.2.2-.5.1-.6v-.3l.4.3.7.5 1.8 1 2 .8 2.2.9a82.5 82.5 0 0 1 4.4 1.9c2.8 1.3 5.6 2.9 8 4.9a26.5 26.5 0 0 1 9.6 23.5 24.4 24.4 0 0 1-10.4 16.9l-1.7 1-.6.3-1-1z"/><path fill="#009245" d="M193.4 902.1s.6 3.3 2 9a200 200 0 0 0 6.6 23.2c1.8 4.6 3.8 9.5 6.7 14 1.4 2.3 3 4.5 5 6 .8.7 1.8 1.3 2.7 1.5.9.3 1.7.4 2.6.2.6 0 2.5-.8 4.7-1h2.4c.5.1 1.2.3 2.2.8l.8.6a5.3 5.3 0 0 1 1.6 2.7c.3 1.3 0 2.1 0 2.7a8 8 0 0 1-.5 1.4 12.6 12.6 0 0 1-.9 1.7c-1.1 1.8-2.2 3.1-3.2 4.5l-3.1 3.8c-2 2.6-4 5.1-5.7 7.7a44 44 0 0 0-4.2 7.9c-1 2.6-1.5 5.2-1.4 7.3.2 2.2 1 4 2.5 5.6l1.3 1.2 1.7 1.5.5.5.6.6 1.2 1.2 2 2.5c2.5 3.6 4 7.8 4.6 11.8.6 4 .3 7.8-.3 11.3-.7 3.6-1.7 6.7-3 9.7-2.4 6-5.4 11-8.4 15.3a106.2 106.2 0 0 1-17 18.6 75.6 75.6 0 0 1-3.1 2.6l-2.4 1.8-2 1.4-1-1 4.4-8.1a541.5 541.5 0 0 0 5-9.3c1.9-3.5 4-7.5 6-12 2-4.3 4-9 5.4-14 1.5-5 2.5-10 2.1-14.6-.2-2.2-.7-4.3-1.7-6.2l-.8-1.4-.5-.6-.2-.3-.3-.4-.5-.5-.2-.2c-.2-.2.1 0 0 0v-.1a27.5 27.5 0 0 1-3.2-3.6 22.8 22.8 0 0 1-4.3-12.9c0-4.5 1.2-8.6 2.9-12.1 1.6-3.5 3.6-6.6 5.8-9.5 2.1-2.9 4.4-5.5 6.6-8l3.3-3.7 2.8-3.3.3-.5v.3c-.1.2-.2.6 0 1.5a4 4 0 0 0 1.6 2.3l1.1.5c.3 0 .1 0 0 0-.4 0-1.1 0-1.8.2-.5 0-1.8.4-2.9.4-2.2.2-4.6-.3-6.5-1.2-2-.9-3.6-2.1-4.9-3.4a31.6 31.6 0 0 1-5.8-8.2 81 81 0 0 1-5.6-16c-1.3-5-2.1-9.6-2.8-13.7a191.3 191.3 0 0 1-1.4-10.6l-.8-9.2 1.4-.2zm95 175.9l-.2-.6-.5-1.5a126.5 126.5 0 0 1-1.6-5.7c-1.4-5-3-11.8-4.8-19.7l-1.5-6.1-1.4-6.4c-.5-2.2-.9-4.4-1.6-6.7-.7-2.2-1.6-4.4-3.1-6.3-1.9-2.1-4-4.4-5.1-7.7a9.3 9.3 0 0 1-.3-5.4 14 14 0 0 1 2.3-4.5c1.9-2.6 4-4.6 6-6.8a120.2 120.2 0 0 0 5.5-6.5c3.5-4.4 6.4-9 9-13.5 0 0-.3.3-.1.2v-.2l.2-.3.2-.4.3-.7.4-1.3.6-2.8c.1-1.8-.1-3.7-.6-5.7A52 52 0 0 0 287 958a336 336 0 0 0-13.5-20l-5.5-7.2-3.5-4.8-1.3-1.8.8-1.1 2.1.7a64.8 64.8 0 0 1 5.6 2.5 80.9 80.9 0 0 1 27.8 23.8c3 4.6 5.8 10.1 6.8 17 .4 3.3.3 7-.6 10.6a26.5 26.5 0 0 1-1.8 5.2l-1.4 2.5-.8 1.1-.3.4-.2.2v.1h-.1l-.2.3c-3.8 4.9-8.6 9-13.5 12.4l-7.2 5a35 35 0 0 0-6.1 5.3 8 8 0 0 0-1.7 2.9 4 4 0 0 0 .2 2.8 9 9 0 0 0 2 2.7l1.3 1.3.7.5.8.6a36.9 36.9 0 0 1 6.8 6c2 2.2 3.7 4.6 5 7a35.2 35.2 0 0 1 2.8 7.4l.8 3.6.5 3.4c.6 4.6.6 8.7.4 12.4a63 63 0 0 1-1.3 9.3c-.6 2.6-1.2 4.6-1.7 6l-.6 1.5-.3.5h-1.4z"/><path fill="#39B54A" d="M370.6 856.4l-.7 2.9a201.8 201.8 0 0 0-1.8 8 195 195 0 0 0-4 29.3c-.2 6-.1 12.6.9 19.3.5 3.3 1.2 6.7 2.3 9.8a34.6 34.6 0 0 0 2 4.7c.8 1.5 1.7 2.6 2.8 4.5a35 35 0 0 1 3.1 6c.8 2.2 1.5 4.8 1.3 7.8a13.9 13.9 0 0 1-1.1 4.4c-.6 1.4-1.5 2.6-2.3 3.7a26.2 26.2 0 0 1-5.7 4.9c-3.8 2.5-7.5 4.4-11.2 6.3-3.6 1.8-7.2 3.7-10.6 5.7-3.4 2-6.7 4.1-9.8 6.4a89.8 89.8 0 0 0-4.5 3.6 96.5 96.5 0 0 0-2.1 1.9c-.2.1.2-.1.1 0l-.2.1-.3.3-.5.5-.8.9-.6.8-.7 1-.6.9-.5 1a23.2 23.2 0 0 0-1.6 4 27 27 0 0 0-.7 4.5 29.4 29.4 0 0 0 0 4.8c.2 6.4 2 13.1 4 19.4a174 174 0 0 0 7.1 17.6 353.3 353.3 0 0 0 7.3 14.8 734 734 0 0 0 6.1 11.4l5.6 10-1.1.9-2.3-2a82.5 82.5 0 0 1-2.7-2.5l-3.5-3.4a153.3 153.3 0 0 1-29.2-42 79.5 79.5 0 0 1-5.3-17.1 49.1 49.1 0 0 1-.7-6.6c0-4.4.4-9.2 2-14a32.2 32.2 0 0 1 3.2-6.8l1.1-1.5 1.2-1.6 1.2-1.4 1.4-1.4 1.4-1.3 1.4-1.1a108.3 108.3 0 0 1 8-5.7 137 137 0 0 1 11.2-6.4c3.8-2 7.6-3.7 11.3-5.4 3.8-1.7 7.4-3.3 10.5-5.1a17 17 0 0 0 3.6-2.8c.9-1 1.2-1.7 1.4-2.7.3-2-.9-5.3-2.5-8.3l-1.4-2.5a37.9 37.9 0 0 1-1.4-3 42.8 42.8 0 0 1-2-5.8c-1-4-1.6-7.8-1.9-11.5-.4-7.4.2-14.2 1-20.5a173.2 173.2 0 0 1 6.8-29.4 203.6 203.6 0 0 1 2.7-8l1-2.7 1.3.4z"/><path fill="#006837" d="M379.8 1077.4s2.6-2.9 7.5-7.5c4.9-4.7 12-11 20.4-18.3l6.6-5.8 6.9-6 7.1-6.3c2.4-2.2 4.8-4.4 6.6-6.8.8-1.1 1.5-2.4 1.9-3.4.3-1 .3-1.9-.3-2.8l-.3-.4-.4-.5-1-1-2-1.8a127.5 127.5 0 0 0-23.3-15.4c-3.3-1.8-6.7-3.6-10.1-5.6-3.4-2-7-4.3-9.8-7.8a18.7 18.7 0 0 1-4.2-13.4c.3-4.6 1.8-8.6 3.5-12.2a65.8 65.8 0 0 1 2.7-5.2l.7-1.2.2-.3.1-.2.3-.6a21.1 21.1 0 0 0 .9-2.2c0 .3-.2.7 0 1.7l.2.8.5 1a5.8 5.8 0 0 0 1.6 1.7 5.1 5.1 0 0 0 1.7.9l.6.1h.4l.8.1c.2 0 .1 0 0 .1l-.6.4-1.7 1-7.3 4.9a201 201 0 0 1-7.3 4.7 241 241 0 0 1-24.1 13.3c-6.2 2.9-10 4.2-10 4.2l-1-1.1s2.2-3.5 6.6-8.8a131 131 0 0 1 8.3-9 142.8 142.8 0 0 1 19.3-15.9 72.4 72.4 0 0 1 13.5-6.6l2.4-.5a10 10 0 0 1 2.1 0l.8.1a9.6 9.6 0 0 1 2 .6l1 .7a7.5 7.5 0 0 1 2.1 2.2 8.2 8.2 0 0 1 1 2.4c.2 1.4 0 2.2 0 3a18.3 18.3 0 0 1-3.6 7l-.5.5v.1l-.2.1-.2.3-.7 1c-1 1.3-2 2.6-2.8 4a39.2 39.2 0 0 0-3.8 8.1c-.6 2.7-.4 5.1 1 7.8 1.4 2.6 4 5 6.8 7.3 2.9 2.3 6 4.4 9.3 6.4l9.7 6c3.2 2.1 6.5 4.2 9.6 6.4 1.6 1 3.2 2.1 4.7 3.3l2.3 1.7 1.1.8.5.4.8.7a9.2 9.2 0 0 1 2.3 3.3c.6 1.3.8 2.6.8 4 0 2.5-.6 4.7-1.3 6.7-1.6 4-3.6 7.3-5.8 10.3a64.7 64.7 0 0 1-14.4 14.5 140.7 140.7 0 0 1-20.9 13.8c-4 2.3-7.8 4.1-10.9 5.5-6.2 2.8-10 3.9-10 3.9l-.7-1.2z"/><path fill="#009245" d="M396.4 1077.9v-.8l-.4-2.1-.8-8.1-.8-12.2c-.3-4.6-.6-9.7-1.3-15-.3-2.6-.6-5.2-1.1-7.5-.3-1.2-.6-2.3-1-3.2-.3-1-.8-1.7-1.5-2.3-.6-.6-1.8-1-3.1-1H384.5h-.2l-.2.1-.7.1-.8.1-1.6.2c-4.2 0-8.1-1.2-11.6-3a36.8 36.8 0 0 1-9.5-7.4c-2.8-3-5.2-6.4-6.7-10.6-.7-2.2-1.2-4.5-1-7 .2-2.6 1.2-5.2 2.7-7.4 1.6-2.1 3.6-3.8 5.7-5 2.1-1.3 4.3-2.2 6.5-2.8a43.2 43.2 0 0 1 6.5-1.5 58 58 0 0 1 3.2-.3l1.6-.1H379.1c.2 0 0 0 0 0l.7-.1.3-.1.4-.1a11.9 11.9 0 0 0 2.7-1 21 21 0 0 0 3.8-2.3c2.4-1.9 4.8-4.3 7-7a105.8 105.8 0 0 0 3.1-4 224 224 0 0 0 3-4.2c4-5.7 7.6-11.6 11-17.2a838.1 838.1 0 0 0 9.4-16l14-24.7 4-7 1.5-2.4 1.3.4-.4 3a134.6 134.6 0 0 1-4.5 20.1 205.7 205.7 0 0 1-5.1 15.6c-2.1 5.6-4.6 11.7-7.7 17.9-3 6.2-6.7 12.7-11.3 19a80.2 80.2 0 0 1-3.7 4.6 74.6 74.6 0 0 1-4 4.6c-3 3-6.3 5.8-10.2 8.3-4 2.4-8.6 4.5-14.4 4.6l-3-.2h-2.6a45 45 0 0 0-5 .1c-3.4.4-6.4 1.3-8.3 3-1 .8-1.7 1.9-2.1 3.2a10 10 0 0 0-.2 4.5c.6 3.2 2.3 6.4 4.5 9.2 2.2 2.7 5 5 8 6.5s6.3 2.1 9.2 1.6l1-.2.5-.1.6-.3 1.3-.5 1.5-.5c2-.6 4.5-.9 7-.3 1.2.3 2.4.8 3.5 1.4 1 .6 2 1.4 2.9 2.2 1.7 1.6 2.9 3.4 3.8 5.2a30 30 0 0 1 3 10.3c.8 6.4.3 12.1-.4 17a78.7 78.7 0 0 1-3 12.5c-1 3.4-2.2 6-3 7.8-.8 1.7-1.4 2.6-1.4 2.6l-1.4-.2z"/><path fill="#39B54A" d="M238 1078l-.1-.6-.5-1.8a220.4 220.4 0 0 1-1.6-6.7 568.7 568.7 0 0 1-2.1-10.2l-2.7-13a119 119 0 0 0-.8-3.6l-.8-3.6a372.5 372.5 0 0 1-1.9-7.6c-.6-2.6-1.2-5.2-2-7.9a41 41 0 0 0-2.9-7.9 22.1 22.1 0 0 0-2.2-3.6l-1.6-1.7-1.6-1.8c-2.3-2.5-4.5-5-6.6-7.7-2-2.7-4-5.7-5.4-9a29.9 29.9 0 0 1-1.6-5.3 29.7 29.7 0 0 1-.4-5.6 39 39 0 0 1 1.6-10.8 99.6 99.6 0 0 1 8.3-19l.6-1.1.3-.5c0 .1 0 0 0 0l.1-.2.1-.3.6-1 .4-.9a35.3 35.3 0 0 0 3.4-18.3 76 76 0 0 0-1.9-14 115 115 0 0 0-7-21.7l-2.6-6.3-1-2.3 1-.9.6.3a54.4 54.4 0 0 1 7.1 5.6 63.2 63.2 0 0 1 7.4 8.3c2.6 3.5 5.3 7.7 7.4 12.8a42.7 42.7 0 0 1-.8 38.1 44.5 44.5 0 0 1-2.8 4.8l-.9 1.2-.7 1-1.5 1.9a303.5 303.5 0 0 0-5.7 7.5 74.5 74.5 0 0 0-5 7.8 29.3 29.3 0 0 0-3.2 8.5 18.9 18.9 0 0 0 .5 8.8 24.5 24.5 0 0 0 4.4 8 45.1 45.1 0 0 0 10.5 9.6 43 43 0 0 1 4 3.5 46 46 0 0 1 13.2 25 119.6 119.6 0 0 1 .7 4.1l.5 4a90.5 90.5 0 0 1-2.6 31.7c-.4 1.6-.8 2.4-.8 2.4H238z"/><path fill="#8CC63F" d="M202.6 1078.4l-.5-.4-1.4-1c-1.2-1-2.9-2.5-4.8-4.5a71.5 71.5 0 0 1-6.5-7.8 70.1 70.1 0 0 1-9.5-18.6c-.8-2.7-1.3-5.5-1.3-8.7 0-3.1.5-6.6 2.2-10a14 14 0 0 1 6-6.2l1.4-.6 1-.4c5.4-2 10.8-4.5 16-7.6 5.2-3 10.2-6.5 14.3-10.7 2-2.1 3.7-4.4 4.6-6.5.4-1.1.6-2 .6-2.8-.1-.7-.3-1-.7-1.6-.8-1-2.5-2.3-4.7-3.4l-2-1-1-.6-1-.6-2.2-1.4-2-1.4a60.1 60.1 0 0 1-21-26.8 67.8 67.8 0 0 1-4.7-29.8l.3-1.7.1-.6 1.4-.2 4 7.6c2.6 4.7 6.1 11.4 10.8 18.6 2.3 3.6 5 7.4 7.9 11.2 2.9 3.8 6 7.7 9.7 11.4l1.4 1.3 1.4 1.2 3.2 2.7c1.5 1 3 2.1 4.4 3.6a17 17 0 0 1 3.5 5.6c1 2.3 1.1 5 .6 7.3-.5 2.3-1.5 4.2-2.7 5.8-2.3 3-5 5.2-7.7 7-5.4 3.8-11 6.7-16.4 9.6-5.4 2.8-10.7 5.7-15.7 8.7l-.8.6-.6.5c-.4.3-.6.8-.9 1.2a6 6 0 0 0-.6 2.6c0 1.9.5 4 1.2 6l2 6.4 2.1 6.3 4.1 11.4c1.3 3.4 2.4 6.5 3.2 9.1a127.9 127.9 0 0 1 1.8 6.1l.5 1.7.1.6-1.1.8zm130.8-176.3s.6 3.3 2 9a200 200 0 0 0 6.6 23.2c1.8 4.6 3.8 9.5 6.7 14 1.4 2.3 3 4.5 5 6 .8.7 1.8 1.3 2.7 1.5.9.3 1.7.4 2.6.2.6 0 2.5-.8 4.8-1h2.3c.5.1 1.2.3 2.2.8l.8.6a5.3 5.3 0 0 1 1.6 2.7c.3 1.3 0 2.1 0 2.7a8 8 0 0 1-.5 1.4 12.6 12.6 0 0 1-.9 1.7c-1.1 1.8-2.2 3.1-3.2 4.5l-3.1 3.8c-2 2.6-4 5.1-5.7 7.7a44 44 0 0 0-4.2 7.9c-1 2.6-1.5 5.2-1.4 7.3.2 2.2 1 4 2.5 5.6l1.3 1.2 1.7 1.5.5.5.6.6 1.2 1.2 2 2.5c2.5 3.6 4 7.8 4.6 11.8.6 4 .3 7.8-.3 11.3-.7 3.6-1.7 6.7-3 9.7-2.4 6-5.4 11-8.4 15.3a106.2 106.2 0 0 1-17 18.6 75 75 0 0 1-3.1 2.6l-2.4 1.8-2 1.4-1-1 4.4-8.1a541.5 541.5 0 0 0 5-9.3c1.9-3.5 4-7.5 6-12 2-4.3 4-9 5.4-14 1.5-5 2.5-10 2.1-14.6-.2-2.2-.7-4.3-1.7-6.2l-.8-1.4-.5-.6-.2-.3-.3-.4-.5-.5-.2-.2c-.2-.2.1 0 0 0v-.1a27.5 27.5 0 0 1-3.2-3.6 22.8 22.8 0 0 1-4.3-12.9c0-4.5 1.2-8.6 2.9-12.1 1.6-3.5 3.6-6.6 5.8-9.5 2.1-2.9 4.4-5.5 6.6-8l3.3-3.7 2.8-3.3.3-.5v.3c-.1.2-.2.6 0 1.5a4 4 0 0 0 1.6 2.3l1.1.5c.3 0 .1 0 0 0-.4 0-1.1 0-1.8.2-.5 0-1.8.4-2.9.4-2.2.2-4.6-.3-6.5-1.2-2-.9-3.6-2.1-4.9-3.4a31.6 31.6 0 0 1-5.8-8.2 81 81 0 0 1-5.6-16c-1.3-5-2.1-9.6-2.8-13.7a191.3 191.3 0 0 1-1.4-10.6l-.8-9.2 1.4-.2z"/><path fill="#009245" d="M267.4 1077.9v-.8l-.4-2.1-.8-8.1-.8-12.2c-.3-4.6-.6-9.7-1.3-15-.3-2.6-.6-5.2-1.1-7.5-.3-1.2-.6-2.3-1-3.2-.3-1-.8-1.7-1.5-2.3-.6-.6-1.8-1-3.1-1H255.5h-.2l-.2.1-.7.1-.8.1-1.6.2c-4.2 0-8.1-1.2-11.6-3a36.8 36.8 0 0 1-9.5-7.4c-2.8-3-5.2-6.4-6.7-10.6-.7-2.2-1.2-4.5-1-7 .2-2.6 1.2-5.2 2.7-7.4 1.6-2.1 3.6-3.8 5.7-5 2.1-1.3 4.3-2.2 6.5-2.8a43.2 43.2 0 0 1 6.5-1.5 58 58 0 0 1 3.2-.3l1.6-.1H250.1c.2 0 0 0 0 0l.7-.1.3-.1.4-.1a11.9 11.9 0 0 0 2.7-1 21 21 0 0 0 3.8-2.3c2.4-1.9 4.8-4.3 7-7a105.8 105.8 0 0 0 3.1-4 224 224 0 0 0 3-4.2c4-5.7 7.6-11.6 11-17.2a838.1 838.1 0 0 0 9.4-16l14-24.7 4-7 1.5-2.4 1.3.4-.4 3a134.6 134.6 0 0 1-4.5 20.1 205.7 205.7 0 0 1-5.1 15.6c-2.1 5.6-4.6 11.7-7.7 17.9-3 6.2-6.7 12.7-11.3 19a80.2 80.2 0 0 1-3.7 4.6 74.6 74.6 0 0 1-4 4.6c-3 3-6.3 5.8-10.2 8.3-4 2.4-8.6 4.5-14.4 4.6l-3-.2h-2.6a45 45 0 0 0-5 .1c-3.4.4-6.4 1.3-8.3 3-1 .8-1.7 1.9-2.1 3.2a10 10 0 0 0-.2 4.5c.6 3.2 2.3 6.4 4.5 9.2 2.2 2.7 5 5 8 6.5s6.3 2.1 9.2 1.6l1-.2.5-.1.6-.3 1.3-.5 1.5-.5c2-.6 4.5-.9 7-.3 1.2.3 2.4.8 3.5 1.4 1 .6 2 1.4 2.9 2.2 1.7 1.6 2.9 3.4 3.8 5.2a30 30 0 0 1 3 10.3c.8 6.4.3 12.1-.4 17a78.7 78.7 0 0 1-3 12.5c-1 3.4-2.2 6-3 7.8-.8 1.7-1.4 2.6-1.4 2.6l-1.4-.2z"/><path fill="#39B54A" d="M298.6 856.4l-.7 2.7a199.1 199.1 0 0 0-1.7 7.6c-1.3 6.6-3 16.1-3.8 27.6a110 110 0 0 0 .2 18.2c.3 3.2.8 6.4 1.6 9.5a37.4 37.4 0 0 0 4.7 11l1.6 2.4a57.5 57.5 0 0 1 3 5.3c1.8 3.7 3.3 8 3.4 12.8.1 2.4-.2 5-1 7.2-.7 2.4-1.7 4.5-3 6.5-2.3 3.8-5.2 7-8.1 9.8-5.8 5.8-11.8 10.7-17.4 15.8l-4.2 3.8c.2-.2 0 0 0 0l-.1.2-.3.2-.5.5-.5.5-.3.4-1.4 1.6c-1.7 2.4-3 5-4 7.7a43.8 43.8 0 0 0-1.6 17.2c.4 6 1.7 11.7 3.1 17 1.5 5.4 3.2 10.2 4.7 14.6a300.9 300.9 0 0 0 4.4 11.2 457.5 457.5 0 0 0 3 7.3l1.2 2.6-1.1.8-2.1-2-2.4-2.4a83.4 83.4 0 0 1-3.1-3.5 107.7 107.7 0 0 1-15.7-24.5c-2.5-5.6-4.8-12-6-19.3-.6-3.7-.9-7.6-.6-11.7.3-4 1.2-8.3 2.8-12.4a40.8 40.8 0 0 1 3.1-6 39 39 0 0 1 4.2-5.3l2.4-2.4.7-.6.6-.5 1.2-1 4.6-3.5c6-4.7 12.2-9.3 17.7-14.2 2.7-2.5 5.2-5 7-7.6 1.9-2.6 2.8-5.2 3-8 0-2.8-.8-5.9-2.1-9a48.5 48.5 0 0 0-2.3-4.5l-1.3-2.4a36 36 0 0 1-1.4-2.7 45.4 45.4 0 0 1-3.4-11.2c-.7-3.7-1-7.3-1-10.8-.1-7 .6-13.4 1.5-19.2.8-5.9 2-11.1 3.2-15.8a192.6 192.6 0 0 1 3.4-11.8 165 165 0 0 1 3.5-10.1l1.3.4z"/><path fill="#8CC63F" d="M307.6 1078.4l-.5-.4-1.4-1c-1.2-1-2.9-2.5-4.8-4.5a71.5 71.5 0 0 1-6.5-7.8 70.1 70.1 0 0 1-9.5-18.6c-.8-2.7-1.3-5.5-1.3-8.7 0-3.1.5-6.6 2.2-10a14 14 0 0 1 6-6.2l1.4-.6 1-.4c5.4-2 10.8-4.5 16-7.6 5.2-3 10.2-6.5 14.3-10.7 2-2.1 3.7-4.4 4.6-6.5.4-1.1.6-2 .6-2.8-.1-.7-.3-1-.7-1.6-.8-1-2.5-2.3-4.7-3.4l-2-1-1-.6-1-.6-2.2-1.4-2-1.4a60.1 60.1 0 0 1-21-26.8 67.8 67.8 0 0 1-4.7-29.8l.3-1.7.1-.6 1.4-.2 4 7.6c2.6 4.7 6.1 11.4 10.8 18.6 2.3 3.6 5 7.4 7.9 11.2 2.9 3.8 6 7.7 9.7 11.4l1.4 1.3 1.4 1.2 3.2 2.7c1.5 1 3 2.1 4.4 3.6a17 17 0 0 1 3.5 5.6c1 2.3 1.1 5 .6 7.3-.5 2.3-1.5 4.2-2.7 5.8-2.3 3-5 5.2-7.7 7-5.4 3.8-11 6.7-16.4 9.6-5.4 2.8-10.7 5.7-15.7 8.7l-.8.6-.6.5c-.4.3-.6.8-.9 1.2a6 6 0 0 0-.6 2.6c0 1.9.5 4 1.2 6l2 6.4 2.1 6.3 4.1 11.4c1.3 3.4 2.4 6.5 3.2 9.1a127.9 127.9 0 0 1 1.8 6.1l.5 1.7.1.6-1.1.8z"/><path fill="#39B54A" d="M345 1078l-.1-.6a805.8 805.8 0 0 0-.5-1.8 220.4 220.4 0 0 1-1.6-6.7 568.7 568.7 0 0 1-2.1-10.2l-2.7-13a119 119 0 0 0-.8-3.6l-.8-3.6a372.5 372.5 0 0 1-1.9-7.6c-.6-2.6-1.2-5.2-2-7.9a41 41 0 0 0-2.9-7.9 22.1 22.1 0 0 0-2.2-3.6l-1.6-1.7-1.6-1.8c-2.3-2.5-4.5-5-6.6-7.7-2-2.7-4-5.7-5.4-9a29.9 29.9 0 0 1-1.6-5.3 29.7 29.7 0 0 1-.4-5.6 39 39 0 0 1 1.6-10.8 99.6 99.6 0 0 1 8.3-19l.6-1.1.3-.5c0 .1 0 0 0 0l.1-.2.1-.3.6-1 .4-.9a35.3 35.3 0 0 0 3.4-18.3 76 76 0 0 0-1.9-14 115 115 0 0 0-7-21.7l-2.6-6.3-1-2.3 1-.9.6.3a54.4 54.4 0 0 1 7.1 5.6 63.2 63.2 0 0 1 7.4 8.3c2.6 3.5 5.3 7.7 7.4 12.8a42.7 42.7 0 0 1-.8 38.1 44.5 44.5 0 0 1-2.8 4.8l-.9 1.2-.7 1-1.5 1.9a303.5 303.5 0 0 0-5.7 7.5 74.5 74.5 0 0 0-5 7.8 29.3 29.3 0 0 0-3.2 8.5 18.9 18.9 0 0 0 .5 8.8 24.5 24.5 0 0 0 4.4 8 45.1 45.1 0 0 0 10.5 9.6 43 43 0 0 1 4 3.5 46 46 0 0 1 13.2 25 119.6 119.6 0 0 1 .7 4.1l.5 4a90.5 90.5 0 0 1-2.6 31.7c-.4 1.6-.8 2.4-.8 2.4H345z"/><path fill="#009245" d="M365.4 902.1s.6 3.3 2 9a200 200 0 0 0 6.6 23.2c1.8 4.6 3.8 9.5 6.7 14 1.4 2.3 3 4.5 5 6 .8.7 1.8 1.3 2.7 1.5.9.3 1.7.4 2.6.2.6 0 2.5-.8 4.8-1h2.3c.5.1 1.2.3 2.2.8l.8.6a5.3 5.3 0 0 1 1.6 2.7c.3 1.3 0 2.1 0 2.7a8 8 0 0 1-.5 1.4 12.6 12.6 0 0 1-.9 1.7c-1.1 1.8-2.2 3.1-3.2 4.5l-3.1 3.8c-2 2.6-4 5.1-5.7 7.7a44 44 0 0 0-4.2 7.9c-1 2.6-1.5 5.2-1.4 7.3.2 2.2 1 4 2.5 5.6l1.3 1.2 1.7 1.5.5.5.6.6 1.2 1.2 2 2.5c2.5 3.6 4 7.8 4.6 11.8.6 4 .3 7.8-.3 11.3-.7 3.6-1.7 6.7-3 9.7-2.4 6-5.4 11-8.4 15.3a106.2 106.2 0 0 1-17 18.6 75 75 0 0 1-3.1 2.6l-2.4 1.8-2 1.4-1-1 4.4-8.1a541.5 541.5 0 0 0 5-9.3c1.9-3.5 4-7.5 6-12 2-4.3 4-9 5.4-14 1.5-5 2.5-10 2.1-14.6-.2-2.2-.7-4.3-1.7-6.2l-.8-1.4-.5-.6-.2-.3-.3-.4-.5-.5-.2-.2c-.2-.2.1 0 0 0v-.1a27.5 27.5 0 0 1-3.2-3.6 22.8 22.8 0 0 1-4.3-12.9c0-4.5 1.2-8.6 2.9-12.1 1.6-3.5 3.6-6.6 5.8-9.5 2.1-2.9 4.4-5.5 6.6-8l3.3-3.7 2.8-3.3.3-.5v.3c-.1.2-.2.6 0 1.5a4 4 0 0 0 1.6 2.3l1.1.5c.3 0 .1 0 0 0-.4 0-1.1 0-1.8.2-.5 0-1.8.4-2.9.4-2.2.2-4.6-.3-6.5-1.2-2-.9-3.6-2.1-4.9-3.4a31.6 31.6 0 0 1-5.8-8.2 81 81 0 0 1-5.6-16c-1.3-5-2.1-9.6-2.8-13.7a191.3 191.3 0 0 1-1.4-10.6l-.8-9.2 1.4-.2z"/><path fill="#006837" d="M546.7 1078.5l.2-.6.6-1.7c.5-1.5 1.3-3.7 1.8-6.3.5-2.7.8-5.8.4-9-.4-3-1.5-6.2-3.6-9.6a116.4 116.4 0 0 0-11.4-14.6l-1.6-1.4-.8-.8-1-.7a34.4 34.4 0 0 1-2-1.6 12.9 12.9 0 0 1-1-1c-.4-.4-.7-.8-1-1.6a4.1 4.1 0 0 1-.5-1.3 3.3 3.3 0 0 1 .3-1.8c.6-1 1.2-1.4 1.7-1.7 1-.6 1.9-.8 2.7-1 3.3-1 6.4-1.6 9.5-2.4 3.1-.9 6.2-2 9-3.3a36.4 36.4 0 0 0 14.1-11c.8-1.1 1.6-2.2 2.2-3.4l.2-1v-.5c0-.2-.2-.4-.6-.9-.5-.5-1.3-1.2-2.3-1.8-2-1.3-4.6-2.5-7.3-3.6a123.6 123.6 0 0 0-8.4-2.8 522 522 0 0 0-16.8-4.8l-15.6-4c-9.7-2.5-17.8-4.7-23.5-6.4l-6.7-2-2.4-.7.1-1.4 2.5-.3 7-.7c6-.4 14.6-.7 24.9 0a192.7 192.7 0 0 1 16.6 1.8c5.8.9 12 2.1 18.4 4.2a82 82 0 0 1 9.7 3.7 54 54 0 0 1 5 2.6c1.6 1 3.2 2.1 4.9 3.5 1.6 1.3 3.3 3 4.7 5.2a16 16 0 0 1 1.9 3.9 13.7 13.7 0 0 1-.3 9 16.4 16.4 0 0 1-1.9 3.6 34.8 34.8 0 0 1-14 10.6c-3.5 1.4-7 2.4-10.4 3.1l-10 1.8c-3.2.6-6.4 1.1-9.2 2l-1.7.7.1-.1.1-.6v-.3l.4.3.7.5 1.8 1 2 .8 2.2.9a82.5 82.5 0 0 1 4.4 1.9c2.8 1.3 5.6 2.9 8 4.9a26.5 26.5 0 0 1 9.6 23.5 24.4 24.4 0 0 1-10.4 16.9l-1.7 1-.6.3-1-1zm-86 3l.2-.6.6-1.7c.5-1.5 1.3-3.7 1.8-6.3.5-2.7.8-5.8.4-9-.4-3-1.5-6.2-3.6-9.6a116.4 116.4 0 0 0-11.4-14.6l-1.6-1.4-.8-.8-1-.7a34.4 34.4 0 0 1-2-1.6 12.9 12.9 0 0 1-1-1c-.4-.4-.7-.8-1-1.6a4.1 4.1 0 0 1-.5-1.3 3.3 3.3 0 0 1 .3-1.8c.6-1 1.2-1.4 1.7-1.7 1-.6 1.9-.8 2.7-1 3.3-1 6.4-1.6 9.5-2.4 3.1-.9 6.2-2 9-3.3a36.5 36.5 0 0 0 14.1-11c.8-1.1 1.6-2.2 2.2-3.4l.2-1v-.5c0-.2-.2-.4-.6-.9-.5-.5-1.3-1.2-2.3-1.8-2-1.3-4.6-2.5-7.3-3.6a123.6 123.6 0 0 0-8.4-2.8 522 522 0 0 0-16.8-4.8l-15.6-4c-9.7-2.5-17.8-4.7-23.5-6.4l-6.7-2-2.4-.7.2-1.4 2.4-.3 7-.7c6-.4 14.6-.7 24.9 0a192.7 192.7 0 0 1 16.6 1.8c5.8.9 12 2.1 18.4 4.2a82 82 0 0 1 9.7 3.7 54 54 0 0 1 5 2.6c1.6 1 3.2 2.1 4.9 3.5 1.6 1.3 3.3 3 4.7 5.2a16 16 0 0 1 1.9 3.9c.4 1.4.7 3 .6 4.6a13.7 13.7 0 0 1-.9 4.4 16.4 16.4 0 0 1-1.9 3.6 34.8 34.8 0 0 1-14 10.6c-3.5 1.4-7 2.4-10.4 3.1l-10 1.8c-3.2.6-6.4 1.1-9.2 2l-1.7.7.1-.1.1-.6v-.3l.4.3.7.5 1.8 1 2 .8 2.2.9a82.5 82.5 0 0 1 4.4 1.9c2.8 1.3 5.6 2.9 8 4.9a26.5 26.5 0 0 1 9.6 23.5 24.4 24.4 0 0 1-10.4 16.9l-1.7 1-.6.3-1-1z"/><path fill="#009245" d="M433.4 903.1s.6 3.3 2 9a200 200 0 0 0 6.6 23.2c1.8 4.6 3.8 9.5 6.7 14 1.4 2.3 3 4.5 5 6 .8.7 1.8 1.3 2.7 1.5.9.3 1.7.4 2.6.2.6 0 2.5-.8 4.8-1h2.3c.5.1 1.2.3 2.2.8l.8.6a5.3 5.3 0 0 1 1.6 2.7c.3 1.3 0 2.1 0 2.7a8 8 0 0 1-.5 1.4 12.6 12.6 0 0 1-.9 1.7c-1.1 1.8-2.2 3.1-3.2 4.5l-3.1 3.8c-2 2.6-4 5.1-5.7 7.7a44 44 0 0 0-4.2 7.9c-1 2.6-1.5 5.2-1.4 7.3.2 2.2 1 4 2.5 5.6l1.3 1.2 1.7 1.5.5.5.6.6 1.2 1.2 2 2.5c2.5 3.6 4 7.8 4.6 11.8.6 4 .3 7.8-.3 11.3-.7 3.6-1.7 6.7-3 9.7-2.4 6-5.4 11-8.4 15.3a106.2 106.2 0 0 1-17 18.6 75 75 0 0 1-3.1 2.6l-2.4 1.8-2 1.4-1-1 4.4-8.1a541.5 541.5 0 0 0 5-9.3c1.9-3.5 4-7.5 6-12 2-4.3 4-9 5.4-14 1.5-5 2.5-10 2.1-14.6-.2-2.2-.7-4.3-1.7-6.2l-.8-1.4-.5-.6-.2-.3-.3-.4-.5-.5-.2-.2c-.2-.2.1 0 0 0v-.1a27.5 27.5 0 0 1-3.2-3.6 22.8 22.8 0 0 1-4.3-12.9c0-4.5 1.2-8.6 2.9-12.1 1.6-3.5 3.6-6.6 5.8-9.5 2.1-2.9 4.4-5.5 6.6-8l3.3-3.7 2.8-3.3.3-.5v.3c-.1.2-.2.6 0 1.5a4 4 0 0 0 1.6 2.3l1.1.5c.3 0 .1 0 0 0-.4 0-1.1 0-1.8.2-.5 0-1.8.4-2.9.4-2.2.2-4.6-.3-6.5-1.2-2-.9-3.6-2.1-4.9-3.4a31.6 31.6 0 0 1-5.8-8.2 81 81 0 0 1-5.6-16c-1.3-5-2.1-9.6-2.8-13.7a191.3 191.3 0 0 1-1.4-10.6l-.8-9.2 1.4-.2zm95 175.9l-.2-.6-.5-1.5a127.6 127.6 0 0 1-1.7-5.7c-1.3-5-2.9-11.8-4.7-19.7l-1.5-6.1-1.4-6.4c-.5-2.2-.9-4.4-1.6-6.7-.7-2.2-1.6-4.4-3.1-6.3-1.9-2.1-4-4.4-5.1-7.7a9.3 9.3 0 0 1-.3-5.4 14 14 0 0 1 2.3-4.5c1.9-2.6 4-4.6 6-6.8a120.2 120.2 0 0 0 5.5-6.5c3.5-4.4 6.4-9 9-13.5l-.2.2v-.1l.1-.1.2-.3.2-.4.3-.7.4-1.3a13.6 13.6 0 0 0 .6-2.8c.1-1.8-.1-3.7-.6-5.7A52 52 0 0 0 527 959a336 336 0 0 0-13.5-20l-5.5-7.2-3.5-4.8-1.3-1.8.8-1.1 2.1.7a64.8 64.8 0 0 1 5.6 2.5 80.9 80.9 0 0 1 27.8 23.8c3 4.6 5.8 10.1 6.8 17 .4 3.3.3 7-.6 10.6a26.5 26.5 0 0 1-1.8 5.2l-1.4 2.5-.8 1.1-.3.4-.2.2v.1h-.1l-.2.3c-3.8 4.9-8.6 9-13.5 12.4l-7.2 5a35 35 0 0 0-6.1 5.3 8 8 0 0 0-1.7 2.9 4 4 0 0 0 .2 2.8 9 9 0 0 0 2 2.7l1.3 1.3.7.5.8.6a36.9 36.9 0 0 1 6.8 6c2 2.2 3.7 4.6 5 7a35.2 35.2 0 0 1 2.8 7.4l.8 3.6.5 3.4c.6 4.6.6 8.7.4 12.4a63 63 0 0 1-1.3 9.3c-.6 2.6-1.2 4.6-1.7 6l-.6 1.5-.3.5h-1.4z"/><path fill="#39B54A" d="M610.6 857.4l-.7 2.9a201.8 201.8 0 0 0-1.8 8 195 195 0 0 0-4 29.3c-.2 6-.1 12.6.9 19.3.5 3.3 1.2 6.7 2.3 9.8a34.6 34.6 0 0 0 2 4.7c.8 1.5 1.7 2.6 2.8 4.5a35 35 0 0 1 3.1 6c.8 2.2 1.5 4.8 1.3 7.8a13.9 13.9 0 0 1-1.1 4.4c-.6 1.4-1.5 2.6-2.3 3.7a26.2 26.2 0 0 1-5.7 4.9c-3.8 2.5-7.5 4.4-11.2 6.3-3.6 1.8-7.2 3.7-10.6 5.7-3.4 2-6.7 4.1-9.8 6.4a89.8 89.8 0 0 0-4.5 3.6 96.5 96.5 0 0 0-2.1 1.9c-.2.1.2-.1.1 0l-.2.1-.3.3-.5.5-.8.9-.6.8-.7 1-.6.9-.5 1a23.2 23.2 0 0 0-1.6 4 27 27 0 0 0-.7 4.5 29.4 29.4 0 0 0 0 4.8c.2 6.4 2 13.1 4 19.4a174 174 0 0 0 7.1 17.6 353.3 353.3 0 0 0 7.3 14.8 734 734 0 0 0 6.1 11.4l5.6 10-1.1.9-2.3-2a82.5 82.5 0 0 1-2.7-2.5l-3.5-3.4a153.3 153.3 0 0 1-29.2-42 79.5 79.5 0 0 1-5.3-17.1 49.1 49.1 0 0 1-.7-6.6c0-4.4.4-9.2 2-14a32.2 32.2 0 0 1 3.2-6.8l1.1-1.5 1.2-1.6 1.2-1.4 1.4-1.4 1.4-1.3 1.4-1.1a108.3 108.3 0 0 1 8-5.7 137 137 0 0 1 11.2-6.4c3.8-2 7.6-3.7 11.3-5.4 3.8-1.7 7.4-3.3 10.5-5.1a17 17 0 0 0 3.6-2.8c.9-1 1.2-1.7 1.4-2.7.3-2-.9-5.3-2.5-8.3l-1.4-2.5a37.9 37.9 0 0 1-1.4-3 42.8 42.8 0 0 1-2-5.8c-1-4-1.6-7.8-1.9-11.5-.4-7.4.2-14.2 1-20.5a173.2 173.2 0 0 1 6.8-29.4 203.6 203.6 0 0 1 2.7-8l1-2.7 1.3.4z"/><path fill="#006837" d="M619.8 1078.4s2.6-2.9 7.5-7.5c4.9-4.7 12-11 20.4-18.3l6.6-5.8 6.9-6 7.1-6.3c2.4-2.2 4.8-4.4 6.6-6.8.8-1.1 1.5-2.4 1.9-3.4.3-1 .3-1.9-.3-2.8l-.3-.4-.4-.5-1-1-2-1.8a127.5 127.5 0 0 0-23.3-15.4c-3.3-1.8-6.7-3.6-10.1-5.6-3.4-2-7-4.3-9.8-7.8a18.7 18.7 0 0 1-4.2-13.4c.3-4.6 1.8-8.6 3.5-12.2a65.8 65.8 0 0 1 2.7-5.2l.7-1.2.2-.3.1-.2.3-.6a21.1 21.1 0 0 0 .9-2.2c0 .3-.2.7 0 1.7l.2.8.5 1a5.8 5.8 0 0 0 1.6 1.7 5.1 5.1 0 0 0 1.7.9l.6.1h.4l.8.1c.2 0 .1 0 0 .1l-.6.4-1.7 1-7.3 4.9a201 201 0 0 1-7.3 4.7 241 241 0 0 1-24.1 13.3c-6.2 2.9-10 4.2-10 4.2l-1-1.1s2.2-3.5 6.6-8.8a131 131 0 0 1 8.3-9 143 143 0 0 1 11.8-10.6 86.4 86.4 0 0 1 19.3-11.3 25 25 0 0 1 4.1-1 10 10 0 0 1 2.1-.1l.8.1a9.6 9.6 0 0 1 2 .6l1 .7a7.5 7.5 0 0 1 2.1 2.2 8.3 8.3 0 0 1 1 2.4c.2 1.4 0 2.2 0 3a18.3 18.3 0 0 1-3.6 7l-.5.5v.1l-.2.1-.2.3-.7 1c-1 1.3-2 2.6-2.8 4a39.2 39.2 0 0 0-3.8 8.1c-.6 2.7-.4 5.1 1 7.8 1.4 2.6 4 5 6.8 7.3 2.9 2.3 6 4.4 9.3 6.4l9.7 6c3.2 2.1 6.5 4.2 9.6 6.4 1.6 1 3.2 2.1 4.7 3.3l2.3 1.7 1.1.8.5.4.8.7a9.2 9.2 0 0 1 2.3 3.3c.6 1.3.8 2.6.8 4 0 2.5-.6 4.7-1.3 6.7-1.6 4-3.6 7.3-5.8 10.3a64.7 64.7 0 0 1-14.5 14.5 140.7 140.7 0 0 1-20.8 13.8 144 144 0 0 1-10.9 5.5c-6.2 2.8-10 3.9-10 3.9l-.7-1.2z"/><path fill="#009245" d="M636.4 1078.9v-.8l-.4-2.1-.8-8.1-.8-12.2c-.3-4.6-.6-9.7-1.3-15-.3-2.6-.6-5.2-1.1-7.5-.3-1.2-.6-2.3-1-3.2-.3-1-.8-1.7-1.5-2.3-.6-.6-1.8-1-3.1-1H624.5h-.2l-.2.1-.7.1-.8.1-1.6.2c-4.2 0-8.1-1.2-11.6-3a36.8 36.8 0 0 1-9.5-7.4c-2.8-3-5.2-6.4-6.7-10.6-.7-2.2-1.2-4.5-1-7 .2-2.6 1.2-5.2 2.7-7.4 1.6-2.1 3.6-3.8 5.7-5 2.1-1.3 4.3-2.2 6.5-2.8a43.2 43.2 0 0 1 6.5-1.5 58 58 0 0 1 3.2-.3l1.6-.1H619.1c.2 0 0 0 0 0l.7-.1.3-.1.4-.1a11.9 11.9 0 0 0 2.7-1 21 21 0 0 0 3.8-2.3c2.4-1.9 4.8-4.3 7-7a105.8 105.8 0 0 0 3.1-4 224 224 0 0 0 3-4.2c4-5.7 7.6-11.6 11-17.2a838.1 838.1 0 0 0 9.4-16l14-24.7 4-7 1.5-2.4 1.3.4-.4 3a134.6 134.6 0 0 1-4.5 20.1 205.7 205.7 0 0 1-5.1 15.6c-2.1 5.6-4.6 11.7-7.7 17.9-3 6.2-6.7 12.7-11.3 19a80.7 80.7 0 0 1-3.7 4.6 74.6 74.6 0 0 1-4 4.6c-3 3-6.3 5.8-10.2 8.3-4 2.4-8.6 4.5-14.4 4.6l-2.9-.2h-2.7a45 45 0 0 0-5 .1c-3.4.4-6.4 1.3-8.3 3-1 .8-1.7 1.9-2.1 3.2a10 10 0 0 0-.2 4.5c.6 3.2 2.3 6.4 4.5 9.2 2.2 2.7 5 5 8 6.5s6.3 2.1 9.2 1.6l1-.2.5-.1.6-.3 1.3-.5 1.5-.5c2-.6 4.5-.9 7-.3 1.2.3 2.4.8 3.5 1.4 1 .6 2 1.4 2.9 2.2 1.7 1.6 2.9 3.4 3.8 5.2a30 30 0 0 1 3 10.3c.8 6.4.3 12.1-.4 17a78.7 78.7 0 0 1-3 12.5c-1 3.4-2.2 6-3 7.8-.8 1.7-1.4 2.6-1.4 2.6l-1.4-.2z"/><path fill="#39B54A" d="M478 1079l-.1-.6a805.8 805.8 0 0 0-.5-1.8 220.4 220.4 0 0 1-1.6-6.7 568.7 568.7 0 0 1-2.1-10.2l-2.7-13a119 119 0 0 0-.8-3.6l-.8-3.6a372.5 372.5 0 0 1-1.9-7.6c-.6-2.6-1.2-5.2-2-7.9a41 41 0 0 0-2.9-7.9 22.1 22.1 0 0 0-2.2-3.6l-1.6-1.7-1.6-1.8c-2.3-2.5-4.5-5-6.6-7.7-2-2.7-4-5.7-5.4-9a29.9 29.9 0 0 1-1.6-5.3 29.7 29.7 0 0 1-.4-5.6 39 39 0 0 1 1.6-10.8 99.6 99.6 0 0 1 8.3-19l.6-1.1.3-.5c0 .1 0 0 0 0l.1-.2.1-.3.6-1 .4-.9a35.3 35.3 0 0 0 3.4-18.3 76 76 0 0 0-1.9-14 115 115 0 0 0-7-21.7l-2.6-6.3-1-2.3 1-.9.6.3a54.4 54.4 0 0 1 7.1 5.6 63.2 63.2 0 0 1 7.4 8.3c2.6 3.5 5.3 7.7 7.4 12.8a42.7 42.7 0 0 1-.8 38.1 44.5 44.5 0 0 1-2.8 4.8l-.9 1.2-.7 1-1.5 1.9a303.5 303.5 0 0 0-5.7 7.5 74.5 74.5 0 0 0-5 7.8 29.3 29.3 0 0 0-3.2 8.5 18.9 18.9 0 0 0 .5 8.8 24.5 24.5 0 0 0 4.4 8 45.1 45.1 0 0 0 10.5 9.6 43 43 0 0 1 4 3.5 46 46 0 0 1 13.2 25 119.6 119.6 0 0 1 .7 4.1l.5 4a90.5 90.5 0 0 1-2.6 31.7c-.4 1.6-.8 2.4-.8 2.4H478z"/><path fill="#8CC63F" d="M442.6 1079.4l-.5-.4-1.4-1c-1.2-1-2.9-2.5-4.8-4.5a71.5 71.5 0 0 1-6.5-7.8 70.1 70.1 0 0 1-9.5-18.6c-.8-2.7-1.3-5.5-1.3-8.7 0-3.1.5-6.6 2.2-10a14 14 0 0 1 6-6.2l1.4-.6 1-.4c5.4-2 10.8-4.5 16-7.6 5.2-3 10.2-6.5 14.3-10.7 2-2.1 3.7-4.4 4.6-6.5.4-1.1.6-2 .6-2.8-.1-.7-.3-1-.7-1.6-.8-1-2.5-2.3-4.7-3.4l-2-1-1-.6-1-.6-2.2-1.4-2-1.4a60.1 60.1 0 0 1-21-26.8 67.8 67.8 0 0 1-4.7-29.8l.3-1.7.1-.6 1.4-.2 4 7.6c2.6 4.7 6.1 11.4 10.8 18.6 2.3 3.6 5 7.4 7.9 11.2 2.9 3.8 6 7.7 9.7 11.4l1.4 1.3 1.4 1.2 3.2 2.7c1.5 1 3 2.1 4.4 3.6a17 17 0 0 1 3.5 5.6c1 2.3 1.1 5 .6 7.3-.5 2.3-1.5 4.2-2.7 5.8-2.3 3-5 5.2-7.7 7-5.4 3.8-11 6.7-16.4 9.6-5.4 2.8-10.7 5.7-15.7 8.7l-.8.6-.6.5c-.4.3-.6.8-.9 1.2a6 6 0 0 0-.6 2.6c0 1.9.5 4 1.2 6l2 6.4 2.1 6.3 4.1 11.4c1.3 3.4 2.4 6.5 3.2 9.1a127.9 127.9 0 0 1 1.8 6.1l.5 1.7.1.6-1.1.8zm130.8-176.3s.6 3.3 2 9a200 200 0 0 0 6.6 23.2c1.8 4.6 3.8 9.5 6.7 14 1.4 2.3 3 4.5 5 6 .8.7 1.8 1.3 2.7 1.5.9.3 1.7.4 2.6.2.6 0 2.5-.8 4.7-1h2.4c.5.1 1.2.3 2.2.8l.8.6a5.3 5.3 0 0 1 1.6 2.7c.3 1.3 0 2.1 0 2.7a8 8 0 0 1-.5 1.4 12.6 12.6 0 0 1-.9 1.7c-1.1 1.8-2.2 3.1-3.2 4.5l-3.1 3.8c-2 2.6-4 5.1-5.7 7.7a44 44 0 0 0-4.2 7.9c-1 2.6-1.5 5.2-1.4 7.3.2 2.2 1 4 2.5 5.6l1.3 1.2 1.7 1.5.5.5.6.6 1.2 1.2 2 2.5c2.5 3.6 4 7.8 4.6 11.8.6 4 .3 7.8-.3 11.3-.7 3.6-1.7 6.7-3 9.7-2.4 6-5.4 11-8.4 15.3a106.2 106.2 0 0 1-17 18.6 75 75 0 0 1-3.1 2.6l-2.4 1.8-2 1.4-1-1 4.4-8.1a541.5 541.5 0 0 0 5-9.3c1.9-3.5 4-7.5 6-12 2-4.3 4-9 5.4-14 1.5-5 2.5-10 2.1-14.6-.2-2.2-.7-4.3-1.7-6.2l-.8-1.4-.5-.6-.2-.3-.3-.4-.5-.5-.2-.2c-.2-.2.1 0 0 0v-.1a27.6 27.6 0 0 1-3.2-3.6 22.8 22.8 0 0 1-4.3-12.9c0-4.5 1.2-8.6 2.9-12.1 1.6-3.5 3.6-6.6 5.8-9.5 2.1-2.9 4.4-5.5 6.6-8l3.3-3.7 2.8-3.3.3-.5-.1.3v1.5a4 4 0 0 0 1.7 2.3l1.1.5c.3 0 .1 0 0 0-.4 0-1.1 0-1.8.2-.5 0-1.8.4-2.9.4-2.2.2-4.6-.3-6.5-1.2-2-.9-3.6-2.1-4.9-3.4a31.6 31.6 0 0 1-5.8-8.2 81 81 0 0 1-5.6-16c-1.3-5-2.1-9.6-2.8-13.7a191.3 191.3 0 0 1-1.4-10.6l-.8-9.2 1.4-.2z"/><path fill="#009245" d="M507.4 1078.9v-.8l-.4-2.1-.8-8.1-.8-12.2c-.3-4.6-.6-9.7-1.3-15-.3-2.6-.6-5.2-1.1-7.5-.3-1.2-.6-2.3-1-3.2-.3-1-.8-1.7-1.5-2.3-.6-.6-1.8-1-3.1-1H495.5h-.2l-.2.1-.7.1-.8.1-1.6.2c-4.2 0-8.1-1.2-11.6-3a36.8 36.8 0 0 1-9.5-7.4c-2.8-3-5.2-6.4-6.7-10.6-.7-2.2-1.2-4.5-1-7 .2-2.6 1.2-5.2 2.7-7.4 1.6-2.1 3.6-3.8 5.7-5 2.1-1.3 4.3-2.2 6.5-2.8a43.2 43.2 0 0 1 6.5-1.5 58 58 0 0 1 3.2-.3l1.6-.1H490.1c.2 0 0 0 0 0l.7-.1.3-.1.4-.1a11.9 11.9 0 0 0 2.7-1 21 21 0 0 0 3.8-2.3c2.4-1.9 4.8-4.3 7-7a105.8 105.8 0 0 0 3.1-4 224 224 0 0 0 3-4.2c4-5.7 7.6-11.6 11-17.2a838.1 838.1 0 0 0 9.4-16l14-24.7 4-7 1.5-2.4 1.3.4-.4 3a134.6 134.6 0 0 1-4.5 20.1 205.7 205.7 0 0 1-5.1 15.6c-2.1 5.6-4.6 11.7-7.7 17.9-3 6.2-6.7 12.7-11.3 19a80.7 80.7 0 0 1-3.7 4.6 74.6 74.6 0 0 1-4 4.6c-3 3-6.3 5.8-10.2 8.3-4 2.4-8.6 4.5-14.4 4.6l-3-.2h-2.6a45 45 0 0 0-5 .1c-3.4.4-6.4 1.3-8.3 3-1 .8-1.7 1.9-2.1 3.2a10 10 0 0 0-.2 4.5c.6 3.2 2.3 6.4 4.5 9.2 2.2 2.7 5 5 8 6.5s6.3 2.1 9.2 1.6l1-.2.5-.1.6-.3 1.3-.5 1.5-.5c2-.6 4.5-.9 7-.3 1.2.3 2.4.8 3.5 1.4 1 .6 2 1.4 2.9 2.2 1.7 1.6 2.9 3.4 3.8 5.2a30 30 0 0 1 3 10.3c.8 6.4.3 12.1-.4 17a78.7 78.7 0 0 1-3 12.5c-1 3.4-2.2 6-3 7.8-.8 1.7-1.4 2.6-1.4 2.6l-1.4-.2z"/><path fill="#39B54A" d="M538.6 857.4l-.7 2.7a199.1 199.1 0 0 0-1.7 7.6c-1.3 6.6-3 16.1-3.8 27.6a110 110 0 0 0 .2 18.2c.3 3.2.8 6.4 1.6 9.5a37.4 37.4 0 0 0 4.7 11l1.6 2.4a57.5 57.5 0 0 1 3 5.3c1.8 3.7 3.3 8 3.4 12.8.1 2.4-.2 5-1 7.2-.7 2.4-1.7 4.5-3 6.5-2.3 3.8-5.2 7-8.1 9.8-5.8 5.8-11.8 10.7-17.4 15.8l-4.2 3.8c.2-.2 0 0 0 0l-.1.2-.3.2-.5.5-.5.5-.3.4-1.4 1.6c-1.7 2.4-3 5-4 7.7a43.8 43.8 0 0 0-1.6 17.2c.4 6 1.7 11.7 3.1 17 1.5 5.4 3.2 10.2 4.7 14.6a300.9 300.9 0 0 0 4.4 11.2 457.5 457.5 0 0 0 3 7.3l1.2 2.6-1.1.8-2.1-2-2.4-2.4a83.4 83.4 0 0 1-3.1-3.5 107.7 107.7 0 0 1-15.7-24.5c-2.5-5.6-4.8-12-6-19.3-.6-3.7-.9-7.6-.6-11.7.3-4 1.2-8.3 2.8-12.4a40.8 40.8 0 0 1 3.1-6 39 39 0 0 1 4.2-5.3l2.4-2.4.7-.6.6-.5 1.2-1 4.6-3.5c6-4.7 12.2-9.3 17.7-14.2 2.7-2.5 5.2-5 7-7.6 1.9-2.6 2.8-5.2 3-8 0-2.8-.8-5.9-2.1-9a48.5 48.5 0 0 0-2.3-4.5l-1.3-2.4a36 36 0 0 1-1.4-2.7 45.4 45.4 0 0 1-3.4-11.2c-.7-3.7-1-7.3-1-10.8-.1-7 .6-13.4 1.5-19.2.8-5.9 2-11.1 3.2-15.8a192.6 192.6 0 0 1 3.4-11.8 165 165 0 0 1 3.5-10.1l1.3.4z"/><path fill="#8CC63F" d="M547.6 1079.4l-.5-.4-1.4-1c-1.2-1-2.9-2.5-4.8-4.5a71.5 71.5 0 0 1-6.5-7.8 70.1 70.1 0 0 1-9.5-18.6c-.8-2.7-1.3-5.5-1.3-8.7 0-3.1.5-6.6 2.2-10a14 14 0 0 1 6-6.2l1.4-.6 1-.4c5.4-2 10.8-4.5 16-7.6 5.2-3 10.2-6.5 14.3-10.7 2-2.1 3.7-4.4 4.6-6.5.4-1.1.6-2 .6-2.8-.1-.7-.3-1-.7-1.6-.8-1-2.5-2.3-4.7-3.4l-2-1-1-.6-1-.6-2.2-1.4-2-1.4a60.1 60.1 0 0 1-21-26.8 67.8 67.8 0 0 1-4.7-29.8l.3-1.7.1-.6 1.4-.2 4 7.6c2.6 4.7 6.1 11.4 10.8 18.6 2.3 3.6 5 7.4 7.9 11.2 2.9 3.8 6 7.7 9.7 11.4l1.4 1.3 1.4 1.2c.8.8 2.4 1.9 3.3 2.7 1.4 1 2.9 2.1 4.3 3.6a17 17 0 0 1 3.5 5.6c1 2.3 1.1 5 .6 7.3-.5 2.3-1.5 4.2-2.7 5.8-2.3 3-5 5.2-7.7 7-5.5 3.8-11 6.7-16.4 9.6-5.4 2.8-10.7 5.7-15.7 8.7l-.8.6-.6.5c-.4.3-.7.8-.9 1.2a6 6 0 0 0-.6 2.6c0 1.9.5 4 1.1 6l2.1 6.4 2.1 6.3 4.1 11.4c1.3 3.4 2.4 6.5 3.2 9.1a127.9 127.9 0 0 1 1.8 6.1l.5 1.7.1.6-1.1.8z"/><path fill="#39B54A" d="M585 1079l-.1-.6a805.8 805.8 0 0 0-.5-1.8 220.4 220.4 0 0 1-1.6-6.7 568.7 568.7 0 0 1-2.1-10.2l-2.7-13a119 119 0 0 0-.8-3.6l-.8-3.6a372.5 372.5 0 0 1-1.9-7.6c-.6-2.6-1.2-5.2-2-7.9a41 41 0 0 0-2.9-7.9 22.1 22.1 0 0 0-2.2-3.6l-1.6-1.7-1.6-1.8c-2.3-2.5-4.5-5-6.6-7.7-2-2.7-4-5.7-5.4-9a29.9 29.9 0 0 1-1.6-5.3 29.7 29.7 0 0 1-.4-5.6 39 39 0 0 1 1.6-10.8 99.6 99.6 0 0 1 8.3-19l.6-1.1.3-.5c0 .1 0 0 0 0l.1-.2.1-.3.6-1 .4-.9a35.3 35.3 0 0 0 3.4-18.3 76 76 0 0 0-1.9-14 115 115 0 0 0-7-21.7l-2.6-6.3-1-2.3 1-.9.6.3a54.4 54.4 0 0 1 7.1 5.6 63.2 63.2 0 0 1 7.4 8.3c2.6 3.5 5.3 7.7 7.4 12.8a42.7 42.7 0 0 1-.8 38.1 44.5 44.5 0 0 1-2.8 4.8l-.9 1.2-.7 1-1.5 1.9a303.5 303.5 0 0 0-5.7 7.5 74.6 74.6 0 0 0-5 7.8 29.3 29.3 0 0 0-3.2 8.5 18.9 18.9 0 0 0 .5 8.8 24.5 24.5 0 0 0 4.4 8 45.1 45.1 0 0 0 10.5 9.6 43 43 0 0 1 4 3.5 46 46 0 0 1 13.2 25 119.6 119.6 0 0 1 .7 4.1l.5 4a90.5 90.5 0 0 1-2.6 31.7c-.4 1.6-.8 2.4-.8 2.4H585z"/><path fill="#009245" d="M605.4 903.1s.6 3.3 2 9a200 200 0 0 0 6.6 23.2c1.8 4.6 3.8 9.5 6.7 14 1.4 2.3 3 4.5 5 6 .8.7 1.8 1.3 2.7 1.5.9.3 1.7.4 2.6.2.6 0 2.5-.8 4.7-1h2.4c.5.1 1.2.3 2.2.8l.8.6a5.3 5.3 0 0 1 1.6 2.7c.3 1.3 0 2.1 0 2.7a8 8 0 0 1-.5 1.4 12.6 12.6 0 0 1-.9 1.7c-1.1 1.8-2.2 3.1-3.2 4.5l-3.1 3.8c-2 2.6-4 5.1-5.7 7.7a44 44 0 0 0-4.2 7.9c-1 2.6-1.5 5.2-1.4 7.3.2 2.2 1 4 2.5 5.6l1.3 1.2 1.7 1.5.5.5.6.6 1.2 1.2 2 2.5c2.5 3.6 4 7.8 4.6 11.8.6 4 .3 7.8-.3 11.3-.7 3.6-1.7 6.7-3 9.7-2.4 6-5.4 11-8.4 15.3a106.2 106.2 0 0 1-17 18.6 75 75 0 0 1-3.1 2.6l-2.4 1.8-2 1.4-1-1 4.4-8.1a541.5 541.5 0 0 0 5-9.3c1.9-3.5 4-7.5 6-12 2-4.3 4-9 5.4-14 1.5-5 2.5-10 2.1-14.6-.2-2.2-.7-4.3-1.7-6.2l-.8-1.4-.5-.6-.2-.3-.3-.4-.5-.5-.2-.2c-.2-.2.1 0 0 0v-.1a27.6 27.6 0 0 1-3.2-3.6 22.8 22.8 0 0 1-4.3-12.9c0-4.5 1.2-8.6 2.9-12.1 1.6-3.5 3.6-6.6 5.8-9.5 2.1-2.9 4.4-5.5 6.6-8l3.3-3.7 2.8-3.3.3-.5-.1.3v1.5a4 4 0 0 0 1.7 2.3l1.1.5c.3 0 .1 0 0 0-.4 0-1.1 0-1.8.2-.5 0-1.8.4-2.9.4-2.2.2-4.6-.3-6.5-1.2-2-.9-3.6-2.1-4.9-3.4a31.6 31.6 0 0 1-5.8-8.2 81 81 0 0 1-5.6-16c-1.3-5-2.1-9.6-2.8-13.7a191.3 191.3 0 0 1-1.4-10.6l-.8-9.2 1.4-.2z"/><path fill="#006837" d="M712.7 1076.5l.2-.6.6-1.7c.5-1.5 1.3-3.7 1.8-6.3.5-2.7.8-5.8.4-9-.4-3-1.5-6.2-3.6-9.6a116.4 116.4 0 0 0-11.4-14.6l-1.6-1.4-.8-.8-1-.7a34.4 34.4 0 0 1-2-1.6 12.9 12.9 0 0 1-1-1c-.4-.4-.7-.8-1-1.6a4.1 4.1 0 0 1-.5-1.3 3.3 3.3 0 0 1 .3-1.8c.6-1 1.2-1.4 1.7-1.7 1-.6 1.9-.8 2.7-1 3.3-1 6.4-1.6 9.5-2.4 3.1-.9 6.2-2 9-3.3a36.4 36.4 0 0 0 14.1-11c.8-1.1 1.6-2.2 2.2-3.4l.2-1v-.5c0-.2-.2-.4-.6-.9-.5-.5-1.3-1.2-2.3-1.8-2-1.3-4.6-2.5-7.3-3.6a123.6 123.6 0 0 0-8.4-2.8 522 522 0 0 0-16.8-4.8l-15.6-4c-9.7-2.5-17.8-4.7-23.5-6.4l-6.7-2-2.4-.7.1-1.4 2.5-.3 7-.7c6-.4 14.6-.7 24.9 0a192.7 192.7 0 0 1 16.6 1.8c5.8.9 12 2.1 18.4 4.2a82 82 0 0 1 9.7 3.7 54 54 0 0 1 5 2.6c1.6 1 3.2 2.1 4.9 3.5 1.6 1.3 3.3 3 4.7 5.2a16 16 0 0 1 1.9 3.9 13.7 13.7 0 0 1-.3 9 16.4 16.4 0 0 1-1.9 3.6 34.8 34.8 0 0 1-14 10.6c-3.5 1.4-7 2.4-10.4 3.1l-10 1.8c-3.2.6-6.4 1.1-9.2 2l-1.7.7.1-.1.1-.6v-.3l.4.3.7.5 1.8 1 2 .8 2.2.9a82.5 82.5 0 0 1 4.4 1.9c2.8 1.3 5.6 2.9 8 4.9a26.5 26.5 0 0 1 9.6 23.5 24.4 24.4 0 0 1-10.4 16.9l-1.7 1-.6.3-1-1zm-86 3l.2-.6.6-1.7c.5-1.5 1.3-3.7 1.8-6.3.5-2.7.8-5.8.4-9-.4-3-1.5-6.2-3.6-9.6a116.4 116.4 0 0 0-11.4-14.6l-1.6-1.4-.8-.8-1-.7a34.4 34.4 0 0 1-2-1.6 12.9 12.9 0 0 1-1-1c-.4-.4-.7-.8-1-1.6a4.1 4.1 0 0 1-.5-1.3 3.3 3.3 0 0 1 .3-1.8c.6-1 1.2-1.4 1.7-1.7 1-.6 1.9-.8 2.7-1 3.3-1 6.4-1.6 9.5-2.4 3.1-.9 6.2-2 9-3.3a36.4 36.4 0 0 0 14.1-11c.8-1.1 1.6-2.2 2.2-3.4l.2-1v-.5c0-.2-.2-.4-.6-.9-.5-.5-1.3-1.2-2.3-1.8-2-1.3-4.6-2.5-7.3-3.6a123.6 123.6 0 0 0-8.4-2.8 522 522 0 0 0-16.8-4.8l-15.6-4c-9.7-2.5-17.8-4.7-23.5-6.4l-6.7-2-2.4-.7.1-1.4 2.5-.3 7-.7c6-.4 14.6-.7 24.9 0a192.7 192.7 0 0 1 16.6 1.8c5.8.9 12 2.1 18.4 4.2a82 82 0 0 1 9.7 3.7 54 54 0 0 1 5 2.6c1.6 1 3.2 2.1 4.9 3.5 1.6 1.3 3.3 3 4.7 5.2a16 16 0 0 1 1.9 3.9 13.7 13.7 0 0 1-.3 9 16.4 16.4 0 0 1-1.9 3.6 34.8 34.8 0 0 1-14 10.6c-3.5 1.4-7 2.4-10.4 3.1l-10 1.8c-3.2.6-6.4 1.1-9.2 2l-1.7.7.1-.1.1-.6v-.3l.4.3.7.5 1.8 1 2 .8 2.2.9a82.5 82.5 0 0 1 4.4 1.9c2.8 1.3 5.6 2.9 8 4.9a26.5 26.5 0 0 1 9.6 23.5 24.4 24.4 0 0 1-10.4 16.9l-1.7 1-.6.3-1-1z"/><path fill="#009245" d="M599.4 901.1s.6 3.3 2 9a200 200 0 0 0 6.6 23.2c1.8 4.6 3.8 9.5 6.7 14 1.4 2.3 3 4.5 5 6 .8.7 1.8 1.3 2.7 1.5.9.3 1.7.4 2.6.2.6 0 2.5-.8 4.7-1h2.4c.5.1 1.2.3 2.2.8l.8.6a5.3 5.3 0 0 1 1.6 2.7c.3 1.3 0 2.1 0 2.7a8 8 0 0 1-.5 1.4 12.6 12.6 0 0 1-.9 1.7c-1.1 1.8-2.2 3.1-3.2 4.5l-3.1 3.8c-2 2.6-4 5.1-5.7 7.7a44 44 0 0 0-4.2 7.9c-1 2.6-1.5 5.2-1.4 7.3.2 2.2 1 4 2.5 5.6l1.3 1.2 1.7 1.5.5.5.6.6 1.2 1.2 2 2.5c2.5 3.6 4 7.8 4.6 11.8.6 4 .3 7.8-.3 11.3-.7 3.6-1.7 6.7-3 9.7-2.4 6-5.4 11-8.4 15.3a106.2 106.2 0 0 1-17 18.6 75 75 0 0 1-3.1 2.6l-2.4 1.8-2 1.4-1-1 4.4-8.1a541.5 541.5 0 0 0 5-9.3c1.9-3.5 4-7.5 6-12 2-4.3 4-9 5.4-14 1.5-5 2.5-10 2.1-14.6-.2-2.2-.7-4.3-1.7-6.2l-.8-1.4-.5-.6-.2-.3-.3-.4-.5-.5-.2-.2c-.2-.2.1 0 0 0v-.1a27.6 27.6 0 0 1-3.2-3.6 22.8 22.8 0 0 1-4.3-12.9c0-4.5 1.2-8.6 2.9-12.1 1.6-3.5 3.6-6.6 5.8-9.5 2.1-2.9 4.4-5.5 6.6-8l3.3-3.7 2.8-3.3.3-.5-.1.3v1.5a4 4 0 0 0 1.7 2.3l1.1.5c.3 0 .1 0 0 0-.4 0-1.1 0-1.8.2-.5 0-1.8.4-2.9.4-2.2.2-4.6-.3-6.5-1.2-2-.9-3.6-2.1-4.9-3.4a31.6 31.6 0 0 1-5.8-8.2 81 81 0 0 1-5.6-16c-1.3-5-2.1-9.6-2.8-13.7a191.3 191.3 0 0 1-1.4-10.6l-.8-9.2 1.4-.2zm95 175.9l-.2-.6-.5-1.5a127.6 127.6 0 0 1-1.7-5.7c-1.3-5-2.9-11.8-4.7-19.7l-1.5-6.1-1.4-6.4c-.5-2.2-.9-4.4-1.6-6.7-.7-2.2-1.6-4.4-3.1-6.3-1.9-2.1-4-4.4-5.1-7.7a9.3 9.3 0 0 1-.3-5.4 14 14 0 0 1 2.3-4.5c1.9-2.6 4-4.6 6-6.8a120.2 120.2 0 0 0 5.5-6.5c3.5-4.4 6.4-9 9-13.5 0 0-.3.3-.1.2v-.2l.2-.3.2-.4.3-.7.4-1.3a13.6 13.6 0 0 0 .6-2.8c.1-1.8-.1-3.7-.6-5.7A52 52 0 0 0 693 957a336 336 0 0 0-13.5-20l-5.5-7.2-3.5-4.8-1.3-1.8.8-1.1 2.1.7a64.8 64.8 0 0 1 5.6 2.5 80.9 80.9 0 0 1 27.8 23.8c3 4.6 5.8 10.1 6.8 17 .4 3.3.3 7-.6 10.6a26.5 26.5 0 0 1-1.8 5.2l-1.4 2.5-.8 1.1-.3.4-.2.2v.1h-.1l-.2.3c-3.8 4.9-8.6 9-13.5 12.4l-7.2 5a35 35 0 0 0-6.1 5.3 8 8 0 0 0-1.7 2.9 4 4 0 0 0 .2 2.8 9 9 0 0 0 2 2.7l1.3 1.3.7.5.8.6a36.9 36.9 0 0 1 6.8 6c2 2.2 3.7 4.6 5 7a35.2 35.2 0 0 1 2.8 7.4l.8 3.6.5 3.4c.6 4.6.6 8.7.4 12.4a63 63 0 0 1-1.3 9.3c-.6 2.6-1.2 4.6-1.7 6l-.6 1.5-.3.5h-1.4z"/><path fill="#39B54A" d="M776.6 855.4l-.7 2.9a201.8 201.8 0 0 0-1.8 8 195 195 0 0 0-4 29.3c-.2 6-.1 12.6.9 19.3.5 3.3 1.2 6.7 2.3 9.8a34.6 34.6 0 0 0 2 4.7c.8 1.5 1.7 2.6 2.8 4.5a35 35 0 0 1 3.1 6c.8 2.2 1.5 4.8 1.3 7.8a13.9 13.9 0 0 1-1.1 4.4c-.6 1.4-1.5 2.6-2.3 3.7a26.2 26.2 0 0 1-5.7 4.9c-3.8 2.5-7.5 4.4-11.2 6.3-3.6 1.8-7.2 3.7-10.6 5.7-3.4 2-6.7 4.1-9.8 6.4a89.8 89.8 0 0 0-4.5 3.6 96.5 96.5 0 0 0-2.1 1.9c-.2.1.2-.1.1 0l-.2.1-.3.3-.5.5-.8.9-.6.8-.7 1-.6.9-.5 1a23.2 23.2 0 0 0-1.6 4 27 27 0 0 0-.7 4.5 29.4 29.4 0 0 0 0 4.8c.2 6.4 2 13.1 4 19.4a174 174 0 0 0 7.1 17.6 353.3 353.3 0 0 0 7.3 14.8 734 734 0 0 0 6.1 11.4l5.6 10-1.1.9-2.3-2a82.5 82.5 0 0 1-2.7-2.5l-3.5-3.4a153.3 153.3 0 0 1-29.2-42 79.5 79.5 0 0 1-5.3-17.1 49.1 49.1 0 0 1-.7-6.6c0-4.4.4-9.2 2-14a32.2 32.2 0 0 1 3.2-6.8l1.1-1.5 1.2-1.6 1.2-1.4 1.4-1.4 1.4-1.3 1.4-1.1a108.3 108.3 0 0 1 8-5.7 137 137 0 0 1 11.2-6.4c3.8-2 7.6-3.7 11.3-5.4 3.8-1.7 7.4-3.3 10.5-5.1a17 17 0 0 0 3.6-2.8c.9-1 1.2-1.7 1.4-2.7.3-2-.9-5.3-2.5-8.3l-1.4-2.5a37.9 37.9 0 0 1-1.4-3 42.8 42.8 0 0 1-2-5.8c-1-4-1.6-7.8-1.9-11.5-.4-7.4.2-14.2 1-20.5a173.2 173.2 0 0 1 6.8-29.4 203.6 203.6 0 0 1 2.7-8l1-2.7 1.3.4z"/><path fill="#006837" d="M785.8 1076.4s2.6-2.9 7.5-7.5c4.9-4.7 12-11 20.4-18.3l6.6-5.8 6.9-6 7.1-6.3c2.4-2.2 4.8-4.4 6.6-6.8.8-1.1 1.5-2.4 1.9-3.4.3-1 .3-1.9-.3-2.8l-.3-.4-.4-.5-1-1-2-1.8a127.5 127.5 0 0 0-23.3-15.4c-3.3-1.8-6.7-3.6-10.1-5.6-3.4-2-7-4.3-9.8-7.8a18.7 18.7 0 0 1-4.2-13.4c.3-4.6 1.8-8.6 3.5-12.2a65.8 65.8 0 0 1 2.7-5.2l.7-1.2.2-.3.1-.2.3-.6a21.1 21.1 0 0 0 .9-2.2c0 .3-.2.7 0 1.7l.2.8.5 1a5.8 5.8 0 0 0 1.6 1.7 5.1 5.1 0 0 0 1.7.9l.6.1h.4l.8.1c.2 0 .1 0 0 .1l-.6.4-1.7 1-7.3 4.9a201 201 0 0 1-7.3 4.7 241 241 0 0 1-24.1 13.3c-6.2 2.9-10 4.2-10 4.2l-1-1.1s2.2-3.5 6.6-8.8a131 131 0 0 1 8.3-9 143 143 0 0 1 11.8-10.6 86.4 86.4 0 0 1 19.3-11.3 25 25 0 0 1 4.1-1 10 10 0 0 1 2.1-.1l.8.1a9.6 9.6 0 0 1 2 .6l1 .7a7.5 7.5 0 0 1 2.1 2.2 8.3 8.3 0 0 1 1 2.4c.2 1.4 0 2.2 0 3a18.3 18.3 0 0 1-3.6 7l-.5.5v.1l-.2.1-.2.3-.7 1c-1 1.3-2 2.6-2.8 4a39.2 39.2 0 0 0-3.8 8.1c-.6 2.7-.4 5.1 1 7.8 1.4 2.6 4 5 6.8 7.3 2.9 2.3 6 4.4 9.3 6.4l9.7 6c3.2 2.1 6.5 4.2 9.6 6.4 1.6 1 3.2 2.1 4.7 3.3l2.3 1.7 1.1.8.5.4.8.7a9.2 9.2 0 0 1 2.3 3.3c.6 1.3.8 2.6.8 4 0 2.5-.6 4.7-1.3 6.7-1.6 4-3.6 7.3-5.8 10.3a64.7 64.7 0 0 1-14.5 14.5 140.7 140.7 0 0 1-20.8 13.8 144 144 0 0 1-10.9 5.5c-6.2 2.8-10 3.9-10 3.9l-.7-1.2z"/><path fill="#009245" d="M802.4 1076.9v-.8l-.4-2.1-.8-8.1-.8-12.2c-.3-4.6-.6-9.7-1.3-15-.3-2.6-.6-5.2-1.1-7.5-.3-1.2-.6-2.3-1-3.2-.3-1-.8-1.7-1.5-2.3-.6-.6-1.8-1-3.1-1H790.5h-.2l-.2.1-.7.1-.8.1-1.6.2c-4.2 0-8.1-1.2-11.6-3a36.8 36.8 0 0 1-9.5-7.4c-2.8-3-5.2-6.4-6.7-10.6-.7-2.2-1.2-4.5-1-7 .2-2.6 1.2-5.2 2.7-7.4 1.6-2.1 3.6-3.8 5.7-5 2.1-1.3 4.3-2.2 6.5-2.8a43.2 43.2 0 0 1 6.5-1.5 58 58 0 0 1 3.2-.3l1.6-.1H785.1c.2 0 0 0 0 0l.7-.1.3-.1.4-.1a11.9 11.9 0 0 0 2.7-1 21 21 0 0 0 3.8-2.3c2.4-1.9 4.8-4.3 7-7a105.8 105.8 0 0 0 3.1-4 224 224 0 0 0 3-4.2c4-5.7 7.6-11.6 11-17.2a838.1 838.1 0 0 0 9.4-16l14-24.7 4-7 1.5-2.4 1.3.4-.4 3a134.6 134.6 0 0 1-4.5 20.1 205.7 205.7 0 0 1-5.1 15.6c-2.1 5.6-4.6 11.7-7.7 17.9-3 6.2-6.7 12.7-11.3 19a80.7 80.7 0 0 1-3.7 4.6 74.6 74.6 0 0 1-4 4.6c-3 3-6.3 5.8-10.2 8.3-4 2.4-8.6 4.5-14.4 4.6l-2.9-.2h-2.7a45 45 0 0 0-5 .1c-3.4.4-6.4 1.3-8.3 3-1 .8-1.7 1.9-2.1 3.2a10 10 0 0 0-.2 4.5c.6 3.2 2.3 6.4 4.5 9.2 2.2 2.7 5 5 8 6.5s6.3 2.1 9.2 1.6l1-.2.5-.1.6-.3 1.3-.5 1.5-.5c2-.6 4.5-.9 7-.3 1.2.3 2.4.8 3.5 1.4 1 .6 2 1.4 2.9 2.2 1.7 1.6 2.9 3.4 3.8 5.2a30 30 0 0 1 3 10.3c.8 6.4.3 12.1-.4 17a78.7 78.7 0 0 1-3 12.5c-1 3.4-2.2 6-3 7.8-.8 1.7-1.4 2.6-1.4 2.6l-1.4-.2z"/><path fill="#39B54A" d="M644 1077l-.1-.6a805.8 805.8 0 0 0-.5-1.8 220.4 220.4 0 0 1-1.6-6.7 568.7 568.7 0 0 1-2.1-10.2l-2.7-13a119 119 0 0 0-.8-3.6l-.8-3.6a372.5 372.5 0 0 1-1.9-7.6c-.6-2.6-1.2-5.2-2-7.9a41 41 0 0 0-2.9-7.9 22.1 22.1 0 0 0-2.2-3.6l-1.6-1.7-1.6-1.8c-2.3-2.5-4.5-5-6.6-7.7-2-2.7-4-5.7-5.4-9a29.9 29.9 0 0 1-1.6-5.3 29.7 29.7 0 0 1-.4-5.6 39 39 0 0 1 1.6-10.8 99.6 99.6 0 0 1 8.3-19l.6-1.1.3-.5c0 .1 0 0 0 0l.1-.2.1-.3.6-1 .4-.9a35.3 35.3 0 0 0 3.4-18.3 76 76 0 0 0-1.9-14 115 115 0 0 0-7-21.7l-2.6-6.3-1-2.3 1-.9.6.3a54.4 54.4 0 0 1 7.1 5.6 63.2 63.2 0 0 1 7.4 8.3c2.6 3.5 5.3 7.7 7.4 12.8a42.7 42.7 0 0 1-.8 38.1 44.5 44.5 0 0 1-2.8 4.8l-.9 1.2-.7 1-1.5 1.9a303.5 303.5 0 0 0-5.7 7.5 74.6 74.6 0 0 0-5 7.8 29.3 29.3 0 0 0-3.2 8.5 18.9 18.9 0 0 0 .5 8.8 24.5 24.5 0 0 0 4.4 8 45.1 45.1 0 0 0 10.5 9.6 43 43 0 0 1 4 3.5 46 46 0 0 1 13.2 25 119.6 119.6 0 0 1 .7 4.1l.5 4a90.5 90.5 0 0 1-2.6 31.7c-.4 1.6-.8 2.4-.8 2.4H644z"/><path fill="#8CC63F" d="M608.6 1077.4l-.5-.4-1.4-1c-1.2-1-2.9-2.5-4.8-4.5a71.5 71.5 0 0 1-6.5-7.8 70.1 70.1 0 0 1-9.5-18.6c-.8-2.7-1.3-5.5-1.3-8.7 0-3.1.5-6.6 2.2-10a14 14 0 0 1 6-6.2l1.4-.6 1-.4c5.4-2 10.8-4.5 16-7.6 5.2-3 10.2-6.5 14.3-10.7 2-2.1 3.7-4.4 4.6-6.5.4-1.1.6-2 .6-2.8-.1-.7-.3-1-.7-1.6-.8-1-2.5-2.3-4.7-3.4l-2-1-1-.6-1-.6-2.2-1.4-2-1.4a60.1 60.1 0 0 1-21-26.8 67.8 67.8 0 0 1-4.7-29.8l.3-1.7.1-.6 1.4-.2 4 7.6c2.6 4.7 6.1 11.4 10.8 18.6 2.3 3.6 5 7.4 7.9 11.2 2.9 3.8 6 7.7 9.7 11.4l1.4 1.3 1.4 1.2c.8.8 2.4 1.9 3.3 2.7 1.4 1 2.9 2.1 4.3 3.6a17 17 0 0 1 3.5 5.6c1 2.3 1.1 5 .6 7.3-.5 2.3-1.5 4.2-2.7 5.8-2.3 3-5 5.2-7.7 7-5.5 3.8-11 6.7-16.4 9.6-5.4 2.8-10.7 5.7-15.7 8.7l-.8.6-.6.5c-.4.3-.7.8-.9 1.2a6 6 0 0 0-.6 2.6c0 1.9.5 4 1.1 6l2.1 6.4 2.1 6.3 4.1 11.4c1.3 3.4 2.4 6.5 3.2 9.1a127.9 127.9 0 0 1 1.8 6.1l.5 1.7.1.6-1.1.8zm130.8-176.3s.6 3.3 2 9a200 200 0 0 0 6.6 23.2c1.8 4.6 3.8 9.5 6.7 14 1.4 2.3 3 4.5 5 6 .8.7 1.8 1.3 2.7 1.5.9.3 1.7.4 2.6.2.6 0 2.5-.8 4.7-1h2.4c.5.1 1.2.3 2.2.8l.8.6a5.3 5.3 0 0 1 1.6 2.7c.3 1.3 0 2.1 0 2.7a8 8 0 0 1-.5 1.4 12.6 12.6 0 0 1-.9 1.7c-1.1 1.8-2.2 3.1-3.2 4.5l-3.1 3.8c-2 2.6-4 5.1-5.7 7.7a44 44 0 0 0-4.2 7.9c-1 2.6-1.5 5.2-1.4 7.3.2 2.2 1 4 2.5 5.6l1.3 1.2 1.7 1.5.5.5.6.6 1.2 1.2 2 2.5c2.5 3.6 4 7.8 4.6 11.8.6 4 .3 7.8-.3 11.3-.7 3.6-1.7 6.7-3 9.7-2.4 6-5.4 11-8.4 15.3a106.2 106.2 0 0 1-17 18.6 75 75 0 0 1-3.1 2.6l-2.4 1.8-2 1.4-1-1 4.4-8.1a541.5 541.5 0 0 0 5-9.3c1.9-3.5 4-7.5 6-12 2-4.3 4-9 5.4-14 1.5-5 2.5-10 2.1-14.6-.2-2.2-.7-4.3-1.7-6.2l-.8-1.4-.5-.6-.2-.3-.3-.4-.5-.5-.2-.2c-.2-.2.1 0 0 0v-.1a27.6 27.6 0 0 1-3.2-3.6 22.8 22.8 0 0 1-4.3-12.9c0-4.5 1.2-8.6 2.9-12.1 1.6-3.5 3.6-6.6 5.8-9.5 2.1-2.9 4.4-5.5 6.6-8l3.3-3.7 2.8-3.3.3-.5-.1.3v1.5a4 4 0 0 0 1.7 2.3l1.1.5c.3 0 .1 0 0 0-.4 0-1.1 0-1.8.2-.5 0-1.8.4-2.9.4-2.2.2-4.6-.3-6.5-1.2-2-.9-3.6-2.1-4.9-3.4a31.6 31.6 0 0 1-5.8-8.2 81 81 0 0 1-5.6-16c-1.3-5-2.1-9.6-2.8-13.7a191.3 191.3 0 0 1-1.4-10.6l-.8-9.2 1.4-.2z"/><path fill="#009245" d="M673.4 1076.9v-.8l-.4-2.1-.8-8.1-.8-12.2c-.3-4.6-.6-9.7-1.3-15-.3-2.6-.6-5.2-1.1-7.5-.3-1.2-.6-2.3-1-3.2-.3-1-.8-1.7-1.5-2.3-.6-.6-1.8-1-3.1-1H661.5h-.2l-.2.1-.7.1-.8.1-1.6.2c-4.2 0-8.1-1.2-11.6-3a36.8 36.8 0 0 1-9.5-7.4c-2.8-3-5.2-6.4-6.7-10.6-.7-2.2-1.2-4.5-1-7 .2-2.6 1.2-5.2 2.7-7.4 1.6-2.1 3.6-3.8 5.7-5 2.1-1.3 4.3-2.2 6.5-2.8a43.2 43.2 0 0 1 6.5-1.5 58 58 0 0 1 3.2-.3l1.6-.1H656.1c.2 0 0 0 0 0l.7-.1.3-.1.4-.1a11.9 11.9 0 0 0 2.7-1 21 21 0 0 0 3.8-2.3c2.4-1.9 4.8-4.3 7-7a105.8 105.8 0 0 0 3.1-4 224 224 0 0 0 3-4.2c4-5.7 7.6-11.6 11-17.2a838.1 838.1 0 0 0 9.4-16l14-24.7 4-7 1.5-2.4 1.3.4-.4 3a134.6 134.6 0 0 1-4.5 20.1 205.7 205.7 0 0 1-5.1 15.6c-2.1 5.6-4.6 11.7-7.7 17.9-3 6.2-6.7 12.7-11.3 19a80.7 80.7 0 0 1-3.7 4.6 74.6 74.6 0 0 1-4 4.6c-3 3-6.3 5.8-10.2 8.3-4 2.4-8.6 4.5-14.4 4.6l-2.9-.2h-2.7a45 45 0 0 0-5 .1c-3.4.4-6.4 1.3-8.3 3-1 .8-1.7 1.9-2.1 3.2a10 10 0 0 0-.2 4.5c.6 3.2 2.3 6.4 4.5 9.2 2.2 2.7 5 5 8 6.5s6.3 2.1 9.2 1.6l1-.2.5-.1.6-.3 1.3-.5 1.5-.5c2-.6 4.5-.9 7-.3 1.2.3 2.4.8 3.5 1.4 1 .6 2 1.4 2.9 2.2 1.7 1.6 2.9 3.4 3.8 5.2a30 30 0 0 1 3 10.3c.8 6.4.3 12.1-.4 17a78.7 78.7 0 0 1-3 12.5c-1 3.4-2.2 6-3 7.8-.8 1.7-1.4 2.6-1.4 2.6l-1.4-.2z"/><path fill="#39B54A" d="M704.6 855.4l-.7 2.7a199.1 199.1 0 0 0-1.7 7.6c-1.3 6.6-3 16.1-3.8 27.6a110 110 0 0 0 .2 18.2c.3 3.2.8 6.4 1.6 9.5a37.4 37.4 0 0 0 4.7 11l1.6 2.4a57.5 57.5 0 0 1 3 5.3c1.8 3.7 3.3 8 3.4 12.8.1 2.4-.2 5-1 7.2-.7 2.4-1.7 4.5-3 6.5-2.3 3.8-5.2 7-8.1 9.8-5.8 5.8-11.8 10.7-17.4 15.8l-4.2 3.8c.2-.2 0 0 0 0l-.1.2-.3.2-.5.5-.5.5-.3.4-1.4 1.6c-1.7 2.4-3 5-4 7.7a43.8 43.8 0 0 0-1.6 17.2c.4 6 1.7 11.7 3.1 17 1.5 5.4 3.2 10.2 4.7 14.6a300.9 300.9 0 0 0 4.4 11.2 457.5 457.5 0 0 0 3 7.3l1.2 2.6-1.1.8-2.1-2-2.4-2.4a83.4 83.4 0 0 1-3.1-3.5 107.7 107.7 0 0 1-15.7-24.5c-2.5-5.6-4.8-12-6-19.3-.6-3.7-.9-7.6-.6-11.7.3-4 1.2-8.3 2.8-12.4a40.8 40.8 0 0 1 3.1-6 39 39 0 0 1 4.2-5.3l2.4-2.4.7-.6.6-.5 1.2-1 4.6-3.5c6-4.7 12.2-9.3 17.7-14.2 2.7-2.5 5.2-5 7-7.6 1.9-2.6 2.8-5.2 3-8 0-2.8-.8-5.9-2.1-9a48.5 48.5 0 0 0-2.3-4.5l-1.3-2.4a36 36 0 0 1-1.4-2.7 45.4 45.4 0 0 1-3.4-11.2c-.7-3.7-1-7.3-1-10.8-.1-7 .6-13.4 1.5-19.2.8-5.9 2-11.1 3.2-15.8a192.6 192.6 0 0 1 3.4-11.8 165 165 0 0 1 3.5-10.1l1.3.4z"/><path fill="#8CC63F" d="M713.6 1077.4l-.5-.4-1.4-1c-1.2-1-2.9-2.5-4.8-4.5a71.5 71.5 0 0 1-6.5-7.8 70.1 70.1 0 0 1-9.5-18.6c-.8-2.7-1.3-5.5-1.3-8.7 0-3.1.5-6.6 2.2-10a14 14 0 0 1 6-6.2l1.4-.6 1-.4c5.4-2 10.8-4.5 16-7.6 5.2-3 10.2-6.5 14.3-10.7 2-2.1 3.7-4.4 4.6-6.5.4-1.1.6-2 .6-2.8-.1-.7-.3-1-.7-1.6-.8-1-2.5-2.3-4.7-3.4l-2-1-1-.6-1-.6-2.2-1.4-2-1.4a60.1 60.1 0 0 1-21-26.8 67.8 67.8 0 0 1-4.7-29.8l.3-1.7.1-.6 1.4-.2 4 7.6c2.6 4.7 6.1 11.4 10.8 18.6 2.3 3.6 5 7.4 7.9 11.2 2.9 3.8 6 7.7 9.7 11.4l1.4 1.3 1.4 1.2c.8.8 2.4 1.9 3.3 2.7 1.4 1 2.9 2.1 4.3 3.6a17 17 0 0 1 3.5 5.6c1 2.3 1.1 5 .6 7.3-.5 2.3-1.5 4.2-2.7 5.8-2.3 3-5 5.2-7.7 7-5.5 3.8-11 6.7-16.4 9.6-5.4 2.8-10.7 5.7-15.7 8.7l-.8.6-.6.5c-.4.3-.7.8-.9 1.2a6 6 0 0 0-.6 2.6c0 1.9.5 4 1.1 6l2.1 6.4 2.1 6.3 4.1 11.4c1.3 3.4 2.4 6.5 3.2 9.1a127.9 127.9 0 0 1 1.8 6.1l.5 1.7.1.6-1.1.8z"/><path fill="#39B54A" d="M751 1077l-.1-.6a805.8 805.8 0 0 0-.5-1.8 220.4 220.4 0 0 1-1.6-6.7 568.7 568.7 0 0 1-2.1-10.2l-2.7-13a119 119 0 0 0-.8-3.6l-.8-3.6a372.5 372.5 0 0 1-1.9-7.6c-.6-2.6-1.2-5.2-2-7.9a41 41 0 0 0-2.9-7.9 22.1 22.1 0 0 0-2.2-3.6l-1.6-1.7-1.6-1.8c-2.3-2.5-4.5-5-6.6-7.7-2-2.7-4-5.7-5.4-9a29.9 29.9 0 0 1-1.6-5.3 29.7 29.7 0 0 1-.4-5.6 39 39 0 0 1 1.6-10.8 99.6 99.6 0 0 1 8.3-19l.6-1.1.3-.5c0 .1 0 0 0 0l.1-.2.1-.3.6-1 .4-.9a35.3 35.3 0 0 0 3.4-18.3 76 76 0 0 0-1.9-14 115 115 0 0 0-7-21.7l-2.6-6.3-1-2.3 1-.9.6.3a54.4 54.4 0 0 1 7.1 5.6 63.2 63.2 0 0 1 7.4 8.3c2.6 3.5 5.3 7.7 7.4 12.8a42.7 42.7 0 0 1-.8 38.1 44.5 44.5 0 0 1-2.8 4.8l-.9 1.2-.7 1-1.5 1.9a303.5 303.5 0 0 0-5.7 7.5 74.6 74.6 0 0 0-5 7.8 29.3 29.3 0 0 0-3.2 8.5 18.9 18.9 0 0 0 .5 8.8 24.5 24.5 0 0 0 4.4 8 45.1 45.1 0 0 0 10.5 9.6 43 43 0 0 1 4 3.5 46 46 0 0 1 13.2 25 119.6 119.6 0 0 1 .7 4.1l.5 4a90.5 90.5 0 0 1-2.6 31.7c-.4 1.6-.8 2.4-.8 2.4H751z"/><path fill="#009245" d="M771.4 901.1s.6 3.3 2 9a200 200 0 0 0 6.6 23.2c1.8 4.6 3.8 9.5 6.7 14 1.4 2.3 3 4.5 5 6 .8.7 1.8 1.3 2.7 1.5.9.3 1.7.4 2.6.2.6 0 2.5-.8 4.7-1h2.4c.5.1 1.2.3 2.2.8l.8.6a5.3 5.3 0 0 1 1.6 2.7c.3 1.3 0 2.1 0 2.7a8 8 0 0 1-.5 1.4 12.6 12.6 0 0 1-.9 1.7c-1.1 1.8-2.2 3.1-3.2 4.5l-3.1 3.8c-2 2.6-4 5.1-5.7 7.7a44 44 0 0 0-4.2 7.9c-1 2.6-1.5 5.2-1.4 7.3.2 2.2 1 4 2.5 5.6l1.3 1.2 1.7 1.5.5.5.6.6 1.2 1.2 2 2.5c2.5 3.6 4 7.8 4.6 11.8.6 4 .3 7.8-.3 11.3-.7 3.6-1.7 6.7-3 9.7-2.4 6-5.4 11-8.4 15.3a106.2 106.2 0 0 1-17 18.6 75 75 0 0 1-3.1 2.6l-2.4 1.8-2 1.4-1-1 4.4-8.1a541.5 541.5 0 0 0 5-9.3c1.9-3.5 4-7.5 6-12 2-4.3 4-9 5.4-14 1.5-5 2.5-10 2.1-14.6-.2-2.2-.7-4.3-1.7-6.2l-.8-1.4-.5-.6-.2-.3-.3-.4-.5-.5-.2-.2c-.2-.2.1 0 0 0v-.1a27.6 27.6 0 0 1-3.2-3.6 22.8 22.8 0 0 1-4.3-12.9c0-4.5 1.2-8.6 2.9-12.1 1.6-3.5 3.6-6.6 5.8-9.5 2.1-2.9 4.4-5.5 6.6-8l3.3-3.7 2.8-3.3.3-.5-.1.3v1.5a4 4 0 0 0 1.7 2.3l1.1.5c.3 0 .1 0 0 0-.4 0-1.1 0-1.8.2-.5 0-1.8.4-2.9.4-2.2.2-4.6-.3-6.5-1.2-2-.9-3.6-2.1-4.9-3.4a31.6 31.6 0 0 1-5.8-8.2 81 81 0 0 1-5.6-16c-1.3-5-2.1-9.6-2.8-13.7a191.3 191.3 0 0 1-1.4-10.6l-.8-9.2 1.4-.2z"/><g opacity=".7"><path fill="#00A99D" d="M1919 1093H-1V119.4s80.1-39 158.1 0 85.8-55.8 159.3 0 79.6-43.6 193.6 0c114 43.7-15-96.8 138 0s90-61.8 237 0 84-98.3 256.6 0c172.5 98.4 102-109 312 0s-23.6-89.2 150.2 0 100.5-64.9 180.4 0c79.8 65 134.8 0 134.8 0V1093z"/><path fill="#FFF" d="M1919.5 1085.5H-.5v7.5-973.6 7.5c28-13.6 61.6-18.5 92.5-17 13.1.5 26 3 38.7 6.5C144 120.2 156 127.1 169 132a65.4 65.4 0 0 0 45 1c24.4-8.3 42.9-29 70.6-22.7 30.1 6.8 48.8 38.8 82.5 33.4 23.3-3.8 42.8-20.4 66-25.7 16.6-4 33.8-2.8 50.4.8 17.9 3.8 34.3 12.4 52.3 15.8 14.6 2.8 26.3-.7 28-16.6.9-8-1.6-23.2 9-25.6 8.4-1.9 18.6 3.2 25.9 6.5 19.1 8.6 36.8 20.3 54.6 31.3 24 14.9 56 34 85.8 27.7 17.2-3.6 28.8-17.8 41.7-28.6a71.8 71.8 0 0 1 59.3-16c34.8 5 65 26.4 100.6 28.2 20.4 1 37.4-7 52.8-19.6 13.8-11.3 26.6-23.1 44.6-26.7 30.7-6 63.7 10.5 90 24.3 28.5 15 57.2 33.5 90.5 34.7 18.4.7 34.6-6.6 49-17.8 13.6-10.6 25.7-23.3 41-31.8 20.1-11.1 43-12 65.2-8 40.3 7.4 75.6 29.3 112.1 46.4a262 262 0 0 0 38.5 15.3c5.7 1.6 12.8 3.6 18.7 1.5 3.7-1.2 4.5-4.7 4.5-8.2.2-7.2.7-14.6-1.3-21.5-3-10.2-8.7-19.4-11.4-29.7a28.8 28.8 0 0 1-.6-3c-1-6.3-1.3 17 .1 10.4a5.6 5.6 0 0 1 2.7-3.6c4.4-2.7 11.4-.5 15.9.7 32.8 8.8 61.6 29.3 93.3 41 20.8 7.7 48.2 15.6 69 3.7 11.6-6.7 16.8-18.8 23.8-29.5 4.1-6.2 9.4-10.5 17.2-9.4 5.5.8 10.6 3.9 15.2 6.8 12.4 7.7 23 17.8 35.8 25 35.9 20.4 84.3 16.9 112.2-15.6v-7.5V1093 119.4c0-1.1-.8-6.6 0-7.5a89 89 0 0 1-56 28.4c-21.8 2.6-43.2-4.9-61.7-16-13.2-7.9-24-19.4-37.8-26-11.8-5.7-19.8-1.3-26.3 9-7 11.4-13 22.9-25.6 29-23 11.1-53-.1-74.7-8.8-29.4-11.7-56.9-31.5-88-38.5-4.1-1-10-2-13.4 1-4.2 3.8-2 14.8-1.9 19.2.2 9.8 5.8 19.3 9.4 28.2 1.8 4.5 3.7 9.2 4 14-1.4-22.4 3.3-8-6.3-6-7 1.3-15-1.5-21.4-3.6a329.6 329.6 0 0 1-42.2-17.8c-50.7-24.4-116.7-65.8-172.7-32.2-14.9 9-26.8 21.8-40.6 32a73 73 0 0 1-51 15c-35-2.9-64.9-24.3-95.4-39.5-25-12.5-55.8-25.4-84.3-18-17.3 4.4-29.8 17.4-43.3 28.2a74.5 74.5 0 0 1-55.8 16.6c-35.4-3.5-65.8-25.3-101.3-28.6a71.2 71.2 0 0 0-55.6 19.5c-13 11.5-24.9 24.2-43 26.7-32.4 4.5-66.3-19.1-92-35.2-16-10-32.3-20-49.7-27-6.4-2.7-15.3-6.3-22.2-3.5-9 3.7-6.1 20.3-7.2 27.7-2.7 17.3-20 16-33.5 12.7-19-4.6-36.5-13.2-56-16.4a109 109 0 0 0-47.4 2.6c-22.1 6.3-41.3 22.8-64.6 24.7-32.9 2.7-52.8-31.4-84-35.2-18.7-2.2-34.5 9.1-50 17.5a70.3 70.3 0 0 1-63.5 3.6c-19-7.7-36.2-15.6-56.7-18.8a187.7 187.7 0 0 0-53.4 0C35.8 99 16.4 103.8-.5 112c-.6.3 0 7 0 7.5v981.1h1920v-15z"/></g><path fill="#3CF" d="M1919.5 119s-14.5 29-64.5 28.5-75.3-44.5-105.5-44.2c-18 .1-11.8 43.7-62.4 43.8-36.8.1-138.2-60.8-150.3-50.3-13.2 11.4 28.9 55.4 2.2 55.4-36.7 0-135.3-67.9-191.7-65.9s-77.7 59.8-129.3 59.6-111.7-61.6-167-61.3c-46 .3-59.3 47.9-99 48.7-47.7 1-88.7-30.6-135.3-28.4-42.4 2-49.4 48.8-96.7 45.3-46.9-3.4-152.7-93.9-154.5-58-2.1 40.6-9 32.8-20.8 33.8-14.3 1.2-69-18-92-18.3-35.4-.4-64 28-100.4 28.1-18.7.1-53.5-39.2-80.6-34.8-24.7 4-59.4 31.3-84 27.6-19.8-3-53.7-24.6-98.7-26.6S-.5 119-.5 119L0 1h1919l.5 118z"/></svg>