<svg xmlns="http://www.w3.org/2000/svg" viewBox="0 0 140 140"><path fill="#515151" d="M126 56.5l2.3-4.6-3.7-6.2.5-6-8.8-7.9.5-6-18.4-10-6.1 10.4-4.4-8.2H52l-4.4 8.2-6-10.4-18.5 10 .5 6-8.8 8 .5 5.9-3.7 6.4 2.3 4.6-12 3v35.6l9.7 17.6 18.7 3 15.9-16.7-3-13-8.2-8 1.4-5-7-8.3 5.3-6.9c12 5 20 17.7 20.5 32a51.7 51.7 0 0 0-10.2 36.1l-3.9 2.8v3.6l2.3 1.7H53l3.5-3v-4.6l-1.3-1.3c.7-8.6 8.7-18 15.8-23.4a36.6 36.6 0 0 1 13.8 23.4l-1.3 1.3v4.6l3.5 3h9.5l2.3-1.7V129l-4-2.8A51 51 0 0 0 84.8 90c.3-14.3 8.4-27 20.5-31.8l5.2 7-7 8.2 1.5 4.9-8.3 8-2.9 13 15.9 16.6 18.7-3 9.8-17.6V59.5l-12-3z"/><path fill="#757575" d="M84.8 16.8l-5.7-9.5a61.1 61.1 0 0 0-18.1 0l-5.7 9.5V22l-2 4.5 3 5.6L58 44.5h.4a63.7 63.7 0 0 0 23.4 0h.5L84 32.1l2.9-5.6-2-4.5v-5.2z"/><path fill="#636262" d="M71 66l.7-18h-3.4l.7 18z"/><path fill="#6C3" d="M66 25.1l-4.4-.2c-1.1 0-2.3-.7-2.9-1.8L57.6 22c-.6-1.1.3-2.6 1.4-2.2l7.3 2.9c1.3.5 1 2.5-.3 2.5zm14.5-3.2l-1 1.4a4 4 0 0 1-2.8 1.8l-4.5.2c-1.2 0-1.6-2-.5-2.5l7.4-3c1-.5 2 1 1.4 2z"/><path d="M71 37.5c0 .8 0 1.5-.4 2.6-.3.7-.6 1.7-1.2 2.5-.7-.8-1-1.8-1.3-2.5-.3-.8-.3-1.8-.3-2.6s0-1.8.3-2.5c.3-.8.6-1.8 1.3-2.6.6.8.9 1.8 1.2 2.6.3.7.3 1.7.3 2.5M66 39c0 .8.1 1.7-.1 2.5-.8-.4-1.4-1.1-1.9-1.7-.5-.5-.8-1.3-1-2s-.6-1.4-.6-2.1c0-.8-.1-1.7.1-2.5.8.4 1.4 1.1 1.9 1.7.5.5.8 1.3 1 2 .3.6.6 1.2.6 2.1zm10.2-.9c-.2.7-.8 1.2-1.1 2-.6.6-1.3 1.3-2.1 1.7-.3-.9-.3-1.9-.3-2.6 0-.8.3-1.7.6-2.3.3-.7.6-1.5 1.2-2 .6-.6 1.2-1.3 2-1.7.4.9.3 1.9.4 2.6 0 .8-.4 1.7-.7 2.3"/><path fill="#757575" d="M15.3 111.5l14.3 2.6L44 98.5l-3-10-7.3-6.3zm2.1-67.4l.4 4.4-2.7 4.7 1.2 4.7-5.7 2 18.3 8.8-2-4.2 5.1-7zm28.2-12l-4.4-13.6L26 27.7 27.5 44zm46.9-2l6.3-11.8 16.6 9.2-4.5 14.4zm29.8 14.5L122 49l2.6 4.7-1.2 4.7 5.4 2.1-17 8.7 1.9-4.2-4.8-7zm3.8 67.3l-15.5 2-14.8-16.1 3.6-9.9 8-6zM69 66s-20.3-2.7-21.7-3.2c-1.3-.5-4.9-17.2-4.9-17.2l25.9 2.2L69 66zm2 0s20.3-2.7 21.7-3.2C94 62.3 97 46 97 46l-25.4 1.8L71 66zm-25.6 61.3l-3 2v2.8l1.8 1.2h7v-4.6s-5.4-1.1-5.8-1.4zm49.3 0l3.4 2v2.8l-2 1.2H88v-4.6s6.3-1.1 6.7-1.4z"/><path fill="#636262" d="M30 49.5l18-12.3-2.4-5.1-18.1 12zm58.9-14l18.5 11.6 3.5-5.1-18.4-11.9zm-73.6 76L6 93.7l21.5-14.3 6.2 2.8zm110.8.4l9.2-17.3L111 77.4l-3.5 4.5z"/><path fill="#757575" d="M76.9 90H63.2l-9.8-20.8 33.5-.5z"/><path fill="#333" d="M34 79.3l-1.8-.3-21.4-16.5L34 72.7z"/><path fill="#515151" d="M79.6 18.5L69 22l-10.3-3.5L57 16l12.1 4.3L81 16z"/><path fill="#333" d="M106 78h2.8l19.9-16.2-21.3 10.4z"/><path fill="#595959" d="M55.6 111.5l-7-1.7L53.4 97l13 .9zm30.4 0l6.2-1.7L87.9 97l-11.6.9z"/><path fill="#757575" d="M53.2 125h-7l1.4-12.4 8 .7zm34.7 0h6l-.7-12.2-7.2.7z"/><ellipse transform="rotate(21 63 23.1)" opacity=".3" fill="#FFF" cx="63" cy="23.1" rx="2.4" ry="1.2"/><ellipse transform="rotate(162.7 75.6 23.3)" opacity=".3" fill="#FFF" cx="75.6" cy="23.3" rx="2.4" ry="1.2"/><path d="M72 27h-5l1.4 3h2.3z"/></svg>