<svg xmlns="http://www.w3.org/2000/svg" viewBox="0 0 154.7 138.8"><path fill="#0071BC" d="M13 0h132v138H13z"/><path fill="#FFF" d="M114.6 125.4s-.2.2-.3.5c0 .4-.3 1-.7 1.4-.7 1.1-2.2 2.3-4.2 3.2-2 1-4.4 2-7.3 2.8a75.3 75.3 0 0 1-9.8 2 90.8 90.8 0 0 1-24.8.2 105 105 0 0 1-13.9-2.3c-2.3-.6-4.6-1.3-7-2.3a16 16 0 0 1-3.2-1.8 7.3 7.3 0 0 1-1.5-1.5c-.4-.6-.7-1.3-.8-2.2v-.6l.3-.6.5-1a7.4 7.4 0 0 1 1.4-1.5c1-1 2.2-1.5 3.3-2 2.3-1.1 4.6-1.9 7-2.5 4.7-1.2 9.3-1.9 13.9-2.3a116 116 0 0 1 24.8.6c3.6.5 6.9 1.3 9.8 2 2.9.9 5.3 1.8 7.3 2.8 2 1 3.6 2 4.3 3.2.8 1 1 2 1 2zm-1.3 0s.5-.8-.3-1.8c-.7-1-2-2.1-3.9-3-2-1-4.4-1.7-7.2-2.4a154.3 154.3 0 0 0-34.3-1.7c-4.5.4-9.2 1-13.8 2a40 40 0 0 0-6.8 2.2 15 15 0 0 0-3.2 1.8c-1 .7-1.9 1.7-2 3 0 .5.3 1.1.6 1.6l1.3 1.4c1 .8 2 1.4 3.2 1.9 2.2 1 4.5 1.7 6.8 2.3 4.7 1.2 9.3 1.7 13.8 2a155 155 0 0 0 34.5-2.1 34 34 0 0 0 7.3-2.3c2-1 3-2 3.7-3 .8-1.1.3-1.9.3-1.9z"/><path fill="#FFF" d="M135.8 127.3s.1.3 0 .8c-.2.5-.6 1.1-1.3 1.7a21.3 21.3 0 0 1-6.5 3.2 94.8 94.8 0 0 1-10.7 2.9 156 156 0 0 1-49.8 2.2 312 312 0 0 1-20-2.4 86.2 86.2 0 0 1-15.3-3.9 12 12 0 0 1-2.5-1.4 5.4 5.4 0 0 1-1.1-1.2 3 3 0 0 1-.5-.8l-.1-.5v-.4-.3-.9l.3-.5.2-.4a5.6 5.6 0 0 1 1.2-1.3 12.6 12.6 0 0 1 2.4-1.5c1.6-.9 3.3-1.5 5-2 3.4-1.2 6.8-2 10.2-2.5 6.9-1.3 13.6-2 20.1-2.4a205.2 205.2 0 0 1 18.9-.4 174.8 174.8 0 0 1 31 3.5c4.2.8 7.8 1.8 10.7 2.8 3 1 5.2 2 6.6 3.2.6.6 1 1.2 1.1 1.7.2.5 0 .8 0 .8zm0 0l-.2-.6c-.1-.5-.6-1-1.2-1.6a18.6 18.6 0 0 0-6.5-3c-3-.8-6.6-1.4-10.8-2a464.8 464.8 0 0 0-49.6-1.2c-6.4.4-13.1.9-19.8 1.9a84.4 84.4 0 0 0-15 3.6l-2.2 1.3a4 4 0 0 0-.8.8l-.1.2-.1.2-.2.6v-.1.1l.1.2c0 .2.2.3.3.5l.8.9 2.1 1.4c1.6.8 3.2 1.4 4.9 2 3.3 1 6.7 1.7 10 2.3 6.8 1 13.5 1.5 20 1.7 6.5.1 12.8 0 18.7-.2 6-.1 11.6-.4 16.8-.6 5.2-.3 10-.6 14.1-1.2 4.2-.5 7.9-1.1 10.8-2 3-.9 5.2-1.9 6.5-3 .6-.5 1-1 1.2-1.5l.2-.7z"/><path fill="#391C42" d="M154.6 44.8c-5.5-8.2-1.1-14.9-1.1-14.9-5.8-3.3-6.1-10.3-6.1-10.3-5.7-2.3-8.4-8.4-8.4-8.4-5.2 1.5-10.6-2.3-10.6-2.3-1.8 7-5 8.8-5 8.8 1-5-1.1-6.9-1.1-6.9 1.4 10.3-15.5 23.5-15.9 27.8-.4 4.4-4.4 7.3-4 9.6.5 2.4-.2 2.7-1.2 6.4-1.1 3.8.6 8 1.9 8 1.2.2 6.3-4.3 7.5-6.5 1.2-2.4 3.4-1.6 2.8 1.8-.5 3.4-10 11.5-10 11.5l-2-3c-.2 2.3 2.8 9.8 4.9 8.7 2-1.2 7.4-11.1 15.3-14.6 6.2-2.2 4.5-4.8 4.4-5a19 19 0 0 1 1.4 15.7c-1.8 5.1-5.6 9.5-10.1 10.5a43.4 43.4 0 0 0-26 23.3 61 61 0 0 0-8.5-33.8c-2.7-4-4.5-9.2-5.3-14.4-1-2-1.6-4.6-1.7-7l-.4-3.9v-5.7l.4 2 .6 3.5c.2-1 .2-1.9.2-2.8 0-1.4 0-2.5-.2-3.8 0-1.4-.1-2.5-.3-3.9l-.5-3.8c-.3-.4-.3-.7-.5-1.1L75 29l-.5-2.3-.8-2.3 1 2.3.6 2.3.3 1.2c.2.4.2.7.5 1v.1l.8 7.5c.2 1.3.2 2.6.2 3.8 0 .6 0 1.3-.2 1.9l-.3 2-.2.3-.1.4.1-.2-.5-2.5v1.5c0 1.2 0 2.5.2 3.7l.5 3.6 1 3.4.4 1.2c.7 1.1 2.1 1.1 2.6 0 1.6-3 2.2-7.9 2.4-9.8.2-1.9.2-5.9.2-5.9l-.8 4.6c-1.3-3.4.4-15.3.4-15.3l.4-.6.3-1.1c.2-1.2.5-3 1.6-5.2.2-.2.2-.3.3-.7l.5-1.4 1.5 1 4.1 2.7c-1.7-8.6 5.3-8.8 5.3-8.8A36 36 0 0 1 99.4.9L82 9.7c-1-.4-2-.2-2.2-.2-.3 0-1.3-.2-2.4.1L60 1c.2.3 4 10.7 2.6 16.6 0 0 7 .2 5.3 8.8l5.6-3.7a50.8 50.8 0 0 0-6.1 49.1c2.9 10.5.8 22.2-5.5 30.4a42 42 0 0 0-24.6-20.4c-4.6-1-8.3-5.4-10.1-10.6a19 19 0 0 1 1.4-15.6c0 .2-2.5 3.8 5 7.4 8 3.9 13.1 12.1 15.1 13.4 2 1.3 5.5-6 5.4-8.3L52 70.9s-9-8.8-9.2-12.2c-.2-3.4 1.8-4 2.9-1.6 1 2.5 5.8 7.1 7 7 1.3 0 3.3-3.8 2.4-7.8-.9-3.8-1.4-4.2-.8-6.5.6-2.3-3.2-5.4-3.3-9.8C51 35.6 31 21 32.3 10.8c0 0-2 2.1-1 7 0 0-3.1-1.7-5-8.7 0 0-5.4 3.8-10.7 2 0 0-2.7 6-8.4 8.5 0 0-.3 7-6 10.3 0 0 4.3 6.7-1.2 14.9 0 0 5.8 1.5 2.6 12 0 0 5.1-1 1.3 12.2l2-2.2a56 56 0 0 0 27.2 37c5 2 9.3 12.3 9.5 18.4 2.2 11.1 21.7 12.3 35.2 12.3 13.5 0 36.3-1.3 35-11.7.2-6 3.8-17.3 8.8-19a55.4 55.4 0 0 0 27.2-37l2.1 2.2c-3.9-13 1.3-12.2 1.3-12.2-3.4-10.5 2.4-12 2.4-12zM84.3 19.6l.3-1.2c.1 0 .3.4.3 1 0 1-.3 1.9-.6 2.3-.6.4-.5 0 0-2.1zM81.6 32h1l-.6 1.3-.4-1.3zm-1.2.2h1l-.8 2.3-.2-2.3zm-1.4 0H80l-.6 2.5-.5-2.5zm-1.1 0h1l-.4 2.3-.6-2.3zM77 32h.1c.2 0 0 1.3 0 1.3l-.1-1.3zm-2.6-13.6l.3 1.2c.5 2 .5 2.5 0 2-.3-.1-.6-1.3-.6-2.2 0-.4.1-.8.3-1z"/><path fill="#FF7BAC" d="M80.8 53.7c-.7 1.5-2.3 1.2-3 0-.2-.7-.5-14.5-.5-14.5h4.4s-.6 13.8-1 14.5z"/><path d="M81.7 39.2h-4.4l-.2-6.3h5z"/><path fill="#A82DE2" d="M0 44.8c3.7-5.4 3-9.7 1.1-14.9 3.3-3.3 6-5.7 6.1-10.3 4-2 6-3.8 8.4-8.4C20.6 13 26.4 9 26.4 9s1.3 6.8 5 8.8C19.4 23.7 6.3 50.4 6 66.8L3.9 69s4-12.2-1.3-12.2c.9-4.4 2.7-9.3-2.6-12z"/><path fill="#662D91" d="M27.7 2.4l-1.8 11.2-.6 4.2a44.4 44.4 0 0 1-.9 3.5c-.5 2-1 3.3-1 3.3h-.2s0-1.5.2-3.6l.6-3.6c.2-1.3.6-2.7 1-4l2.5-11h.2zM14.8 8.6l3.5 9.3a34.3 34.3 0 0 1 2.6 9.6s-.7-1-1.4-2.7l-1.2-3-1-3.5-2.6-9.6h.1zm-8.6 9.8l6.6 5.7 2.3 2.1a25.2 25.2 0 0 1 2 2.2l1.6 2.3-.1.1s-1-.5-2.2-1.5a23.7 23.7 0 0 1-2.1-1.8L12 25.1l-6-6.6.1-.1zm-5 11.4l7 3.3 2.5 1.2 2.2 1.4c1.2.8 1.9 1.6 1.9 1.6v.2s-1-.2-2.4-.7a17.8 17.8 0 0 1-2.2-1l-2.5-1.6L1.1 30v-.2zM0 44.8l5.8-.7 2-.3a14 14 0 0 1 2 0l1.2.3.5.1v.1l-.5.2-1.3.3L8 45H5.8a184.3 184.3 0 0 1-5.8-.1v-.2zm2.5 12L5.4 54l1-1a6 6 0 0 1 1-.6l.9-.3h.3l-.1.4-.6.7a6.5 6.5 0 0 1-1 .9l-1 .7-3.3 2v-.1zM4 69l1-2.2.7-1.5.4-.6-.2.7c-.1.5-.4 1-.7 1.5l-1.2 2.2z"/><path fill="#A82DE2" d="M154.7 44.8c-3.7-5.4-3-9.7-1.2-14.9-3.2-3.3-5.9-5.7-6-10.3-4-2-6-3.8-8.4-8.4-5 1.8-10.7-2.1-10.7-2.1s-2.1 7.2-5 8.8c12 5.8 25 32.5 25.3 48.9l2.1 2.3s-4-12.3 1.3-12.3c-.9-4.4-2.7-9.3 2.6-12z"/><path fill="#662D91" d="M127.3 2.4l2.6 11 1 4a45.9 45.9 0 0 1 .5 3.6l.2 3.6h-.1s-.6-1.3-1.2-3.3a45 45 0 0 1-.8-3.5l-.6-4.2L127 2.4h.2zM140 8.7l-2.6 9.6-1 3.6a32.5 32.5 0 0 1-1 3l-1.5 2.7h-.1s.1-1.4.5-3.2l.8-3.1 1.3-3.4a446.1 446.1 0 0 1 3.5-9.3h.1zm8.5 9.8l-5.9 6.6-2.1 2.4a24 24 0 0 1-2.1 1.8l-2.2 1.5h-.1s.6-1.1 1.6-2.4a25.3 25.3 0 0 1 1.9-2.2l2.4-2c3.2-3 6.5-5.8 6.5-5.8v.1zm5 11.5l-6.5 4.2-2.4 1.6-2.3 1-2.3.7v-.2s.7-.8 1.9-1.6a18.8 18.8 0 0 1 2-1.4l2.6-1.2 7-3.3v.2zm1.2 14.9l-5.8.1h-2a13.9 13.9 0 0 1-2-.2l-1.2-.3-.5-.2.5-.2 1.3-.2a13.6 13.6 0 0 1 1.8 0c.7 0 1.4 0 2.1.2 3 .2 5.8.6 5.8.6v.2zm-2.6 12l-3.2-2-1.2-.7a7 7 0 0 1-.9-.9l-.6-.7a3 3 0 0 1-.1-.4h.3l.8.3 1 .6 1.1 1 2.8 2.7zM150.8 69l-1.2-2.2c-.3-.5-.6-1-.7-1.5a6.5 6.5 0 0 1-.3-.7l.5.6.7 1.5 1 2.2z"/><path fill="#FFF" d="M54.7 67.5l-1 2.6c0 .4-.1.7-.3 1l-.5.7-.4.4-.3.1V72v-.7l.3-.9.6-.8 1.5-2.2h.1zm46.3-2l1.4 2.4.5 1 .2.9v1l-.3-.1-.4-.5a4 4 0 0 1-.5-.8l-.3-1-.7-3zM83.2 42.2v2.5l-.2 1.7c0 .5-.2.8-.2.8v-.8-1.7l.4-2.5zM75.9 44a85.8 85.8 0 0 0 .4 3.2 4.1 4.1 0 0 1-.1.6l-.2-.6-.1-1.3v-2zm1.4-8.1l-.4-2-.1-.6v-.7l.2-.6.4.6v3.3h-.1zm1.1 1.7l-.2-2.7v-1-.5c0-.5.2-.5.2-.5s.2 0 .3.4l.1.6V35l-.3 2.6zm1.1 0l-.2-2.7v-1-.5c0-.5.2-.5.2-.5s.2 0 .3.5l.1.7v.9l-.3 2.6zm1 0l-.1-2.7v-1-.9l.3-.8h.1l.2.8v2l-.4 2.6h-.1zm1.2-1.7l-.2-2v-.7-.6a2.5 2.5 0 0 1 .3-.6h.1l.2.6V34l-.4 1.9z"/><path fill="#FF7BAC" d="M81.9 33.4c-.3.2-4.3.2-4.6 0s-.8-1.7-.8-1.7c1.6.4 4.9.5 6.3 0 0 0-.7 1.5-1 1.7z"/><path fill="#FFF" d="M49.8 68l1-2 .5-.8.4-.6.6-.5-.1.9-.4.6-.5.7-1.4 1.8zm-.8-1l1-1.8.4-.7c0-.2.2-.4.4-.5l.5-.4-.1.8-.3.6-.5.6-1.3 1.5zm-.7-1.1l.8-1.7c0-.3.2-.5.3-.7l.4-.4.4-.3v.7l-.3.5c0 .2-.2.4-.4.5-.5.8-1.1 1.4-1.1 1.4zm-.8-1.3l.8-1.5.2-.6.4-.3.5-.3-.1.7-.2.5-.4.4-1.1 1.2h-.1zm-.8-1.4l.7-1.3.2-.5.4-.3.4-.2v.6l-.2.5-.4.3-1 1v-.1zm-.8-1l.6-1.3.3-.4c0-.2.2-.3.3-.3l.4-.2v.6l-.2.4-.4.3-1 1zm60.2 4l-1.4-1.7-.5-.6-.3-.7-.2-.7.6.3.5.6.4.7 1 2h-.1zm.6-1l-1.2-1.5-.4-.5-.3-.6V62l.5.3.3.4.3.7.8 1.7zm.8-1l-1.2-1.2-.4-.5-.3-.5-.1-.6.5.2.4.4.3.6c.5.7.8 1.5.8 1.5zm.6-1.4l-1-1-.3-.3-.2-.4v-.5h.4l.4.4.2.5.6 1.3zm.7-1l-.9-.8-.3-.3-.1-.4v-.5l.4.1.3.3.1.4.5 1.2zm.8-.7l-.9-.8-.3-.3-.2-.4V59h.4l.3.3.2.5.5 1.1z"/><path fill="#A82DE2" d="M67.9 26.3s2.2-7.9-5.3-8.8A34 34 0 0 0 60 .9l17.4 8.8c-4.9 1.5-5.6 9-3.9 13L68 26.2zm23.6 0s-2.2-7.9 5.4-8.8c-.5-6.2.2-10.5 2.5-16.6L82 9.7c5 1.5 5.7 9 4 13l5.6 3.6z"/><path fill="#662D91" d="M60 .8l7.3 5.4 2.7 2a26.8 26.8 0 0 1 2.1 2l2 2.2-.1.2s-1-.5-2.5-1.4a25 25 0 0 1-2.3-1.7l-2.5-2.3C63.3 4.2 60 .9 60 .9V.8zm2.6 16.6l5-1.2 2-.4a10.9 10.9 0 0 1 1.6-.1h1.2l.4.1v.1l-.4.2-1.1.5-1.6.4-2 .1c-2.5.3-5.1.4-5.1.4zm5.3 8.8l2.3-2.9.8-1 .9-.8c.5-.5 1-.7 1-.7l-.6 1.1-.8 1-1 .9-2.6 2.5zM99.5 1l-7 6c-1 .7-1.8 1.5-2.6 2.2a25.1 25.1 0 0 1-2.4 1.6C86 11.6 85 12 85 12l-.1-.2s.7-1 2-2.2a27.1 27.1 0 0 1 2.2-1.9L92 6 99.4.8v.1zm-2.6 16.6h-5.2l-1.9-.1a11.4 11.4 0 0 1-1.6-.4l-1.2-.3-.4-.2v-.2h.4l1.2-.2H90l1.9.4c2.6.4 5.1 1 5.1 1zm-5.4 8.8L89 23.7l-1-1-.7-1-.7-1v-.1l1 .7.9.8.8 1.1a124.4 124.4 0 0 1 2.4 3z"/><path fill="#FF341F" d="M84.3 19.6l.3-1.2c.1 0 .3.4.3 1 0 1-.3 1.9-.6 2.3-.6.4-.5 0 0-2.1zm-9.8-1.2l.3 1.2c.5 2 .5 2.5 0 2-.3-.1-.6-1.3-.6-2.2 0-.4.1-.8.3-1zM41.8 37.6c.4-.3 1.3.5 2 1.7.7 1.3.9 2.6.5 2.9-.5.3-1.3-.5-2-1.8-.7-1.2-.9-2.5-.5-2.8zm71.3 1.9c-.7 1.2-1.7 2-2 1.6-.5-.3-.2-1.6.5-2.8.8-1.3 1.7-2 2-1.7.5.3.2 1.6-.5 2.9z"/><path opacity=".6" fill="#FFF" d="M42.5 39c.3-.2.7 0 .9.5.2.4.2.9-.1 1-.3.3-.7 0-.9-.3-.2-.5-.2-1 .1-1.2zm70.1-1c.3.2.3.7.1 1.1-.2.5-.6.7-.9.5-.2-.2-.3-.7 0-1.1.2-.5.6-.7.8-.5zM74.4 19.7c.2 0 .3.2.4.5v.7c-.2 0-.4-.2-.4-.5v-.7zm10.1.3c.2 0 .2.3.2.7-.1.3-.3.5-.4.5-.1 0-.2-.4-.1-.7 0-.3.2-.5.3-.5z"/></svg>