<svg xmlns="http://www.w3.org/2000/svg" viewBox="0 0 140 140"><path fill="#FFFCD7" d="M58 73.63l4.28 5.93.13 6.81-2.6 5.34-6.63 3.83-1.3 1.59 1.79 9.78-6.57 10.6-7.18-1.42 6.83-9.18-4.25-16.22.75-3.32-2.25-6-11.16-8.13-4.1-6.93-1.5-4.44-4-2.37-2-5.75L15.64 49l-1.38-.13-1.63 3.5.9 3-2.61 2.07-1.41-2.52-.58-2.59 2.75-5.83L13.49 45l2.93.12-2.17-1.7L12.5 43 2.2 47.23l3-6.04L12.26 39h2.87l3.12 1.75 3.55 6.06 2.95-3.37L32 39.8l3.13-5.37-2.55 2.19-1.81-.29-5.09 1.97-.98 1.36-3.1.78-2.06-.4-.15-1.55-.47-1.14.5-1.31 4.7-6.32.34-2.12 3.47-4.55-.75-3.83L31 22.15l7.06.04 10.7 7.12.98 13.14-3.38 9.96.02 5.21s11.71-19.75 15.47-21.7c1.4-.72 2.21-1.77 8.15.4 21.17 7.75 51.5 23.76 68.84 25.46-5.17 4.8-53.14 2.97-70.09-.44C61.17 59.82 58 73.62 58 73.62z"/><path fill="#07EAD4" d="M58.51 73.73c29.48 8.1 53.44 3.28 68.5-9.62-12.55-.14-44.52-20.75-60.39-21.66C62.4 44.62 58 56.03 47.1 62.09c-.03 1.24 4.28 6.68 4.28 6.68s5.88 4.62 7.13 4.96z"/><path fill="#40CAF4" d="M27.86 28.78c.18.26 0 .7-.4 1-.42.3-.9.33-1.08.07-.19-.25 0-.7.4-1 .41-.3.9-.32 1.08-.07zM87.99 106.9l-4.36-.4-5.25-2.86v1.7l-5.04-2.45-5.66-7.8 2.3 7.5-6.13-6.3-.8-3.06 1.72-6.8-2.92-3.6.43-3.27 11.22 2.08 5.64 4.55 4.03 10.6 3.06 4.32-4.43-2z"/><path fill="#333" d="M44.47 122.14l-8.13-.94.43-2.38 3.15-2.73 7.18 1.43zM8.25 48.31l-4.97 2.7-1.2-3.7L7.75 45l.58 1zM16.12 56.38s-1.4 4.96-2.18 4.96c-.53 0-3.03-4.28-3.03-4.28l2.6-1.69 2.61 1z"/><path fill="#40CAF4" d="M53.65 44.05l-1.43-3.99-.2 4.65-.86 1.55-1.42-3.81s-1.84-9.7-4.67-13.84c-2.62-3.84-12.34-6.31-12.34-6.31l2.57-1.85 4.89-1.22-2.4 2.21 5.65-1.2 5.6 1.53-3.54.87s5.86 1.03 6.89 2.06a51.2 51.2 0 0 1 3.36 4.38l-4.77-2.54 3.98 4.62.86 6.06-4.2-6.06 2.28 7.25-.25 5.64z"/><path d="M19.42 39.91s.56-.45 1.14-.88a4.75 4.75 0 0 1 1.24-.74l.01.03s-.12.14-.32.32-.5.38-.82.56c-.6.37-1.23.73-1.23.73l-.02-.02z"/><g fill="#40CAF4"><path d="M116.8 70.84c-2.3-.53-4.77-.68-6.86-1.67a538.76 538.76 0 0 1-20.19-10.13c-7.2-3.77-14.4-7.5-22.38-9.45-1.01-.25-2.03-.47-3.02-.7 0-.14-.03-.2 0-.24 2.7-4.51 1.08-3.85 6.19-2.69 10.49 2.39 19.61 7.7 28.55 13.47 5.7 3.67 11.6 7 17.42 10.5.14.08.27.2.4.31l-.1.6zM60.27 53.95c.75-1.08 1.32-2.12 2.11-2.94.3-.31 1.17-.3 1.7-.14 7.48 2.16 14.46 5.38 20.63 10.19 6.23 4.85 12.45 9.71 18.63 14.55a14.49 14.49 0 0 1-6.84-1.86c-4.9-2.85-9.78-5.77-14.46-8.95-6.58-4.47-13.45-8.24-21.1-10.48-.17-.04-.31-.16-.67-.37zM56.03 58.47c1.73-2.36 2.74-2.81 5.32-1.13 4.4 2.86 8.6 6.01 12.87 9.07 3.61 2.59 7.2 5.22 10.79 7.83.17.12.32.28.7.62-4.79-.64-8.7-2.52-12.41-5.07-5.68-3.9-11.51-7.56-17.27-11.32zM71.4 75.71c-3.5-.9-6.94-1.85-9.87-4.42-3.06-2.7-6.57-4.88-9.9-7.28l-1.6-1.21c1.04-.73 1.88-1.5 2.87-1.92.48-.2 1.31.14 1.85.46a40.62 40.62 0 0 1 9.56 7.9c2.11 2.4 4.72 4.34 7.09 6.47z"/></g><path d="M137.9 61.69a46.37 46.37 0 0 1-13.21-2.71c-2.12-.79-4.18-1.71-6.26-2.57l-6.23-2.61-24.91-10.51c-2.08-.88-4.14-1.77-6.25-2.58-2.1-.82-4.19-1.67-6.3-2.46l-6.34-2.31a8.64 8.64 0 0 0-3.21-.76c-1.1 0-2.19.28-3.13.84-.97.53-1.68 1.38-2.45 2.22-.78.82-1.45 1.71-2.17 2.57a62.31 62.31 0 0 0-3.8 5.56c-2.33 3.84-4.5 7.82-7.18 11.47l-.45.6.01-.75.1-5.28v-.08l3.6-9.76.2-.55.29.5.73 1.27.03.04v.04l.47 2.34-.5-.12.71-.88-.06.12.4-1.89v.1l-.27-2.34.01.05-1-3.18-.65-2.06 1.19 1.8 1.5 2.29v.03l.02.03.58 1.5v.02l.01.01.56 1.92h-.6l.58-1.81-.02.1-.07-2.05v.05l-.68-3.9.02.07-1.97-4.53-.4-.9.87.47.73.4.06.03.04.06 1.41 1.81.02.02.01.02 2.02 3.58-.2-.16.14.03-.22.03.24-.12-.16.17.07-.14-.03.18-.78-4.68.04.1-2.06-3.5.09.09-3.18-2.32-.05-.03-.03-.05-.01-.03-.32-.5.6.03.86.05h.06l.05.03 2.37 1.09.04.01.03.03 2.55 2.02-.39.02.18-.16-.05.38-1.93-3.02.04.05-1.72-1.73.08.06-2.82-1.37.07.03-2.68-.52-.68-.13-.31-.04-.34-.05-1.36-.16-1.18-.15 1.12-.4 1.02-.35.05-.02h.05l2.2.04h.05l2.45.42-.3.17.08-.22.11.33-2.08-1.24.06.02-3.19-.9h.08l-3.01.18.05-.01-2.97.8h.01l-.9.32h-.04l-.14.03-.69.1.46-.52.27-.3.02-.02.02-.01 1.3-.93.02-.02.03-.02 2.08-.8-.16.28-.04-.23.24.2H39.1h.06l-3.22.85.06-.03-3.13 2.01-.04.03h-.05l-1.49.2h-.1l-.08-.06-3.84-3.12.14.05h-.15l.14-.05-.2.16.07-.1-.04.12v-.13l.88 3.37.03.1-.06.08-3.43 4.78.04-.1-.31 2.04-.01.05-.03.04-4.9 6.62.03-.06-.34 1.09v-.04.05-.04.1l-.01-.07.46 1 .02.04V39.84v-.07l.02.08-.03-.06.11.13-.05-.04.07.04-.06-.02 1.98.36h-.07l3.1-.78-.06.03.13-.08-.06.05.76-1.24.03-.05.06-.02 5.2-1.97.05-.02.04.01 1.8.26h-.06l.16-.03-.08.04L35 34.39l.71-.62-.46.82-2.92 5.21-.02.04-.04.02-7.31 3.69.04-.03-2.91 3.21-.12.14-.1-.15-3.68-5.92.02.01-.07-.07.03.03-3.03-1.64.05.01-2.54-.04h.03L5.4 41.36l.04-.02-.13.1.04-.04-1.91 4.09-.01.01-1.12 1.8.01-.02-.02.06v-.04.15l-.01-.04.01.06v-.01l.98 3.3-.04-.07.07.06-.05-.03.2.06H3.4l.1-.02-.05.02 4.62-2.44-.04.04.1-.15-.02.08.09-2.48v.04l-.03-.1.01.03-.35-.64-.07-.13.14-.06 4.34-2.08.04-.02h.04l1.6.16h.05l.03.03 2.38 1.86.7.55-.84-.28-.48-.16h.05l-2-.08h.05l-.13.04.05-.03-1.72 1.37.04-.05-2.84 5.85.02-.04-.03.14v-.05l.32 2.51-.02-.07 4.32 6.63-.06-.05.11.07-.1-.03h.25l-.1.03.12-.08-.07.08 1.93-4.79-.01.05v-.05.03-.12l.1.15-1.9-.95-.01-.01-.02-.02-.06-.05.04.03-.14-.07.06.02h-.07l.06-.01-.52.1-.16.02-.05-.16-.66-2.36v-.09l.5-2.62.01-.03.02-.03.93-1.56.07-.12.14.03 1.23.27.08.02.04.07L18.1 53v.02l.02.02 2.26 6.17-.02-.05.07.1-.06-.05 2.83 1.9-.05-.02 1.25.42.1.04.03.1 1.28 4.07-.01-.04 4.13 7.36-.06-.07 6.25 4.91h-.02l4.49 2.96.04.03.02.04 1.94 2.6.03.06.02.06.7 3.77v.09l-.56 3.26v-.13l3.92 13.23v.05l.4 3.37.02.12-.07.1-6.3 8.32-.02.03-.03.02-4.06 3.53.07-.08-.08.13.05-.15-.09 1.51v-.09l.01.07-.04-.1.08.12-.06-.07.04.04-.08-.05 1.25.6-.14-.03 6.24.03-.09.01.12-.03-.11.05 1.01-.73-.09.1 8.8-14.21-.04.1.03-.15v.17l-1.78-6.38-.01-.04v-.05l.03-3.44v-.14l.09-.1 2.13-2.28.04-.05.06-.03 5.59-2.71-.07.04.09-.07-.08.09 2.51-4.1-.04.09.04-.14-.02.1-.14-3.57-.04-.85.63.58 2.17 2.04.1.1V89.04l-.02.06-1.44 3.56.02-.09v.09-.07l.13 2.46-.05-.16 1.76 3.08-.07-.09 5.07 4.45-.22-.09h.16l-.23.08.2-.16-.12.2.04-.14.02.23-2.18-4.82-.02-.06v-.06l-.13-1.5-.15-1.81.83 1.63.92 1.82-.04-.07 4.48 5.26-.1-.08 4.56 2.48-.24-.03.15-.03-.21.12.17-.2-.09.22v-.14l.08.22-3.65-4.65-.02-.02-.01-.03-1.97-3.56-.04-.06V97l-.1-.98-.18-1.71.85 1.49 1.14 1.98-.03-.04 4.52 5.77-.12-.1 6.05 3.13-.16-.04 3.62.03-.2.06.1-.07-.13.16.1-.23-.03.21-.02-.13.09.19-5.52-6.28-.03-.04-.02-.04-.66-1.33-.74-1.5 1.3 1.05 1.37 1.08-.1-.05 3.13 1.25-.24-.02.13-.04-.2.15.15-.21-.07.21v-.14l.1.24-3.3-3.84-.04-.05-.02-.05-2.22-5.37-.55-1.36-.52-1.35-1.04-2.72.09.13-4.1-3.84.12.07-4.25-1.56.08.02-8.02-1.02-.13-.02-.08-.1-4.37-6.17.06.07-3.71-2.67c-.63-.45-1.23-.89-1.87-1.3l-1.9-1.27-.05-.03-.03-.04-2.36-3.36-.02-.02-.01-.03L47 61.96l-.09-.22.2-.1c1.91-1 3.73-2.19 5.39-3.6.87-.65 1.62-1.42 2.43-2.14.74-.78 1.54-1.52 2.24-2.35a55.45 55.45 0 0 0 4.02-5.1c.6-.91 1.23-1.8 1.8-2.72.6-.89 1.07-1.93 2-2.64a3.15 3.15 0 0 1 1.6-.64c.58-.07 1.14.07 1.66.14l3.23.54c2.15.37 4.3.84 6.36 1.58 2.05.71 4.12 1.4 6.14 2.21 2.05.76 4.06 1.61 6.07 2.44a276.56 276.56 0 0 1 11.9 5.4l5.88 2.85c1.96.95 3.9 1.95 5.87 2.86a37.88 37.88 0 0 0 12.49 3.51c2.16.19 4.35.15 6.5-.13 2.15-.29 4.25-1 6.12-2.1l.02.08-.93-.14zm0-.08l.94.14.11.01-.1.06a16.45 16.45 0 0 1-6.14 2.13c-2.16.3-4.35.33-6.53.16a38.06 38.06 0 0 1-12.55-3.48c-1.98-.9-3.92-1.9-5.89-2.84l-5.88-2.82a317.5 317.5 0 0 0-11.91-5.35c-2.02-.82-4.03-1.67-6.07-2.41-2.02-.8-4.09-1.49-6.15-2.2a38.15 38.15 0 0 0-6.3-1.54l-3.23-.51c-.55-.08-1.07-.2-1.57-.14-.51.05-1 .26-1.4.57-.83.63-1.3 1.64-1.9 2.55-.57.93-1.2 1.83-1.8 2.74a55.96 55.96 0 0 1-4.03 5.17c-.7.84-1.5 1.59-2.25 2.38-.82.73-1.59 1.53-2.45 2.19a30.04 30.04 0 0 1-5.45 3.67l.12-.32L48.75 65l-.03-.06 2.38 3.35-.08-.07 1.92 1.26c.64.4 1.27.87 1.89 1.3l3.73 2.66.04.02.03.04 4.4 6.14-.22-.13 8.02.98h.04l.03.02 4.26 1.54.07.02.05.05 4.1 3.82.06.06.03.08 1.06 2.7.52 1.36.55 1.33 2.23 5.37-.06-.1 3.29 3.84.09.1v.4l-.06.1-.15.22-.08.1-.13.04-.13.04-.13.04-.12-.05-3.12-1.25-.05-.02-.04-.04-1.36-1.09.56-.45.65 1.33-.05-.08 5.52 6.28.07.08.01.1.02.13.02.11-.04.1-.1.23-.05.1-.1.06-.1.07-.1.06H88l-3.63-.03h-.08l-.08-.04-6.05-3.14-.07-.04-.05-.06-4.52-5.77-.02-.02-.01-.02-1.14-1.99.68-.22.1.98-.04-.14 1.96 3.56-.03-.04 3.65 4.65.08.1V105.47l-.09.1-.17.2-.08.1-.13.02-.15.03-.12.02-.12-.06-4.55-2.49-.06-.03-.05-.05-4.48-5.26-.03-.03-.02-.04-.92-1.83.67-.19.12 1.5-.03-.12 2.17 4.82.05.1-.02.13-.04.14-.03.12-.1.08-.2.16-.11.08-.13-.01h-.15l-.13-.01-.09-.08-5.07-4.45-.05-.04-.03-.05-1.75-3.08-.05-.08v-.08l-.13-2.46v-.07l.01-.09v-.04l.02-.04 1.44-3.55-.02.13v-3.1l.11.25-2.17-2.03.6-.27.14 3.56v.05l-.01.05-.04.14-.01.05-.03.05-2.52 4.1-.03.06-.05.04-.08.06-.03.03-.04.02-5.58 2.7.1-.07-2.13 2.29.1-.24-.04 3.44-.01-.1 1.78 6.38.02.08-.02.09-.03.15-.01.06-.03.05-8.81 14.21-.04.06-.05.04-1.01.72-.05.04-.06.02-.12.03-.04.01h-.05l-6.25-.03h-.07l-.07-.03-1.25-.61-.05-.02-.03-.04-.05-.04-.04-.03-.02-.04-.08-.13-.03-.05-.01-.06-.01-.06-.01-.05v-.04l.09-1.51v-.09l.04-.07.08-.13.03-.04.04-.04 4.07-3.52-.04.05 6.32-8.3-.06.22-.39-3.37.01.05-3.87-13.24-.02-.06v-.06l.57-3.25v.1l-.68-3.78.04.1-1.92-2.6.07.05-4.48-2.98-.02-.01-6.23-4.94-.04-.03-.02-.04-4.11-7.37-.01-.03v-.02l-1.27-4.08.13.14-1.24-.43h-.03l-.02-.02-2.82-1.92-.03-.02-.03-.03-.07-.1-.01-.02-.01-.03-2.25-6.17.02.04-2.45-3.98.12.09-1.23-.28.21-.1-.93 1.57.02-.07-.5 2.62-.01-.09.65 2.37-.21-.14.51-.09h.13l.03.01.02.01.15.07.02.01.02.02.05.05-.04-.03 1.9.96.09.05V56.6l-.01.02-1.94 4.79-.02.05-.05.03-.1.07-.05.03h-.35l-.04-.02-.12-.07-.03-.02-.02-.03-4.3-6.64-.02-.03-.01-.04-.31-2.5v-.06l.02-.14v-.02l.02-.02 2.85-5.85.02-.04.02-.02 1.73-1.36.03-.02.03-.01.12-.04h.05l2 .08h.04l.48.17-.14.26-2.38-1.87.07.03-1.6-.16.07-.01-4.34 2.07.06-.2.35.65v.01l.01.02.03.1v.04l-.09 2.48v.04l-.03.03-.1.15-.02.02-.03.02L3.57 51l-.02.01h-.03l-.1.01h-.04l-.19-.05-.03-.01-.02-.02-.07-.06-.03-.02-.01-.04-.98-3.3-.01-.07V47.28l.01-.02v-.02l.03-.06v-.01l.01-.01 1.13-1.8-.01.02 1.92-4.08.01-.03.02-.01.13-.1.01-.01h.02l7.27-2.26h.04l2.55.02h.03l.02.01 3.04 1.63.02.01.01.02.07.07v.01l.02.01 3.7 5.91-.22-.02 2.9-3.22.02-.02.02-.02 7.3-3.7-.06.06 2.9-5.22.25.2-2.35 2.08-.04.02-.04.01-.16.04h-.06l-1.8-.26h.09l-5.2 1.98.09-.07-.76 1.24-.02.04-.03.02-.13.08-.02.02h-.03l-3.1.79h-.08l-1.98-.35h-.04l-.02-.02-.08-.04-.02-.02-.03-.03-.1-.13-.03-.02-.01-.03-.03-.08-.01-.03v-.03l-.02-1.35.02.08-.46-1-.02-.03v-.25l.35-1.09v-.03l.03-.03 4.87-6.62-.04.09.3-2.04.02-.05.03-.04 3.4-4.79-.03.18-.88-3.36-.02-.07.02-.06.04-.13.03-.06.05-.04.2-.16.07-.05h.3l.07.05 3.85 3.12-.18-.05 1.49-.2-.1.04 3.13-2.02.03-.02.04-.01 3.22-.87H41.42l.04.2.04.23.04.2-.19.07-2.08.81.06-.03-1.3.93.05-.03-.26.3-.23-.43.14-.02-.05.01.9-.31.02-.01 2.97-.82h.05l3.03-.18h.08l3.19.9.03.01.03.02 2.1 1.24.19.1-.08.22-.08.22-.08.22-.22-.04-2.45-.4h.04l-2.21-.04.1-.02-1.02.37-.06-.55 1.36.17.34.04c.1 0 .25.03.35.05l.68.13 2.68.5.04.01.03.02 2.82 1.36.05.02.03.03 1.73 1.72.02.02.02.03 1.94 3.02.14.21-.19.17-.17.16-.2.17-.2-.15-2.56-2.02.07.03-2.38-1.08.1.03-.85-.05.28-.47.01.02-.08-.09 3.18 2.31.06.04.03.06 2.07 3.5.03.05.01.06.8 4.69.01.1-.04.08-.06.14-.05.11-.1.05-.24.12-.1.05-.12-.02-.15-.04-.14-.03-.07-.13-2.03-3.57.03.04-1.42-1.8.1.08-.73-.4.47-.42 1.96 4.54.01.03.01.04.67 3.9v.04l.07 2.06v.05l-.01.05-.58 1.8-.32.98-.28-.98-.55-1.92v.02l-.57-1.51.03.05-1.48-2.29.53-.25.99 3.2v.05l.27 2.34v.09l-.42 1.88-.01.07-.04.05-.7.87-.39.47-.11-.59-.46-2.34.03.09-.72-1.27.49-.04-3.63 9.75.01-.08-.1 5.27-.44-.15c2.67-3.6 4.84-7.56 7.21-11.4a62.74 62.74 0 0 1 3.85-5.58c.73-.87 1.42-1.77 2.2-2.58.75-.82 1.51-1.73 2.54-2.3 1-.57 2.16-.88 3.32-.87a9 9 0 0 1 3.33.8l6.34 2.33c2.11.8 4.2 1.66 6.29 2.49 2.1.8 4.17 1.72 6.24 2.6l24.87 10.6 6.23 2.64c2.08.86 4.13 1.8 6.24 2.58a46.33 46.33 0 0 0 13.17 2.75z"/></svg>