<svg xmlns="http://www.w3.org/2000/svg" viewBox="0 0 140 140"><path d="M44.6 93.04c1.47 1.67 5.06 11.12 6.73 11.3.23.05.46.1.56.09.31.87.67 1.93.61 2.15-.08.12-.34.38-.5.62-.61.64-1.44 1.74-.96 2.89.3.77.85 1.79 1.8 2.12.48.2 1.1.08 1.7-.15.18-.14.39-.18.57-.32.17.28.43.44.68.59.99.52 2.02.31 2.13.29.2-.04.38-.18.44-.4a.62.62 0 0 0-.14-.6l-.15-.17c-.32-.45-.47-.63-.48-1.14-.02-.1-.04-.2.04-.32.25.15.5.31.73.37.34.03.67.07.93-.2.48-.3 1.89-1.2 1.56-2.6a.65.65 0 0 0-.55-.5c-.23-.05-.54.01-.7.25 0 0-.18.14-.29.16a2.2 2.2 0 0 0-.54-.93c-.19-.37-.47-.62-.87-.96-.8-.66-1.4-1.37-1.85-1.9l.62-.12c2.4-.39 3.2-.65 3.28-1.3-.03-.09.09-.52-.42-.84l-.12-.08-1.55-.61-.05-.2c-.14-.6-2.47-8.13-3.01-8.13-.2.04-.54 0-.87-.03.18-.14.37-.28.52-.52.17-.24.2-.56.13-.85-.22-.48-.78-.57-1.45-.64.08-.12-10.02.91-8.53 2.68z"/><path d="M44.61 93.03c.36.43.63.92.9 1.4.27.48.52.98.77 1.47l1.47 2.98c.5.99 1 1.97 1.54 2.93.27.48.56.96.88 1.4.16.23.33.44.52.64.18.2.4.39.64.43h.01c.18.04.38.1.54.09h.06l.01.04.38 1.06.16.54.07.28c.02.1.04.18.02.31v.02h-.01l-.5.63-.01.02c-.34.36-.65.76-.85 1.21-.2.45-.26.95-.12 1.4.31.92.85 1.9 1.77 2.24h.01c.5.22 1.1.06 1.64-.13l-.02.01c.2-.14.41-.2.57-.32l.06-.04.05.06c.1.15.22.29.38.39a2.99 2.99 0 0 0 1.57.52c.2.02.38 0 .57-.01.19-.02.37-.05.5-.18.12-.1.17-.31.14-.48-.03-.18-.17-.31-.3-.46-.11-.18-.24-.35-.34-.54-.1-.2-.13-.42-.14-.63-.03-.1-.03-.24.04-.35l.02-.03.03.02c.24.15.47.3.73.37.31.03.66.05.89-.19.56-.36 1.1-.8 1.4-1.4.14-.29.2-.62.16-.94-.02-.16-.04-.32-.15-.44a.56.56 0 0 0-.38-.22c-.23-.05-.5.03-.62.22l-.01.02h-.01c-.1.07-.18.14-.32.18l-.08.02-.02-.08a2.3 2.3 0 0 0-.53-.89v-.01c-.31-.56-.9-.93-1.37-1.38-.5-.46-.95-.95-1.37-1.45l-.12-.15.19-.04c.7-.15 1.43-.24 2.12-.4.35-.07.7-.16 1.02-.28.32-.13.63-.32.66-.63v.04-.17l-.02-.13a.59.59 0 0 0-.08-.22 1.1 1.1 0 0 0-.4-.34l.03.01-1.55-.61-.07-.02v-.06c-.08-.36-.2-.71-.3-1.07l-.34-1.06-.69-2.12a64.42 64.42 0 0 0-1.16-3.13 8.04 8.04 0 0 0-.36-.72c-.03-.07-.14-.15-.1-.13h.03c-.33.04-.62-.01-.91-.04l-.3-.03.24-.18c.1-.08.21-.16.3-.25l.13-.14.1-.16c.06-.1.1-.21.11-.34.01-.12 0-.25-.02-.37v.02c-.2-.45-.83-.51-1.35-.58l-.08-.16c-.02.01-.02.12.03.14l.02.02c.01 0 0 0 0 0h-.25l-.3.02-.6.06-1.2.13c-.79.1-1.58.22-2.37.37s-1.57.33-2.33.58c-.38.12-.76.26-1.1.47-.17.1-.33.23-.42.4-.1.18-.04.4.1.54zm-.02.02c-.13-.15-.2-.38-.1-.57.1-.19.26-.32.43-.43.34-.22.72-.37 1.1-.5.76-.26 1.54-.45 2.33-.61.79-.17 1.58-.3 2.38-.42l1.2-.17.6-.06.3-.03h.15l.08-.01h.1c0 .01-.02 0 .03.02s.05.14.03.15l-.08-.16c.28.03.56.06.84.14.14.04.28.1.4.2a1 1 0 0 1 .3.35l.01.02c.03.15.04.3.03.44a1.11 1.11 0 0 1-.26.62l-.14.16-.32.28-.06-.22c.28.03.58.07.83.03h.02c.24.06.23.16.3.24.06.08.1.17.15.25l.24.51.42 1.04c.26.7.5 1.4.75 2.11l.69 2.12.33 1.07c.1.35.22.71.3 1.08l-.07-.08 1.55.61.02.01c.15.1.35.23.46.42.06.1.1.2.11.3.02.1.02.24.02.28v.04a.81.81 0 0 1-.3.54c-.15.13-.32.21-.5.28-.35.14-.7.22-1.06.3-.71.16-1.42.24-2.13.4l.07-.19c.42.5.86 1 1.33 1.45l.73.66c.25.22.5.48.65.78v-.01c.22.28.45.58.54.96l-.1-.06a.99.99 0 0 0 .26-.14l-.01.01c.17-.25.5-.34.78-.27a.7.7 0 0 1 .46.28c.12.14.15.34.17.5.04.35-.03.71-.19 1.02a3.83 3.83 0 0 1-1.44 1.42.8.8 0 0 1-.46.2c-.17.03-.34 0-.5 0v-.01h-.01c-.28-.08-.51-.24-.75-.38l.06-.01c-.06.08-.06.18-.03.29 0 .21.03.42.13.6s.23.35.35.52c.12.14.27.29.31.5.04.2-.01.41-.17.57-.15.16-.37.2-.55.22-.2.02-.39.03-.58.02-.39 0-.79-.1-1.14-.25-.36-.14-.7-.36-.94-.7l.11.02c-.19.15-.41.2-.57.33h-.02c-.54.2-1.16.4-1.76.16-.5-.18-.91-.55-1.22-.96-.3-.42-.53-.9-.7-1.38a2.1 2.1 0 0 1 .14-1.56c.22-.48.55-.89.9-1.25l.5-.6v.02c0-.06 0-.16-.02-.25l-.07-.26-.15-.54-.35-1.06.07.04c-.23 0-.4-.06-.59-.1-.3-.05-.52-.27-.71-.46-.2-.2-.36-.43-.52-.66-.32-.45-.6-.93-.88-1.41a59.97 59.97 0 0 1-1.52-2.95l-1.45-2.99c-.25-.5-.5-.99-.76-1.47s-.52-.98-.88-1.4z"/><path fill="#FFB533" d="M57.69 107.56c.32.49.37.7.4.8.04.22.08.42.21.5.15.2.39.25.62.32-.08.12-.3.17-.37.3-.24-.06-.95-.8-1.34-1.59-.18-.29-.54-.43-.83-.26-.3.18-.46.43-.37.85.21.95.18 1.84.2 2.39-.04.34.03.66.2.95-.39-.25-.94-1.78-1.4-3.34-.06-.32-.44-.56-.87-.47-.31.07-.56.45-.49.77.05.21-.34.95-.75 1.6a.82.82 0 0 0-.1.57c.1.42.37.7.63.85-.1.03-.1.03-.13-.08-.23-.06-.54-.43-.98-1.44-.22-.5.22-1.04.84-1.73.44-.53.79-.94.8-1.38a7.44 7.44 0 0 0-.57-2.64l.63-.14.74-.16a9.28 9.28 0 0 0 2.48 2.77c.12.09.3.38.45.56z"/><path fill="#ED1C24" d="M51.88 90.86c.03.2-.08.18-.05.38s.27.38.5.45c.32.06.55.14.77.21-.1.01-.3.14-.5.17-1.52.18-.62.18-.55.67l.04.3c.05.3.18.5.4.57.7.32 3.25 7.99 3.79 8.02.03.2.15.29.37.36l1.03.48-1.15.15-3.04.37c-1.14.25-1.7.11-1.92.04 0 0-.12-.09-.23-.07-1.3-.15-4.53-8.75-5.72-10.33l6.26-1.77z"/><linearGradient id="a" gradientUnits="userSpaceOnUse" x1="29.84" y1="85.89" x2="57.84" y2="52.7" gradientTransform="scale(-1) rotate(-40.16 -171.68 165.54)"><stop offset="0" stop-color="#eb6e27"/><stop offset=".25" stop-color="#eb6a27"/><stop offset=".51" stop-color="#ec5d26"/><stop offset=".78" stop-color="#ec4825"/><stop offset="1" stop-color="#ed3024"/></linearGradient><path fill="url(#a)" d="M42.48 68.72l44.9-36.75 14.25-6.22-12.3-.45-41.6 29.87-11.3 12.21z"/><linearGradient id="b" gradientUnits="userSpaceOnUse" x1="13.54" y1="93.18" x2="70.52" y2="76.63" gradientTransform="rotate(16.2 35.1 73.54)"><stop offset="0" stop-color="#eb6e27"/><stop offset=".16" stop-color="#eb5d26"/><stop offset=".51" stop-color="#ec3925"/><stop offset=".81" stop-color="#ed2424"/><stop offset="1" stop-color="#ed1c24"/></linearGradient><path fill="url(#b)" d="M31.31 90.81l-8.81-8.26-8.78-2.93-4.8-6.81 4.92-2.31 6.03-1.06 13.45-.24 4.62-2.7 5.87 1.81 6.68 3.38 10.82 7.12.36 6.02-2.17 11.5s5.58 4.59 8.75 4.34c.25 1.08-8.42 5.6-8.42 5.6l-9.74-5.96L43.87 92l-12.56-1.19z"/><linearGradient id="c" gradientUnits="userSpaceOnUse" x1="83.25" y1="79.32" x2="137" y2="79.32"><stop offset="0" stop-color="#eb6e27"/><stop offset=".12" stop-color="#eb5b26"/><stop offset=".34" stop-color="#ec4025"/><stop offset=".56" stop-color="#ed2c25"/><stop offset=".78" stop-color="#ed2024"/><stop offset="1" stop-color="#ed1c24"/></linearGradient><path fill="url(#c)" d="M106.67 98l-10 2-13.42.31.94-15.19s19.4-12.95 24.81-11.95l8.5-7.34-2.67 6.59-10.5 10.41 8.59-2.41 7.66-5.84 2.53-7.16 7.9-9.09-2.5 7.5 5-2.83-3.76 9.5 7.25-4.67-8.25 13.25-16.34 8.42 10.93-2.64 12.16-5.53-8.4 8.64s-16.68 6.2-24.77 6.45 4.34 1.58 4.34 1.58z"/><linearGradient id="d" gradientUnits="userSpaceOnUse" x1="45.98" y1="70.28" x2="138.86" y2="31.65" gradientTransform="rotate(-7.42 80.36 56.35)"><stop offset="0" stop-color="#eb6e27"/><stop offset=".12" stop-color="#eb5b26"/><stop offset=".34" stop-color="#ec4025"/><stop offset=".56" stop-color="#ed2c25"/><stop offset=".78" stop-color="#ed2024"/><stop offset="1" stop-color="#ed1c24"/></linearGradient><path fill="url(#d)" d="M85.13 72.46c-.21 2.04-19.75 5.32-19.75 5.32L54.5 73.97 44.25 68 77.5 39.75l14.38-10 20-5.25 18-9.38-7.21 11.73 2.83-.35 7.5-3.88v7.25l-26.38 15.88 9.38-.25-1.75 1.88-18.5 6.5L112.63 52l-13.3 5.7s10.22-2.42 7.42-.45c-6.92 4.87-21.42 13.17-21.63 15.21z"/><path fill="#FFB533" d="M13.61 80l-7.67-1.2s-2.19-1.58-1.63-3.52c.48-1.63 7.1-1.47 8-.53s1.3 5.25 1.3 5.25z"/><linearGradient id="e" gradientUnits="userSpaceOnUse" x1="3.27" y1="25.98" x2="59.34" y2="51.97" gradientTransform="rotate(-54.87 32.52 37.13)"><stop offset="0" stop-color="#eb6e27"/><stop offset=".12" stop-color="#eb5b26"/><stop offset=".34" stop-color="#ec4025"/><stop offset=".56" stop-color="#ed2c25"/><stop offset=".78" stop-color="#ed2024"/><stop offset="1" stop-color="#ed1c24"/></linearGradient><path fill="url(#e)" d="M47.13 43.88l7.37.24.45 4.75C50 51.63 34.91 69.13 34.91 69.13L15.44 70l-.82-33.75s-5.75-11.12-4.88-13.5 6.51-3.63 6.51-3.63l12.5-1.37 3.37-3.5 9-4-8 11.88 11.13-7.75-8.88 14 21.63-10-16.88 13.25 10.76-4.75-10.26 7.25L49 35l8 1.75-9.88 7.13z"/><ellipse fill="#3FA9F5" cx="16.4" cy="74.07" rx="1.4" ry=".99"/><path fill="#FFB533" d="M71.46 109.25l-2.77.72-.24 3.15-3.95 2.13-2.44-1.63.44-4.06-2.07-3.77 4.07-1.1 4.94 2.12z"/><linearGradient id="f" gradientUnits="userSpaceOnUse" x1="59.6" y1="97.98" x2="89.29" y2="92.81" gradientTransform="rotate(-170.13 74.28 92.07)"><stop offset="0" stop-color="#eb6e27"/><stop offset=".25" stop-color="#eb6b27"/><stop offset=".46" stop-color="#eb6026"/><stop offset=".66" stop-color="#ec4f26"/><stop offset=".84" stop-color="#ec3725"/><stop offset="1" stop-color="#ed1c24"/></linearGradient><path fill="url(#f)" d="M61.54 82.15l2.51 3.18 9.05-4.41-4.18 5.47 10.3-2.8 10.53-6.39-5.14 7.64-1.36 15.47-23.63-4.59z"/><linearGradient id="g" gradientUnits="userSpaceOnUse" x1="112.83" y1="104.25" x2="119.33" y2="104.25" gradientTransform="rotate(26.27 116.1 104.28)"><stop offset="0" stop-color="#eb6e27"/><stop offset=".12" stop-color="#eb5b26"/><stop offset=".34" stop-color="#ec4025"/><stop offset=".56" stop-color="#ed2c25"/><stop offset=".78" stop-color="#ed2024"/><stop offset="1" stop-color="#ed1c24"/></linearGradient><path fill="url(#g)" d="M119 105.69c-.4.78-2 .77-3.62-.02-1.6-.8-2.6-2.07-2.21-2.86s2-.77 3.61.02 2.6 2.08 2.22 2.86z"/><path d="M119.03 105.71l-.1.14c-.06.1-.2.2-.4.34-.2.07-.46.2-.78.24a3.8 3.8 0 0 1-2.24-.35c-.1-.05-.2-.09-.31-.16l-.27-.18a7.89 7.89 0 0 1-1.54-1.5c-.15-.2-.29-.42-.38-.67-.06-.12-.07-.27-.1-.4 0-.15.04-.3.07-.45.12-.17.12-.22.23-.34.12-.1.27-.23.4-.28l.4-.14.4-.05a4.72 4.72 0 0 1 2.2.4c.2.09.44.2.6.32a4.19 4.19 0 0 1 1.62 1.62c.16.28.21.55.28.76 0 .23.02.4-.03.52l-.05.18zm-.07-.04l.04-.16c.05-.1.02-.27-.03-.46-.08-.2-.21-.4-.41-.6-.2-.2-.46-.4-.76-.58-.3-.19-.57-.37-.96-.56-.35-.18-.73-.13-1.14-.27-.4-.15-.83-.04-1.26-.04h-.32l-.3-.16c-.1.02-.14-.06-.23-.04-.08.03-.2.15-.24.16-.2.31-.07.81.22 1.17.28.37.65.65 1.04.85.35.2.83.39 1.16.5.37.16.73.28 1.05.39.33.11.64.2.92.23.29.04.54.02.74-.04.17-.08.32-.15.38-.26l.1-.13z"/><linearGradient id="h" gradientUnits="userSpaceOnUse" x1="128.67" y1="103.67" x2="133" y2="103.67" gradientTransform="rotate(-27.86 130.82 103.67)"><stop offset="0" stop-color="#eb6e27"/><stop offset=".12" stop-color="#eb5b26"/><stop offset=".34" stop-color="#ec4025"/><stop offset=".56" stop-color="#ed2c25"/><stop offset=".78" stop-color="#ed2024"/><stop offset="1" stop-color="#ed1c24"/></linearGradient><path fill="url(#h)" d="M132.75 102.65c-.26-.48-1.33-.43-2.38.13-1.06.56-1.71 1.41-1.45 1.9s1.32.43 2.38-.13c1.06-.56 1.7-1.4 1.45-1.9z"/><path d="M132.73 102.84c0 .02-.08-.26-.34-.33a1.86 1.86 0 0 0-1.08.15c-.21.09-.44.15-.68.26-.22.09-.53.2-.76.35-.26.13-.5.33-.68.57-.18.24-.29.58-.15.78.03 0 .1.11.16.12.06 0 .08.03.15.04.13.02.27.02.41 0 .28-.03.57-.1.83-.2s.51-.23.74-.35c.25-.13.43-.26.63-.38.38-.24.67-.35.77-.6.08-.27-.02-.25 0-.25v-.16zm.04-.2c-.01 0 .1.16.05.46-.04.14-.08.32-.18.5a2.89 2.89 0 0 1-1.05 1.08c-.25.16-.52.3-.83.38-.3.1-.64.16-.98.17a1.8 1.8 0 0 1-.54-.1c-.08-.02-.2-.1-.27-.16-.09-.08-.09-.11-.17-.23-.14-.41.08-.74.26-1 .21-.25.42-.49.65-.7.25-.22.45-.39.73-.53a2.46 2.46 0 0 1 1.47-.3c.2.02.37.09.51.14.29.14.34.3.35.29z"/><linearGradient id="i" gradientUnits="userSpaceOnUse" x1="116.08" y1="54.25" x2="121.17" y2="54.25"><stop offset="0" stop-color="#eb6e27"/><stop offset=".12" stop-color="#eb5b26"/><stop offset=".34" stop-color="#ec4025"/><stop offset=".56" stop-color="#ed2c25"/><stop offset=".78" stop-color="#ed2024"/><stop offset="1" stop-color="#ed1c24"/></linearGradient><ellipse fill="url(#i)" cx="118.63" cy="54.25" rx="2.54" ry=".92"/><path d="M121 54.26s.1.04.07.13c0 .07-.06.2-.17.31-.13.11-.27.23-.47.35-.2.11-.43.24-.7.32-.27.08-.57.13-.9.12-.35 0-.62-.08-.99-.17l-1.02-.3c-.17-.08-.35-.12-.52-.24a.73.73 0 0 1-.42-.53c.04-.2-.01-.19.09-.35a.93.93 0 0 1 .25-.3c.17-.16.34-.23.52-.32a5 5 0 0 1 2.1-.33 3.55 3.55 0 0 1 1.62.49c.2.13.36.24.49.36.1.11.1.22.12.31.02.1-.07.14-.07.14v.01zm0-.01s.05-.04.03-.1c-.02-.08-.08-.04-.2-.1-.25-.16-.68-.05-1.19-.05h-.82c-.29 0-.6-.13-.9-.1-.33 0-.64 0-.95.07-.15.05-.31.06-.43.12a.5.5 0 0 1-.14.04c-.05-.04-.09.17-.11.13-.04.17.3.45.6.54.33.11.67.15 1 .12.3 0 .67-.06.93-.09.3-.01.57-.04.83-.04.25 0 .49-.01.7-.04.2-.03.4-.07.52-.15.12-.08.14-.15.16-.24.02-.08-.03-.12-.03-.12v.01z"/><linearGradient id="j" gradientUnits="userSpaceOnUse" x1="128.67" y1="47.55" x2="135" y2="47.55" gradientTransform="rotate(-40.12 131.84 47.56)"><stop offset="0" stop-color="#eb6e27"/><stop offset=".12" stop-color="#eb5b26"/><stop offset=".34" stop-color="#ec4025"/><stop offset=".56" stop-color="#ed2c25"/><stop offset=".78" stop-color="#ed2024"/><stop offset="1" stop-color="#ed1c24"/></linearGradient><path fill="url(#j)" d="M134.25 45.52c.4.47-.37 1.76-1.7 2.89-1.34 1.12-2.74 1.66-3.14 1.2-.4-.48.37-1.77 1.7-2.9 1.35-1.12 2.75-1.66 3.14-1.19z"/><path d="M134.25 45.52s.2.2.08.59c-.1.38-.37.88-.77 1.42a8.9 8.9 0 0 1-1.62 1.66 5.3 5.3 0 0 1-1.15.71c-.22.1-.45.19-.72.22-.26 0-.6.1-.98-.32a.95.95 0 0 1-.15-.5c0-.17.03-.31.07-.44.08-.26.2-.47.34-.67.26-.4.57-.73.9-1.01.63-.58 1.3-1.01 1.9-1.31.61-.31 1.15-.5 1.54-.52.4-.05.57.18.56.17zm0 0c.01.01-.16-.21-.56-.15-.38.03-.9.26-1.44.64a8.54 8.54 0 0 0-2.31 2.54c-.19.33-.34.77-.21.85-.07-.08.1.04.26 0 .17-.02.36-.07.55-.13a7.66 7.66 0 0 0 2.9-1.85c.46-.47.77-.94.87-1.32.13-.38-.07-.59-.06-.58z"/><linearGradient id="k" gradientUnits="userSpaceOnUse" x1="89.33" y1="106.01" x2="92.17" y2="106.01"><stop offset="0" stop-color="#eb6e27"/><stop offset=".12" stop-color="#eb5b26"/><stop offset=".34" stop-color="#ec4025"/><stop offset=".56" stop-color="#ed2c25"/><stop offset=".78" stop-color="#ed2024"/><stop offset="1" stop-color="#ed1c24"/></linearGradient><ellipse fill="url(#k)" cx="90.75" cy="106.01" rx="1.42" ry="1.32"/><path d="M92.2 106.01s0 .14-.05.37c-.02.13-.07.27-.14.44-.09.15-.2.33-.4.47-.18.14-.42.24-.68.25h-.22l-.18-.04c-.11-.02-.27-.1-.39-.15a1.87 1.87 0 0 1-.94-1.34c-.04-.27.04-.62.2-.88.18-.25.43-.44.7-.57a1.57 1.57 0 0 1 1.53.16c.18.15.3.33.38.48.08.17.12.31.14.44.05.23.04.37.04.37zm-.06 0l-.01-.1c-.02-.05-.01-.15-.07-.25-.03-.1-.13-.21-.23-.32-.11-.1-.26-.2-.42-.26-.19-.05-.3-.1-.53-.12a1.34 1.34 0 0 0-1.12.43c-.14.18-.24.35-.29.62-.02.24.04.5.18.7.14.2.37.33.6.4.11 0 .19.03.32.02h.18l.13-.03c.2-.02.37-.1.54-.15.16-.07.3-.16.42-.26.1-.11.2-.22.23-.33.05-.1.05-.2.06-.26l.01-.09z"/><linearGradient id="l" gradientUnits="userSpaceOnUse" x1="76.33" y1="16.75" x2="80.67" y2="16.75" gradientTransform="rotate(27.29 78.5 16.75)"><stop offset="0" stop-color="#eb6e27"/><stop offset=".12" stop-color="#eb5b26"/><stop offset=".34" stop-color="#ec4025"/><stop offset=".56" stop-color="#ed2c25"/><stop offset=".78" stop-color="#ed2024"/><stop offset="1" stop-color="#ed1c24"/></linearGradient><path fill="url(#l)" d="M80.43 17.74c-.24.45-1.29.37-2.35-.17-1.06-.55-1.74-1.36-1.5-1.81.23-.45 1.28-.37 2.34.17 1.06.55 1.74 1.36 1.5 1.81z"/><path d="M80.45 17.77l-.07.09c-.03.06-.14.12-.28.2-.14.04-.31.1-.52.13-.2.02-.45.04-.7 0a2.17 2.17 0 0 1-.77-.25c-.3-.15-.46-.32-.71-.56-.23-.22-.44-.46-.65-.7-.1-.13-.21-.25-.29-.42a.74.74 0 0 1-.07-.6c.11-.15.07-.15.19-.25.09-.07.23-.16.3-.18.2-.07.38-.08.57-.09a3.82 3.82 0 0 1 1.82.55 2.67 2.67 0 0 1 1.04 1.1c.1.2.15.36.18.5.02.16.05.27 0 .35l-.03.12zm-.06-.04l.02-.1c.03-.07 0-.17-.05-.29-.11-.23-.45-.45-.85-.65l-.63-.33-.7-.32a3.38 3.38 0 0 0-.78-.24c-.13-.01-.26-.03-.37-.02l-.12-.01c-.04-.04-.15.12-.15.08-.12.12-.03.48.16.69.2.22.44.4.7.5.23.12.56.23.77.3l.65.29c.39.2.77.35 1.02.3.12-.03.22-.06.26-.13l.08-.08z"/><linearGradient id="m" gradientUnits="userSpaceOnUse" x1="64.6" y1="29.51" x2="69.42" y2="31.99" gradientTransform="rotate(-11.51 67 30.77)"><stop offset="0" stop-color="#eb6e27"/><stop offset=".12" stop-color="#eb5b26"/><stop offset=".34" stop-color="#ec4025"/><stop offset=".56" stop-color="#ed2c25"/><stop offset=".78" stop-color="#ed2024"/><stop offset="1" stop-color="#ed1c24"/></linearGradient><path fill="url(#m)" d="M69.94 30.15c.12.59-1.1 1.33-2.72 1.66-1.63.33-3.04.13-3.16-.46-.12-.59 1.1-1.33 2.72-1.66 1.63-.33 3.04-.13 3.16.46z"/><path d="M70 30.15c0-.02.06.25-.2.58-.22.31-.62.76-1.22 1.1a3.14 3.14 0 0 1-1.6.4c-.21 0-.42 0-.63-.02l-1.26-.13c-.22-.03-.44-.06-.66-.14-.22-.06-.51-.18-.64-.54-.02-.14-.03-.1-.03-.24 0-.11.03-.2.06-.26.05-.15.13-.27.2-.38.17-.2.36-.36.55-.5.39-.26.79-.45 1.18-.6a5 5 0 0 1 2.28-.3c.68.1 1.22.34 1.56.54.17.11.29.22.34.32.05.1.06.16.06.16l.01.02v-.01zm-.1-.15v.08c-.01.02-.03-.19-.4-.28-.33-.12-.86-.02-1.44.14-.58.13-1.27.26-1.98.46-.36.1-.72.22-1.06.38-.31.15-.66.38-.69.51-.02.07.08.22.24.31.17.09.36.14.56.18.4.05.8 0 1.17-.1l.54-.18.52-.17c.33-.1.64-.19.93-.24.59-.12 1.12-.3 1.38-.55.3-.23.2-.54.22-.54z"/><g><linearGradient id="n" gradientUnits="userSpaceOnUse" x1="57.78" y1="9.01" x2="64.22" y2="12.33" gradientTransform="rotate(-40.87 61 10.66)"><stop offset="0" stop-color="#eb6e27"/><stop offset=".12" stop-color="#eb5b26"/><stop offset=".34" stop-color="#ec4025"/><stop offset=".56" stop-color="#ed2c25"/><stop offset=".78" stop-color="#ed2024"/><stop offset="1" stop-color="#ed1c24"/></linearGradient><path fill="url(#n)" d="M64.02 8.05c.55.62-.37 2.3-2.04 3.75s-3.46 2.11-4 1.48.37-2.3 2.04-3.75 3.46-2.1 4-1.48z"/><path d="M64.04 8.03s.05.06.1.18c.07.13.08.34.05.6-.07.5-.36 1.19-.87 1.9a7.82 7.82 0 0 1-2.22 1.94c-.47.26-.96.53-1.5.73-.26.1-.54.2-.83.22-.29.04-.63.05-.9-.24a.86.86 0 0 1-.2-.45c-.03-.17-.01-.33.01-.48.06-.3.18-.58.3-.84a7.4 7.4 0 0 1 2.13-2.46c.38-.32.8-.57 1.18-.78.78-.4 1.5-.58 2.01-.58.26 0 .46.05.58.13.12.07.16.14.16.13zm-.04.03c0 .02-.19-.26-.7-.2a4.2 4.2 0 0 0-1.8.85c-.68.48-1.45 1.07-2.16 1.84-.35.37-.69.79-.97 1.25-.24.44-.54 1-.28 1.4.11.15.4.24.67.22.27-.02.53-.1.8-.18.5-.2.98-.49 1.39-.82.41-.31.78-.68 1.13-1 .34-.33.65-.66.94-.96.57-.6.97-1.2 1.09-1.68.13-.49-.12-.72-.1-.72z"/></g><g><linearGradient id="o" gradientUnits="userSpaceOnUse" x1="91" y1="20.5" x2="93.25" y2="21.67"><stop offset="0" stop-color="#eb6e27"/><stop offset=".12" stop-color="#eb5b26"/><stop offset=".34" stop-color="#ec4025"/><stop offset=".56" stop-color="#ed2c25"/><stop offset=".78" stop-color="#ed2024"/><stop offset="1" stop-color="#ed1c24"/></linearGradient><ellipse fill="url(#o)" cx="92.13" cy="21.08" rx="1.38" ry=".75"/><path d="M93.52 21.09s.02.1-.08.29a1.37 1.37 0 0 1-1.18.67c-.23 0-.38-.06-.6-.13-.21-.07-.4-.16-.6-.27-.18-.1-.4-.27-.45-.57l.01-.18.1-.23c.07-.1.16-.2.27-.27.2-.14.42-.23.64-.28.22-.05.43-.06.63-.04.17.01.4.06.55.14.33.16.54.39.63.57.1.17.07.3.08.3zm-.04 0c-.02 0 0-.12-.11-.25-.13-.13-.38-.2-.67-.22l-.47-.02c-.16 0-.33 0-.5.03a1.55 1.55 0 0 0-.72.27.31.31 0 0 1-.07.06l-.05.12c-.04.15.08.34.25.43.17.11.37.15.56.15.16 0 .4-.03.54-.05l.46-.05c.3-.02.55-.1.67-.23.12-.12.1-.26.1-.25z"/></g><g><linearGradient id="p" gradientUnits="userSpaceOnUse" x1="122" y1="9.53" x2="125.66" y2="9.53" gradientTransform="rotate(-108.97 123.83 9.53)"><stop offset="0" stop-color="#eb6e27"/><stop offset=".12" stop-color="#eb5b26"/><stop offset=".34" stop-color="#ec4025"/><stop offset=".56" stop-color="#ed2c25"/><stop offset=".78" stop-color="#ed2024"/><stop offset="1" stop-color="#ed1c24"/></linearGradient><path fill="url(#p)" d="M123.24 7.8c.6-.2 1.34.4 1.67 1.36.33.96.11 1.9-.48 2.1-.6.2-1.34-.4-1.67-1.36-.33-.96-.12-1.9.48-2.1z"/><path d="M123.23 7.77c0 .02.13-.07.41-.03.14.02.31.04.48.14a1.74 1.74 0 0 1 .93 1.04c.1.29.11.51.13.83 0 .3-.04.6-.13.89-.08.28-.25.6-.58.75l-.23.07h-.29c-.17-.04-.34-.1-.47-.19-.3-.17-.5-.42-.67-.67a2.4 2.4 0 0 1-.35-.8 2 2 0 0 1 .13-1.4c.07-.18.2-.3.29-.4.19-.2.36-.21.35-.23zm.01.05l-.08.05a.48.48 0 0 0-.21.2.85.85 0 0 0-.15.4 3.57 3.57 0 0 0 .45 1.86c.12.22.28.43.48.58.09.08.2.14.3.18l.16.05h.2c.24-.05.43-.29.52-.55.09-.26.07-.55 0-.8a3.32 3.32 0 0 0-.27-.7 4.56 4.56 0 0 0-.64-1.03.85.85 0 0 0-.37-.24.47.47 0 0 0-.28-.02l-.1.02z"/></g><g><linearGradient id="q" gradientUnits="userSpaceOnUse" x1="134.36" y1="15.78" x2="137.67" y2="15.78"><stop offset="0" stop-color="#eb6e27"/><stop offset=".12" stop-color="#eb5b26"/><stop offset=".34" stop-color="#ec4025"/><stop offset=".56" stop-color="#ed2c25"/><stop offset=".78" stop-color="#ed2024"/><stop offset="1" stop-color="#ed1c24"/></linearGradient><ellipse fill="url(#q)" cx="136.01" cy="15.78" rx="1.65" ry="2.26"/><path d="M137.7 15.78l-.04.53c-.03.17-.03.39-.12.62a2 2 0 0 1-.37.76 1.4 1.4 0 0 1-.9.53c-.1 0-.17.03-.31.02l-.26-.06c-.17-.07-.4-.16-.52-.3-.31-.25-.51-.6-.66-.95a3.88 3.88 0 0 1-.3-1.15c-.01-.39 0-.82.16-1.2.15-.4.38-.76.72-1 .33-.26.8-.4 1.17-.29.15.01.4.13.54.22.14.11.29.21.37.35.2.25.3.53.37.76.08.24.08.45.11.62.03.34.03.54.03.54zm-.06 0s0-.2-.07-.52a2.11 2.11 0 0 0-.23-.55c-.1-.2-.27-.4-.47-.56-.08-.1-.2-.15-.31-.22-.13-.04-.17-.11-.36-.12-.28-.06-.54.02-.8.19a1.7 1.7 0 0 0-.61.74c-.17.3-.23.66-.3 1.04 0 .36.01.75.17 1.09.13.34.37.64.67.8.15.1.27.1.42.14l.26.02.19-.04c.26-.06.5-.2.68-.38a2.14 2.14 0 0 0 .7-1.11c.04-.16.04-.3.05-.39l.01-.13z"/></g><g><linearGradient id="r" gradientUnits="userSpaceOnUse" x1="105.38" y1="67.38" x2="108.25" y2="67.38"><stop offset="0" stop-color="#eb6e27"/><stop offset=".12" stop-color="#eb5b26"/><stop offset=".34" stop-color="#ec4025"/><stop offset=".56" stop-color="#ed2c25"/><stop offset=".78" stop-color="#ed2024"/><stop offset="1" stop-color="#ed1c24"/></linearGradient><ellipse fill="url(#r)" cx="106.81" cy="67.38" rx="1.44" ry="1"/><path d="M108.27 67.38s.02.12-.06.33a1.33 1.33 0 0 1-1.24.87c-.27.01-.44-.05-.7-.14a2.5 2.5 0 0 1-.63-.39 1.04 1.04 0 0 1-.4-.7c0-.11 0-.23.06-.4.07-.14.15-.27.25-.36.2-.2.45-.32.7-.4.24-.07.49-.1.72-.06a1.37 1.37 0 0 1 1.24.91c.08.2.05.34.06.34zm-.04 0c-.02 0 .01-.13-.1-.3-.05-.1-.15-.17-.27-.23a1.27 1.27 0 0 0-.42-.14c-.18-.03-.28-.06-.5-.06-.19-.01-.38 0-.57.04-.19.04-.38.11-.53.23-.09.05-.15.13-.2.2-.06.03-.1.15-.13.27-.03.16.07.4.23.55.16.15.4.22.6.24.17.01.45 0 .6-.03.18-.02.35-.06.5-.1.16-.03.31-.07.43-.14.11-.07.22-.15.26-.23.11-.17.08-.32.1-.3z"/></g><g><linearGradient id="s" gradientUnits="userSpaceOnUse" x1="135.01" y1="76.63" x2="139" y2="76.63"><stop offset="0" stop-color="#eb6e27"/><stop offset=".12" stop-color="#eb5b26"/><stop offset=".34" stop-color="#ec4025"/><stop offset=".56" stop-color="#ed2c25"/><stop offset=".78" stop-color="#ed2024"/><stop offset="1" stop-color="#ed1c24"/></linearGradient><ellipse fill="url(#s)" cx="137.01" cy="76.63" rx="1.99" ry="1.15"/><path d="M139.02 76.63c-.02 0 .03.16-.12.42a1.92 1.92 0 0 1-.91.78c-.23.1-.5.15-.8.16a3.63 3.63 0 0 1-1.74-.55c-.25-.18-.54-.4-.57-.84l.01-.23.12-.3c.11-.14.23-.28.37-.38.28-.2.6-.33.91-.4.31-.08.62-.1.91-.07a2.3 2.3 0 0 1 1.38.57c.16.13.25.29.33.4.14.26.1.44.11.44zm-.04 0l-.03-.11a.51.51 0 0 0-.12-.27.97.97 0 0 0-.38-.28 4.37 4.37 0 0 0-2.05-.18 2.1 2.1 0 0 0-.77.27c-.12.06-.22.15-.31.24a1 1 0 0 1-.1.12l-.07.23c-.04.21.16.52.4.67.24.17.54.24.82.26a5.96 5.96 0 0 0 1.5-.13c.44-.06.8-.23.96-.44a.5.5 0 0 0 .12-.27l.03-.12z"/></g><g><linearGradient id="t" gradientUnits="userSpaceOnUse" x1="118.63" y1="71.9" x2="119.83" y2="71.9"><stop offset="0" stop-color="#eb6e27"/><stop offset=".12" stop-color="#eb5b26"/><stop offset=".34" stop-color="#ec4025"/><stop offset=".56" stop-color="#ed2c25"/><stop offset=".78" stop-color="#ed2024"/><stop offset="1" stop-color="#ed1c24"/></linearGradient><ellipse fill="url(#t)" cx="119.23" cy="71.9" rx=".6" ry=".56"/><path d="M119.85 71.9l-.03.15a.4.4 0 0 1-.05.18.4.4 0 0 1-.17.22.45.45 0 0 1-.3.1c-.15.03-.2-.04-.32-.07-.1-.08-.22-.13-.27-.25-.1-.08-.1-.2-.15-.33.02-.15 0-.23.09-.37.06-.15.19-.2.3-.27.12-.03.23-.08.37-.04.1.02.18.04.28.12.1.06.14.14.17.21l.06.19c0 .1.02.16.02.16zm-.03 0l-.04-.15c0-.05-.06-.09-.1-.13a.3.3 0 0 0-.17-.1c-.05-.03-.14-.03-.24-.05-.06-.03-.15.03-.23.03-.07.04-.17.07-.2.14-.08.02-.11.18-.15.26.01.1 0 .2.08.29.05.1.16.12.23.16.1 0 .25.02.28 0 .08-.03.16-.03.22-.07.07-.03.14-.05.17-.1.05-.04.1-.08.1-.14l.05-.14z"/></g><g><linearGradient id="u" gradientUnits="userSpaceOnUse" x1="135.01" y1="57.83" x2="137.67" y2="57.83"><stop offset="0" stop-color="#eb6e27"/><stop offset=".12" stop-color="#eb5b26"/><stop offset=".34" stop-color="#ec4025"/><stop offset=".56" stop-color="#ed2c25"/><stop offset=".78" stop-color="#ed2024"/><stop offset="1" stop-color="#ed1c24"/></linearGradient><ellipse fill="url(#u)" cx="136.34" cy="57.83" rx="1.33" ry=".5"/><path d="M138 57.84s-.16.02-.17.07c0 .04-.13.1-.19.17-.12.13-.37.3-.66.4-.15.05-.33.07-.5.07-.2 0-.35-.05-.54-.1l-.55-.19c-.1-.03-.2-.06-.28-.12-.1-.07-.2-.1-.23-.34.01-.06-.01-.08.04-.16.03-.08.1-.15.13-.18.1-.09.19-.14.28-.19a2.47 2.47 0 0 1 1.13-.2 1.68 1.68 0 0 1 1.1.51c.06.07.27.13.27.18.01.05.17.07.17.07v.01zm0 0s-.19-.03-.2-.06c0-.04-.14-.09-.2-.12-.14-.08-.42-.1-.69-.07-.25.01-.6 0-.92.03-.16 0-.33.03-.5.06-.07.02-.15.04-.2.08-.05.01-.06.02-.08.01-.02-.02-.04.07-.06.1 0-.05 0 .08.07.12.06.05.14.09.22.13.16.06.35.08.51.05.16 0 .36-.04.5-.06.14-.01.28-.03.42-.02.26.01.5 0 .64-.08.06-.04.28-.07.3-.12 0-.04.2-.06.2-.06z"/></g><g><linearGradient id="v" gradientUnits="userSpaceOnUse" x1="125.59" y1="96.74" x2="131.36" y2="96.74" gradientTransform="rotate(-55.54 125.96 94.84)"><stop offset="0" stop-color="#eb6e27"/><stop offset=".12" stop-color="#eb5b26"/><stop offset=".34" stop-color="#ec4025"/><stop offset=".56" stop-color="#ed2c25"/><stop offset=".78" stop-color="#ed2024"/><stop offset="1" stop-color="#ed1c24"/></linearGradient><path fill="url(#v)" d="M130.58 91.45c.6.42.37 1.82-.53 3.14-.9 1.31-2.13 2.04-2.73 1.62-.61-.42-.37-1.82.53-3.13.9-1.31 2.13-2.04 2.73-1.63z"/><path d="M130.6 91.44l.1.1c.1.07.15.21.23.4.03.19.08.42.06.7a3.67 3.67 0 0 1-.63 1.86c-.22.34-.47.59-.78.88-.31.29-.65.53-1.02.76-.19.1-.39.2-.6.26a.95.95 0 0 1-.74-.1c-.08-.07-.17-.12-.23-.23-.06-.11-.15-.25-.16-.37a2.3 2.3 0 0 1-.03-.7c.06-.44.19-.87.37-1.24.17-.4.38-.73.62-1.03a4.05 4.05 0 0 1 1.54-1.24c.25-.11.49-.15.68-.19.2.02.35 0 .44.07l.15.06zm-.03.04l-.14-.06c-.09-.05-.23-.04-.4-.02-.19.04-.38.14-.59.29-.2.15-.4.34-.61.58a7.03 7.03 0 0 0-1.2 1.71c-.18.33-.31.7-.4 1.09-.03.19-.06.38-.03.56 0 .1.03.15.04.23.02.09.12.17.18.26.23.18.73.1 1.07-.12a3 3 0 0 0 .89-.8c.23-.28.45-.66.61-.94.2-.3.34-.6.48-.88.14-.27.24-.53.31-.78.06-.24.08-.46.06-.64-.05-.17-.08-.31-.17-.37l-.1-.12z"/></g><g><linearGradient id="w" gradientUnits="userSpaceOnUse" x1="73" y1="101.31" x2="76.53" y2="101.31" gradientTransform="rotate(24.2 74.76 101.31)"><stop offset="0" stop-color="#eb6e27"/><stop offset=".12" stop-color="#eb5b26"/><stop offset=".34" stop-color="#ec4025"/><stop offset=".56" stop-color="#ed2c25"/><stop offset=".78" stop-color="#ed2024"/><stop offset="1" stop-color="#ed1c24"/></linearGradient><path fill="url(#w)" d="M76.37 102.04c-.22.5-1.13.6-2.02.2-.89-.4-1.42-1.14-1.2-1.65.23-.5 1.14-.59 2.03-.19s1.42 1.13 1.2 1.64z"/><path d="M76.4 102.05c-.02 0-.04.14-.26.3-.1.07-.23.17-.41.22a1.73 1.73 0 0 1-1.3-.07c-.27-.12-.43-.25-.66-.45-.2-.19-.39-.4-.55-.63-.15-.23-.3-.54-.19-.88l.1-.2.21-.2c.15-.08.3-.15.45-.18a2.39 2.39 0 0 1 1.65.29c.2.1.43.27.57.44.3.34.43.72.45.97.02.26-.08.4-.06.4zm-.05-.02c-.02 0 .08-.13.01-.36-.06-.22-.3-.47-.62-.67-.18-.1-.31-.19-.54-.3a4 4 0 0 0-.64-.23 1.9 1.9 0 0 0-.7-.08c-.12 0-.22.04-.33.07a.74.74 0 0 1-.12.06c-.05.04-.1.12-.13.13-.13.19-.07.47.07.68.14.23.35.4.57.5a6.5 6.5 0 0 0 1.25.44c.37.1.72.11.92.01.21-.1.25-.27.26-.25z"/></g><g><linearGradient id="x" gradientUnits="userSpaceOnUse" x1="77.93" y1="76.38" x2="79.9" y2="76.38" gradientTransform="rotate(-54.94 79.48 77.2)"><stop offset="0" stop-color="#eb6e27"/><stop offset=".12" stop-color="#eb5b26"/><stop offset=".34" stop-color="#ec4025"/><stop offset=".56" stop-color="#ed2c25"/><stop offset=".78" stop-color="#ed2024"/><stop offset="1" stop-color="#ed1c24"/></linearGradient><path fill="url(#x)" d="M79.05 76.4c-.26-.19-.72.02-1.03.47-.32.45-.36.96-.1 1.14.26.18.73-.03 1.04-.48s.35-.95.1-1.14z"/><path d="M79.05 76.4c0 .02-.07-.05-.2-.05s-.3.1-.45.26c-.09.07-.16.16-.24.26-.07.08-.18.2-.24.32a.82.82 0 0 0-.13.4c0 .15.06.31.16.36.16.08.24.02.38-.03.12-.05.23-.14.32-.23.1-.1.19-.2.25-.3l.17-.3c.1-.2.13-.4.09-.52-.04-.12-.12-.16-.11-.16zm0-.02c0 .01.1.04.15.17.07.13.12.35.07.6a1.42 1.42 0 0 1-.44.73c-.12.1-.26.2-.42.25a.8.8 0 0 1-.27.03.5.5 0 0 1-.25-.09c-.17-.14-.18-.32-.18-.48 0-.16.04-.3.08-.46.06-.16.1-.27.2-.4a.95.95 0 0 1 .29-.27.92.92 0 0 1 .57-.15c.16.01.2.08.2.07z"/></g><g><linearGradient id="y" gradientUnits="userSpaceOnUse" x1="104.61" y1="16.59" x2="108.79" y2="16.59" gradientTransform="rotate(74.24 109.25 16.92)"><stop offset="0" stop-color="#eb6e27"/><stop offset=".12" stop-color="#eb5b26"/><stop offset=".34" stop-color="#ec4025"/><stop offset=".56" stop-color="#ed2c25"/><stop offset=".78" stop-color="#ed2024"/><stop offset="1" stop-color="#ed1c24"/></linearGradient><path fill="url(#y)" d="M109.44 16.4c-1.56.43-3.07-.11-3.39-1.22-.3-1.1.7-2.36 2.26-2.8 1.55-.44 3.07.1 3.38 1.21.31 1.1-.7 2.36-2.25 2.8z"/><path d="M109.45 16.43l-.67.15c-.22.02-.49.1-.8.1-.17.01-.34 0-.52-.03a1.7 1.7 0 0 1-.57-.14c-.4-.13-.8-.45-1.02-.92-.04-.14-.1-.2-.13-.4l-.01-.34c.03-.25.07-.57.2-.77.24-.46.6-.82 1-1.13.39-.33.82-.55 1.33-.77.45-.16 1-.3 1.54-.25a2.8 2.8 0 0 1 1.52.51c.45.31.8.88.8 1.38.03.18-.03.56-.1.77-.1.21-.18.43-.33.58-.13.18-.27.31-.43.42-.14.12-.28.21-.42.29-.27.17-.54.24-.74.33l-.65.22zm-.02-.07l.16-.07c.1-.05.27-.09.45-.2a2.7 2.7 0 0 0 .88-.83c.1-.13.17-.27.23-.42.09-.14.11-.3.17-.46.02-.08 0-.14.02-.2a.46.46 0 0 0 0-.25c-.03-.36-.2-.62-.5-.87-.27-.25-.68-.4-1.11-.47-.43-.1-.87-.07-1.38-.01a3 3 0 0 0-1.28.55c-.38.28-.67.67-.75 1.1-.07.2-.05.36-.04.55l.07.32c.02.01.08.14.11.2.16.29.41.51.7.68.13.09.27.18.42.23a2.66 2.66 0 0 0 1.18.24c.21 0 .38-.05.5-.06l.17-.03z"/></g><path fill="none" stroke="#000" stroke-miterlimit="10" d="M13.7 79.83s-3.55.07-5.4-.33-3.17-1.1-2.48-1.57 8.02.27 8.02.27l-.15 1.63z"/><g><path d="M60.42 106.87c.61.89 1.35 1.96 1.5 2.38-.04.15-.17.61-.36.98-.45 1.05-1.14 2.62.04 3.68 2.02 2.06 3.53 1.9 4.46 1.32a2.5 2.5 0 0 0 1.08-1.44c.46.23.8.52 1.24.51a5.07 5.07 0 0 0 2.78-.7c.2-.12.35-.34.33-.58a.63.63 0 0 0-.37-.53l-.06-.1a6.3 6.3 0 0 0-.85-.36c-.56-.17-1.02-.4-1.16-.82-.06-.08-.08-.33-.1-.57-.06-.09-.02-.24-.02-.24.56.16 1.11.33 1.65.25.44-.02.85-.27 1.1-.55.8-1 1.77-2.36.84-3.7-.19-.27-.41-.38-.79-.28-.27.04-.58.23-.66.54-.04.15-.23.52-.38.74-.24-.36-.49-.72-1.13-1.21-.35-.3-.9-.46-1.47-.63-1.44-.37-2.64-1.04-3.33-1.38.63-.38 4.64-2.1 5.37-2.55 2.44-1.39.02-.78-.14-1.44-.06-.09-.1-.57-.76-.68l-.17-.02-1.9.03-.13-.18c-.37-.53-.95-.3-1.53-.07-.2.13-.58.23-.95.33.15-.22.29-.43.38-.74a.97.97 0 0 0-.19-.9c-.41-.39-1.05-.24-1.8-.04.04-.15.15-.22.19-.37l.08-.3c5.17.62 18.28 3.49 20.64 3.44 1.15.05 2.42.05 3.63.2 13.5.95 21.47-3.05 21.72-3.17.37-.18.56-.66.39-.95-.18-.3-.6-.46-1.03-.37-1.52.38-3.28.38-4.85.16 11.47-.57 22.03-5.85 22.64-6.16 3.44-1.72 11.03-9.8 11.46-10.15.32-.29.26-.64.09-.93a.93.93 0 0 0-1.03-.12s-1.47.74-9.04 5.16c-3.63 2.2-8.45 3.47-12.28 4.26 4.65-1.83 10.84-4.8 14.09-8.44 5.3-6.06 9.1-12.76 9.23-12.82.12-.32.07-.67-.23-.9-.3-.23-.72-.14-1.1.05l-6.78 4.9c1.42-3.23 3.52-7.69 4.15-8.5.44-.6.45-1.12-.02-1.38-.54-.36-.96-.53-5.86 3.81a55.13 55.13 0 0 1 3.4-7.37c.13-.32.07-.68-.22-.9-.3-.24-.73-.15-1.1.04-.24.12-5.73 4-8 10.32l-.33.79c-2.01 5.42-2.22 6.15-8.69 10.52a17.78 17.78 0 0 1-9 3.37 26.74 26.74 0 0 0 5.38-4.07c6.03-5.92 8.98-10.05 8.55-12.36-.1-.96-.76-1.26-.94-1.3a.83.83 0 0 0-.66-.04c-.25.12-.49.24-.55.4-3.93 6.5-8.5 7.66-12.22 8.64-1.1.3-2.08.53-3 .86-3.85 1.56-9.53 5.66-9.72 5.88a57 57 0 0 1-6.64 3.83 42.87 42.87 0 0 0 5.15-4.47c3.54-3.67 11.08-7.06 11.08-7.06.37-.18.62-.56.57-.92-.05-.35-.48-.51-.9-.43-.3.03-6.02.87-12.82 6.04-6.05 4.54-12.78 7.43-17.62 8.14 1.3-.8 2.52-1.47 3.07-1.8.85-.6 7.26-3.33 9.1-4.25.37-.19.63-.56.52-1.01-.18-.3-.6-.46-1.02-.38-.8.28-10.52 2.48-12.86 4.14-.95.74-3.02 1.47-5.1 2.2.55-.33.86-.6 1.07-.76.64-.45 3.51-2 5.3-2.9.33-.17.49-.53.3-.82a.98.98 0 0 0-.98-.37c-.24.04-3.53.9-6.49 2.13.52-.43.86-.6.95-.73.3-.28.35-.62.03-.9-.2-.29 10.18-3.45 22.8-6.5 1.25-.8 1.04-1.62.83-1.94-.2-.32-.42-.65-1.48-.97 2.11-.65 4.43-1.3 6.97-2.1 5.27-1.62 6.32-2.27 5.9-3.4-.2-.65-.42-1.14-4.64-.49 3.16-1.13 6.54-2.59 9.91-4.04 1.06-.49 3.16-1.78 2.74-3.24 0-.32-.2-.65-.63-.97 2.32-.97 4.01-1.78 5.07-2.43 1.26-.8 1.68-1.45 1.26-2.1-.42-.65-.84-1.3-5.9-.65 4.64-1.62 8.85-3.07 10.54-4.37 1.27-.97 1.06-1.78.85-2.1-.43-.65-1.06-1.46-9.7.16 2.31-1.62 4-2.59 5.26-3.07 5.28-1.78 21.1-11 22.36-13.6.21-.48 0-.8 0-1.13a2.1 2.1 0 0 0-1.26-.8c-.43 0-.85-.17-2.32.16 1.9-2.27 3.37-4.54 3.16-5.5-.21-.49-.63-.82-1.05-.82-1.06-.16-1.69.5-2.53 1.14-1.69 1.61-4.64 2.75-7.17 3.56 4-4.05 6.32-9.71 5.9-11.17-.2-.64-.63-.97-1.27-.97-1.26-.16-1.9.65-2.32 1.13-.42.49-1.05 1.14-1.69 1.79-4 3.72-9.49 6.47-15.81 8.08-.21 0-.42.17-.85.17-14.13-1.14-26.15 1.94-31.42 8.25-2.74 3.4-12.87 10.52-20.67 15.7-.64-.5-1.69-.65-3.38-.65 1.9-.97 3.38-1.78 4.01-2.6.84-.8.42-1.45.21-1.77-.84-.97-2.74-.65-6.96.16-.42.16-1.05.16-1.47.32.84-.48 1.68-.97 2.52-1.3 7.18-3.71 9.28-5 9.28-6.3 0-.49-.2-.81-.84-1.13-1.26-.65-3.37-.17-8.44 1.29 3.17-1.46 5.28-2.75 6.12-3.88.64-.97.21-1.46 0-1.78-1.05-.81-2.53-.17-6.12 1.3-2.74 1.12-6.53 2.74-9.28 3.07 3.8-2.6 17.09-8.42 22.15-9.55 6.75-1.46 10.12-4.05 10.34-4.2.42-.33.63-.98.2-1.3-.42-.49-1.05-.49-1.68-.33-3.16 1.14-8.86 2.75-10.76 2.75-2.1 0-9.28 2.43-15.6 5.02a20.1 20.1 0 0 1 3.16-1.78c3.8-1.3 12.65-7.93 13.08-8.09.42-.32.63-.97.2-1.3-.42-.48-1.05-.48-1.68-.32-3.59 1.62-8.23 3.4-9.07 3.4-1.7 0-10.34 4.85-15.19 7.77 1.06-2.6 3.16-6.15 5.27-7.6 4.22-2.92 6.75-7.45 6.97-7.77.2-.49 0-.98-.43-1.3a1.56 1.56 0 0 0-1.69.16c-.42.33-7.38 5.5-12.44 9.71.84-1.3 1.69-2.59 2.53-3.23 2.95-2.43 4.43-6.48 4.64-6.64.21-.48 0-.97-.63-1.13-.42-.32-1.06-.16-1.69 0-.84.48-9.07 5.5-10.97 7.44-.84.81-6.53 1.46-9.7 1.78-3.8.32-5.9.65-6.75 1.13-.21.17-.42.33-.84.33-1.9.97-5.7 2.75-4.01 8.09.63 1.78 1.69 3.4 2.53 4.85 2.1 3.24 2.04 8.05 1.48 10.84s1.72 26.83 1.72 26.83c-.78.19-1.43.37-1.82.56-2.35.93-4.27 2.59-4.4 2.68l-.78.61c-.34.25-2.68-.38-3.07.92-.66 1.67.35 3.63.88 3.69s.51-.43 1.12-.6c.62-.18 4.57.83 5.2.86s1 1.63 5.96 2.52c1.7.37 5.2 1.22 5.89 2.59 1.97 2.43 5.2 5.01 6.42 6.54C33.5 95 43.8 91.08 44 93c.56 5.5 16.41 13.87 16.42 13.87zm50.85-81.46c6.33-1.62 12.02-4.37 16.24-8.1-1.48 3.08-4.43 6.96-7.8 8.58-.64.32-.85.81-.43 1.3.22.48.85.64 1.48.64.21 0 5.9-.97 10.34-3.23a20.4 20.4 0 0 1-4.44 4.2c-.63.33-.63.97-.2 1.46.42.49 1.26.49 1.9.32 1.68-.97 3.15-1.45 4.21-1.94-4.22 3.08-14.55 9.23-19.2 10.84-2.1.81-5.27 2.75-9.7 6.31-.42.33-.42.81-.2 1.3.2.48.84.64 1.47.48 5.28-1.13 8.44-1.61 10.34-1.94-2.95 1.62-9.7 3.89-19.2 6.47-.21 0-.42.17-.42.33l-.84.65c-.42.32-.42.8-.21 1.29.2.32.84.65 1.47.48 7.6-1.3 11.6-1.94 13.71-1.94-4 1.94-13.29 5.34-26.78 9.55-.21 0-.43.16-.43.16l-.63.49c-.42.48-.42 1.13 0 1.45.63.33 1.48.33 1.9 0l.42-.32a357 357 0 0 0 20.25-6.96c.21.16.63.16.63.16-.21.33-.84.81-1.47.97a195.23 195.23 0 0 1-25.74 9.07c-.63.16-1.05.8-.84 1.3.21.47.84.8 1.69.64 3.37-.65 6.75-1.46 9.91-1.94-4.43 1.3-8.01 2.26-10.55 2.75-.63.16-1.05.64-1.05 1.13.21.49.84.97 1.48.8 3.16-.31 5.06-.31 6.11-.31-3.16 1.3-11.6 3.07-18.98 4.2a1.8 1.8 0 0 0-.84-.32c-.85 0-4.43-.81-8.65-1.94a8.3 8.3 0 0 0 1.69-.81c.42-.16.63-.65.42-.97 0-.33-.42-.65-1.06-.81-4.85-.97-9.28-2.27-10.75-3.08 3.8-1.78 13.29-10.19 22.99-18.77 1.48-1.45 2.95-2.58 3.8-3.4 5.05-4.36 14.34-12.61 14.34-12.61 0 .32 4.64-3.24 23.62-7.93zM15.09 43.85c.9-2.15.63-9.06-1.69-12.46a14.62 14.62 0 0 1-2.32-4.37c-1.26-3.88.85-4.85 2.74-5.82.43-.16.64-.32.85-.49.63-.32 3.37-.48 5.48-.8 6.12-.65 10.12-1.14 11.6-2.6.85-.96 3.8-2.9 6.33-4.52-.63.8-1.27 1.45-1.9 2.1-2.95 2.43-5.48 9.06-5.7 9.38-.2.49.22.98.64 1.3a2 2 0 0 0 1.69-.33c.84-.8 2.95-2.74 5.7-5-2.54 3.39-4.44 8.08-4.01 9.05.2.32.63.65 1.05.81.42 0 1.05 0 1.48-.49 1.05-.97 14.13-8.57 16.24-9.06.2 0 .63-.16 1.05-.16-1.9 1.14-3.8 2.27-4.85 2.59-3.8 1.3-11.18 7.77-11.81 8.58-.43.48-.43.97 0 1.45.42.33 1.26.33 1.9 0 2.32-1.61 8.22-4.2 13.28-6.14-1.26.48-2.31.97-3.37 1.45-10.76 4.85-10.55 6.31-10.34 6.96 0 .32.43 1.3 2.32 1.3 2.11 0 4.43-.65 6.96-1.46-.63.32-1.26.64-1.9.8-4.63 2.11-5.48 2.43-5.06 3.57 0 .16.43.8 1.7.8 1.26 0 3.8-.8 7.8-1.94 1.9-.48 4.43-1.29 6.32-1.78-1.68 1.14-4.43 2.43-6.32 3.4-6.12 3.24-7.38 3.89-6.96 5.02.42.65 1.05.8 2.32.65 1.9-.17 3.8-.65 5.7-.98.41-.16 1.05-.16 1.68-.32-.85.49-1.69.81-2.32 1.13-2.74 1.46-3.8 1.95-3.37 2.92.42.97 1.9.64 2.53.64 1.68-.32 3.37-.32 4.43-.32v.16c-3.38 2.1-5.91 3.89-7.18 4.53l-1.9.97c-2.1 1.14-11.22 14.3-13.57 14.4v-.1c-2.25.11.82-2.12-.4-3.07-1.13-.88-3.56 2.75-4.16 2.86-4.41.88 1.5-3.58-.53-4.34-1.12-.42-5.6 4.88-5.6 4.88-2.68.3.96-2.48-.72-2.3-1.56.18-3.48 2.61-4.13 2.8-.26 0-.52.1-.66.1 0 0-1.93-23.6-1.02-25.75zm-9.92 34.2c-.4-.64-.66-2.39-.4-2.94.4-.93 3.6-.77 4.25-1.14.65.19 1.82.65 2.48.93.52.28 1.09 2.93 1.09 2.93s-1.43-.07-2.34.03c-2.61.27-4.43-1.1-5.08.2zm63.36 29.42c.63.5.72.82.72.82-.09.3.16.66.5.71.32.06.65.1.92.07-.1.06-.14.22-.35.34-.31.2-1.45-.38-2.48-1.01-.29-.2-.72-.2-.97.09-.25.28-.34.59-.1.94.38.54.55 1.2.65 1.77.08.33.1.58.12.82.2.5.56.8.9 1.1-.49-.08-1.91-1.5-3.2-3.12-.18-.27-.67-.35-1.09-.09-.3.2-.43.65-.25.92.12.18 0 1.27-.25 2.2-.04.15-.02.39.1.57.37.53.93.7 1.53.7l-.21.13c-.73.45-1.96-.7-2.44-1.16-.47-.48-.27-1.24.26-2.2.27-.67.6-1.26.4-1.77-.23-.75-1.1-2-1.65-2.8l1.66-1.03c.74.43 2.22 1.3 4.06 1.82.65-.14.88-.03 1.17.18zM30.7 89.7c-2.81-2.16-3.1-3.63-4.24-4.9-1.22-1.5-6.82-4.54-8.9-5-1.84-.37-2.36-1.13-4.71-1.6 2.01-.17 1.7-.1 1.3-.84s-1.35-2.74-2.4-3.3c-.64-.37-1.56-.64-2.34-.92 1.04-.74 1.74-.95 3.05-1.5.26-.1.91-.29 1.7-.47.13 0 .26 0 .52-.1.52-.09 1.17-.27 1.83-.37h.13c.52-.18 1.04-.27 1.7-.46v.28c.13.28.65.46 1.04.37 0 0 2.87-.65 5.48-1.11-.52.27-1.17.55-1.56.92-.26.28-.26.65 0 .84.39.19.91.19 1.17 0 1.18-.84 2.75-1.4 4.05-1.67h.13c3.4.93 6.81-.86 8.65-2.05.37-.21 10.27-11.83 10.9-12.32C51.8 53.4 74.36 38.67 79 33.17c4-4.69 12.23-7.28 22.35-7.44-13.7 3.88-17.08 6.8-17.3 6.96 0 0-9.27 8.09-14.33 12.62-.85.8-2.32 1.94-3.8 3.4-6.11 5.66-19.2 17.15-22.57 18.44-1.47.48-1.47 1.3-1.47 1.78.2 1.45 3.37 2.91 9.7 4.37-.63.16 4.42 3.98 6.26 4.7 1.85.72.64 3.22.5 3.72-.14.52-.98.08-1.46.17-.36.07-.66.35-.61.56-.04.34.16.63.54.67.27.06 2.73 1.86 4.48.86.55-.32-.46.64-1.82 1.24-.33.17-.52.43-.47.64.08.31.25.5.52.56.38.04.8.18 1.18.21.12-.02.27.07.39.04 1.4-.38 6.44-1.8 8.45-3.28a8.64 8.64 0 0 1 2.56-.82 60.97 60.97 0 0 1-5.9 3.45c-.35.18-.5.54-.33.72.07.32.37.49.75.52.89.05 1.75 0 2.47-.14 5.46-.72 12.81-3.24 19.49-8.35.19-.22.55-.4.74-.63-.43.35-.8.79-1.11 1.07-3.24 3.38-14.09 8.48-18.11 8.93-.36.07-.79.37-.68.8.07.3.42.68.78.61 3.84-.18 16.51-4.04 21.82-7.7.12-.07 5.8-4.17 9.23-5.63.8-.28 1.59-.55 2.69-.85 3.47-.85 8.05-2 12.12-7.45-.65 1.58-2.41 4.49-7.82 9.84-4.35 4.2-7.33 4.8-7.33 4.8-.43.1-.74.38-.86.7-.13.3.1.7.46.77.24.13 6.33 1.5 13.66-3.56 6.85-4.81 7.24-5.77 9.32-11.34l.32-.8a20.73 20.73 0 0 1 4.23-6.78c-1.15 2.34-2.31 5.2-2.29 6.57 1.04-.14 1.21.15 1.52.12.36.08.66.05.97-.23 1.24-1.13 2.73-2.38 3.9-3.34-1.6 3.2-3.77 8.07-4.1 8.86-.12.32-.07.67.35.84.3.23.72.14 1.03-.14l5.99-4.38a78.23 78.23 0 0 1-7.09 9.47c-5.11 5.84-19.34 10.31-19.47 10.37-.42.09-.68.47-.62.82-.07.42.28.74.7.65.49.01 12.1-.87 19.84-5.5 1.79-1.02 3.08-1.8 4.25-2.5-2.61 2.56-5.6 5.31-7.31 6.17-4.05 2.03-16.96 7.1-27.84 5.73-.36-.07-.85.18-.98.5-.13.3-.02.76.34.83.18.04 3.24 1.4 6.68 1.83-3.54 1.01-8.95 1.83-16.1 1.37-1.32-.1-2.6-.09-3.74-.15-2.91-.05-17.96-2.71-24.39-4.1-.78-2.18-3.98-4.03-4.44-4.26-.39-.14-.82-.12-1.11.31-.2.37-.21.77.24 1 .85.37 2.75 1.61 3.51 2.92l-.2.13c-.26.28-.24.52-.05.8l.62.89.12.18.06.08.17.03.06.09.66.1c.5.07 1.1.09 1.6.16-.21.13-.58.23-1.06.4a.56.56 0 0 0-.46.4.55.55 0 0 0 0 .65l.25.35c.12.18.35.3.58.4.93.07 1.94-.17 2.69-.38-.25.28-.67.54-.87.67-.31.19-.4.5-.38.74.02.24.37.53.64.5 1.2.01 2.32-.3 3.1-.65.13.17.3.2.56.16l1.31-.04-1.14.7-3 1.86a19.6 19.6 0 0 1-3.18 1.83l-.1.06s-14.55-7.49-14.61-14.55C41 89.66 33.95 92.21 30.7 89.7z"/><path d="M60.43 106.86l.8 1.17c.25.4.52.78.7 1.22-.11.5-.33.94-.53 1.4a5.7 5.7 0 0 0-.42 1.41c-.06.5 0 1 .27 1.43.3.4.68.72 1.05 1.04.75.61 1.69 1.15 2.69 1.05a2.5 2.5 0 0 0 2.13-1.79v-.02l.03.01c.4.2.77.51 1.23.5.36.01.71 0 1.06-.06a5.59 5.59 0 0 0 1.51-.52c.16-.08.32-.17.41-.32.1-.15.13-.32.08-.5a.66.66 0 0 0-.34-.37v-.01l-.06-.09a7.68 7.68 0 0 0-1.1-.44c-.37-.14-.77-.35-.91-.75-.09-.18-.08-.38-.1-.58v.01c-.05-.08-.04-.17-.03-.26l.01-.02h.02c.54.16 1.1.34 1.65.26.26-.01.5-.1.72-.24.23-.14.4-.33.55-.55.31-.4.61-.84.81-1.32.2-.48.28-1.02.12-1.51-.07-.25-.2-.48-.36-.69-.15-.2-.44-.25-.68-.17-.28.04-.55.22-.64.48-.09.28-.23.54-.38.78l-.03.04-.02-.04a5.1 5.1 0 0 0-1.17-1.23c-.46-.34-1.04-.46-1.58-.64-.55-.16-1.1-.34-1.62-.58-.53-.23-1.04-.49-1.55-.75l-.05-.03.05-.02c1.3-.68 2.65-1.24 3.97-1.87.33-.15.66-.32.98-.48.33-.16.65-.34.96-.54.15-.1.3-.2.43-.32.06-.06.11-.15.08-.2-.05-.05-.15-.08-.23-.1l-.54-.12c-.16-.05-.38-.11-.44-.33v.02c-.05-.11-.07-.2-.13-.3a.68.68 0 0 0-.2-.2 1.31 1.31 0 0 0-.58-.2h.01l-1.9.04h-.02l-.01-.02c-.1-.12-.18-.27-.3-.35a.65.65 0 0 0-.42-.13c-.3 0-.6.13-.9.25h.01c-.3.16-.64.24-.96.33l-.1.03.06-.09c.17-.24.31-.5.38-.79a.94.94 0 0 0-.2-.81h.01c-.22-.2-.55-.24-.85-.21-.3.03-.6.11-.91.19l-.07.02.02-.07c.04-.13.14-.22.17-.32l.1-.35.01-.03h.04c2.22.29 4.44.7 6.64 1.1l6.63 1.22c2.2.4 4.42.83 6.64 1.07l3.37.15c1.12.13 2.23.15 3.36.21 1.12 0 2.24.05 3.36 0 1.12-.03 2.24-.12 3.36-.2a49.57 49.57 0 0 0 6.64-1.09 38.91 38.91 0 0 0 4.8-1.5l.78-.32c.25-.12.53-.22.66-.44.15-.22.19-.52-.01-.71a.94.94 0 0 0-.72-.26c-.53.1-1.1.24-1.66.27-1.12.12-2.25.06-3.37-.09l-.58-.07.59-.05c.82-.07 1.66-.11 2.48-.2.83-.11 1.66-.19 2.48-.34 1.64-.25 3.27-.6 4.88-1a68.97 68.97 0 0 0 11.76-4.14c.75-.35 1.5-.7 2.17-1.2a39.07 39.07 0 0 0 3.85-3.16c1.23-1.12 2.43-2.28 3.61-3.45l1.77-1.77.88-.89c.16-.15.3-.27.35-.45.05-.17-.01-.36-.11-.53l.02.02a.88.88 0 0 0-.66-.2c-.23.03-.44.19-.67.3l-1.34.74-2.66 1.53c-1.78 1.02-3.54 2.06-5.33 3.06-.44.25-.9.5-1.37.7-.46.22-.93.44-1.4.62-.48.19-.95.4-1.44.55-.49.17-.97.35-1.46.5a57.92 57.92 0 0 1-5.95 1.52l-.06-.18c2.51-.98 4.97-2.1 7.32-3.4a36.34 36.34 0 0 0 3.42-2.14 21.38 21.38 0 0 0 3.06-2.6c.46-.49.89-1.02 1.32-1.53l1.27-1.57a89.5 89.5 0 0 0 4.7-6.57l1.1-1.7.53-.86c.2-.3.3-.54.59-.9l-.05.07a.72.72 0 0 0 .03-.46.54.54 0 0 0-.1-.2.39.39 0 0 0-.09-.09.32.32 0 0 0-.09-.06c-.08-.05-.12-.06-.21-.07a.73.73 0 0 0-.24 0c-.16.02-.32.08-.47.16l.01-.01-6.78 4.9-.33.25.16-.38c.74-1.69 1.51-3.37 2.31-5.03.4-.83.8-1.66 1.25-2.48.2-.4.47-.82.72-1.19.11-.18.2-.39.2-.58 0-.2-.12-.36-.3-.46h-.01c-.24-.2-.48-.18-.76-.07-.27.1-.52.27-.77.43-.5.33-.97.7-1.44 1.08-.94.76-1.85 1.56-2.75 2.36l-.3.26.12-.38a28.81 28.81 0 0 1 1.57-3.76c.58-1.23 1.2-2.43 1.84-3.63v.01c.16-.34-.03-.77-.38-.87-.35-.08-.76.08-1.07.33a24.61 24.61 0 0 0-6.5 7.45c-.4.73-.75 1.49-1.04 2.26-.32.78-.62 1.54-.91 2.33-.3.78-.6 1.56-.94 2.32a10.51 10.51 0 0 1-3.07 3.96 50.2 50.2 0 0 1-4.04 2.95c-.7.45-1.37.96-2.12 1.34a17.38 17.38 0 0 1-7.16 2.2l-.4.05.35-.21c.8-.47 1.56-.97 2.31-1.5.38-.27.73-.57 1.1-.85.37-.27.7-.58 1.04-.9 1.38-1.2 2.65-2.56 3.91-3.9a44.23 44.23 0 0 0 3.54-4.23c.53-.74 1.03-1.52 1.43-2.35.38-.81.7-1.72.56-2.61-.04-.14-.04-.28-.1-.4-.03-.13-.1-.25-.16-.36-.15-.22-.38-.4-.61-.47h-.02v-.01a.75.75 0 0 0-.6-.04c-.2.1-.43.2-.5.36l-.01.01c-.35.52-.66 1.07-1.04 1.56-.36.52-.76 1-1.16 1.48-.42.47-.84.93-1.31 1.35a15.64 15.64 0 0 1-4.73 3.01c-1.16.48-2.37.83-3.58 1.15-1.2.31-2.42.62-3.57 1.04-.57.27-1.15.5-1.7.8-.54.3-1.1.56-1.64.89a62.87 62.87 0 0 0-6.22 4.1l-.02.01-1.6 1.05-1.66.98a84.43 84.43 0 0 1-3.38 1.8l-.08-.12c.73-.57 1.47-1.12 2.18-1.73.35-.3.71-.59 1.05-.9s.7-.61 1.02-.94c.67-.65 1.3-1.33 2.02-1.93.7-.6 1.46-1.15 2.22-1.69a59.07 59.07 0 0 1 7.27-4.11c.2-.1.44-.18.62-.3.17-.13.32-.31.38-.52.05-.2 0-.43-.18-.54a.88.88 0 0 0-.63-.1c-1.38.22-2.74.65-4.06 1.13-1.32.5-2.6 1.09-3.85 1.75a40.27 40.27 0 0 0-3.6 2.21c-1.15.83-2.27 1.69-3.44 2.47a49.57 49.57 0 0 1-7.41 4.1 32.23 32.23 0 0 1-8.08 2.52l-.27.03.23-.13 3.06-1.8c.82-.5 1.69-.86 2.54-1.26l2.57-1.16 2.57-1.16 1.28-.6c.22-.1.4-.21.53-.4a.77.77 0 0 0 .12-.63c-.2-.3-.61-.42-.97-.34-1.54.42-3.08.78-4.62 1.2-1.53.42-3.07.86-4.58 1.36-.75.25-1.5.51-2.23.83-.37.16-.73.32-1.07.52-.34.2-.65.46-1.01.63-.7.39-1.45.68-2.19.97l-2.25.81-.28.1.25-.17c.27-.2.56-.36.83-.58.26-.22.57-.37.85-.55.58-.35 1.18-.67 1.78-1l1.8-.95.9-.46c.3-.13.62-.37.56-.7-.07-.32-.42-.52-.73-.55-.33-.02-.66.14-.98.2-.65.2-1.3.36-1.95.58-.64.22-1.3.4-1.93.65l-1.9.72-.25.1.21-.17.48-.37c.16-.12.34-.23.46-.36h.01a.67.67 0 0 0 .23-.42c.02-.16-.08-.3-.2-.41v-.01c.01-.17.1-.12.14-.18l.17-.08.35-.14.7-.25 1.4-.47 2.84-.87a398.44 398.44 0 0 1 17.2-4.59h-.01c.29-.18.56-.4.75-.68.2-.27.28-.63.18-.95-.1-.3-.34-.6-.62-.77-.28-.2-.61-.3-.94-.42l-.15-.05.15-.04c3.13-.97 6.28-1.85 9.39-2.89.77-.26 1.54-.54 2.27-.9a3.6 3.6 0 0 0 1-.67c.3-.28.3-.7.14-1.08-.1-.4-.5-.57-.9-.61-.4-.06-.8-.04-1.21-.02-.82.05-1.63.16-2.44.29l-.52.07.5-.18c1.18-.46 2.38-.89 3.56-1.38 1.18-.47 2.35-.97 3.52-1.46l1.76-.75c.58-.26 1.18-.48 1.72-.8a6.27 6.27 0 0 0 1.5-1.15c.41-.45.72-1.07.55-1.67v-.02c-.01-.38-.3-.69-.6-.92l-.1-.07.1-.04c1.12-.48 2.24-.96 3.33-1.5.54-.26 1.08-.54 1.6-.85a4.27 4.27 0 0 0 1.36-1.15c.16-.24.21-.55.08-.8a1.65 1.65 0 0 0-.56-.66c-.5-.3-1.13-.33-1.73-.36a26.4 26.4 0 0 0-3.62.27l-.63.08.6-.21c1.88-.66 3.77-1.31 5.63-2.02.93-.36 1.86-.73 2.77-1.15a9.5 9.5 0 0 0 2.52-1.54c.33-.34.63-.78.57-1.26a1.21 1.21 0 0 0-.9-.98 5.46 5.46 0 0 0-1.46-.17c-.5 0-1 .03-1.5.07-1.98.18-3.95.51-5.9.87l-.37.07.3-.2 1.75-1.17c.6-.36 1.18-.76 1.81-1.08.61-.35 1.25-.64 1.9-.9.67-.23 1.3-.5 1.95-.79a125.74 125.74 0 0 0 14.63-8.2 54.97 54.97 0 0 0 3.42-2.4c.55-.44 1.1-.88 1.58-1.38.24-.24.47-.52.59-.81.13-.31-.01-.62-.04-1l.01.04c-.27-.4-.73-.65-1.2-.78h.01c-.4-.02-.77-.05-1.16 0-.38.01-.76.11-1.14.17l-.23.03.14-.17c.7-.83 1.35-1.68 1.95-2.57.3-.44.57-.9.81-1.38.22-.47.46-.99.39-1.48v.02c-.17-.4-.54-.75-.97-.76h-.01c-.46-.07-.92.04-1.32.28-.4.23-.76.55-1.14.84-.99.93-2.2 1.59-3.42 2.15-1.23.56-2.5 1.02-3.78 1.43l-.36.11.27-.27a25.3 25.3 0 0 0 4.26-5.88 18.54 18.54 0 0 0 1.4-3.35c.08-.29.16-.58.2-.87.05-.3.09-.6.03-.88-.06-.27-.2-.54-.41-.72-.2-.19-.5-.27-.78-.27h-.01c-.46-.06-.94.02-1.33.26-.4.23-.7.6-1.02.97l-1 1.04c-.32.35-.67.72-1.03 1.02a30.15 30.15 0 0 1-4.7 3.4 41.58 41.58 0 0 1-10.7 4.32h-.04c-.21.03-.54.18-.84.16a62.99 62.99 0 0 0-14.84.47c-2.44.4-4.86.97-7.2 1.8A24.93 24.93 0 0 0 81 29.4c-1 .73-1.9 1.57-2.7 2.5-.8.96-1.74 1.81-2.67 2.63a99.45 99.45 0 0 1-5.84 4.63c-4 2.95-8.1 5.76-12.23 8.5l-.07.05-.07-.05a3.41 3.41 0 0 0-1.57-.53c-.57-.07-1.15-.09-1.73-.09h-.47l.42-.22c.7-.36 1.42-.73 2.1-1.13a11.64 11.64 0 0 0 1.46-1c.16-.13.27-.28.4-.42l.02-.01c.22-.23.42-.49.46-.78.04-.3-.08-.6-.27-.86l.01.01c-.37-.42-.98-.54-1.55-.55-.59-.02-1.18.05-1.77.13-1.18.17-2.36.4-3.53.62h.02c-.26.08-.51.13-.76.17a4.5 4.5 0 0 0-.72.15l-.99.31.9-.52 1.24-.7c.42-.22.85-.42 1.3-.6h-.01c1.6-.83 3.2-1.66 4.77-2.54.79-.43 1.57-.88 2.32-1.37.38-.24.74-.5 1.1-.77.33-.29.66-.6.87-.96.2-.35.22-.83-.03-1.15-.25-.3-.7-.52-1.09-.62a6.77 6.77 0 0 0-2.63.12c-1.76.36-3.5.87-5.23 1.36l-.08-.22a33.92 33.92 0 0 0 4.06-2.15c.32-.2.64-.42.94-.66.15-.1.3-.23.43-.36.14-.13.3-.25.4-.4.13-.15.25-.25.33-.43.11-.18.16-.33.2-.5a.95.95 0 0 0-.03-.51 1.93 1.93 0 0 0-.26-.48l.03.03c-.5-.4-1.21-.38-1.85-.22-.65.15-1.29.4-1.92.63-1.26.5-2.51 1.02-3.77 1.53a62.89 62.89 0 0 1-4.78 1.77c-.33.09-.65.2-.98.28-.66.18-1.34.3-2.01.4l-.53.08.44-.3a40.3 40.3 0 0 1 4.04-2.26 137.74 137.74 0 0 1 12.7-5.55c1.44-.53 2.89-1.05 4.38-1.47l2.24-.57c.75-.17 1.49-.37 2.21-.62l1.1-.35 1.07-.42c.72-.26 1.4-.6 2.1-.93.68-.35 1.35-.7 2-1.12.3-.22.67-.41.86-.68.2-.28.26-.69 0-.88h-.01l-.02-.01c-.09-.1-.2-.19-.31-.25-.13-.06-.26-.1-.4-.12-.28-.03-.57 0-.85.08h.01a78.56 78.56 0 0 1-6.6 2c-1.12.27-2.24.54-3.4.7-.57.08-1.16.03-1.7.15-.56.1-1.12.22-1.68.37a80.3 80.3 0 0 0-6.55 2.08c-2.16.77-4.3 1.6-6.43 2.46l-.11-.21c.67-.43 1.34-.86 2.04-1.24.35-.2.71-.37 1.08-.53.37-.16.75-.27 1.1-.45a39.6 39.6 0 0 0 4.13-2.33c1.34-.84 2.66-1.72 3.96-2.62L62 18.07l.97-.68c.34-.23.63-.45 1.02-.67l-.03.01c.35-.25.56-.84.21-1.1l-.02-.01c-.1-.1-.2-.19-.32-.25s-.25-.1-.39-.12c-.28-.03-.57.01-.85.08h.02a99.7 99.7 0 0 1-6.21 2.54 43.12 43.12 0 0 1-2.4.78c-.28.08-.6.08-.84.13-.52.12-1.04.33-1.55.54-.51.22-1.02.45-1.52.7-4 1.95-7.89 4.19-11.73 6.46l-.31.2.14-.35c.64-1.54 1.43-3 2.35-4.39.47-.69.97-1.36 1.53-1.97.55-.63 1.23-1.16 1.9-1.63 1.33-.97 2.5-2.14 3.59-3.38a29.07 29.07 0 0 0 2.88-4.01v.01c.08-.2.1-.43.01-.63-.07-.21-.22-.39-.4-.53l.01.01c-.3-.16-.66-.2-.99-.12-.34.06-.6.3-.9.52l-1.76 1.32-3.48 2.67c-1.16.9-2.33 1.79-3.46 2.7l-3.42 2.76-.52.42.36-.55c.57-.86 1.12-1.73 1.8-2.51.33-.4.74-.73 1.12-1.07.38-.34.72-.7 1.06-1.09.67-.76 1.24-1.6 1.76-2.48.26-.44.5-.9.74-1.35l.34-.68c.12-.24.19-.44.38-.71l-.03.03c.05-.1.07-.21.08-.32-.01-.11-.03-.22-.1-.3a.9.9 0 0 0-.54-.38h-.02l-.02-.01c-.44-.31-1.06-.12-1.6.01h.02a163.6 163.6 0 0 0-6.35 4c-1.04.7-2.08 1.4-3.08 2.15-.5.38-1 .75-1.44 1.19-.5.46-1.16.55-1.76.72-2.45.55-4.95.82-7.44 1.1-1.25.12-2.5.21-3.74.37-.62.07-1.24.16-1.85.28-.6.12-1.23.24-1.77.53l.01-.01c-.23.2-.56.35-.89.34h.04c-1 .5-2 1.02-2.8 1.8a4.96 4.96 0 0 0-1.53 2.85 7.4 7.4 0 0 0 .34 3.28c.36 1.05.88 2.04 1.43 3 .54.99 1.16 1.92 1.67 2.92.49 1.02.81 2.1 1 3.22.37 2.21.33 4.5-.09 6.7-.13 1.1-.07 2.22-.05 3.33a383.8 383.8 0 0 0 .62 10.05c.35 4.46.74 8.92 1.15 13.38v.04l-.04.01c-.46.12-.93.23-1.38.38-.44.16-.88.37-1.32.56-.85.43-1.67.93-2.45 1.48-.4.28-.76.58-1.14.87l-.57.45c-.17.2-.48.17-.7.17-.48 0-.96-.03-1.43.06-.23.04-.46.1-.65.23a.97.97 0 0 0-.4.54h-.01c-.35.92-.24 1.97.18 2.85.2.4.54 1 1.01.7.18-.13.34-.36.58-.46.25-.13.51-.09.76-.07.99.12 1.95.34 2.93.55l1.45.29c.12.02.25.03.37.06.13.05.23.13.33.2.2.17.38.33.58.47.79.6 1.71.98 2.66 1.28.47.14.95.26 1.43.37l1.46.3c.96.23 1.92.5 2.85.85.47.17.92.37 1.36.62.42.26.84.56 1.1 1.01h-.01c1.23 1.48 2.64 2.8 4.04 4.14.7.66 1.41 1.32 2.06 2.04.6.76 1.3 1.43 2.19 1.85 1.73.87 3.73 1 5.64.98.97-.01 1.93-.08 2.9-.15.96-.07 1.92-.18 2.9-.11.23.02.48.05.7.17.11.05.21.14.26.26.05.12.05.24.07.36.09.47.27.92.49 1.35a11.2 11.2 0 0 0 1.71 2.32 32.77 32.77 0 0 0 4.37 3.8c3.1 2.3 6.41 4.33 9.8 6.17zm-.02.02a89.67 89.67 0 0 1-5.01-2.91 72.45 72.45 0 0 1-4.8-3.26 32.96 32.96 0 0 1-4.38-3.8 11.3 11.3 0 0 1-1.72-2.32c-.22-.43-.4-.89-.49-1.37-.02-.24-.07-.5-.3-.59-.22-.1-.46-.14-.7-.16-.96-.07-1.93.04-2.9.11-.96.07-1.92.14-2.89.16-1.92.02-3.92-.11-5.67-.98a6.47 6.47 0 0 1-2.2-1.86c-.65-.72-1.36-1.38-2.06-2.04-1.4-1.33-2.82-2.65-4.06-4.14v-.01a2.79 2.79 0 0 0-1.07-.98 8.83 8.83 0 0 0-1.34-.62c-.93-.35-1.89-.6-2.85-.83-.48-.12-.97-.21-1.46-.3-.48-.12-.96-.24-1.44-.38a8.94 8.94 0 0 1-2.68-1.28l-.58-.47c-.1-.08-.2-.15-.3-.2-.12-.03-.24-.02-.36-.05-.5-.08-.98-.2-1.46-.3-.97-.2-1.94-.42-2.92-.53-.24-.02-.5-.06-.7.06-.23.09-.37.3-.58.46a.55.55 0 0 1-.73-.11c-.18-.19-.3-.4-.42-.63a3.78 3.78 0 0 1-.18-2.92c.07-.24.23-.46.44-.59.21-.14.45-.2.7-.25.47-.09.96-.06 1.43-.05.25-.01.48.03.65-.16l.56-.44c.38-.3.75-.6 1.15-.88.78-.56 1.6-1.06 2.46-1.5.44-.18.87-.4 1.33-.56.46-.15.92-.26 1.39-.38l-.04.05a843.3 843.3 0 0 1-1.16-13.37 374.53 374.53 0 0 1-.63-10.05c-.02-1.12-.1-2.24.04-3.37.42-2.2.46-4.45.09-6.65-.2-1.1-.51-2.18-1-3.18-.5-.98-1.12-1.93-1.66-2.9a18.26 18.26 0 0 1-1.45-3.04 7.55 7.55 0 0 1-.34-3.34 5.11 5.11 0 0 1 1.58-2.95c.82-.8 1.82-1.33 2.82-1.83l.02-.01h.02c.3 0 .56-.11.79-.31.59-.31 1.21-.43 1.83-.55.61-.12 1.24-.21 1.86-.29 1.24-.16 2.5-.25 3.74-.38 2.49-.27 4.98-.54 7.42-1.09.59-.16 1.25-.28 1.68-.68.45-.45.95-.82 1.45-1.2 1-.76 2.04-1.47 3.08-2.17 2.1-1.38 4.2-2.72 6.36-4.01h.01l.02-.01c.28-.07.56-.15.86-.18.3-.03.64 0 .9.2l-.03-.02c.25.07.52.2.67.45.07.12.1.26.11.4 0 .15-.03.28-.08.41l-.03.04c-.1.15-.22.43-.33.64l-.34.7c-.24.45-.48.9-.74 1.35-.53.88-1.1 1.74-1.78 2.52-.34.38-.7.76-1.08 1.1-.39.35-.79.66-1.1 1.05-.67.77-1.21 1.64-1.78 2.49l-.15-.14 3.42-2.76c1.14-.92 2.3-1.8 3.46-2.7l3.49-2.68 1.75-1.33c.28-.2.6-.48.99-.56.38-.09.8-.04 1.14.14h.01v.01c.21.16.4.37.49.63.1.26.08.55-.02.8l-.01.02a29.41 29.41 0 0 1-2.9 4.04 22.26 22.26 0 0 1-3.62 3.42c-.7.48-1.32.98-1.86 1.6a16.8 16.8 0 0 0-1.51 1.95 25.2 25.2 0 0 0-2.33 4.35l-.18-.15c3.85-2.3 7.72-4.52 11.75-6.49.5-.24 1.01-.47 1.53-.7.52-.2 1.04-.42 1.6-.55.32-.07.56-.05.83-.13.26-.06.53-.14.8-.22a99.67 99.67 0 0 0 7.77-3.08v-.01h.01c.3-.08.62-.13.95-.09.16.02.32.07.47.14.15.08.28.19.4.3h-.02c.25.17.32.53.24.8-.07.28-.23.51-.45.68l-.03.02c-.3.18-.65.43-.97.65l-.97.68-1.96 1.36c-1.31.9-2.63 1.78-3.98 2.62a39.7 39.7 0 0 1-4.16 2.35c-.36.18-.74.3-1.1.45-.36.16-.72.32-1.06.52-.69.38-1.36.8-2.03 1.23l-.1-.22c2.12-.86 4.26-1.7 6.43-2.47 2.17-.76 4.35-1.5 6.58-2.09.56-.14 1.12-.27 1.7-.37.58-.12 1.15-.07 1.71-.16a31.7 31.7 0 0 0 3.36-.69 78.06 78.06 0 0 0 6.58-1.99h.01c.3-.08.62-.13.95-.09.16.03.32.07.47.14.15.08.28.2.4.31l-.03-.01c.41.3.3.89.06 1.2-.27.36-.62.5-.93.74-.65.42-1.33.79-2.02 1.15-.7.31-1.4.67-2.12.93l-1.08.42-1.1.35c-.74.25-1.48.45-2.23.63l-2.23.56a59.3 59.3 0 0 0-4.37 1.47 137.4 137.4 0 0 0-12.67 5.54c-1.37.69-2.73 1.4-4 2.25l-.09-.22c.67-.1 1.33-.22 1.98-.4.33-.07.65-.18.97-.28.33-.09.65-.2.97-.3 1.28-.44 2.54-.94 3.8-1.45 1.25-.52 2.5-1.04 3.77-1.53.64-.24 1.27-.49 1.95-.64.33-.08.68-.14 1.04-.11.36.02.72.14 1 .37h.02l.01.03c.1.15.23.33.3.53.07.2.06.42.03.62-.05.2-.13.42-.22.57-.08.18-.25.34-.36.48-.13.16-.28.28-.42.42-.15.13-.3.26-.45.37-.3.25-.63.46-.95.67-1.3.84-2.7 1.52-4.1 2.17l-.08-.22c1.74-.49 3.47-1 5.25-1.36.89-.16 1.8-.33 2.73-.13.46.14.89.33 1.22.71.32.4.28.98.05 1.4a3.8 3.8 0 0 1-.94 1.03c-.36.28-.73.55-1.1.8-.77.48-1.55.94-2.34 1.37-1.58.88-3.18 1.71-4.78 2.54l-.01.01c-.44.18-.86.38-1.28.6-.41.22-.83.45-1.24.69l-.1-.21c.26-.08.51-.14.77-.17.24-.04.48-.09.7-.16h.02c1.18-.22 2.36-.46 3.55-.62.6-.08 1.2-.15 1.8-.14.31 0 .62.04.92.13.3.1.6.26.8.5h.01v.02c.2.27.37.63.3 1.01-.05.37-.27.67-.52.91h.01c-.14.14-.27.3-.43.44a11.65 11.65 0 0 1-1.5 1.04c-.7.4-1.4.76-2.12 1.13l-.05-.22a15 15 0 0 1 1.76.1c.58.07 1.18.2 1.69.57h-.14c4.14-2.75 8.23-5.56 12.22-8.5 2-1.48 3.97-3 5.84-4.62.93-.82 1.84-1.64 2.63-2.6a16.7 16.7 0 0 1 2.74-2.55c2.01-1.49 4.28-2.59 6.62-3.42a41.6 41.6 0 0 1 7.24-1.8c4.92-.79 9.93-.86 14.88-.47.13 0 .26-.02.4-.05.12-.03.25-.1.44-.1h-.03a41.4 41.4 0 0 0 10.66-4.3 29.92 29.92 0 0 0 4.66-3.36c.38-.31.7-.65 1.03-1l1-1.06c.31-.34.62-.75 1.06-1 .43-.26.96-.35 1.46-.28h-.02c.32 0 .66.09.91.31.25.23.4.52.48.84.06.32.02.64-.03.94-.05.31-.12.6-.2.9-.35 1.18-.86 2.3-1.43 3.39a25.45 25.45 0 0 1-4.3 5.92l-.1-.16c1.28-.4 2.55-.86 3.77-1.41 1.21-.56 2.4-1.21 3.37-2.13.39-.29.75-.6 1.17-.86.42-.25.95-.38 1.44-.29h-.01c.53.01.94.42 1.13.86v.01c.09.6-.18 1.12-.4 1.6-.24.5-.52.96-.82 1.4-.6.9-1.27 1.76-1.96 2.59l-.08-.15c.39-.05.77-.16 1.16-.17.4-.05.8-.01 1.18.01h.01c.51.14 1.01.4 1.32.85l.02.02v.03c.02.3.18.7.03 1.06a2.8 2.8 0 0 1-.64.88c-.49.5-1.04.95-1.59 1.38a54.67 54.67 0 0 1-3.43 2.43 126.5 126.5 0 0 1-14.67 8.2c-.63.28-1.29.55-1.95.78-.64.26-1.28.55-1.88.9-.62.31-1.2.7-1.8 1.06l-1.74 1.17-.06-.14c1.96-.36 3.93-.7 5.93-.87.5-.04 1-.07 1.5-.07.5.01 1.01.03 1.5.18.5.13.94.56 1.01 1.1.06.55-.27 1.03-.62 1.38a9.63 9.63 0 0 1-2.56 1.57c-.9.42-1.84.79-2.77 1.15-1.87.7-3.76 1.35-5.64 2.01l-.03-.13c1.2-.15 2.42-.28 3.64-.26.6.03 1.25.05 1.8.37.28.18.46.44.6.72.16.3.09.67-.09.93-.35.52-.88.87-1.4 1.19-.52.3-1.06.6-1.6.86-1.1.54-2.22 1.02-3.34 1.5l.01-.11c.31.24.65.57.66 1.02v-.02c.19.67-.16 1.33-.59 1.8a6.4 6.4 0 0 1-1.52 1.16c-.56.33-1.16.55-1.74.8l-1.75.76c-1.18.5-2.35 1-3.53 1.46-1.18.5-2.38.92-3.57 1.37l-.02-.1c.8-.13 1.62-.24 2.44-.3.4-.01.82-.03 1.23.03.21.02.42.08.6.18.2.1.33.31.4.5.17.37.16.9-.17 1.2-.3.31-.67.5-1.03.7-.74.35-1.52.63-2.29.9-3.1 1.03-6.26 1.91-9.39 2.88v-.1c.33.1.67.23.97.42.3.2.53.49.66.84.1.35 0 .74-.2 1.03-.2.3-.48.52-.78.71h-.02a400.67 400.67 0 0 0-17.2 4.58l-2.83.87-1.4.47c-.45.15-1 .35-1.33.52.13.11.24.28.22.48a.76.76 0 0 1-.26.47v-.01c-.14.16-.32.25-.47.38-.17.11-.32.24-.48.36l-.04-.07 1.9-.72c.64-.24 1.3-.43 1.93-.65s1.3-.38 1.95-.58c.34-.06.65-.21 1.01-.19.34.04.7.23.8.6.06.4-.3.66-.6.78l-.9.47-1.8.95c-.6.33-1.19.65-1.77 1-.28.18-.59.33-.85.55-.26.2-.56.39-.83.58l-.04-.07 2.25-.81c.74-.29 1.48-.59 2.17-.97.36-.17.66-.43 1.02-.63.34-.2.7-.37 1.07-.53.73-.32 1.49-.57 2.24-.83 1.51-.5 3.05-.94 4.58-1.36 1.54-.42 3.1-.8 4.62-1.21h.01c.38-.08.84.04 1.07.4.07.24.02.51-.12.72-.14.2-.37.34-.58.43l-1.28.6-2.57 1.16-2.57 1.16c-.84.4-1.72.77-2.51 1.25l-3.07 1.8-.03-.09a32.1 32.1 0 0 0 8.05-2.5 49.39 49.39 0 0 0 7.38-4.11c1.18-.78 2.3-1.64 3.45-2.47a32.53 32.53 0 0 1 7.47-3.98 21.1 21.1 0 0 1 4.09-1.13h-.01a1 1 0 0 1 .72.1c.23.14.3.46.23.69-.07.24-.23.44-.43.59-.21.13-.42.2-.63.3a58.82 58.82 0 0 0-7.25 4.12 26 26 0 0 0-2.21 1.68c-.71.59-1.35 1.27-2.01 1.92-.33.33-.69.63-1.03.94-.34.32-.7.62-1.05.91-.71.6-1.45 1.17-2.18 1.74l-.08-.12a85.37 85.37 0 0 0 3.38-1.8l1.65-.98 1.6-1.05-.01.02c.5-.42 1-.76 1.52-1.12a62.97 62.97 0 0 1 4.74-3.02c.53-.33 1.1-.6 1.65-.9.55-.3 1.13-.53 1.7-.8 1.18-.43 2.39-.73 3.6-1.05 1.2-.32 2.4-.66 3.55-1.14a15.54 15.54 0 0 0 4.68-2.98c.46-.42.88-.88 1.3-1.34.4-.48.79-.96 1.14-1.47.38-.49.69-1.03 1.03-1.55v.01c.15-.26.39-.33.58-.44a.9.9 0 0 1 .75.04l-.02-.01c.31.09.54.3.71.54.09.12.15.26.2.4.05.14.06.29.1.43.15.95-.2 1.88-.58 2.71-.4.84-.9 1.62-1.44 2.38-1.08 1.5-2.3 2.9-3.55 4.25-1.27 1.34-2.53 2.7-3.92 3.92-.34.31-.68.62-1.05.9s-.73.58-1.1.85c-.76.53-1.53 1.04-2.33 1.51l-.05-.17a17.7 17.7 0 0 0 7.07-2.19c.74-.37 1.41-.88 2.11-1.33a50.02 50.02 0 0 0 4.03-2.95 10.3 10.3 0 0 0 3-3.89 35 35 0 0 0 .94-2.3c.29-.78.6-1.57.91-2.34a19.6 19.6 0 0 1 2.39-4.4 24.71 24.71 0 0 1 5.22-5.4c.33-.26.78-.48 1.25-.37.49.13.72.73.51 1.15v.01a87.11 87.11 0 0 0-2.67 5.47c-.26.63-.5 1.26-.72 1.9l-.17-.12c.9-.8 1.81-1.6 2.76-2.36.47-.38.94-.76 1.45-1.1.26-.16.52-.33.82-.45.14-.06.3-.1.48-.1s.35.1.47.19c.22.1.41.36.4.64 0 .27-.1.5-.22.7-.27.4-.5.77-.71 1.19-.44.8-.84 1.63-1.24 2.46-.8 1.67-1.57 3.34-2.31 5.03l-.17-.13 6.8-4.91c.17-.1.35-.16.55-.19a.9.9 0 0 1 .59.1c.03.02.09.06.12.1a.6.6 0 0 1 .1.1c.07.08.12.18.15.28.05.2.03.4-.04.6l-.05.05-1.04 1.67-1.1 1.7a102.69 102.69 0 0 1-4.72 6.58L130.78 79c-.44.51-.86 1.03-1.33 1.52a20.89 20.89 0 0 1-3.09 2.63c-1.1.8-2.26 1.5-3.44 2.15a61.38 61.38 0 0 1-7.34 3.41l-.06-.17c2-.41 4-.9 5.94-1.52.5-.14.97-.32 1.45-.48.49-.16.96-.37 1.43-.55.48-.18.94-.4 1.4-.62.47-.2.92-.44 1.36-.7 1.79-.99 3.56-2.03 5.33-3.04l2.67-1.53 1.34-.74c.23-.11.44-.28.73-.32.28-.04.56.07.77.23l.02.01v.01a.9.9 0 0 1 .13.66c-.06.24-.26.4-.4.53l-.87.88-1.77 1.77a120.24 120.24 0 0 1-3.62 3.45 38.83 38.83 0 0 1-3.87 3.17c-.68.5-1.44.86-2.2 1.21a69 69 0 0 1-11.78 4.14c-1.61.4-3.25.75-4.9 1-.81.15-1.65.22-2.47.33-.83.1-1.67.13-2.5.2v-.12c1.12.15 2.24.2 3.35.1.57-.05 1.1-.18 1.67-.28.3 0 .6.08.81.3.23.23.2.62.02.85-.17.27-.46.37-.71.48l-.78.33a39.95 39.95 0 0 1-8.14 2.16c-1.1.18-2.22.3-3.34.42-1.12.09-2.24.18-3.37.2-1.12.05-2.24.01-3.37 0-1.11-.06-2.25-.08-3.36-.2l-3.37-.16c-2.23-.25-4.44-.69-6.65-1.08l-6.62-1.24c-2.2-.4-4.42-.8-6.64-1.1l.04-.02-.1.35c-.05.13-.14.22-.17.32l-.05-.04c.3-.09.6-.17.92-.2.32-.03.67.01.92.24.19.24.29.58.2.88-.06.3-.22.57-.39.81l-.04-.05c.32-.1.65-.17.94-.33.3-.12.6-.25.93-.26.16 0 .33.05.47.15.13.1.21.24.3.37l-.03-.01 1.9-.03h.01c.2.02.43.07.6.2.2.11.3.34.35.51l.01.01c.04.16.23.24.4.29l.54.11c.08.03.18.04.26.13.07.12-.03.22-.09.28-.13.13-.29.23-.44.34a9 9 0 0 1-.96.53c-.33.17-.65.34-.99.49-1.32.62-2.67 1.19-3.96 1.86v-.06c.5.26 1.02.52 1.54.75.52.24 1.06.42 1.62.58.54.18 1.12.3 1.59.65.46.35.87.77 1.18 1.25h-.04c.15-.24.29-.5.38-.77.1-.29.39-.47.68-.52.25-.08.56-.03.73.2.16.2.3.44.37.7.16.5.08 1.06-.13 1.54a6 6 0 0 1-.82 1.34 2 2 0 0 1-.55.55c-.23.15-.48.24-.75.25-.57.08-1.13-.1-1.66-.25l.03-.02c-.02.08-.03.16.01.23.03.2.03.4.1.57.14.38.53.59.9.72.37.12.74.28 1.1.46l.07.1v-.01c.15.08.3.22.35.4a.6.6 0 0 1-.08.53c-.1.16-.27.25-.43.33a5.65 5.65 0 0 1-1.52.52c-.36.06-.72.08-1.08.07-.47 0-.85-.32-1.24-.5l.02-.02a2.54 2.54 0 0 1-2.16 1.81c-1.02.1-1.96-.44-2.72-1.05-.37-.33-.75-.65-1.05-1.06a2.15 2.15 0 0 1-.27-1.44c.06-.5.23-.97.42-1.43.2-.45.42-.9.53-1.38-.18-.43-.45-.82-.7-1.21l-.8-1.17z"/><path d="M111.27 25.4l2.2-.63 2.17-.72c.36-.12.7-.28 1.06-.41l1.07-.42c.35-.14.7-.31 1.04-.47l1.04-.48c.7-.32 1.35-.7 2.03-1.05.34-.17.65-.39.98-.58l.98-.6c.33-.2.62-.44.94-.65l.93-.66c.6-.47 1.18-.96 1.77-1.44l.15-.12-.09.16c-.27.5-.5 1-.8 1.48-.3.48-.57.96-.9 1.41-.32.47-.64.92-1 1.35-.34.45-.72.87-1.1 1.27-.2.2-.37.42-.59.6l-.62.57c-.4.4-.88.7-1.32 1.04-.45.34-.96.57-1.44.86-.24.14-.48.3-.6.53-.12.23-.03.51.15.71l.01.01c.22.47.8.6 1.3.61.25.01.52-.06.77-.1l.77-.15a41.02 41.02 0 0 0 4.54-1.22c.5-.17 1-.32 1.48-.52s.98-.36 1.45-.59l1.43-.65.28-.14-.2.24-1 1.18-1.06 1.1-1.15 1.02c-.2.17-.4.31-.61.47l-.62.46c-.14.08-.25.16-.34.27a.72.72 0 0 0-.13.4 1.02 1.02 0 0 0 .37.76 1.54 1.54 0 0 0 .82.3c.3.01.61-.02.9-.1l-.02.01 2.1-1.03c.34-.18.7-.31 1.06-.47l1.07-.45.09.15c-.82.56-1.61 1.15-2.45 1.68-.83.53-1.64 1.08-2.49 1.6-.84.5-1.67 1.04-2.52 1.54-.86.5-1.7 1.01-2.56 1.49-1.71.98-3.45 1.92-5.21 2.8-.9.42-1.76.9-2.7 1.24l-1.36.56-1.34.62c-.88.43-1.7.98-2.55 1.46L107 43.37c-.8.58-1.56 1.2-2.35 1.79-.36.31-.83.57-1.12.93-.22.34-.1.92.21 1.22.36.28.87.25 1.34.14l1.45-.27 2.9-.55 5.82-1.08.68-.13-.62.29-2.32 1.05c-.76.38-1.58.6-2.36.92l-2.39.86-2.42.77-2.42.76c-.8.26-1.62.48-2.43.71l-4.88 1.39h-.02a.5.5 0 0 0-.23.08c-.04.02-.06.05-.09.08l-.04.1-.02.05-.5.37-.24.2c-.03.02-.1.06-.1.08l-.11.12c-.08.07-.15.15-.15.24-.03.1-.08.17-.06.28.02.1 0 .2.03.29l.1.28h-.01c.1.07.16.19.28.25.12.05.22.14.35.16.13.02.26.08.39.07l.39-.03c2.28-.37 4.56-.78 6.84-1.12 1.14-.18 2.28-.37 3.43-.5.57-.07 1.14-.16 1.72-.2l1.73-.1.27-.02-.24.1-3.27 1.41c-1.09.49-2.22.85-3.32 1.28L99.9 56.9l-3.36 1.16c-2.24.78-4.48 1.57-6.74 2.27l-6.77 2.19H83c-.2 0-.36.12-.52.25l-.5.39v-.01c-.16.2-.28.45-.29.7 0 .13.02.26.06.38.05.11.13.2.23.3v-.01c.36.18.77.25 1.18.22.2-.02.4-.06.57-.17.17-.1.33-.25.5-.37l.02-.01 10.17-3.34 5.03-1.82 5.03-1.82h.03l.05.01c.09.04.17.1.28.1.1.04.2.04.3.05h.18l-.1.12c-.11.12-.2.26-.33.35-.12.09-.23.2-.36.27-.14.08-.26.17-.4.23l-.44.16h.02l-6.33 2.56-1.59.65c-.53.2-1.05.45-1.59.62l-3.22 1.13-3.23 1.12c-1.07.4-2.16.73-3.25 1.06l-3.26 1.02c-1.07.35-2.2.62-3.3.94h.02c-.5.11-.95.66-.77 1.13.11.25.3.4.55.51.25.1.53.12.8.1.26-.02.55-.1.83-.15l.84-.17 1.7-.35c2.24-.48 4.5-.87 6.76-1.3l.05.23-6.05 1.69-3.06.72-.76.18c-.25.06-.54.11-.74.19l-.36.15-.27.22c-.07.08-.13.2-.2.29l-.07.33-.01-.05a1.4 1.4 0 0 0 .94.75c.13.03.26.02.4 0l.01-.01 3.06-.23c1.02-.1 2.05-.06 3.07-.1l.85-.02-.8.25-2.33.75c-.39.11-.77.26-1.17.35l-1.18.29-2.37.57c-.79.2-1.58.35-2.38.51l-2.39.48c-.8.16-1.59.33-2.4.46l-4.8.8-.02.01-.06-.02c-.18-.08-.33-.21-.51-.24a3.18 3.18 0 0 0-.58-.1c-.4-.06-.81-.1-1.21-.2-.8-.16-1.62-.32-2.4-.51-1.6-.37-3.17-.79-4.75-1.2l-.35-.09.34-.14.85-.37c.3-.1.53-.28.8-.42l.03-.02a.7.7 0 0 0 .37-.34c.07-.15.08-.32 0-.45l-.02-.03V72c-.01-.18-.2-.36-.42-.47-.21-.12-.45-.2-.7-.25l-1.55-.34L54 70.6c-.51-.11-1.02-.26-1.53-.4l-1.53-.4c-.51-.12-1-.3-1.51-.45l-.75-.24c-.25-.1-.51-.15-.75-.26l-1.47-.62-.22-.1.22-.12 1.45-.84c.48-.28.92-.63 1.39-.94.93-.63 1.8-1.33 2.7-2.01.89-.68 1.74-1.4 2.62-2.11.87-.7 1.73-1.43 2.58-2.16 3.43-2.9 6.8-5.87 10.18-8.84 1.7-1.47 3.34-3 5.03-4.48l5.07-4.44 10.13-8.9.08.04c-.04-.05.07-.03.11-.07l.18-.08.35-.17.7-.35 1.42-.65c.95-.43 1.91-.82 2.89-1.2a103.9 103.9 0 0 1 5.9-2.06c3.96-1.27 7.98-2.36 12.03-3.36zm0 .02c-4.04 1-8.06 2.1-12.02 3.38-1.98.64-3.95 1.33-5.89 2.08a64.72 64.72 0 0 0-4.29 1.86l-.7.35-.35.17-.18.09a.68.68 0 0 1-.1.03c-.01.01-.02.02-.05.02-.02 0-.07 0-.1-.07l.09.04-10.11 8.92-5.05 4.46c-1.69 1.48-3.33 3.02-5.03 4.5-3.36 2.97-6.72 5.95-10.15 8.87-.85.73-1.7 1.45-2.58 2.16-.87.71-1.73 1.44-2.62 2.12-.9.7-1.77 1.4-2.7 2.03-.47.32-.91.67-1.4.96l-1.47.85V68l1.44.61c.24.11.5.17.74.25l.75.24c.5.15 1 .34 1.5.46l1.53.4c.5.13 1.01.28 1.52.39l1.54.34 1.54.34c.27.05.53.13.78.27.23.13.5.33.54.7l-.02-.07a.7.7 0 0 1 .02.69c-.1.2-.29.37-.5.46l.03-.02c-.28.15-.56.35-.85.45l-.87.38-.01-.24c1.58.41 3.15.83 4.74 1.2.79.2 1.58.35 2.37.52.4.1.8.13 1.2.18.21.03.4.06.63.12.22.03.4.18.6.27l-.1-.02 4.8-.81c.8-.13 1.59-.3 2.38-.45l2.39-.48c.8-.16 1.59-.31 2.37-.51L80 73.1l1.18-.29c.4-.09.77-.23 1.16-.35l2.3-.74.05.23c-1.02.03-2.04 0-3.05.1l-3.05.22h.01c-.16.03-.33.04-.5.01-.16-.03-.31-.1-.46-.17a1.63 1.63 0 0 1-.65-.72l-.01-.03v-.01c.03-.15.05-.3.1-.43.08-.12.15-.25.24-.36l.35-.27.36-.15c.3-.1.52-.13.78-.2l.76-.18 3.06-.71 6.04-1.7.05.23c-2.26.43-4.52.81-6.76 1.3l-1.7.34-.84.17c-.28.05-.55.13-.85.16-.3.02-.61 0-.9-.12-.28-.1-.56-.35-.67-.64-.13-.32-.03-.67.16-.91.18-.26.45-.44.75-.52h.03c1.09-.32 2.17-.58 3.25-.93l3.26-1c1.1-.34 2.18-.67 3.25-1.06l3.22-1.12 3.23-1.11c.54-.18 1.06-.42 1.59-.62l1.58-.64 6.33-2.55.41-.16c.14-.06.26-.14.38-.21.13-.07.24-.18.35-.26.12-.09.2-.21.3-.31l.06.12c-.12 0-.23 0-.34-.04-.12-.01-.23-.08-.34-.13h.08l-5.04 1.82c-1.68.6-3.35 1.22-5.04 1.8L84.29 64.3l.02-.01c-.17.12-.32.26-.51.37-.2.12-.41.17-.62.2-.43.03-.87-.06-1.25-.25h-.01a.95.95 0 0 1-.27-.35.98.98 0 0 1-.07-.42c.02-.29.15-.56.33-.77l.5-.39c.09-.06.17-.13.27-.18.1-.06.21-.09.33-.1h-.02l6.77-2.16c2.27-.7 4.5-1.49 6.75-2.26l3.36-1.15 3.33-1.26c1.1-.43 2.23-.8 3.31-1.29l3.26-1.4.02.08-1.72.11c-.58.04-1.15.14-1.72.2-1.14.14-2.28.33-3.42.5-2.29.36-4.56.77-6.84 1.15l-.42.03c-.14 0-.28-.05-.41-.08-.15-.02-.26-.12-.39-.18s-.21-.19-.32-.29l-.1-.31c-.04-.1-.02-.22-.03-.32-.02-.11.03-.22.06-.33.03-.12.1-.2.17-.27l.1-.12.13-.1.25-.2.49-.37-.02.05c.03-.26.27-.38.48-.4l-.02.01 4.88-1.4c.8-.23 1.63-.44 2.43-.71l2.42-.77 2.41-.77 2.38-.86 1.19-.44c.4-.13.79-.3 1.17-.48l2.3-1.05.05.15-5.81 1.1-2.9.55-1.46.27c-.46.12-1.06.18-1.5-.18-.11-.1-.18-.2-.24-.31l-.12-.39a3.57 3.57 0 0 1-.02-.4c.05-.13.08-.29.16-.39.09-.1.14-.18.26-.28l.3-.23.58-.45c.79-.6 1.56-1.21 2.35-1.8l2.44-1.68c.86-.49 1.7-1.04 2.58-1.48l1.34-.62 1.37-.56c.92-.34 1.78-.83 2.68-1.23 1.76-.88 3.5-1.82 5.2-2.8.87-.46 1.71-.98 2.56-1.48.86-.49 1.69-1.02 2.53-1.53.84-.5 1.66-1.05 2.49-1.59.83-.52 1.62-1.1 2.44-1.66l.09.15-1.07.45c-.36.16-.73.28-1.07.46l-2.07 1.02h-.02v.01c-.32.08-.64.11-.96.09a1.73 1.73 0 0 1-.48-.1 1.22 1.22 0 0 1-.86-1.12c0-.17.07-.33.16-.48.1-.13.24-.23.39-.32l.6-.44c.2-.16.42-.3.61-.46.38-.34.77-.67 1.14-1.02l1.07-1.1 1-1.16.08.1-1.43.67c-.48.22-.98.38-1.47.58-.48.2-.98.35-1.48.52-.5.16-1 .32-1.5.45a41.49 41.49 0 0 1-3.84.91c-.26.04-.5.11-.78.1a2.5 2.5 0 0 1-.8-.14c-.24-.1-.48-.27-.6-.54l.01.02c-.2-.21-.3-.55-.16-.83.14-.27.4-.44.64-.57.48-.29 1-.52 1.44-.85.44-.34.91-.64 1.31-1.03l.62-.57c.21-.18.39-.4.58-.6.39-.4.76-.81 1.1-1.26.36-.42.69-.87 1-1.33.34-.45.61-.94.9-1.41.3-.47.54-.98.8-1.47l.06.04c-.6.48-1.17.98-1.78 1.44l-.93.66c-.32.21-.62.46-.95.65l-.98.6c-.33.19-.64.4-.99.57-.67.35-1.34.74-2.03 1.06l-1.04.47c-.35.16-.69.33-1.05.46l-1.06.42c-.36.14-.7.3-1.07.41-.73.24-1.45.5-2.17.72l-2.2.62zM15.08 43.85c.36-.99.44-2.05.47-3.1a21.95 21.95 0 0 0-.79-6.22c-.3-1-.68-1.98-1.24-2.87-.26-.45-.6-.86-.87-1.3-.29-.45-.56-.9-.8-1.37-.25-.46-.45-.95-.64-1.44-.16-.5-.33-1-.43-1.52-.21-1.02-.19-2.18.46-3.06.64-.87 1.64-1.34 2.56-1.82.3-.12.58-.28.84-.48.36-.16.72-.2 1.08-.27l1.1-.14L19 20c.72-.1 1.45-.2 2.18-.27l2.18-.25c1.45-.17 2.9-.36 4.34-.64.71-.15 1.43-.32 2.11-.55a5.18 5.18 0 0 0 1.89-1.03c.45-.48.96-.88 1.48-1.27.52-.4 1.05-.77 1.59-1.14 1.07-.73 2.16-1.44 3.26-2.14l.53-.34-.4.48-.93 1.08-.98 1.03c-.35.3-.68.62-.97.97-.16.16-.3.35-.44.53a23.36 23.36 0 0 0-1.86 2.89c-.45.8-.86 1.62-1.25 2.45l-.58 1.26-.28.63c-.1.21-.17.41-.3.64l.01-.01c-.18.42.22.87.6 1.16l-.04-.02c.55.14 1.15.04 1.6-.3.93-.84 1.84-1.73 2.81-2.54l2.89-2.46.65-.56-.52.69A27.46 27.46 0 0 0 35 26.87c-.14.4-.26.8-.36 1.2-.08.4-.18.83-.07 1.18.06.07.12.16.2.24l.24.21c.18.13.37.23.56.32h-.02c.26 0 .52-.01.77-.08.25-.06.47-.2.64-.38.63-.5 1.3-.9 1.96-1.3l1.99-1.22a226.83 226.83 0 0 1 8.11-4.57c.69-.37 1.38-.72 2.08-1.07.7-.32 1.39-.69 2.15-.9h.01c.33-.04.7-.17 1.06-.17h.2l-.17.1c-.78.47-1.57.94-2.36 1.39-.8.44-1.59.88-2.46 1.19-.85.3-1.65.73-2.43 1.18-.78.47-1.54.97-2.28 1.5a66.63 66.63 0 0 0-6.36 5.11c-.33.32-.67.62-.93.99s-.15.87.16 1.2l-.01-.01c.26.18.6.23.92.22.32 0 .64-.09.93-.23.52-.32 1.03-.67 1.57-.95a73.7 73.7 0 0 1 4.94-2.41c2.24-1 4.5-1.93 6.78-2.8l.04.11a42.29 42.29 0 0 0-11.14 5.46c-.58.37-1.15.76-1.66 1.21-.26.23-.5.47-.68.75-.19.28-.3.6-.17.9v.03c.03.37.35.7.7.89.35.19.75.28 1.16.3.4.04.83 0 1.24-.01.41-.05.83-.08 1.24-.16 1.64-.26 3.24-.77 4.83-1.27l.07.18c-.3.16-.61.3-.93.45-.32.15-.64.27-.98.37l.01-.01c-1 .46-2.02.91-3.01 1.39-.5.24-1 .48-1.45.79-.22.15-.43.32-.55.54-.12.21-.09.47 0 .72l.01.03c.07.22.4.47.69.56.3.11.65.16.98.14.7-.02 1.34-.2 2.02-.35 1.34-.34 2.67-.73 4-1.11l8-2.26.84-.24-.75.45c-.58.34-1.15.72-1.74 1.04-.6.31-1.18.65-1.79.94-1.2.62-2.41 1.2-3.6 1.84-1.18.63-2.38 1.26-3.55 1.91-.58.34-1.17.67-1.7 1.06-.27.19-.54.4-.73.65a.8.8 0 0 0-.13.83v-.02c.08.13.19.26.31.36.13.09.27.16.43.2.31.1.65.1 1 .08l1.02-.12c.34-.04.7-.07 1.03-.13 1.36-.23 2.72-.52 4.1-.77h-.03c.3-.09.58-.13.87-.17.28-.04.56-.1.83-.15l.75-.16-.66.38c-.74.43-1.54.75-2.3 1.12-.74.4-1.5.79-2.22 1.21-.36.22-.72.44-.99.74-.28.28-.25.7-.01 1.01.2.3.64.41 1.04.43.4.03.82-.03 1.26-.04h-.02l1.1-.17c.38-.05.75-.06 1.12-.1.74-.05 1.49-.06 2.23-.06h.12V48.93l-.06.04-3.21 2.05-1.6 1.04c-.54.34-1.06.7-1.63 1.02-.54.33-1.1.63-1.68.9-.57.31-1.15.53-1.58.99-.91.87-1.73 1.85-2.55 2.82l-4.87 5.88c-.82.97-1.66 1.93-2.53 2.85-.45.47-.9.92-1.38 1.34-.5.4-.97.87-1.67.99l-.1.01v-.2l.1.1c-.25 0-.51.02-.77-.13-.13-.09-.2-.27-.17-.4 0-.15.05-.27.1-.38.2-.47.46-.87.59-1.33.06-.22.07-.45-.03-.64a.62.62 0 0 0-.51-.33c-.44 0-.86.32-1.22.6-.75.63-1.37 1.38-2.07 2.07-.09.08-.18.17-.29.24a.56.56 0 0 1-.2.1l-.18.02c-.24.05-.49.08-.74.08-.24 0-.53 0-.75-.24-.18-.27-.06-.56.02-.78.4-.91 1.08-1.65 1.4-2.55.08-.22.12-.46.02-.65-.1-.17-.34-.3-.54-.26-.44.1-.84.42-1.22.7a35.43 35.43 0 0 0-4.08 4.16l-.02.02h-.03c-.18.02-.37.03-.56.01-.17-.02-.41-.06-.5-.29-.07-.21.01-.4.08-.57.08-.17.17-.33.27-.49.1-.16.19-.31.27-.47.07-.15.17-.35.08-.44-.1-.08-.32-.06-.48-.03-.18.03-.34.1-.51.16-.66.29-1.23.75-1.78 1.22l-.82.73-.42.35c-.15.11-.29.23-.48.3h-.01c-.22 0-.42.07-.65.1h-.04v-.05c-.34-4.28-.65-8.57-.9-12.87-.11-2.14-.22-4.29-.29-6.44a99 99 0 0 1-.02-4.84c.04-.53.05-1.07.22-1.6zm.02 0c-.16.52-.18 1.06-.2 1.6-.03.53-.04 1.07-.04 1.6 0 1.08.03 2.16.07 3.23.07 2.15.18 4.3.31 6.44.26 4.3.57 8.58.92 12.87l-.05-.04c.2-.02.43-.1.66-.1h-.02c.32-.13.59-.4.86-.63l.82-.73a7.6 7.6 0 0 1 1.8-1.25c.18-.07.36-.14.54-.17.18-.03.38-.08.57.06.17.22.01.42-.05.57-.08.17-.18.33-.27.48s-.19.32-.26.48c-.07.16-.13.34-.08.48.05.14.24.19.4.2.18.03.36 0 .54 0l-.05.02a35.76 35.76 0 0 1 4.1-4.19c.38-.3.77-.61 1.28-.74a.7.7 0 0 1 .7.34c.14.25.08.54 0 .77-.34.94-1.02 1.69-1.4 2.56-.08.21-.15.47-.03.62.12.14.38.17.6.16.24 0 .48-.03.71-.07.14-.03.23-.03.32-.1.09-.06.18-.14.26-.22.7-.68 1.32-1.44 2.07-2.07.39-.3.8-.64 1.35-.65a.8.8 0 0 1 .66.42c.14.25.12.54.05.78-.14.5-.41.9-.6 1.35-.08.2-.15.46.01.56.17.1.42.1.66.09h.1v.19l-.1-.1c.57-.08 1.08-.55 1.55-.94.47-.42.92-.87 1.36-1.33.87-.92 1.7-1.89 2.52-2.86l4.84-5.9c.82-.97 1.63-1.95 2.56-2.84.23-.21.5-.45.8-.59l.84-.43a22.7 22.7 0 0 0 1.68-.9c.55-.31 1.07-.68 1.6-1.01l1.61-1.04 3.22-2.06-.06.1v-.15l.12.12c-.74 0-1.48.01-2.21.06-.37.03-.74.05-1.1.1l-1.1.16h-.02c-.4.01-.84.07-1.28.05-.42-.03-.92-.13-1.22-.54a1.2 1.2 0 0 1-.24-.65c0-.25.12-.49.27-.66.31-.34.68-.56 1.05-.78.74-.44 1.49-.82 2.24-1.22.78-.38 1.56-.7 2.29-1.11l.09.22-.86.15a5 5 0 0 0-.82.16h-.02c-1.36.25-2.72.55-4.1.78-.35.06-.7.08-1.04.13-.34.04-.68.09-1.04.12-.35.01-.72.01-1.07-.09a1.66 1.66 0 0 1-.5-.25 1.97 1.97 0 0 1-.38-.41l-.01-.02c-.15-.34-.08-.8.16-1.06.22-.3.5-.5.77-.7.56-.4 1.15-.73 1.73-1.07 1.18-.66 2.37-1.28 3.56-1.91 1.2-.64 2.4-1.22 3.6-1.84.6-.3 1.19-.63 1.78-.94.6-.32 1.16-.7 1.73-1.03l.1.2-8 2.26c-1.33.38-2.66.77-4.01 1.1-.67.16-1.37.34-2.06.36-.37.01-.72-.03-1.07-.16-.33-.14-.69-.3-.82-.76v.04a1.7 1.7 0 0 1-.09-.43c0-.16.02-.32.1-.46.15-.27.39-.45.62-.61.47-.32.98-.56 1.47-.8 1-.48 2.02-.93 3.03-1.38l.02-.01c.32-.1.64-.2.95-.35.31-.14.62-.3.92-.45l.08.18c-1.6.5-3.2 1-4.87 1.26-.41.07-.83.11-1.25.15-.42.02-.84.05-1.27.02a3.12 3.12 0 0 1-1.23-.33c-.38-.21-.73-.55-.78-1.03v.02c-.13-.35 0-.76.2-1.05.2-.3.45-.54.71-.77.52-.46 1.1-.86 1.68-1.23 1.18-.74 2.4-1.4 3.63-2.01a103.3 103.3 0 0 1 7.56-3.43l.04.11c-2.28.88-4.54 1.8-6.77 2.8a72.99 72.99 0 0 0-4.94 2.39c-.55.28-1.05.62-1.57.94-.31.15-.65.23-.98.24-.34.01-.69-.04-.97-.24l-.01-.01c-.32-.33-.45-.9-.16-1.3.27-.38.62-.68.95-1a66.9 66.9 0 0 1 6.36-5.14c.74-.52 1.5-1.02 2.28-1.49.78-.46 1.6-.9 2.45-1.2.85-.3 1.65-.75 2.44-1.19.79-.45 1.57-.91 2.35-1.38l.03.1c-.35.01-.68.13-1.06.17h.02c-.74.21-1.43.58-2.13.9A175.33 175.33 0 0 0 41 27.18L39 28.4c-.65.4-1.33.81-1.92 1.28-.19.21-.44.36-.71.43-.28.07-.55.08-.82.08h-.03c-.22-.1-.42-.2-.6-.34l-.27-.23-.23-.27v-.01a1.47 1.47 0 0 1-.06-.67 11.44 11.44 0 0 1 .48-1.84 27.68 27.68 0 0 1 3.58-6.64l.14.12-2.87 2.48c-.97.8-1.87 1.7-2.81 2.54h-.01c-.5.39-1.18.5-1.78.35h-.02l-.02-.02a2.36 2.36 0 0 1-.56-.58c-.15-.23-.24-.56-.1-.84v-.02c.1-.17.19-.4.28-.61l.28-.63.57-1.26c.4-.84.82-1.66 1.27-2.47a23.27 23.27 0 0 1 1.89-2.9c.15-.19.28-.38.44-.54.3-.36.64-.68 1-.99h-.01l.97-1.01.92-1.07.13.14c-1.1.7-2.19 1.4-3.26 2.13-.54.36-1.07.73-1.59 1.12-.52.39-1.03.79-1.47 1.25-.56.52-1.25.83-1.95 1.06-.7.24-1.41.4-2.13.55-1.45.28-2.9.46-4.36.64l-2.18.24c-.73.06-1.45.16-2.18.26l-2.19.25-1.08.14c-.36.06-.73.11-1.05.25-.25.2-.54.37-.85.49-.92.47-1.9.93-2.53 1.78-.63.85-.66 1.98-.45 2.98a11.74 11.74 0 0 0 1.05 2.95c.24.47.51.91.8 1.36.27.44.6.85.87 1.3.55.9.93 1.9 1.23 2.9a22.03 22.03 0 0 1 .77 6.24 10.06 10.06 0 0 1-.49 3.1zM5.16 78.06a4.97 4.97 0 0 1-.52-2.77.8.8 0 0 1 .23-.45c.13-.12.27-.2.42-.27.6-.24 1.24-.31 1.86-.4l.94-.1c.3-.03.63-.05.89-.16l.03-.02.03.01 1.24.47c.4.17.83.32 1.24.48.26.18.34.44.46.68a19.71 19.71 0 0 1 .71 2.27l.04.14h-.15a20.5 20.5 0 0 0-1.9.02c-.63.05-1.3.1-1.94.02-.64-.06-1.27-.23-1.9-.35a3.1 3.1 0 0 0-.92-.06c-.31.02-.6.2-.74.5l-.01.01-.01-.02zm0-.03c.13-.3.41-.53.74-.58.33-.06.65-.02.97.02.64.1 1.27.2 1.9.26.63.07 1.24 0 1.9-.03a20.7 20.7 0 0 1 1.92.02l-.11.13a19.09 19.09 0 0 0-.62-2.27c-.1-.23-.2-.5-.39-.63-.4-.16-.8-.35-1.22-.5a38.2 38.2 0 0 0-1.26-.4l.06-.01c-.31.16-.62.19-.94.24l-.93.12c-.62.07-1.25.13-1.82.34-.28.1-.54.28-.58.58-.07.3-.05.61-.04.92a5 5 0 0 0 .43 1.79zM68.53 107.46c.14.12.29.23.42.36.12.14.25.28.32.46v.01c-.08.3.16.63.46.68.31.05.63.1.94.06l.13-.02-.1.1c-.12.08-.2.25-.37.35-.17.07-.37.02-.52-.02-.33-.1-.64-.24-.94-.4-.3-.14-.6-.3-.89-.48-.14-.08-.29-.18-.43-.2a.68.68 0 0 0-.44.04c-.25.13-.46.47-.37.74.03.14.14.27.23.42a5.35 5.35 0 0 1 .52 1.45c.07.32.13.65.15 1v-.03c.16.43.5.76.87 1.06l.55.45-.63-.28a2.65 2.65 0 0 1-.63-.4 18.27 18.27 0 0 1-1.5-1.51c-.32-.35-.64-.7-.93-1.07-.16-.2-.29-.38-.52-.4a.94.94 0 0 0-.64.12c-.2.1-.3.31-.33.53 0 .1.01.21.07.3.07.12.06.26.06.38 0 .48-.08.95-.17 1.42-.04.23-.14.46-.12.67 0 .2.15.38.32.53.31.31.79.41 1.24.42h.38l-.33.2c-.09.06-.2.14-.3.18a.87.87 0 0 1-.4.07c-.25-.02-.48-.1-.69-.22a5.46 5.46 0 0 1-1.12-.82l-.25-.24a1.04 1.04 0 0 1-.23-.3c-.11-.24-.1-.5-.07-.75.08-.47.29-.9.5-1.3v.01c.12-.29.25-.57.34-.86.1-.28.15-.57.06-.82v-.02a7.2 7.2 0 0 0-.74-1.41c-.28-.46-.58-.91-.88-1.36l-.07-.1.1-.05 1.67-1 .04-.03.04.03c1.27.77 2.61 1.42 4.04 1.85h-.01c.2-.03.4-.07.61-.05.21.02.4.13.56.25zm-.01.02a1.1 1.1 0 0 0-.55-.23c-.2-.01-.4.02-.6.06h-.01c-1.44-.4-2.8-1.03-4.1-1.77h.08l-1.65 1.05.03-.15c.32.44.64.88.93 1.35.28.46.57.93.75 1.48v-.01c.13.34.05.7-.05 1-.1.3-.24.58-.35.86v.02c-.22.4-.42.8-.5 1.23-.03.2-.03.42.06.6.06.16.26.32.42.47.33.3.68.6 1.07.8.2.1.4.18.6.18.11 0 .18 0 .28-.04l.29-.16.05.2a2 2 0 0 1-1.37-.5c-.17-.16-.35-.38-.36-.66-.01-.27.1-.49.14-.72.1-.45.18-.92.2-1.38 0-.12 0-.22-.04-.31a.66.66 0 0 1-.09-.38c.03-.25.18-.51.4-.62.22-.13.48-.18.73-.13a.7.7 0 0 1 .34.17c.08.08.15.19.23.28a20.83 20.83 0 0 0 1.9 2.09c.17.16.34.31.53.45.18.13.38.3.58.31l-.08.17c-.37-.3-.75-.65-.94-1.12v-.04c-.03-.32-.1-.65-.16-.98a5.22 5.22 0 0 0-.47-1.39c-.08-.14-.19-.28-.24-.47-.05-.19 0-.4.09-.55a.9.9 0 0 1 .38-.38c.18-.08.37-.09.55-.05.2.05.32.16.46.24.29.18.58.34.87.5.3.15.6.3.91.4.16.04.33.09.47.03.13-.08.2-.22.35-.35l.03.08c-.33.03-.65-.03-.96-.08-.33-.06-.58-.41-.5-.74-.06-.16-.18-.3-.3-.44-.12-.13-.27-.25-.4-.37z"/><path d="M30.7 89.71c-.71-.57-1.41-1.15-2-1.84-.62-.68-1.1-1.45-1.6-2.2a7.87 7.87 0 0 0-.85-1.07 8.5 8.5 0 0 0-1.04-.87A37.6 37.6 0 0 0 20.5 81 20.2 20.2 0 0 0 18 79.95c-.44-.14-.89-.21-1.32-.36-.44-.13-.85-.33-1.26-.51a12.9 12.9 0 0 0-1.27-.5c-.43-.15-.87-.25-1.31-.35l-.19-.04.2-.02 1.1-.1c.16-.03.43-.03.46-.16-.04-.16-.17-.32-.25-.48-.35-.66-.7-1.33-1.1-1.95-.21-.3-.43-.6-.69-.87-.25-.28-.54-.5-.89-.64-.67-.33-1.38-.55-2.08-.8l-.08-.02.07-.04c.36-.23.72-.49 1.11-.67.38-.2.79-.35 1.18-.53.4-.16.8-.34 1.21-.45l1.26-.33a56.34 56.34 0 0 1 2.34-.47h.14-.01c.57-.17 1.13-.32 1.7-.46l.06-.02v.34-.02c.12.23.41.33.68.36.26.03.54-.08.81-.12.56-.12 1.1-.25 1.66-.36l3.32-.65.33-.06-.3.15c-.4.22-.83.41-1.21.66-.19.13-.38.26-.47.46-.1.2-.05.44.13.56h-.01c.2.09.43.13.66.13a1 1 0 0 0 .62-.23 8.9 8.9 0 0 1 1.23-.7c.86-.4 1.76-.68 2.68-.88H28.66c2.07.56 4.27.12 6.2-.74.49-.21.96-.46 1.42-.72.45-.28.96-.48 1.3-.9.7-.78 1.4-1.6 2.11-2.4l4.2-4.83 2.1-2.4 1.06-1.2c.37-.4.7-.8 1.1-1.19h.01c2.22-1.34 4.4-2.77 6.56-4.2 2.17-1.42 4.32-2.87 6.46-4.34 4.28-2.94 8.52-5.94 12.6-9.15 1.01-.81 2.01-1.64 2.98-2.5.48-.43.96-.87 1.4-1.33.46-.46.88-.96 1.33-1.43.92-.93 1.95-1.75 3.06-2.43a23.08 23.08 0 0 1 3.5-1.75c4.86-1.92 10.11-2.59 15.3-2.69l.8-.01-.77.22-4.47 1.35c-1.47.5-2.94.98-4.4 1.51-1.45.56-2.9 1.12-4.3 1.78-1.4.65-2.82 1.33-4.05 2.26L70.15 45.05c-1.15 1.04-2.36 2.03-3.5 3.08a386.24 386.24 0 0 1-10.44 9.32 214.18 214.18 0 0 1-7.2 5.95c-1.22.96-2.46 1.9-3.76 2.76-.65.42-1.3.86-2.06 1.12-.35.14-.7.32-.94.6-.24.29-.32.67-.3 1.05.06.42.38.78.71 1.06.35.3.74.53 1.14.74.8.42 1.66.75 2.52 1.05 1.72.59 3.5 1.04 5.27 1.46v.12c-.04-.02.08.19.17.27a14.7 14.7 0 0 0 1 .93 30.83 30.83 0 0 0 4.53 3.12c.27.15.55.24.83.39.28.15.51.4.64.7.25.59.15 1.25 0 1.84-.07.3-.17.59-.28.88-.07.14-.05.28-.2.44-.14.12-.32.11-.47.1-.31-.02-.62-.12-.9-.08-.27.04-.6.24-.59.49v.02c-.01.15.02.3.11.41.1.12.24.18.39.2.2.08.34.17.51.26l.5.26c.33.17.67.31 1.03.43.7.22 1.47.31 2.16.03l.24-.11.14-.07h.03c.03-.01.08.04.07.05 0 .03-.02.05-.03.07l-.05.06a8.45 8.45 0 0 1-1.4.96c-.32.19-.72.27-.9.58-.12.14-.06.32.02.48.08.15.22.27.39.3.4.04.79.18 1.18.22h-.02c.16-.02.28.06.39.03 1.46-.4 2.91-.83 4.34-1.34a17.81 17.81 0 0 0 4.1-1.93c.2-.1.4-.21.62-.28.21-.08.42-.17.64-.22.43-.14.87-.23 1.3-.32l.02.08a.4.4 0 0 0-.18.14h-.01a51.74 51.74 0 0 1-4.84 2.85l-.83.44a.82.82 0 0 0-.33.29c-.08.12-.1.28-.02.39h.01v.02c.06.24.28.4.53.45.24.06.5.03.77.05.51 0 1.03-.02 1.54-.1 1.02-.16 2.05-.3 3.06-.54 2.02-.44 4-1.06 5.94-1.8a44.34 44.34 0 0 0 10.8-6.07c.23-.25.54-.38.74-.62l.07.08c-.4.31-.73.7-1.11 1.06-.32.28-.6.6-.95.85-.33.27-.66.54-1.01.78-.69.5-1.4.97-2.13 1.4A60.4 60.4 0 0 1 75 86.78c-.8.32-1.6.6-2.4.85-.82.26-1.65.46-2.5.58-.33.07-.7.34-.63.68 0 .08.05.18.1.24.04.08.1.15.16.2.12.12.29.2.45.17h.01c.96-.06 1.92-.25 2.87-.44a83.97 83.97 0 0 0 13.8-4.53c.88-.4 1.76-.82 2.62-1.26.85-.45 1.69-.94 2.5-1.48l2.23-1.53c.74-.5 1.5-1 2.26-1.48.77-.48 1.54-.95 2.33-1.4.4-.2.78-.44 1.19-.64l1.22-.59c.7-.23 1.38-.46 2.08-.66.7-.22 1.41-.37 2.1-.56 1.4-.38 2.77-.85 4.07-1.5 1.3-.62 2.5-1.43 3.6-2.38.26-.24.54-.47.79-.73s.52-.5.75-.78c.5-.53.94-1.1 1.39-1.66l.43-.56-.28.65a21.57 21.57 0 0 1-3.26 4.94 69.4 69.4 0 0 1-4 4.35c-.67.73-1.45 1.36-2.17 2.02l-1.17.92c-.39.31-.81.56-1.22.85-.4.28-.85.5-1.27.76-.45.22-.89.45-1.36.62-.23.1-.47.17-.71.24-.25.05-.44.14-.6.3-.16.14-.3.38-.26.56.03.2.2.37.4.41l.04.01c.7.2 1.55.25 2.33.25a18.86 18.86 0 0 0 6.97-1.48 20.2 20.2 0 0 0 2.15-1.04c.7-.37 1.37-.82 2.04-1.25a72.98 72.98 0 0 0 3.85-2.85c1.24-1 2.42-2.1 3.26-3.46.85-1.34 1.4-2.86 1.97-4.35.27-.76.59-1.5.89-2.24a21.6 21.6 0 0 1 2.4-4.19c.46-.65 1-1.26 1.53-1.86l.55-.6-.36.73a41.5 41.5 0 0 0-1.41 3.19c-.2.54-.4 1.09-.56 1.64-.16.56-.3 1.13-.3 1.69l-.13-.12c.26-.02.52-.05.79-.02.26.01.55.16.73.15h.02c.25.05.48.05.68-.06.2-.11.39-.31.58-.48l1.16-1.01c.78-.69 1.58-1.33 2.37-2l.4-.35-.23.49-2.3 4.87c-.4.82-.74 1.64-1.11 2.46l-.55 1.23c-.09.2-.2.41-.18.59.01.18.14.32.33.4h.02v.01c.26.2.65.1.89-.13v-.01l6-4.39.52-.38-.35.54c-.78 1.19-1.57 2.37-2.4 3.53-.8 1.18-1.7 2.28-2.56 3.42l-1.37 1.63c-.46.55-.91 1.1-1.43 1.6-1.02 1-2.16 1.87-3.35 2.66a52.5 52.5 0 0 1-7.54 4c-1.3.57-2.62 1.11-3.95 1.62l-2 .74-2 .7h-.03c-.32.06-.58.38-.53.69v.04c-.03.15.02.3.13.4.12.1.28.14.44.11h.02a42.7 42.7 0 0 0 3.18-.33 62.46 62.46 0 0 0 9.37-2.06c.5-.16 1.02-.31 1.52-.5s1-.35 1.5-.56c.48-.21.99-.4 1.47-.63.47-.23.96-.44 1.43-.7 1.88-1 3.7-2.15 5.55-3.22l.84-.48-.7.68a99.58 99.58 0 0 1-3.49 3.29c-.6.53-1.2 1.05-1.84 1.55-.62.5-1.28.96-2 1.35a62.03 62.03 0 0 1-8.95 3.46c-1.53.47-3.08.88-4.64 1.24-.79.15-1.57.35-2.36.48-.79.14-1.57.28-2.37.38-.8.11-1.59.2-2.39.26-.8.09-1.6.1-2.4.13-.8.05-1.6-.01-2.4-.02-.8-.02-1.6-.13-2.4-.2a.88.88 0 0 0-.85.41.6.6 0 0 0-.02.47c.07.16.16.21.36.27a29.3 29.3 0 0 0 4.34 1.39c.37.08.74.17 1.11.23l1.13.18.49.08-.48.13c-.9.24-1.8.46-2.72.64a42.62 42.62 0 0 1-5.55.71c-.94.08-1.87.09-2.8.13-.94 0-1.87 0-2.8-.03l-2.8-.12-2.8-.1c-.92-.03-1.86-.13-2.78-.25-3.7-.5-7.37-1.13-11.04-1.78-3.67-.65-7.34-1.33-10.98-2.1l-.04-.01-.01-.04a6.48 6.48 0 0 0-1.86-2.45 14.12 14.12 0 0 0-2.55-1.78c-.18-.07-.39-.1-.57-.05a.78.78 0 0 0-.46.34v-.01c-.1.2-.16.44-.07.64.1.2.32.28.54.39a9.72 9.72 0 0 1 2.36 1.7c.18.16.33.36.5.54.16.18.28.4.42.59l.04.05-.06.03-.2.13v-.01c-.11.13-.2.3-.15.47.04.16.16.3.27.47l.65.94-.04-.03.17.03h.02l.01.02.07.1-.04-.03c.74.13 1.5.18 2.25.27l.18.02-.16.08c-.35.18-.71.27-1.06.4h-.01a.51.51 0 0 0-.42.37v.01a.51.51 0 0 0-.08.4c.02.14.12.25.2.38.1.12.18.25.3.33.1.09.25.15.38.22h-.02c.9.05 1.8-.15 2.67-.39l.18-.04-.13.13a3.4 3.4 0 0 1-.55.46c-.2.14-.43.23-.55.42-.12.17-.19.44-.08.62.1.18.33.33.54.31 1.06.02 2.12-.2 3.09-.63l.03-.02.02.03c.1.17.32.18.52.15l1.3-.04h.17l-.14.08-4.14 2.56-.76.51a27.62 27.62 0 0 1-2.42 1.31l-.1.07h-.04a53.44 53.44 0 0 1-8.88-5.91 24.2 24.2 0 0 1-3.73-3.8 12.03 12.03 0 0 1-1.39-2.29c-.18-.4-.33-.83-.44-1.26l-.13-.66-.04-.67.01.03a12.72 12.72 0 0 0-3.66-.35c-1.24.03-2.47.14-3.7.22a26.9 26.9 0 0 1-3.7.05 6.61 6.61 0 0 1-3.48-1.12zm.01-.02c1 .75 2.25 1.01 3.47 1.1 1.23.1 2.47.03 3.7-.06 1.23-.08 2.46-.19 3.7-.22 1.23-.03 2.48 0 3.68.34h.01v.02l.05.67.13.65c.11.43.26.85.44 1.25.36.81.85 1.56 1.38 2.27a24.16 24.16 0 0 0 3.73 3.8 53.36 53.36 0 0 0 8.88 5.88h-.04l.1-.06c.56-.26 1.1-.54 1.63-.84.26-.16.53-.3.79-.47l.75-.52 4.15-2.56.02.08-1.3.04c-.2.04-.47.03-.6-.18l.06.01c-.98.44-2.05.67-3.13.65h.01c-.27.02-.5-.15-.63-.36-.13-.25-.05-.52.08-.73.16-.22.39-.3.57-.44.2-.13.38-.28.54-.45l.05.08a8.6 8.6 0 0 1-2.7.4h-.01l-.01-.01c-.14-.07-.28-.14-.4-.24-.14-.09-.22-.23-.31-.35-.08-.12-.2-.24-.23-.41a.62.62 0 0 1 .1-.48l-.01.02a.62.62 0 0 1 .5-.45h-.01c.35-.13.72-.23 1.04-.4l.02.1c-.75-.07-1.5-.12-2.25-.25h-.03l-.01-.03-.07-.09.04.03-.16-.03h-.03v-.02l-.66-.94c-.1-.16-.24-.3-.3-.51-.05-.22.06-.43.2-.58l.21-.14-.02.08c-.14-.19-.25-.4-.41-.57-.17-.18-.31-.37-.5-.53a9.6 9.6 0 0 0-2.33-1.67c-.2-.1-.46-.2-.59-.45-.12-.26-.04-.54.07-.75v-.01a.92.92 0 0 1 .54-.4c.22-.05.45 0 .66.06.93.51 1.8 1.11 2.58 1.8.79.7 1.51 1.5 1.9 2.5l-.05-.04c3.64.77 7.31 1.44 10.98 2.1 3.67.63 7.34 1.26 11.03 1.75.93.12 1.85.22 2.78.24l2.8.1 2.78.12c.93.03 1.86.02 2.8.02.92-.04 1.85-.05 2.78-.13.93-.06 1.85-.14 2.77-.27.93-.1 1.84-.28 2.76-.44.9-.18 1.81-.4 2.7-.65l.02.2-1.13-.17c-.38-.06-.75-.16-1.13-.23a28.72 28.72 0 0 1-4.36-1.39c-.16-.04-.44-.18-.5-.4a.83.83 0 0 1 .02-.65c.1-.2.28-.34.47-.43.19-.09.4-.14.63-.1h-.01c.8.06 1.58.16 2.38.19.8 0 1.6.06 2.39.01.8-.03 1.6-.05 2.38-.13.8-.06 1.6-.15 2.38-.27.8-.1 1.57-.24 2.36-.38.79-.13 1.56-.32 2.34-.48a66.78 66.78 0 0 0 13.54-4.67c.69-.38 1.35-.83 1.96-1.33.63-.49 1.23-1.01 1.83-1.54a98.1 98.1 0 0 0 3.48-3.28l.15.19c-1.85 1.07-3.66 2.2-5.55 3.23-.48.25-.97.46-1.45.7-.48.24-1 .42-1.48.63-.5.21-1 .38-1.51.56-.5.2-1.02.35-1.53.5a56.1 56.1 0 0 1-9.41 2.07c-1.07.14-2.12.27-3.21.33h.03a.74.74 0 0 1-.65-.16.69.69 0 0 1-.2-.63v.04c-.08-.46.29-.88.71-.96l-.03.01 2.03-.7 2-.74c1.32-.5 2.63-1.04 3.93-1.62a52.09 52.09 0 0 0 7.5-3.98 21.62 21.62 0 0 0 3.33-2.62c.5-.5.95-1.04 1.4-1.58l1.38-1.63c.85-1.14 1.75-2.23 2.55-3.4.83-1.16 1.61-2.34 2.4-3.53l.16.16-5.99 4.38h.01c-.15.13-.34.24-.55.28-.21.04-.45 0-.63-.14l.03.02c-.24-.08-.46-.32-.48-.6-.02-.28.11-.48.2-.69l.55-1.23c.37-.82.72-1.65 1.1-2.46l2.32-4.88.18.14c-.79.66-1.59 1.3-2.36 1.99l-1.16 1.02c-.2.16-.37.35-.62.5a1.2 1.2 0 0 1-.83.09h.03c-.17.01-.3-.05-.42-.08a1.73 1.73 0 0 0-.35-.07c-.24-.03-.49 0-.74.02l-.13.02v-.13c0-.6.15-1.19.31-1.75.17-.56.36-1.12.57-1.66.43-1.1.9-2.16 1.42-3.21l.19.13a20.95 20.95 0 0 0-3.9 5.98c-.3.74-.61 1.47-.88 2.23-.57 1.5-1.12 3.02-2 4.4a14.43 14.43 0 0 1-3.3 3.5c-1.25 1.01-2.56 1.94-3.87 2.86-.68.44-1.35.9-2.06 1.26a20.52 20.52 0 0 1-6.82 2.36c-.8.13-1.6.17-2.4.18a9.1 9.1 0 0 1-2.44-.28l.03.01a.74.74 0 0 1-.57-.58c-.04-.32.13-.55.32-.74.18-.18.46-.3.7-.35.22-.06.46-.13.68-.23.46-.16.9-.4 1.33-.6.42-.26.87-.47 1.27-.76.4-.28.82-.53 1.2-.83l1.16-.91c.73-.67 1.5-1.29 2.16-2a69.8 69.8 0 0 0 4-4.35 21.38 21.38 0 0 0 3.24-4.89l.15.09c-.44.57-.9 1.14-1.4 1.68-.23.27-.5.52-.75.78-.26.26-.54.49-.81.74-1.1.95-2.32 1.77-3.63 2.4-1.31.65-2.7 1.12-4.1 1.5-.7.2-1.4.34-2.1.56-.7.2-1.38.43-2.07.66h.01l-1.22.58c-.4.2-.79.43-1.18.64-.79.43-1.55.91-2.32 1.39-.76.48-1.52.97-2.27 1.47l-2.23 1.53c-.8.54-1.65 1.03-2.51 1.48-.87.45-1.75.86-2.63 1.26a84.45 84.45 0 0 1-11 3.84c-.94.25-1.88.48-2.83.69-.96.19-1.91.38-2.89.44-.2.04-.41-.06-.56-.2a1.08 1.08 0 0 1-.18-.23.86.86 0 0 1-.11-.28.62.62 0 0 1 .21-.56c.15-.14.33-.23.53-.27.84-.12 1.66-.31 2.47-.57a34.1 34.1 0 0 0 2.4-.84 61.46 61.46 0 0 0 9.14-4.47c.72-.44 1.44-.9 2.12-1.4.36-.24.68-.5 1.01-.77.34-.26.63-.57.94-.85.38-.35.72-.75 1.12-1.07l.07.07c-.23.26-.54.4-.74.63h-.01c-.83.63-1.68 1.23-2.54 1.8a44.65 44.65 0 0 1-8.3 4.26 39.7 39.7 0 0 1-5.95 1.8c-1.01.24-2.04.4-3.07.55-.51.08-1.03.1-1.55.1-.26-.02-.52.02-.79-.05-.26-.05-.51-.24-.58-.51v.02c-.12-.15-.07-.35.01-.49a.91.91 0 0 1 .36-.32l.83-.44c.55-.29 1.1-.58 1.64-.9a51.38 51.38 0 0 0 3.19-1.94l-.01.01a.48.48 0 0 1 .24-.17l.01.09c-.43.09-.87.18-1.3.32-.22.05-.42.14-.63.21-.21.07-.4.2-.6.28-1.26.88-2.7 1.42-4.12 1.94-1.43.52-2.88.96-4.35 1.36-.16.02-.29-.06-.39-.04h-.01c-.41-.04-.8-.17-1.19-.21a.68.68 0 0 1-.46-.36c-.1-.16-.15-.4-.02-.58.23-.35.64-.43.95-.62a8.43 8.43 0 0 0 1.36-.94c.05-.02.03-.1.09 0-.03 0-.08.04-.12.06l-.26.12c-.71.3-1.52.19-2.23-.03-.36-.12-.7-.27-1.04-.43l-.5-.26c-.16-.09-.33-.2-.48-.26a.68.68 0 0 1-.45-.23.66.66 0 0 1-.14-.5v.02c0-.4.4-.56.68-.63.33-.04.63.07.93.09.14.01.3 0 .39-.08.08-.07.1-.26.17-.4.1-.28.2-.57.28-.86.14-.58.23-1.22 0-1.77-.12-.27-.33-.5-.6-.64-.25-.14-.55-.24-.82-.4a30.95 30.95 0 0 1-5.25-3.73 4.89 4.89 0 0 1-.47-.52.38.38 0 0 1-.06-.12c-.02-.06.03-.15.1-.16v.12a54.43 54.43 0 0 1-5.29-1.46 18.4 18.4 0 0 1-2.53-1.05c-.4-.22-.8-.46-1.16-.75-.35-.3-.7-.67-.77-1.16v-.01a1.6 1.6 0 0 1 .34-1.13c.26-.32.63-.51 1-.65.72-.26 1.37-.7 2.03-1.1 1.29-.86 2.52-1.81 3.75-2.77 2.44-1.92 4.82-3.92 7.18-5.95a382.6 382.6 0 0 0 10.43-9.32c1.14-1.07 2.34-2.05 3.5-3.1l14-12.34a22.43 22.43 0 0 1 4.08-2.29 66.21 66.21 0 0 1 4.32-1.78c1.46-.54 2.94-1.03 4.41-1.53l4.47-1.35.04.22c-5.17.1-10.4.77-15.23 2.67a22.7 22.7 0 0 0-3.46 1.73c-1.1.67-2.12 1.47-3.03 2.39-.45.46-.86.96-1.33 1.43-.45.46-.93.9-1.42 1.34-.97.86-1.97 1.69-3 2.5-4.08 3.2-8.32 6.2-12.6 9.14-2.15 1.47-4.3 2.91-6.48 4.34-2.17 1.42-4.34 2.84-6.57 4.18-.36.35-.72.77-1.07 1.16l-1.07 1.2-2.1 2.4-4.21 4.83c-.7.8-1.4 1.6-2.13 2.4-.34.43-.87.64-1.31.92-.47.26-.95.5-1.44.72-1.94.86-4.17 1.3-6.27.73h.01-.13.01c-.9.2-1.8.49-2.65.88-.42.2-.83.41-1.22.68-.18.14-.43.25-.68.25-.24 0-.48-.04-.7-.14-.23-.16-.28-.47-.17-.7.1-.23.32-.36.5-.5.4-.25.83-.44 1.23-.66l.03.1-3.32.64c-.55.1-1.1.24-1.65.35-.28.05-.55.16-.85.13-.28-.04-.59-.14-.75-.41V70.24l.05.04-1.7.46h-.14c-.6.12-1.21.24-1.82.38-.17.05-.35.1-.53.09-.41.1-.83.2-1.24.33-.42.1-.8.28-1.2.44-.4.18-.8.32-1.19.53-.39.18-.74.43-1.1.66l-.01-.07c.7.25 1.42.48 2.1.8.34.15.65.38.9.66.26.27.48.58.7.89.4.62.75 1.3 1.1 1.95.07.17.2.3.25.5 0 .15-.15.17-.23.19a3 3 0 0 1-.28.04l-1.11.1v-.05a12.73 12.73 0 0 1 2.59.85c.42.18.83.38 1.26.5.43.16.88.23 1.31.37.87.28 1.7.66 2.52 1.05a37.68 37.68 0 0 1 4.7 2.75c.37.27.73.55 1.05.87.31.33.6.7.85 1.07.5.76.98 1.53 1.59 2.2.59.7 1.29 1.28 1.99 1.85z"/></g><path d="M16.4 72.47c-.15 0-1.4-.18-3.71 1.1-.3.22-.53.6-.24.82.3.32.75.33 1.18.12.44-.22.3-.1.58-.32.15.75 1.02 1.28 2.18 1.28 1.16 0 2.18-.75 2.18-1.6 0-.76-1.02-1.4-2.18-1.4zm-.46 1.26c.16-.31.56-.5.78-.39l.46.24-.33.63c-.17.32-.56.5-.8.38-.22-.11-.28-.55-.11-.86z"/></svg>