<svg xmlns="http://www.w3.org/2000/svg" viewBox="0 0 60 60"><path fill="#FFC766" d="M47.9 57.7c-2.8 2.2-18-9.6-18-9.6s-15.6 10.7-18.1 9.4c-2.5-1.3 3.5-20 3.5-20S0 25.5.8 23c.8-2.5 20.2-2.8 20.2-2.8S27.3 1.9 30 2s9 18.4 9 18.4 19.3.6 20.1 3c.8 2.4-14.7 14.2-14.7 14.2s6.2 17.9 3.4 20z"/><path fill="#FFEE8A" d="M42.2 48.9c-2 1.5-12.3-6.6-12.3-6.6s-10.6 7.3-12.3 6.4C15.9 48 20 35 20 35s-10.5-8-9.9-9.7c.6-1.7 13.8-2 13.8-2S28.2 11 30 11c1.9 0 6 12.4 6 12.4s13.2.5 13.8 2.1c.5 1.6-10 9.7-10 9.7s4.2 12.1 2.3 13.6z"/></svg>