<svg xmlns="http://www.w3.org/2000/svg" viewBox="0 0 40 40"><g fill="#FBB03B"><path d="M19.473 11.771c.359.192.813.167 1.151-.058l6.843-4.598a1.116 1.116 0 0 0 0-1.859L20.624.66a1.125 1.125 0 0 0-1.151-.059 1.114 1.114 0 0 0-.592.989v3.515A17.19 17.19 0 0 0 2.768 22.297c0 9.502 7.729 17.232 17.232 17.232 9.504 0 17.232-7.73 17.232-17.232 0-4.603-1.793-8.932-5.046-12.185a1.123 1.123 0 0 0-1.587 1.585 14.894 14.894 0 0 1 4.392 10.602c0 8.266-6.726 14.99-14.991 14.99S5.009 30.564 5.009 22.299c0-7.879 6.062-14.373 13.872-14.951v3.433c0 .416.224.794.592.99zm1.647-3.093V3.692l3.712 2.493-3.712 2.493z"/><path d="M19.507 11.678c.515.239.951.074 1.395-.281l1.335-.906 2.666-1.817 1.325-.921c.427-.311.918-.606 1.29-.93.133-.165.24-.359.239-.59a.965.965 0 0 0-.054-.342.78.78 0 0 0-.154-.265c-.127-.151-.363-.284-.596-.432l-.683-.431-5.456-3.451-.341-.215-.083-.053-.011-.007-.005-.003.048.028-.023-.01-.046-.021-.184-.083c-.109.008-.259-.03-.407.059l-.054.02-.007.002a.95.95 0 0 1 .052-.033L19.748 1l-.02.015-.04.031-.16.123c-.031.079-.044.063-.072.148-.071.138-.05.245-.049.563l.093 3.225.016.555-.596.064c-3.565.379-6.979 1.82-9.619 4.177-2.627 2.348-4.544 5.5-5.281 8.955-.172.862-.34 1.734-.365 2.619l-.041.662c-.026.131.008.436.009.646.026.458.02.941.063 1.38.146 1.702.622 3.477 1.328 5.1 1.397 3.294 3.983 6.053 7.114 7.857 1.574.903 3.322 1.481 5.107 1.813.893.189 1.805.227 2.716.272.892-.038 1.859-.049 2.73-.219 3.61-.521 6.978-2.401 9.479-5.026 1.277-1.3 2.269-2.86 3.01-4.508.73-1.652 1.244-3.408 1.399-5.205.065-.445.04-.899.065-1.348.004-.213.02-.475.014-.647l-.048-.694c-.033-.954-.211-1.792-.375-2.661-.391-1.748-1.112-3.401-2.024-4.919-.438-.774-.999-1.466-1.546-2.161l-.908-.972-.112-.122-.028-.03c.112.102.012.013.027.028l-.068-.054c-.141-.118-.044-.003-.07-.036a.292.292 0 0 0-.178.002.265.265 0 0 0-.188.254.272.272 0 0 0 .045.151l.369.4a15.626 15.626 0 0 1 1.835 2.283c2.188 3.286 3.027 7.45 2.353 11.325-.655 3.938-2.822 7.57-5.993 9.988-3.125 2.432-7.28 3.647-11.159 3.231-4.045-.386-7.771-2.305-10.382-5.291a15.49 15.49 0 0 1-3.866-10.841c.121-3.835 1.774-7.643 4.461-10.327a15.69 15.69 0 0 1 10.078-4.589l.141-.009-.001.138-.015 2.321-.003.58-.002.29c.002.09-.007.208.003.275.01.207.068.364.148.508.056.067.106.14.165.205l.213.156-.013-.003zm-.082.182l-.257-.184c-.073-.075-.135-.162-.202-.243a1.35 1.35 0 0 1-.186-.589c-.016-.125-.005-.201-.009-.304l-.002-.29-.003-.58-.015-2.321.139.129c-3.681.293-7.19 2.072-9.579 4.814-2.423 2.725-3.725 6.301-3.613 9.909.092 3.502 1.519 6.973 3.905 9.502 2.358 2.543 5.716 4.191 9.084 4.471 3.534.305 7-.722 9.757-2.829 2.743-2.087 4.717-5.221 5.326-8.612.655-3.439-.026-7.085-1.916-10.029-.47-.718-.943-1.384-1.604-2.091l-.23-.261-.124-.147c-.063-.081-.133-.158-.184-.248a1.97 1.97 0 0 1-.286-1.177 1.96 1.96 0 0 1 2.651-1.696c.182.063.5.268.528.31l.067.056.095.084.03.034.121.136.965 1.093c.583.777 1.171 1.553 1.63 2.411a17.542 17.542 0 0 1 1.989 5.425c.147.96.294 1.958.285 2.867l.02.697c-.001.291-.029.493-.042.744-.046.478-.043.959-.127 1.432-.513 3.804-2.301 7.38-4.956 10.087a18.3 18.3 0 0 1-4.539 3.378c-1.676.896-3.505 1.435-5.376 1.762-3.719.651-7.648-.008-11.054-1.7-3.376-1.747-6.278-4.555-7.945-8.055-.843-1.747-1.439-3.579-1.694-5.577-.068-.482-.075-.932-.11-1.4-.007-.254-.044-.413-.028-.746l.026-.729c.007-.975.165-1.943.335-2.902.769-3.839 2.909-7.365 5.878-9.893C11.15 6.05 15 4.646 18.841 4.487l-.58.618.093-3.227c.012-.211-.005-.672.2-1.011.064-.169.265-.372.398-.499l.167-.113.042-.028.021-.014.005-.003a.865.865 0 0 1 .064-.039l.017-.007.135-.05c.344-.155.768-.133 1.167.009l.179.094.045.023.022.011.064.038.01.007.083.059.329.234 5.257 3.746.657.468c.208.155.454.292.667.557.099.124.177.269.223.441.049.179.053.241.05.451-.006.314-.172.624-.393.852-.453.366-.903.608-1.355.917l-1.354.879-2.689 1.782-1.343.894c-.214.143-.446.323-.742.388-.281.091-.617-.002-.842-.098l-.013-.006z"/><path d="M21.021 8.678c-.277-.416-.432-.831-.556-1.247a5.872 5.872 0 0 1-.227-1.246 2.968 2.968 0 0 1 .119-1.247c.127-.416.312-.831.402-1.247l.157-.719.405.419c.53.547 1.244.821 2.005 1.025.766.196 1.413.568 2.084.906l1.274.641-1.274 1.083c-.571.485-1.227.847-1.93 1.136a10.46 10.46 0 0 1-1.096.374c-.195.043-.381.101-.589.126-.204.03-.4.072-.62.079l-.099.003-.055-.086zm.043-.083c.09-.201.203-.366.308-.544.102-.182.226-.333.339-.497.241-.311.496-.599.761-.873.534-.542 1.116-1.012 1.782-1.357v1.722c-.566-.493-1.156-.951-1.628-1.586-.477-.626-1-1.184-1.707-1.467l.563-.3c.091.416.275.831.402 1.247.138.416.159.831.119 1.247a5.852 5.852 0 0 1-.228 1.246c-.124.416-.278.831-.556 1.247l-.155-.085z"/></g></svg>