<svg xmlns="http://www.w3.org/2000/svg" viewBox="0 0 140 140"><ellipse fill="#91D9ED" cx="70.08" cy="61.13" rx="65.08" ry="54.63"/><path fill="#3FA9F5" d="M0 118h140v22H0z"/><ellipse fill="#3FA9F5" cx="70.25" cy="115.75" rx="70.25" ry="27.5"/><path fill="gray" d="M115 140H35.17s-27.5-13.5-16.5-30S69 94 69 94s22-9.33 25-6.33S115 140 115 140z"/><path fill="#666" d="M45 141h47s3.67-51.5 0-56-57.17 13.33-57.17 13.33L45 141z"/><ellipse fill="#39B54A" stroke="#000" stroke-miterlimit="10" cx="69.33" cy="85.49" rx="2.13" ry="2.05"/><path fill="#C1272D" d="M86.69 67.88l-6.6-10.07-16.83-8.15-1.1-8.56 1.88-7.43s3.49-6.08 3.65-8.46c.06-.85-1.87-4.22-3.15-4.13-6.07.42-3.95 5.44-3.95 5.44S54 15.25 64.04 14.42c9.95-.81 15.35 3.82 21.85 9.96 8.12 7.64 11.8 12.48 14.18 16.71 2.37 4.24.5 11.9-.82 15.26-1.33 3.35-3.14 6.55-5.27 8.85-2.14 2.3-7.3 2.68-7.3 2.68z"/><path d="M88.04 68.08a4.73 4.73 0 0 1-3.9-2.02c-1.33-1.93-1.58-3.72-1.89-5.78a18.9 18.9 0 0 0-3.37-9.1.58.58 0 1 1 .96-.66 19.9 19.9 0 0 1 3.57 9.58c.29 2 .52 3.59 1.7 5.3a3.55 3.55 0 0 0 4.36 1.22c.7-.3 1.23-.83 1.51-1.53a2.8 2.8 0 0 0-.03-2.14c-.22-.5-.63-.9-1.16-1.12a2.43 2.43 0 0 0-1.67.01.58.58 0 1 1-.36-1.1 3.31 3.31 0 0 1 4.27 1.76 3.97 3.97 0 0 1-2.1 5.2c-.59.25-1.23.38-1.89.38zM62.15 41.1h-.05a.59.59 0 0 1-.53-.64c.44-4.83 2.1-7.5 3.43-9.65 1.06-1.72 1.9-3.07 2.1-5.14a3.56 3.56 0 0 0-2.56-3.74 2.74 2.74 0 0 0-2.14.2 2.8 2.8 0 0 0-1.35 1.65c-.16.53-.1 1.1.17 1.62.24.45.69.82 1.28 1.05a.58.58 0 0 1-.43 1.09 3.3 3.3 0 0 1-2.14-4.1 3.96 3.96 0 0 1 4.95-2.63 4.76 4.76 0 0 1 3.38 4.97c-.22 2.33-1.17 3.87-2.27 5.64-1.27 2.05-2.84 4.58-3.26 9.14a.58.58 0 0 1-.58.53z"/><circle fill="#3FA9F5" cx="57.67" cy="46.61" r="1.26"/><circle fill="#3FA9F5" cx="50.81" cy="40.51" r="1.26"/><circle fill="#3FA9F5" cx="54.6" cy="25.84" r="1.26"/><linearGradient id="a" gradientUnits="userSpaceOnUse" x1="69.51" y1="56.91" x2="69.51" y2="113.59"><stop offset=".01" stop-color="#d6958a"/><stop offset=".12" stop-color="#e1a38c"/><stop offset=".25" stop-color="#e9ad8d"/><stop offset=".29" stop-color="#ddae88"/><stop offset=".35" stop-color="#bdaf7c"/><stop offset=".45" stop-color="#89b168"/><stop offset=".56" stop-color="#41b54d"/><stop offset=".57" stop-color="#39b54a"/><stop offset=".72" stop-color="#4a8265"/><stop offset=".91" stop-color="#5e4585"/><stop offset="1" stop-color="#662d91"/></linearGradient><path fill="url(#a)" d="M98.3 89.1c-6.27 0-11.4 4.9-11.75 11.1a15.95 15.95 0 0 0 7.96 3.48c-.16-.87-.27-1.74-.3-2.63h.01v-.18a4.1 4.1 0 1 1 4.58 4.06v.01a17.32 17.32 0 0 1-19.04-13.88L75.28 65.3l1.11-.2 3.84 21.8a2.77 2.77 0 0 0 5.45-.96l-4.31-24.47a5.53 5.53 0 0 0-5.45-4.57h-12.9a5.53 5.53 0 0 0-5.46 4.57l-4.31 24.47a2.77 2.77 0 0 0 5.45.96l3.84-21.8 1.2.21-4.48 25.74a17.32 17.32 0 0 1-19.04 13.88 4.1 4.1 0 1 1 4.58-4.07v.18c-.03.88-.13 1.76-.3 2.62 2.95-.4 5.7-1.61 7.96-3.48a11.78 11.78 0 1 0-15.98 11.67v.01a25.46 25.46 0 0 0 32.82-14.2l.4-.06a25.46 25.46 0 0 0 32.83 14.26v-.01a11.78 11.78 0 0 0-4.22-22.76zm-28.8-2.85a.78.78 0 1 1 .01-1.56.78.78 0 0 1 0 1.56z"/><linearGradient id="b" gradientUnits="userSpaceOnUse" x1="26.62" y1="97.5" x2="26.62" y2="124.89"><stop offset="0" stop-color="#39b54a"/><stop offset=".08" stop-color="#43975a"/><stop offset=".19" stop-color="#4e776b"/><stop offset=".3" stop-color="#575c79"/><stop offset=".43" stop-color="#5d4783"/><stop offset=".57" stop-color="#62388b"/><stop offset=".74" stop-color="#653090"/><stop offset="1" stop-color="#662d91"/></linearGradient><path fill="url(#b)" d="M45.74 114.84a26.7 26.7 0 0 1-7.23-1A17.33 17.33 0 0 1 14.54 112a4.1 4.1 0 1 1 6.1.03c-.65.73-1.36 1.4-2.12 1.98a16.07 16.07 0 0 0 8.24 2.69 11.77 11.77 0 1 0-17.27 1.12 25.46 25.46 0 0 0 37.91-3.03c-.55.04-1.1.06-1.66.06z"/><path fill="#662D91" d="M137 116.5a17.94 17.94 0 0 1-5.9 1.09 26.77 26.77 0 0 1-6.27 4.92c4.32.26 8.94-.9 13.17-3.79l-1-2.22z"/><linearGradient id="c" gradientUnits="userSpaceOnUse" x1="112.4" y1="97.5" x2="112.4" y2="124.89"><stop offset="0" stop-color="#39b54a"/><stop offset=".08" stop-color="#43975a"/><stop offset=".19" stop-color="#4e776b"/><stop offset=".3" stop-color="#575c79"/><stop offset=".43" stop-color="#5d4783"/><stop offset=".57" stop-color="#62388b"/><stop offset=".74" stop-color="#653090"/><stop offset="1" stop-color="#662d91"/></linearGradient><path fill="url(#c)" d="M125.44 98.21a11.78 11.78 0 0 0-13.18 18.48 16.06 16.06 0 0 0 8.23-2.69c-.75-.59-1.46-1.25-2.12-1.98a4.1 4.1 0 1 1 6.1-.03 17.33 17.33 0 0 1-23.97 1.85 26.7 26.7 0 0 1-8.9.95 25.46 25.46 0 0 0 37.91 3.04l.01-.02a11.78 11.78 0 0 0-4.09-19.6z"/><path fill="#662D91" d="M7.92 117.59a17.93 17.93 0 0 1-5.9-1.1l-1 2.23a21.05 21.05 0 0 0 13.17 3.8 26.84 26.84 0 0 1-5.38-3.99l-.89-.94z"/><path d="M99.59 51.53c-.73-1.54-1.23-2.38-3.83-3.22-1.4-.46-4.98-.3-8.77-.15-3.05.13-6.22.27-7.93.05a19.5 19.5 0 0 1-11.93-5.98.58.58 0 1 0-.84.8l.1.1a6.97 6.97 0 0 0-1.3 7.48l-.02-.03a8.05 8.05 0 0 1-1.2-6.08 8.06 8.06 0 0 1 3.45-5.16 8 8 0 0 1 3.2-1.32c1.78-.3 3.75-.22 5.64-.15h.1c3.11.12 6.33.25 8.71-1.33a4.53 4.53 0 0 0 2.04-3.15 3.87 3.87 0 0 0-3.19-4.44 3.21 3.21 0 0 0-3.66 2.56l-.02.1a2.68 2.68 0 0 0 2.22 3.08.58.58 0 0 0 .19-1.15 1.52 1.52 0 0 1-1.26-1.73l.02-.08a2.05 2.05 0 0 1 2.33-1.62 2.7 2.7 0 0 1 2.22 3.1 3.4 3.4 0 0 1-1.54 2.36c-2.06 1.37-5.09 1.25-8.02 1.14h-.1c-1.95-.08-3.97-.16-5.88.17a9.13 9.13 0 0 0-3.66 1.5 9.2 9.2 0 0 0-3.94 5.9 9.2 9.2 0 0 0 1.38 6.96c1.29 1.93 4 6.33 6.55 6.52.28.04.57.06.87.06 3.37 0 6.19-5.35 6.84-8.53l.55.08c1.81.24 5.02.1 8.13-.04 3.52-.15 7.16-.3 8.36.1 2.24.72 2.52 1.3 3.13 2.6.43.9.48 1.92.14 2.88a3.72 3.72 0 0 1-1.92 2.13 2.89 2.89 0 0 1-3.84-1.37 2.2 2.2 0 0 1 1.04-2.94.58.58 0 0 0-.5-1.05 3.36 3.36 0 0 0-1.6 4.5 4.07 4.07 0 0 0 5.4 1.91 4.88 4.88 0 0 0 2.52-2.8 4.87 4.87 0 0 0-.18-3.76z"/><path fill="#D6958A" d="M66 51h8v8h-8z"/><path fill="#E9AD8D" d="M70.65 57.76c.28.04.82.04 1.11.04 3.62 0 9.01-9.37 7.3-9.59a19.5 19.5 0 0 1-11.93-5.98.58.58 0 1 0-.84.8l.1.1a6.97 6.97 0 0 0-1.3 7.48l-.02-.03s2.27 6.87 5.58 7.18z"/><ellipse fill="#1A1A1A" cx="71.99" cy="54.33" rx=".99" ry="1.67"/><ellipse transform="rotate(24.24 69.7 48.07)" fill="#FFF" cx="69.7" cy="48.07" rx="1.36" ry=".72"/><path fill="#FFF" d="M76.77 48.82c.03.26-.48.54-1.16.62-.67.08-1.24-.07-1.27-.33-.03-.27.48-.55 1.16-.62.67-.08 1.24.07 1.27.33z"/><ellipse transform="rotate(24.24 70.1 48.11)" fill="#C1272D" cx="70.09" cy="48.11" rx=".82" ry=".43"/><ellipse fill="#C1272D" cx="75.85" cy="48.87" rx=".6" ry=".31"/><path fill="#D6958A" d="M71.54 50.9s.51-.09 1.01-.12c.13-.01.26-.04.38-.04.11.01.22.05.31.09.18.08.3.19.3.19v.05s-.13.1-.32.15c-.1.02-.21.05-.33.04-.11-.01-.24-.05-.36-.08-.5-.1-.99-.24-.99-.24v-.05z"/></svg>