<svg xmlns="http://www.w3.org/2000/svg" viewBox="0 0 24 24"><path fill="none" stroke="#FAFFFF" stroke-width="2" stroke-linecap="round" stroke-linejoin="round" d="M11 5L6 9H2v6h4l5 4z"/><path fill="#FAFFFF" d="M14.08 8.2s.43.36.85 1.01a5.8 5.8 0 0 1 .82 1.95c.08.25.07.58.08.88v.08l-.01.03v.04l-.03.1-.03.17-.08.36c-.05.24-.1.47-.2.7-.2.47-.38.92-.6 1.24-.39.66-.8 1.03-.8 1.03s-.06-.55-.01-1.3c.02-.37.04-.77.1-1.2.04-.2.05-.44.07-.68l.05-.36.04-.3c-.01-.2.02-.36-.02-.59l-.06-.64-.13-1.22c-.07-.74-.04-1.3-.04-1.3zM16.67 6.7s.58.5 1.21 1.4a9.45 9.45 0 0 1 1.35 2.67c.13.35.15.82.19 1.25-.08.5-.09.72-.24 1.16a10.35 10.35 0 0 1-1.34 2.7c-.61.9-1.17 1.41-1.17 1.41s.11-.74.4-1.77l.46-1.74c.1-.31.16-.61.23-.9.08-.22.12-.72.16-.92-.04-.28-.01-.53-.1-.85l-.1-.46-.13-.46c-.15-.62-.34-1.2-.48-1.72-.3-1.02-.44-1.76-.44-1.76zM19.88 5.44s.6.67 1.23 1.83c.16.3.33.61.47.96.17.35.32.72.45 1.12a7.85 7.85 0 0 1 .44 1.99c0 .26.03.45.02.79-.08.43-.1.83-.25 1.3a15.14 15.14 0 0 1-1.38 3.3c-.65 1.15-1.24 1.83-1.24 1.83s.13-.89.43-2.14l.5-2.13c.1-.39.18-.77.26-1.14.1-.35.13-.81.2-1.23-.02-.1-.02-.34-.02-.5 0-.18-.01-.37-.05-.57-.06-.38-.1-.77-.19-1.15-.13-.77-.31-1.5-.45-2.12a39.03 39.03 0 0 1-.43-2.14z"/></svg>